<svg version="1.0" xmlns="http://www.w3.org/2000/svg"
 width="887.000000pt" height="887.000000pt" viewBox="0 0 887.000000 887.000000"
 preserveAspectRatio="xMidYMid meet">
<metadata>
Created by potrace 1.16, written by Peter Selinger 2001-2019
</metadata>
<g transform="translate(0.000000,887.000000) scale(0.100000,-0.100000)"
fill="#000000" stroke="none">
<path d="M1640 8390 c-11 -11 -20 -31 -20 -44 0 -20 -6 -24 -47 -30 -26 -3
-57 -15 -69 -27 l-21 -20 -39 23 c-36 21 -48 23 -169 20 -94 -2 -134 -7 -144
-17 -12 -12 -19 -12 -45 2 -39 20 -158 22 -213 4 -32 -10 -46 -11 -56 -3 -17
14 -326 16 -342 2 -8 -7 -34 -4 -78 7 -56 15 -74 16 -123 5 -103 -21 -154 -83
-154 -186 0 -96 42 -159 126 -186 52 -17 155 -7 199 19 l36 21 30 -23 c29 -20
40 -22 162 -20 160 2 112 2 477 -2 258 -3 309 -1 328 12 21 13 27 13 55 0 22
-11 67 -15 144 -16 95 0 116 3 135 19 21 16 25 17 52 3 40 -21 132 -28 184
-14 154 42 183 267 44 349 -39 23 -58 27 -117 27 -47 0 -81 -6 -102 -18 l-33
-18 0 44 c0 23 -7 53 -16 65 -13 19 -24 22 -90 22 -61 0 -78 -4 -94 -20z m140
-220 l0 -180 -39 0 c-26 0 -41 5 -45 16 -5 14 -8 14 -28 0 -29 -20 -92 -20
-123 0 -63 41 -60 209 4 244 25 13 87 13 112 0 18 -10 19 -7 19 45 l0 55 50 0
50 0 0 -180z m-1401 84 c39 -8 81 -50 81 -80 0 -22 -4 -24 -43 -24 -32 0 -45
5 -55 21 -10 15 -21 19 -45 17 -28 -3 -33 -8 -41 -40 -14 -57 4 -88 50 -88 27
0 37 5 41 20 4 16 14 20 49 20 38 0 44 -3 44 -21 0 -55 -53 -89 -140 -89 -82
0 -125 30 -141 97 -27 120 62 194 200 167z m663 -4 c53 -15 68 -42 68 -123 0
-51 4 -69 15 -73 9 -4 15 -19 15 -35 0 -28 -2 -29 -48 -29 -26 0 -53 5 -59 11
-9 9 -20 9 -43 -1 -16 -7 -52 -12 -78 -12 -54 1 -82 26 -82 71 0 57 53 91 143
91 40 0 49 17 21 41 -14 11 -21 10 -46 -4 -16 -9 -47 -17 -69 -17 -31 0 -39 4
-39 18 0 22 36 58 65 65 36 9 99 7 137 -3z m219 -12 c3 -5 22 -2 42 7 51 21
81 19 114 -9 27 -23 28 -28 31 -135 l4 -111 -51 0 -51 0 0 90 c0 77 -3 91 -19
99 -36 20 -50 -6 -53 -99 l-3 -85 -47 -3 -48 -3 0 130 c0 92 3 130 12 133 17
6 62 -3 69 -14z m807 1 c48 -30 68 -130 37 -189 -22 -42 -63 -60 -136 -60 -58
0 -63 2 -100 39 -35 34 -39 44 -39 87 0 61 15 92 60 122 30 21 44 23 96 19 33
-2 70 -11 82 -18z m-1458 -78 c0 -79 2 -90 19 -96 10 -3 26 -3 35 1 17 6 17 9
21 114 l3 65 46 3 46 3 0 -130 0 -131 -40 0 c-29 0 -40 4 -40 15 0 18 -1 18
-36 0 -35 -18 -93 -19 -115 -2 -31 23 -39 56 -39 151 l0 96 50 0 50 0 0 -89z"/>
<path d="M4212 8394 c-15 -11 -22 -25 -22 -50 l0 -34 -48 0 c-26 0 -54 -6 -60
-12 -10 -10 -17 -10 -32 0 -11 7 -53 12 -93 12 -77 0 -107 -15 -107 -53 0 -30
109 -302 127 -314 17 -13 129 -18 158 -7 8 4 23 21 32 38 l17 31 6 -25 c3 -14
17 -30 30 -37 34 -17 119 -16 153 2 24 12 32 12 62 -1 42 -17 137 -18 186 0
30 11 41 11 60 0 32 -18 127 -17 162 1 23 12 33 12 60 1 23 -9 113 -13 331
-14 360 -2 344 -7 348 100 3 71 4 73 30 76 41 5 58 37 58 108 0 93 -12 100
-158 96 -82 -3 -119 -8 -129 -18 -12 -12 -18 -12 -45 2 -44 23 -125 28 -186
11 -63 -17 -102 -6 -102 30 0 39 -26 53 -95 53 -35 0 -67 -5 -70 -10 -4 -6
-16 -3 -32 10 -20 15 -41 20 -88 20 -78 0 -107 -19 -110 -73 -1 -21 -5 -37 -9
-38 -3 0 -32 5 -63 11 -53 11 -74 11 -148 -5 -29 -6 -30 -5 -32 32 -4 55 -30
73 -107 73 -40 0 -69 -6 -84 -16z m780 -101 c3 -33 7 -38 31 -41 22 -3 27 -8
27 -32 0 -24 -5 -29 -27 -32 -27 -3 -28 -6 -31 -61 -3 -56 -2 -58 27 -68 25
-9 31 -17 31 -40 0 -29 -1 -29 -57 -29 -87 1 -97 13 -102 115 -2 66 -6 85 -18
85 -10 0 -13 9 -11 33 2 20 8 31 16 29 8 -1 20 15 29 38 14 35 20 40 49 40 31
0 33 -2 36 -37z m-649 -42 c8 -1 10 -222 1 -245 -4 -11 -19 -16 -50 -16 l-44
0 0 128 c0 71 2 131 5 134 4 4 51 4 88 -1z m250 0 c33 -13 57 -39 57 -62 0
-25 -45 -26 -95 -2 -28 13 -38 14 -48 4 -16 -16 2 -27 63 -35 61 -8 90 -33 90
-77 -1 -63 -39 -89 -131 -89 -73 0 -129 29 -129 68 0 19 5 22 39 22 22 0 44
-6 51 -15 14 -17 66 -20 75 -5 7 12 -25 26 -76 35 -73 11 -107 63 -78 116 21
41 122 63 182 40z m714 -6 c21 -9 41 -21 45 -28 4 -7 8 -45 8 -85 0 -65 2 -74
20 -79 30 -8 28 -62 -2 -65 -40 -2 -72 2 -96 14 -17 9 -25 9 -34 0 -16 -16
-118 -15 -139 1 -25 19 -31 63 -14 97 16 32 62 50 128 50 30 0 37 4 37 20 0
27 -49 40 -62 16 -11 -20 -108 -24 -108 -3 0 62 129 99 217 62z m306 -22 c8
-45 3 -53 -32 -53 -41 0 -50 -17 -58 -104 l-6 -77 -46 3 -46 3 0 125 0 125 43
3 c25 2 42 -1 42 -8 0 -7 10 -5 28 4 48 26 69 21 75 -21z m-1583 -15 c16 -64
31 -108 36 -108 2 0 13 34 25 75 l22 75 49 0 c57 0 58 15 -5 -145 l-43 -110
-52 -3 c-58 -3 -52 -12 -112 148 -15 41 -31 83 -35 93 -6 15 -1 17 49 17 l55
0 11 -42z m780 -88 l0 -130 -50 0 -50 0 0 130 0 130 50 0 50 0 0 -130z"/>
<path d="M5777 8392 c-15 -16 -17 -47 -17 -224 0 -243 -4 -234 104 -231 39 0
80 1 91 1 11 1 83 -1 160 -4 153 -4 176 -2 199 22 21 21 22 117 1 138 -9 9
-15 33 -15 64 0 57 -28 106 -77 135 -36 21 -130 27 -203 14 l-45 -9 -1 42 c-2
56 -22 69 -110 70 -56 0 -74 -4 -87 -18z m141 -219 l-3 -178 -47 -3 -48 -3 0
180 0 181 50 0 50 0 -2 -177z m290 60 c25 -18 27 -26 30 -96 2 -64 6 -78 22
-87 22 -12 25 -27 11 -49 -11 -17 -87 -17 -108 0 -10 9 -20 9 -39 0 -14 -6
-47 -11 -74 -11 -66 0 -95 26 -86 78 9 55 33 73 110 79 66 6 79 16 54 41 -16
16 -36 15 -54 -3 -9 -9 -34 -15 -60 -15 -36 0 -44 3 -44 18 0 23 29 50 66 62
48 15 141 6 172 -17z"/>
<path d="M6442 8394 c-22 -15 -22 -20 -22 -224 0 -204 0 -209 22 -224 12 -9
43 -16 68 -16 41 0 46 -3 59 -31 24 -55 62 -69 185 -69 125 0 186 20 215 71
14 26 21 29 69 29 40 0 57 5 73 21 21 21 22 21 52 4 20 -12 57 -20 107 -22 63
-3 83 0 124 19 l49 24 46 -24 c40 -20 57 -23 123 -20 42 3 84 10 92 17 13 11
21 10 42 -4 21 -14 40 -16 98 -11 39 3 76 5 81 5 6 0 81 -2 169 -4 156 -4 158
-4 182 20 31 31 33 101 4 138 -15 18 -20 40 -20 81 0 50 -3 59 -35 90 -52 52
-147 67 -261 40 -18 -5 -22 0 -27 36 -3 24 -10 47 -17 54 -6 6 -43 12 -83 14
-89 5 -117 -14 -117 -79 0 -35 -2 -40 -17 -34 -76 32 -197 25 -245 -15 -22
-17 -23 -17 -49 1 -57 40 -175 47 -240 13 -34 -17 -39 -11 -39 47 0 60 -14 69
-107 69 -67 -1 -103 -14 -103 -39 0 -6 -18 -11 -45 -11 -30 0 -51 -6 -64 -19
-10 -10 -41 -21 -71 -25 -30 -4 -62 -12 -73 -18 -24 -13 -37 3 -37 49 0 45
-30 63 -105 63 -39 0 -69 -6 -83 -16z m636 -144 c2 -52 1 -132 -3 -177 l-7
-83 -44 0 -44 0 0 181 0 180 48 -3 47 -3 3 -95z m-148 30 c0 -11 -11 -27 -24
-35 -22 -15 -23 -18 -11 -42 31 -60 -25 -113 -121 -113 -32 0 -44 -4 -42 -12
3 -8 28 -14 69 -16 93 -3 109 -9 123 -43 17 -40 10 -72 -21 -104 -25 -24 -31
-25 -140 -25 -91 0 -118 3 -130 16 -21 21 -21 69 1 93 11 12 14 21 7 26 -17
10 -13 40 9 68 17 22 18 26 5 37 -16 13 -20 67 -7 87 14 21 80 43 132 43 39 0
53 4 62 20 18 29 88 29 88 0z m438 -41 c28 -18 52 -62 52 -98 l0 -31 -95 0
c-85 0 -95 -2 -95 -18 0 -43 69 -59 92 -22 16 26 98 29 98 4 0 -56 -58 -88
-153 -82 -65 4 -71 6 -103 41 -29 31 -34 44 -34 85 0 61 32 112 80 130 41 14
128 9 158 -9z m330 -13 c15 -15 22 -31 19 -40 -8 -21 -61 -21 -97 0 -28 17
-67 13 -55 -5 3 -5 31 -15 62 -21 156 -33 130 -170 -32 -170 -78 0 -135 34
-135 79 0 17 86 13 100 -4 16 -19 70 -20 70 -1 0 8 -25 19 -67 30 -74 18 -93
34 -93 80 0 42 10 55 56 72 57 21 141 12 172 -20z m160 28 c21 -6 22 -10 22
-135 l0 -129 -50 0 -50 0 0 129 c0 126 1 130 23 134 12 2 24 5 27 6 3 0 15 -2
28 -5z m270 0 c55 -11 72 -37 72 -109 0 -72 6 -95 26 -95 9 0 14 -11 14 -30 0
-30 -1 -30 -53 -30 -29 0 -58 5 -64 11 -8 8 -17 8 -32 -1 -31 -16 -117 -16
-136 0 -41 34 -37 102 7 129 12 7 50 16 85 19 66 5 73 10 47 36 -19 20 -38 20
-54 1 -8 -10 -30 -15 -62 -15 -47 0 -49 1 -42 23 3 12 11 28 16 35 21 25 111
39 176 26z m-1556 -134 l-3 -130 -45 0 -44 0 0 130 0 130 48 0 47 0 -3 -130z"/>
<path d="M2700 8311 c-14 -4 -67 -5 -117 -3 -67 3 -97 1 -108 -8 -12 -10 -19
-10 -27 -2 -7 7 -44 12 -88 12 -62 0 -80 -4 -93 -18 -24 -26 -21 -50 16 -144
19 -46 42 -107 51 -135 23 -69 44 -83 126 -83 66 0 100 16 112 51 2 7 14 2 32
-14 36 -34 63 -38 221 -32 72 3 148 4 170 3 149 -6 194 -3 221 18 45 33 66 68
66 110 0 149 -12 186 -73 223 -65 40 -182 37 -245 -5 -35 -24 -35 -24 -56 -5
-35 33 -146 50 -208 32z m168 -72 c27 -17 42 -66 42 -136 0 -40 4 -53 15 -53
10 0 15 -10 15 -30 0 -26 -4 -30 -27 -31 -47 -2 -77 2 -90 13 -8 6 -18 6 -30
0 -10 -6 -32 -11 -48 -13 -87 -7 -115 10 -115 71 0 62 43 90 136 90 27 0 34 4
34 19 0 27 -37 37 -59 17 -20 -18 -96 -22 -106 -6 -11 18 23 59 58 69 42 14
147 7 175 -10z m321 -8 c18 -13 31 -30 29 -40 -4 -22 -70 -27 -91 -7 -16 16
-48 21 -60 9 -13 -12 15 -33 45 -33 41 0 94 -25 108 -50 18 -33 3 -79 -33
-101 -47 -28 -143 -26 -188 4 -19 12 -35 33 -37 45 -3 20 1 22 37 22 22 0 46
-7 55 -15 19 -20 76 -20 76 -1 0 10 -20 19 -59 27 -72 14 -101 38 -101 82 0
39 7 50 45 71 43 24 131 17 174 -13z m-754 -53 c12 -37 24 -70 27 -73 2 -3 15
29 27 70 l22 75 44 0 c29 0 45 -4 45 -12 0 -7 -21 -65 -46 -130 l-46 -118 -51
0 -52 0 -44 118 c-24 64 -46 123 -49 130 -3 10 8 12 49 10 l53 -3 21 -67z"/>
<path d="M3500 8311 c-86 -28 -122 -70 -120 -144 1 -23 -1 -64 -5 -92 -7 -59
6 -90 53 -121 29 -20 45 -22 180 -22 135 0 149 1 170 21 17 16 22 31 22 73 0
32 -5 56 -14 63 -8 7 -16 37 -18 71 -5 70 -27 106 -80 133 -40 20 -150 31
-188 18z m150 -64 c44 -15 60 -47 60 -125 0 -46 4 -64 15 -68 9 -4 15 -19 15
-35 0 -23 -5 -29 -22 -31 -39 -2 -72 3 -85 14 -9 7 -22 7 -44 -2 -44 -19 -116
-15 -140 6 -26 24 -25 76 4 109 19 23 33 28 90 32 72 6 89 24 42 45 -20 9 -28
8 -43 -5 -11 -10 -35 -17 -60 -17 -34 0 -42 3 -42 18 0 57 119 90 210 59z"/>
<path d="M8367 8292 c-24 -26 -22 -39 19 -144 51 -133 50 -124 15 -142 -29
-16 -31 -20 -31 -75 0 -73 18 -93 95 -99 69 -6 132 23 167 76 14 20 51 106 83
191 54 144 57 157 44 180 -14 24 -21 26 -93 29 -43 2 -83 -2 -90 -7 -7 -6 -17
-6 -26 -1 -8 6 -49 10 -91 10 -61 0 -79 -4 -92 -18z m153 -54 c0 -5 10 -42 22
-81 l21 -72 13 40 c7 22 18 59 24 83 11 42 11 42 55 42 25 0 45 -5 45 -10 0
-15 -80 -230 -101 -272 -29 -56 -65 -79 -118 -76 -44 3 -46 5 -49 36 -3 31 -2
32 31 32 22 0 37 6 41 15 3 8 -17 72 -44 141 -27 70 -48 129 -46 133 7 10 106
0 106 -11z"/>
<path d="M3480 7883 c-29 -12 -40 -32 -40 -77 0 -25 -1 -46 -2 -46 -2 0 -21 7
-43 15 -63 22 -179 19 -225 -6 -53 -30 -66 -60 -74 -172 -7 -89 -5 -101 14
-132 28 -45 93 -71 152 -60 24 4 54 6 68 6 108 -5 285 2 300 12 27 16 30 35
30 235 0 181 0 183 -25 207 -20 21 -33 25 -82 24 -32 0 -65 -3 -73 -6z m120
-233 l0 -180 -50 0 -50 0 0 180 0 180 50 0 50 0 0 -180z m-219 69 c36 -14 49
-48 49 -124 0 -51 3 -65 15 -65 21 0 20 -56 -1 -64 -26 -10 -68 -6 -87 8 -16
12 -24 12 -52 0 -80 -33 -155 -3 -155 62 0 59 55 94 153 94 29 0 30 1 21 24
-7 18 -64 23 -64 6 0 -5 -22 -10 -50 -10 -42 0 -50 3 -50 19 0 56 130 86 221
50z"/>
<path d="M4128 7882 c-36 -4 -49 -22 -51 -72 -1 -39 -2 -41 -27 -33 -14 4 -63
8 -110 8 -74 0 -89 -3 -119 -24 -42 -30 -61 -75 -61 -143 0 -29 0 -66 0 -83 0
-33 22 -68 64 -99 34 -26 159 -35 218 -15 31 10 44 10 59 1 29 -18 149 -15
170 4 17 15 21 15 59 0 51 -20 159 -21 207 -1 32 14 38 14 53 0 21 -19 147
-20 173 -1 13 10 17 28 17 74 0 75 6 92 34 92 18 0 26 -12 46 -72 34 -98 47
-108 134 -108 77 1 94 9 114 54 l13 29 32 -31 c42 -41 75 -52 150 -52 124 1
195 61 204 174 5 56 2 70 -22 113 -40 75 -90 97 -198 89 -45 -3 -90 -5 -99 -5
-10 0 -49 1 -88 0 -109 0 -114 0 -304 5 -152 4 -182 3 -203 -11 -22 -15 -28
-15 -68 1 -50 19 -187 16 -208 -5 -20 -20 -27 -12 -27 32 -1 60 -16 74 -80 78
-30 2 -67 3 -82 1z m-126 -152 c21 0 78 -51 78 -69 0 -6 -21 -11 -50 -11 -27
0 -50 5 -50 10 0 6 -13 10 -30 10 -19 0 -30 -5 -30 -14 0 -9 17 -16 53 -21 87
-12 107 -28 107 -87 0 -56 -34 -78 -122 -78 -77 0 -124 18 -137 53 -5 12 -7
25 -4 30 8 13 68 7 91 -9 23 -16 73 -16 73 0 0 5 -30 17 -66 26 -87 22 -113
57 -84 113 16 29 12 27 56 43 21 8 51 12 67 9 16 -3 37 -5 48 -5z m513 -13
c31 -16 46 -34 56 -69 16 -58 17 -58 -85 -58 -52 0 -98 -4 -101 -10 -3 -5 -1
-19 5 -30 14 -25 75 -28 88 -4 10 18 88 29 97 14 12 -20 -25 -68 -65 -84 -63
-25 -144 -16 -187 22 -67 58 -41 209 40 226 12 3 31 7 42 9 26 6 85 -3 110
-16z m299 -24 c-1 -15 -3 -31 -3 -34 -1 -4 -16 -10 -35 -13 -20 -4 -37 -14
-40 -24 -5 -15 -14 -99 -16 -140 0 -9 -14 -12 -47 -10 -27 2 -47 6 -45 11 1 4
2 61 2 127 l0 120 40 0 c31 0 40 -4 40 -17 0 -15 2 -15 18 0 20 18 62 26 77
16 6 -5 10 -21 9 -36z m570 27 c57 -21 82 -112 52 -185 -34 -81 -177 -96 -248
-25 -24 25 -28 36 -28 87 0 49 4 64 28 92 40 48 119 61 196 31z m-1151 -117
l-2 -128 -51 -3 -50 -3 0 124 c0 68 3 127 7 130 3 4 27 7 52 7 l46 0 -2 -127z
m722 115 c2 -7 12 -41 22 -75 9 -35 20 -63 23 -63 3 0 14 28 23 63 10 34 20
68 22 75 3 7 22 12 51 12 55 0 55 6 -7 -155 l-40 -105 -54 0 -54 0 -19 53
c-11 28 -32 83 -46 121 -14 37 -26 72 -26 77 0 14 100 11 105 -3z"/>
<path d="M7461 7844 c-12 -15 -21 -32 -21 -38 0 -6 -9 -17 -21 -24 -17 -11
-27 -11 -50 -2 -17 7 -61 11 -108 9 -63 -3 -86 -9 -110 -27 l-31 -23 -43 26
c-36 20 -57 25 -116 25 -112 0 -171 -38 -197 -127 -28 -96 -2 -176 74 -224 40
-25 55 -29 121 -29 55 0 86 5 118 21 l43 21 43 -21 c64 -31 177 -29 234 3 42
24 42 24 64 5 31 -27 58 -32 137 -26 37 2 88 0 114 -5 31 -6 64 -6 95 0 30 7
55 7 72 1 31 -12 109 -3 135 16 30 22 34 99 7 135 -15 22 -21 44 -21 84 0 47
-4 60 -31 90 -17 20 -47 40 -67 46 -48 13 -151 13 -190 -1 -36 -12 -72 2 -72
29 0 10 -9 28 -20 40 -17 18 -32 22 -80 22 -51 0 -61 -3 -79 -26z m119 -74 c0
-36 3 -40 25 -40 22 0 25 -4 25 -36 0 -34 -2 -36 -25 -31 -26 4 -26 4 -23 -62
3 -60 5 -66 26 -69 17 -3 22 -10 22 -33 0 -26 -3 -29 -32 -30 -104 -4 -116 8
-120 115 -3 71 -5 81 -20 78 -14 -2 -18 4 -18 32 0 28 4 35 22 38 17 2 25 13
31 41 8 35 11 37 48 37 39 0 39 0 39 -40z m-523 -62 c32 -19 36 -26 48 -85 l7
-33 -96 0 c-52 0 -98 -4 -101 -10 -3 -5 -1 -19 5 -30 13 -24 74 -28 87 -6 4 8
28 16 53 17 40 4 45 2 42 -16 -12 -74 -151 -106 -237 -54 -61 36 -72 155 -19
204 49 46 147 52 211 13z m268 21 c48 -13 75 -35 75 -61 0 -15 -8 -18 -45 -18
-25 0 -45 5 -45 10 0 6 -16 10 -36 10 -57 0 -35 -23 34 -35 77 -14 102 -35
102 -86 0 -56 -40 -82 -129 -82 -36 -1 -76 5 -89 11 -28 16 -56 58 -47 72 9
15 71 12 89 -5 19 -19 76 -20 76 -1 0 8 -22 18 -60 25 -68 14 -100 40 -100 82
0 41 31 71 81 79 24 4 46 8 49 9 3 0 23 -4 45 -10z m540 0 c66 -18 75 -32 75
-115 0 -63 3 -75 20 -84 22 -12 26 -40 8 -58 -17 -17 -69 -15 -95 3 -19 13
-25 13 -57 0 -45 -19 -79 -19 -116 0 -36 18 -45 45 -30 89 14 42 59 63 143 65
20 1 27 6 27 21 0 15 -7 20 -29 20 -17 0 -33 -4 -36 -10 -3 -5 -29 -10 -56
-10 -48 0 -50 1 -43 22 8 28 30 46 64 54 14 3 30 7 35 9 20 7 51 5 90 -6z"/>
<path d="M846 7769 c-23 -18 -27 -27 -22 -54 4 -18 13 -46 20 -61 8 -16 30
-73 51 -127 21 -55 45 -102 55 -107 10 -6 52 -10 93 -10 l74 0 19 38 c10 20
20 38 20 40 1 2 16 -10 33 -27 17 -16 48 -35 68 -40 62 -17 153 -13 202 10
l45 20 47 -21 c57 -24 160 -27 210 -6 19 8 45 26 59 41 24 25 25 32 23 127 -3
118 -17 148 -81 179 -59 29 -182 25 -228 -8 l-31 -22 -49 25 c-44 23 -56 25
-129 19 -44 -3 -88 -5 -97 -4 -26 1 -148 2 -183 0 -16 0 -62 2 -100 5 -62 5
-74 3 -99 -17z m581 -50 c28 -10 50 -44 58 -91 l7 -38 -95 0 c-53 0 -99 -4
-102 -10 -3 -5 -1 -19 5 -30 13 -24 74 -28 87 -6 9 16 90 28 98 15 11 -16 -16
-59 -47 -75 -49 -26 -151 -21 -195 8 -62 42 -69 150 -13 203 43 41 124 51 197
24z m286 11 c23 0 81 -56 72 -70 -8 -13 -95 -13 -95 0 0 6 -14 10 -31 10 -50
0 -29 -23 34 -35 31 -6 65 -20 77 -30 26 -23 27 -85 2 -108 -39 -36 -150 -40
-209 -9 -26 14 -47 48 -38 62 10 16 72 12 89 -6 17 -17 83 -16 78 1 -1 6 -32
17 -67 26 -86 21 -109 51 -86 112 13 32 86 60 136 51 11 -2 28 -4 38 -4z
m-708 -67 c26 -99 31 -104 45 -53 6 25 17 61 24 80 13 32 17 35 61 38 36 2 46
0 43 -10 -3 -7 -25 -66 -49 -131 l-44 -118 -53 3 -54 3 -45 115 c-24 63 -47
121 -50 128 -4 9 10 12 50 12 l55 0 17 -67z"/>
<path d="M2023 7775 c-38 -16 -60 -47 -79 -112 -37 -123 26 -246 134 -260 38
-5 42 -8 42 -34 0 -41 32 -59 105 -59 79 0 105 17 105 70 0 39 13 60 25 40 4
-6 59 -10 137 -10 109 0 135 3 150 17 17 15 21 15 54 -1 43 -20 147 -23 201
-6 84 27 117 83 111 184 -8 130 -72 186 -210 186 -50 0 -81 -5 -94 -15 -24
-19 -53 -19 -60 -1 -8 21 -573 22 -621 1z m138 -61 c20 -18 29 -18 29 1 0 11
11 15 39 15 l39 0 7 -64 c4 -35 5 -115 3 -178 l-4 -113 -47 -3 c-40 -3 -47 0
-48 15 0 10 -1 34 -2 53 -2 26 -6 34 -17 31 -8 -3 -34 -6 -58 -9 -37 -4 -46 0
-72 27 -44 48 -50 150 -12 208 26 40 106 50 143 17z m732 4 c26 -13 57 -68 57
-100 l0 -28 -96 0 -95 0 3 -27 c3 -24 8 -29 38 -31 24 -3 38 2 47 14 17 23 96
26 101 3 6 -31 -36 -67 -92 -79 -72 -15 -137 1 -172 43 -23 28 -26 38 -22 94
5 73 28 106 87 121 39 10 115 5 144 -10z m-463 -60 c0 -96 7 -118 34 -118 38
0 46 19 46 108 l0 83 48 -3 47 -3 0 -125 0 -125 -38 -3 c-27 -2 -39 1 -43 13
-6 14 -9 14 -30 0 -27 -17 -76 -22 -112 -11 -35 12 -46 44 -49 154 l-3 102 50
0 50 0 0 -72z"/>
<path d="M5692 7780 c-62 -25 -95 -90 -95 -185 0 -112 48 -180 134 -191 46 -6
49 -9 49 -35 0 -41 32 -59 105 -59 82 0 105 17 105 75 0 43 1 44 24 35 41 -15
265 -11 290 5 20 13 28 13 70 -1 66 -23 185 -16 222 12 51 38 68 70 72 139 4
55 0 73 -22 119 -21 44 -35 58 -71 75 -53 25 -149 28 -210 6 -34 -12 -43 -12
-60 -1 -17 11 -83 14 -306 14 -156 1 -294 -3 -307 -8z m136 -68 c20 -13 22
-13 22 2 0 12 10 16 39 16 38 0 38 -1 43 -42 3 -24 4 -104 2 -178 l-3 -135
-45 -3 -46 -3 0 57 c0 50 -2 55 -17 48 -10 -5 -40 -9 -66 -9 -41 0 -53 5 -72
27 -30 34 -40 101 -25 157 22 82 96 110 168 63z m719 7 c29 -11 52 -48 60 -93
l6 -36 -97 0 -97 0 3 -27 c2 -24 8 -29 37 -31 23 -2 39 2 52 17 14 15 29 19
56 17 47 -4 54 -26 20 -60 -56 -56 -187 -54 -239 4 -37 41 -39 120 -5 171 35
52 122 68 204 38z m-457 -61 c0 -96 7 -118 34 -118 38 0 46 19 46 108 l0 83
48 -3 47 -3 0 -125 0 -125 -35 -3 c-23 -3 -38 2 -47 13 -11 16 -14 16 -27 2
-38 -37 -133 -25 -151 20 -8 21 -15 204 -8 216 2 4 24 7 49 7 l44 0 0 -72z"/>
<path d="M7552 7361 c-30 -4 -57 -13 -62 -21 -13 -21 -13 -406 0 -431 9 -16
22 -19 90 -19 59 0 83 4 95 16 14 15 19 14 53 -2 48 -24 173 -25 217 -2 87 46
115 129 84 243 -28 101 -162 153 -283 110 -22 -8 -43 -12 -48 -9 -4 3 -8 23
-8 44 0 39 -20 70 -45 70 -7 0 -19 2 -27 4 -7 1 -37 0 -66 -3z m72 -57 c14 -5
16 -31 16 -180 l0 -174 -50 0 -50 0 0 173 c0 96 3 177 7 180 8 9 56 9 77 1z
m281 -104 c47 -18 75 -62 75 -116 0 -24 -1 -24 -95 -24 -88 0 -95 -1 -95 -20
0 -10 9 -24 21 -30 26 -14 69 -5 69 15 0 11 13 15 50 15 57 0 63 -11 29 -53
-25 -33 -89 -51 -151 -44 -84 10 -118 49 -118 133 0 89 47 133 142 134 26 0
59 -5 73 -10z"/>
<path d="M2552 7351 c-8 -5 -17 -24 -21 -42 -6 -30 -11 -35 -46 -40 -40 -5
-85 -27 -85 -41 0 -15 -31 -8 -59 13 -36 26 -140 37 -205 20 -59 -15 -91 -2
-99 38 -5 24 -14 32 -46 42 -70 21 -128 -2 -145 -57 -8 -25 -39 -36 -70 -25
-11 5 -73 9 -136 9 -89 0 -121 -4 -143 -16 -23 -14 -31 -14 -48 -4 -29 19
-137 26 -186 13 -22 -6 -52 -20 -64 -30 -23 -18 -24 -18 -58 8 -31 23 -43 26
-120 26 -138 0 -184 -38 -188 -152 -1 -35 -5 -68 -8 -74 -10 -15 15 -80 39
-104 12 -12 43 -30 69 -40 58 -22 153 -15 204 15 35 21 63 26 63 12 0 -13 92
-42 136 -42 22 0 64 7 93 16 37 10 56 12 65 5 19 -16 343 -14 349 2 3 9 12 9
38 -2 19 -8 59 -15 89 -14 30 0 71 0 90 1 19 0 63 0 98 0 90 -1 105 -1 172 0
33 1 77 1 98 1 239 1 288 3 303 17 14 12 20 12 50 -3 53 -27 162 -24 217 7
115 65 122 254 11 327 -51 34 -155 43 -213 19 -22 -9 -41 -14 -44 -12 -2 3 -6
23 -7 46 -5 63 -16 70 -104 70 -42 0 -82 -4 -89 -9z m131 -50 c4 -1 7 -80 7
-176 l0 -175 -44 0 c-24 0 -46 5 -48 10 -2 7 -16 5 -37 -6 -111 -55 -194 67
-140 207 17 44 84 68 128 46 17 -8 32 -12 35 -9 3 3 6 26 6 52 0 26 3 49 6 52
5 5 47 4 87 -1z m-703 -50 c0 -36 3 -40 28 -43 22 -2 28 -8 30 -35 3 -28 0
-32 -25 -35 -25 -3 -28 -8 -31 -42 -5 -61 4 -86 33 -86 21 0 25 -5 25 -29 0
-17 -6 -31 -16 -35 -32 -12 -92 -6 -115 13 -21 17 -24 30 -27 100 -3 61 -8 81
-18 81 -22 0 -18 61 5 67 11 3 23 20 30 44 11 36 15 39 46 39 34 0 35 -1 35
-39z m-880 -59 c22 -10 36 -26 38 -39 3 -21 -1 -23 -42 -23 -25 0 -48 5 -51
10 -9 15 -55 12 -55 -4 0 -9 21 -18 61 -25 75 -13 99 -32 99 -78 0 -66 -67
-102 -168 -90 -36 4 -53 12 -74 36 -15 17 -28 36 -28 41 0 16 90 12 106 -5 18
-17 60 -20 69 -4 10 15 3 19 -66 35 -70 16 -99 40 -99 83 1 32 19 57 51 70 39
16 121 12 159 -7z m320 0 c40 -20 60 -53 60 -99 l0 -33 -95 0 c-100 0 -115 -8
-79 -44 21 -22 51 -20 71 4 24 28 103 29 103 1 0 -65 -138 -105 -224 -64 -89
42 -87 205 3 241 42 16 123 14 161 -6z m198 3 c7 -14 11 -14 38 0 37 19 93 19
119 -1 18 -13 20 -29 23 -129 l4 -115 -51 0 -51 0 0 90 c0 75 -3 92 -16 97
-37 14 -49 -10 -52 -101 l-3 -86 -49 0 -50 0 0 123 c0 68 3 127 7 130 13 13
72 7 81 -8z m677 1 c44 -19 55 -42 55 -119 0 -50 4 -66 16 -71 10 -4 14 -15
12 -33 -3 -27 -5 -28 -53 -26 -27 2 -63 2 -80 2 -129 -6 -147 -4 -161 15 -8
11 -14 34 -14 52 0 54 45 84 125 84 47 0 59 8 49 34 -8 20 -60 21 -68 1 -4
-10 -20 -15 -51 -15 -45 0 -46 1 -43 28 6 54 131 82 213 48z m661 2 c40 -14
74 -71 74 -125 0 -103 -110 -161 -220 -117 -50 20 -70 56 -70 124 0 86 45 129
134 130 27 0 64 -5 82 -12z"/>
<path d="M3536 7345 c-10 -10 -16 -33 -16 -61 0 -49 -2 -50 -53 -29 -42 17
-126 19 -180 4 -22 -6 -54 -25 -72 -42 -32 -31 -33 -34 -39 -137 -5 -94 -4
-108 14 -138 35 -57 62 -62 301 -56 172 4 217 7 229 20 12 12 16 51 18 207 3
246 5 241 -105 245 -64 2 -84 -1 -97 -13z m128 -41 c14 -5 16 -31 16 -180 l0
-174 -50 0 -50 0 0 173 c0 96 3 177 7 180 8 9 56 9 77 1z m-204 -109 c41 -21
50 -43 50 -119 0 -53 3 -66 16 -66 11 0 14 -8 12 -32 -3 -30 -6 -33 -42 -36
-22 -2 -50 2 -62 9 -17 9 -30 9 -55 0 -85 -30 -149 -2 -149 64 0 57 36 80 140
87 38 3 47 23 18 42 -13 8 -25 6 -47 -7 -16 -9 -46 -17 -66 -17 -34 0 -36 2
-33 28 2 19 13 32 38 44 44 22 140 24 180 3z"/>
<path d="M3868 7349 c-16 -9 -18 -31 -18 -225 l0 -215 30 -12 c20 -9 52 -11
102 -6 44 4 81 3 92 -3 11 -6 46 -8 85 -4 36 4 72 6 79 5 13 -1 108 -1 162 0
19 0 94 1 165 2 100 0 134 4 147 15 14 14 20 13 50 -2 22 -12 55 -18 98 -19
122 0 199 63 208 170 11 131 -67 214 -201 215 -32 0 -74 -7 -94 -15 -19 -8
-37 -15 -39 -15 -2 0 -4 17 -4 38 0 21 -7 48 -16 60 -13 20 -24 22 -94 22 -89
0 -110 -12 -110 -61 0 -27 -3 -29 -36 -29 -35 0 -94 -26 -94 -42 0 -13 -37 -9
-49 6 -28 34 -148 44 -243 20 -27 -6 -28 -5 -28 34 0 60 -18 72 -103 72 -40 0
-80 -5 -89 -11z m132 -219 l0 -180 -50 0 -51 0 1 168 c1 98 6 172 12 180 6 6
28 12 49 12 l39 0 0 -180z m648 174 c22 -6 22 -8 22 -180 l0 -174 -38 0 c-21
0 -43 5 -49 11 -8 8 -17 7 -34 -5 -40 -28 -86 -21 -126 19 -35 35 -35 36 -31
109 3 62 7 79 27 100 31 33 70 41 115 22 l36 -15 0 53 c0 29 3 56 7 59 8 9 41
9 71 1z m-342 -127 c20 -23 24 -39 24 -93 0 -52 4 -69 19 -82 15 -13 17 -22
10 -41 -8 -21 -13 -22 -57 -17 -26 4 -60 6 -77 5 -120 -6 -144 -4 -159 16 -29
38 -16 93 27 117 12 7 47 15 77 18 47 4 55 8 55 25 0 25 -46 33 -65 11 -8 -10
-29 -16 -56 -16 -38 0 -44 3 -44 21 0 47 50 70 149 66 66 -2 75 -5 97 -30z
m639 19 c47 -20 68 -65 63 -132 -5 -60 -25 -89 -75 -110 -67 -29 -151 -10
-191 41 -35 44 -29 140 12 180 37 37 128 47 191 21z"/>
<path d="M5260 7342 c-14 -5 -32 -22 -40 -40 -9 -18 -25 -39 -37 -47 -12 -9
-25 -32 -29 -51 -7 -37 10 -114 25 -114 5 0 11 -32 13 -70 4 -50 11 -77 24
-92 41 -46 123 -60 195 -34 26 9 43 10 60 2 13 -6 71 -10 129 -11 105 0 105 0
105 -25 0 -24 -1 -24 -80 -21 -99 3 -127 -12 -127 -73 0 -36 -1 -37 -26 -30
-15 5 -45 8 -67 7 -22 -1 -56 -1 -75 -2 -290 -3 -295 -3 -312 -18 -16 -14 -18
-36 -18 -174 0 -154 1 -159 23 -173 18 -12 93 -14 419 -14 l398 0 20 25 c18
24 20 41 20 212 l1 186 45 29 c34 21 52 43 72 85 15 31 28 58 29 60 2 3 16 -7
31 -21 35 -32 102 -58 150 -58 20 1 61 9 90 19 58 20 68 15 51 -23 -10 -20 -9
-30 5 -50 20 -31 54 -41 103 -29 32 7 43 18 72 68 31 53 36 68 36 131 0 92
-10 104 -87 104 -47 0 -60 3 -64 18 -38 117 -109 162 -231 148 -32 -4 -71 -7
-88 -5 -27 1 -105 2 -180 1 -16 0 -135 1 -264 2 l-233 2 -13 31 c-7 17 -18 33
-23 37 -17 10 -96 15 -122 8z m88 -94 c3 -33 7 -38 28 -38 21 0 24 -5 24 -35
0 -31 -3 -35 -25 -35 -25 0 -26 -1 -23 -62 3 -57 5 -63 26 -66 17 -3 22 -10
22 -33 0 -34 -28 -45 -88 -35 -52 8 -62 27 -62 117 0 68 -2 77 -20 82 -30 8
-27 55 5 67 14 5 25 14 25 19 0 5 4 22 10 36 8 22 15 26 42 23 30 -3 33 -6 36
-40z m200 -135 c3 -97 13 -114 52 -93 16 9 20 24 22 98 l3 87 45 0 45 0 3
-127 3 -128 -40 0 c-22 0 -41 5 -43 12 -3 9 -15 7 -42 -6 -47 -22 -104 -16
-128 15 -15 17 -18 41 -18 123 0 57 3 106 7 110 4 4 25 6 48 4 l40 -3 3 -92z
m309 85 c5 -7 18 -43 27 -80 10 -38 21 -68 25 -68 3 0 15 35 27 78 l20 77 47
3 c26 2 47 1 47 -2 0 -7 -64 -183 -93 -254 -35 -88 -86 -123 -157 -107 -25 5
-30 11 -30 36 0 27 3 29 35 29 60 0 58 27 -14 199 -17 40 -31 79 -31 87 0 18
83 19 97 2z m441 -8 c56 -34 78 -119 48 -179 -39 -75 -171 -95 -239 -37 -68
59 -53 187 26 221 48 21 126 19 165 -5z m212 -197 c0 -36 -8 -60 -30 -95 -31
-49 -36 -53 -64 -42 -13 5 -13 9 -2 27 8 12 17 32 21 45 5 18 2 22 -14 22 -18
0 -21 6 -21 45 l0 45 55 0 55 0 0 -47z m-692 -390 l-3 -178 -47 -3 -48 -3 0
180 0 181 50 0 50 0 -2 -177z m-520 63 c13 -12 20 -12 53 6 29 15 49 18 74 14
55 -11 65 -35 65 -159 l0 -108 -47 3 -48 3 -3 93 c-3 90 -3 92 -27 92 -22 0
-47 -27 -44 -47 1 -4 1 -39 0 -76 l-1 -68 -47 3 -48 3 -2 89 c-3 94 -12 113
-45 95 -15 -8 -18 -23 -19 -82 -1 -40 -2 -79 -3 -87 -1 -11 -15 -16 -48 -18
l-48 -3 0 130 0 131 39 0 c22 0 41 -5 43 -12 3 -9 13 -8 39 5 38 20 94 16 117
-7z m352 -116 l0 -130 -45 0 c-29 0 -45 4 -46 13 0 14 0 216 0 235 1 8 17 12
46 12 l45 0 0 -130z"/>
<path d="M6767 7256 c-46 -17 -64 -32 -81 -65 -17 -33 -27 -176 -15 -207 25
-68 115 -110 211 -100 34 3 77 15 95 26 35 21 63 26 63 12 0 -4 23 -16 51 -26
82 -30 200 -9 250 43 48 50 51 182 6 250 -15 22 -41 48 -59 57 -68 35 -197 27
-249 -15 -23 -18 -24 -18 -56 6 -40 31 -157 41 -216 19z m159 -56 c29 -11 53
-37 54 -57 0 -16 -81 -18 -97 -2 -13 13 -59 8 -56 -6 1 -5 30 -16 64 -23 90
-18 125 -71 84 -129 -26 -37 -131 -55 -188 -34 -30 12 -67 49 -67 68 0 18 80
16 104 -2 28 -21 68 -20 64 2 -2 11 -22 21 -62 30 -72 16 -96 36 -96 77 1 57
39 84 122 85 26 1 59 -4 74 -9z m329 -4 c38 -16 65 -60 65 -106 l0 -30 -99 0
c-95 0 -99 -1 -94 -20 3 -11 14 -25 25 -31 25 -14 68 -3 68 16 0 11 13 15 50
15 42 0 50 -3 50 -18 0 -64 -143 -105 -225 -66 -72 34 -89 162 -29 221 34 34
130 43 189 19z"/>
<path d="M4057 6822 c-10 -10 -17 -31 -17 -45 0 -23 -4 -27 -27 -27 -52 0
-110 -38 -134 -87 -32 -66 -30 -167 4 -226 39 -66 75 -78 225 -75 95 2 125 6
132 18 8 12 15 12 57 -3 82 -29 171 -20 236 25 15 11 27 15 27 10 0 -6 19 -20
43 -31 92 -45 234 -18 277 51 17 28 20 46 17 123 -2 50 -9 100 -15 112 -43 80
-210 106 -298 47 l-34 -23 -35 23 c-19 13 -58 27 -85 31 -52 7 -145 -9 -156
-27 -10 -17 -24 14 -24 54 0 56 -19 68 -104 68 -58 0 -76 -4 -89 -18z m141
-219 l-3 -178 -35 -3 c-23 -3 -38 2 -46 13 -12 16 -15 16 -36 1 -12 -9 -40
-16 -61 -16 -76 0 -124 92 -98 188 15 54 51 82 107 82 23 0 46 -5 49 -10 13
-21 25 3 25 51 l0 49 50 0 50 0 -2 -177z m265 73 c56 -23 72 -50 72 -122 0
-59 -3 -66 -32 -96 -30 -30 -39 -33 -106 -36 -72 -4 -74 -3 -110 31 -35 32
-37 38 -37 94 0 47 5 67 22 88 40 51 124 70 191 41z m309 2 c41 -12 75 -49 63
-68 -10 -16 -70 -12 -104 7 -24 15 -33 15 -43 5 -17 -17 0 -28 62 -36 60 -8
90 -33 90 -75 0 -66 -38 -91 -135 -91 -60 0 -118 32 -123 68 -3 20 1 22 41 22
31 0 47 -5 51 -15 6 -17 61 -21 71 -6 7 13 -20 27 -68 35 -61 11 -85 26 -92
57 -18 81 77 130 187 97z"/>
<path d="M1646 6740 c-55 -14 -91 -44 -116 -96 -19 -38 -22 -57 -17 -110 6
-79 38 -127 105 -156 54 -24 158 -22 211 5 33 16 35 16 68 -4 29 -18 47 -21
116 -18 138 5 157 2 157 -22 0 -76 115 -105 211 -52 41 22 55 37 81 90 l31 64
26 -25 c57 -55 163 -72 251 -41 37 13 44 13 63 0 14 -9 45 -15 85 -15 81 0
112 26 112 92 l0 43 16 -30 c40 -78 107 -111 209 -103 36 3 76 13 89 21 21 14
25 14 40 -1 14 -15 40 -17 180 -17 123 0 167 3 179 14 14 11 17 33 17 125 0
140 -10 176 -58 212 -36 28 -38 29 -167 26 -99 -2 -133 -6 -146 -18 -15 -14
-20 -14 -49 1 -46 24 -117 28 -179 12 -44 -12 -59 -12 -83 -2 -41 17 -227 8
-250 -12 -14 -13 -20 -12 -50 3 -21 11 -53 17 -88 17 -30 -1 -108 -2 -174 -2
-76 0 -124 -5 -133 -12 -10 -9 -17 -9 -25 -1 -14 14 -156 16 -176 3 -7 -4 -36
-2 -65 6 -64 17 -146 10 -203 -18 l-41 -21 -43 22 c-49 25 -128 33 -184 20z
m167 -75 c25 -16 51 -68 40 -79 -4 -3 -25 -6 -49 -6 -33 0 -43 4 -47 20 -4 15
-14 20 -40 20 -39 0 -47 -12 -47 -68 0 -56 11 -66 68 -63 15 1 22 7 22 21 0
17 7 20 44 20 52 0 60 -8 46 -44 -33 -89 -237 -88 -271 1 -14 39 -11 112 8
144 9 16 33 35 52 44 45 19 138 14 174 -10z m319 4 c33 -14 41 -35 43 -113 1
-42 6 -62 18 -71 10 -7 17 -24 17 -39 0 -24 -3 -26 -48 -26 -26 0 -53 5 -59
11 -9 9 -20 9 -43 -1 -45 -19 -117 -16 -141 6 -19 18 -26 77 -11 101 13 21 79
43 127 43 48 0 55 9 29 34 -19 20 -38 20 -58 1 -14 -15 -87 -21 -99 -9 -5 5 7
38 19 52 1 2 20 10 41 18 43 16 123 13 165 -7z m326 -140 c-31 -84 -63 -156
-79 -173 -24 -27 -33 -30 -85 -31 -59 0 -59 0 -59 30 0 27 4 31 35 35 23 3 36
11 38 23 2 9 -17 70 -42 135 -25 65 -46 121 -46 125 0 4 22 7 50 7 l49 0 15
-52 c8 -29 18 -65 22 -80 3 -16 9 -28 13 -28 4 0 16 36 27 80 l18 79 41 3 c22
2 44 0 48 -3 4 -3 -16 -71 -45 -150z m298 140 c43 -20 64 -55 64 -105 0 -24
-2 -24 -95 -24 -99 0 -105 -3 -89 -44 10 -25 74 -22 81 4 4 17 14 20 54 20 41
0 49 -3 49 -18 0 -23 -34 -60 -67 -73 -73 -27 -185 -1 -213 51 -14 27 -15 112
-1 136 22 40 29 46 67 59 55 20 101 18 150 -6z m302 -26 c3 -41 2 -43 -25 -43
-49 0 -58 -13 -63 -97 l-5 -78 -47 -3 -48 -3 0 130 0 131 39 0 c22 0 41 -5 43
-11 2 -6 14 -5 33 6 50 26 70 17 73 -32z m245 33 c50 -21 70 -50 75 -110 5
-62 -17 -105 -68 -131 -70 -36 -188 -7 -210 51 -15 40 -12 113 7 145 31 52
128 74 196 45z m350 3 c37 -17 47 -50 47 -159 l0 -100 -50 0 -50 0 0 89 c0 94
-9 114 -45 101 -17 -6 -21 -19 -25 -96 l-5 -89 -47 -3 -48 -3 0 130 0 131 38
0 c21 0 43 -5 49 -11 8 -8 19 -6 39 5 35 18 65 20 97 5z"/>
<path d="M6107 6741 c-71 -4 -100 -10 -107 -21 -5 -8 -10 -106 -10 -217 0
-170 2 -204 16 -217 8 -9 18 -16 22 -17 123 -15 168 -2 174 47 2 23 11 30 56
44 29 10 61 25 72 35 18 16 21 16 67 -6 73 -35 166 -38 232 -6 l51 24 47 -23
c72 -37 195 -30 245 14 15 13 23 11 69 -12 127 -63 276 -8 309 115 23 85 -19
187 -92 223 -71 36 -187 28 -243 -16 -25 -19 -25 -19 -51 1 -59 47 -167 51
-250 9 l-41 -20 -41 21 c-22 11 -58 23 -80 27 -49 8 -137 -12 -176 -39 -15
-11 -31 -16 -35 -11 -29 41 -92 53 -234 45z m183 -76 c45 -41 52 -161 13 -213
-26 -35 -73 -48 -118 -35 l-34 11 -3 -52 -3 -51 -45 0 -45 0 -3 178 -2 177 40
0 c22 0 40 -4 40 -10 0 -5 7 -10 15 -10 8 0 15 4 15 9 0 26 101 22 130 -4z
m306 4 c43 -20 64 -55 64 -105 0 -24 -2 -24 -95 -24 -75 0 -95 -3 -95 -14 0
-35 13 -46 51 -46 32 0 39 3 39 20 0 17 7 20 50 20 44 0 50 -3 50 -20 0 -46
-57 -80 -134 -80 -62 0 -91 9 -126 39 -20 18 -25 33 -28 84 -4 57 -1 66 23 95
44 53 129 66 201 31z m309 7 c31 -13 55 -41 55 -65 0 -17 -69 -13 -100 5 -27
17 -60 14 -60 -5 0 -5 26 -15 58 -21 31 -7 65 -16 74 -21 49 -26 46 -98 -5
-130 -47 -28 -143 -26 -188 4 -19 12 -35 33 -37 45 -3 20 1 22 37 22 22 0 46
-7 55 -15 19 -20 76 -20 76 -1 0 10 -20 19 -57 26 -69 15 -99 33 -107 66 -7
27 8 64 33 79 41 26 118 31 166 11z m320 0 c63 -27 91 -108 62 -179 -45 -106
-236 -104 -274 3 -14 40 -9 105 12 136 32 49 131 69 200 40z"/>
<path d="M20 4130 c1 -666 3 -1217 6 -1224 4 -11 13 -12 42 -3 20 6 42 18 48
25 8 12 12 11 23 -2 12 -14 16 -14 45 2 17 9 54 18 81 18 28 1 92 4 143 7 87
6 120 -3 70 -19 -13 -3 -30 -12 -38 -19 -23 -19 -83 -29 -150 -25 -14 1 -56
-5 -94 -13 -40 -9 -92 -13 -123 -10 l-53 6 0 -1437 0 -1436 524 0 523 0 -7 41
c-5 24 -3 52 3 69 8 21 8 35 0 53 -14 30 1 62 17 37 5 -8 10 -24 11 -35 1 -11
2 -27 3 -35 2 -8 3 -25 4 -37 2 -18 8 -23 31 -23 30 0 41 14 41 56 0 24 23 33
35 14 13 -21 23 2 14 32 -5 18 -6 56 -2 85 5 47 8 53 29 53 28 0 27 -3 24 155
-2 89 -6 115 -21 136 -22 31 -76 59 -113 59 -14 0 -26 4 -26 9 0 4 10 7 23 6
12 -1 14 0 5 2 -29 7 -20 24 10 18 18 -4 21 -3 9 3 -10 4 -18 12 -17 17 3 20
-19 15 -25 -6 -6 -17 -9 -19 -16 -8 -7 11 -11 10 -23 -6 -18 -23 -20 -35 -6
-35 6 0 10 5 10 12 0 9 3 9 12 0 20 -20 -3 -27 -73 -23 -45 2 -58 6 -44 12 16
6 14 8 -12 8 -32 1 -49 21 -18 21 12 0 12 6 -5 37 -11 21 -20 43 -20 50 0 6
-6 14 -12 16 -8 3 -4 6 7 8 12 1 6 5 -15 9 -29 7 -25 8 25 7 33 -1 66 2 73 6
9 6 12 61 12 218 0 234 8 213 -80 210 -25 -1 -52 3 -60 9 -10 6 -11 10 -2 10
7 0 12 16 13 43 l1 42 15 -42 c10 -30 20 -43 34 -43 10 0 19 6 19 13 0 8 3 8
9 -2 8 -12 16 -13 45 -4 40 12 49 8 35 -18 -8 -16 -7 -17 13 -10 12 4 27 23
33 42 10 29 13 31 21 16 8 -13 24 -18 67 -19 66 -2 75 4 59 35 -22 43 -19 62
8 62 20 0 24 4 21 20 -16 90 -12 132 28 262 23 73 41 138 41 146 0 8 11 27 25
43 14 16 25 34 25 39 0 6 13 37 30 70 16 33 30 65 30 72 0 7 22 34 48 60 27
26 52 61 56 76 4 16 16 31 30 37 13 4 26 15 29 23 3 8 24 25 47 38 22 13 38
28 36 35 -3 7 0 14 7 17 7 2 3 12 -10 26 -31 33 -34 72 -20 219 3 26 12 50 24
62 25 22 48 110 39 150 -6 33 8 48 29 30 10 -9 15 -7 20 9 3 11 15 23 26 26
10 4 19 11 19 16 0 6 11 22 25 37 76 83 95 107 95 117 0 6 11 22 25 35 14 13
23 30 21 37 -3 7 8 26 24 42 48 48 41 59 -37 57 -49 -1 -72 -6 -85 -18 -11
-11 -32 -17 -60 -16 -53 1 -114 -10 -151 -29 -20 -10 -77 -14 -212 -16 -102
-1 -185 -5 -185 -8 0 -9 -55 -17 -155 -24 -61 -5 -85 -11 -101 -26 l-22 -20
-6 26 c-5 21 -10 24 -20 15 -10 -7 -15 -8 -18 0 -2 6 -21 13 -43 16 -22 3 -50
10 -61 16 -15 7 -28 7 -42 -1 -26 -14 -92 -14 -92 -1 0 6 7 10 16 10 8 0 22 7
31 16 9 8 22 13 30 10 8 -4 56 1 106 9 51 8 137 21 192 29 55 9 125 20 155 26
30 6 73 12 95 15 22 2 72 9 110 15 39 6 108 15 155 21 47 5 126 19 175 30 50
11 158 25 240 30 143 11 152 12 197 42 26 18 49 42 53 55 3 12 11 22 17 22 16
0 58 49 58 67 0 7 6 13 13 13 15 0 64 46 90 84 10 14 26 26 36 26 20 0 51 30
51 49 0 6 11 16 24 21 14 5 32 21 42 35 9 14 20 25 25 25 15 0 84 51 141 106
31 30 60 54 65 54 6 0 15 11 21 25 6 14 20 25 29 25 10 0 29 12 42 25 13 14
29 25 36 25 8 0 23 14 35 30 12 17 30 30 41 30 10 0 19 7 19 15 0 13 109 85
129 85 4 0 16 18 26 40 12 26 24 39 34 38 9 -2 20 7 26 19 5 12 20 27 32 34
13 7 23 18 23 26 0 17 -15 17 -34 -2 -8 -8 -26 -15 -39 -15 -14 0 -27 -6 -30
-12 -3 -10 -7 -10 -19 0 -10 8 -29 10 -56 6 -29 -4 -47 -2 -62 9 -12 9 -29 13
-36 10 -8 -3 -14 -1 -14 5 0 6 -14 14 -32 17 -17 4 -47 16 -65 26 -19 11 -42
19 -52 19 -25 0 -37 17 -44 62 -6 40 8 59 46 65 12 2 28 10 37 18 22 20 50 19
50 -1 0 -11 5 -14 16 -10 21 8 51 -9 59 -34 10 -30 25 -14 25 26 0 24 5 34 15
34 8 0 15 -4 15 -10 0 -15 30 -12 47 6 10 10 24 13 37 9 12 -4 30 -8 41 -9 11
-2 31 -7 45 -13 33 -14 51 2 24 21 -10 8 -20 10 -22 5 -7 -19 -21 -8 -32 27
-10 29 -10 38 0 44 9 6 11 21 6 48 -4 26 -2 43 5 48 12 7 131 18 194 17 22 0
87 4 145 9 166 14 300 17 306 7 3 -5 9 -7 13 -4 5 2 62 7 127 11 66 3 123 10
129 15 5 5 18 9 30 9 11 0 55 18 98 40 42 22 90 40 106 40 31 0 144 39 149 52
2 4 20 10 40 14 20 4 40 11 43 16 10 15 139 55 199 62 76 8 135 20 203 40 32
10 65 15 73 12 8 -3 31 1 52 9 72 27 147 35 277 31 145 -6 157 -7 177 -23 9
-8 19 -9 28 -3 21 14 30 12 30 -4 0 -8 9 -18 21 -21 16 -5 20 -13 16 -33 -3
-14 -1 -36 4 -49 5 -14 5 -23 -1 -23 -5 0 -7 -7 -4 -15 12 -30 -6 -61 -46 -84
-22 -12 -40 -27 -40 -32 0 -5 -17 -17 -37 -26 -56 -25 -133 -75 -133 -86 0 -5
-7 -7 -15 -4 -8 4 -17 2 -20 -3 -4 -6 -14 -10 -23 -10 -9 0 -30 -13 -45 -30
-15 -16 -34 -27 -41 -24 -7 3 -20 -1 -27 -8 -8 -8 -31 -24 -52 -37 -32 -20
-38 -28 -33 -47 13 -51 -23 -80 -119 -95 -167 -27 -174 -29 -181 -64 -3 -18
-5 -41 -4 -51 1 -11 2 -26 1 -34 -1 -13 -2 -13 -11 0 -6 9 -10 10 -10 3 0 -7
-18 -17 -40 -23 -25 -7 -63 -31 -98 -63 -31 -28 -63 -56 -70 -62 -35 -28 -50
-49 -56 -77 -9 -46 -7 -88 4 -88 6 0 10 -12 10 -27 0 -20 3 -24 9 -14 7 11 11
8 16 -10 11 -34 48 -89 61 -89 6 0 17 -11 24 -25 23 -42 4 -49 -134 -50 -82
-1 -129 -5 -139 -13 -8 -7 -22 -9 -31 -6 -19 7 -96 -42 -96 -62 0 -26 66 -47
128 -40 110 12 147 18 157 27 15 15 85 11 85 -4 0 -8 10 -13 23 -13 18 1 22
-5 25 -37 3 -30 -2 -43 -25 -66 -48 -48 -51 -56 -60 -132 -15 -131 -10 -235
11 -258 20 -22 51 -28 61 -11 3 6 13 10 22 10 26 0 92 -34 93 -47 0 -7 5 -13
10 -13 6 0 10 -11 10 -24 0 -18 7 -26 28 -31 15 -4 35 -15 45 -26 10 -10 29
-19 43 -19 15 0 38 -12 56 -30 31 -31 68 -40 68 -16 0 8 3 21 6 30 4 10 1 16
-10 16 -8 0 -20 9 -26 20 -6 11 -19 20 -30 20 -24 0 -33 15 -25 41 5 14 12 18
27 13 34 -10 88 5 88 25 0 26 22 41 48 34 14 -3 30 1 42 12 11 10 35 19 53 20
17 0 42 7 55 14 13 7 31 9 40 5 9 -4 25 -6 35 -5 9 1 17 -3 17 -9 0 -7 8 -9
20 -5 17 5 20 2 20 -20 0 -21 4 -26 16 -21 9 3 20 6 24 6 5 0 14 19 21 42 13
49 3 148 -14 148 -7 0 -17 8 -22 19 -6 10 -22 36 -36 57 -16 25 -26 55 -27 82
0 23 -4 47 -7 52 -9 14 -75 13 -75 -1 0 -8 -13 -10 -37 -5 -21 3 -76 2 -123
-4 -251 -27 -309 -32 -329 -25 -29 9 -26 31 7 44 15 6 44 25 64 42 33 28 45
32 108 35 63 2 70 1 70 -17 0 -22 32 -26 49 -5 6 7 41 16 82 19 39 3 77 11 85
18 7 6 34 12 58 14 45 3 45 3 39 -26 -3 -18 -1 -29 6 -29 6 0 11 7 11 15 0 9
9 15 21 15 21 0 49 -22 49 -39 0 -5 12 -12 28 -14 17 -2 10 -5 -19 -6 -51 -1
-85 -25 -55 -37 9 -4 32 -4 51 -1 22 4 35 2 35 -5 0 -6 10 -8 22 -5 14 4 29 0
40 -10 17 -15 19 -15 37 1 11 10 20 13 22 7 3 -6 10 -7 18 -2 22 14 5 38 -31
46 -59 12 -68 16 -68 34 0 9 -5 22 -11 28 -9 9 -8 19 5 39 15 22 23 25 49 20
39 -8 54 -26 62 -79 l7 -40 13 30 c16 38 35 51 35 25 0 -33 28 -34 47 -2 9 17
21 30 25 30 4 0 8 6 8 13 0 13 66 43 87 39 7 -2 19 11 28 28 9 17 24 30 34 30
10 0 24 7 31 15 7 8 19 15 26 15 8 0 14 5 14 10 0 6 12 10 27 10 14 0 34 6 42
13 22 19 201 51 283 52 59 0 70 -3 104 -31 39 -31 58 -72 44 -95 -5 -7 -4 -21
2 -32 8 -15 16 -18 41 -12 18 3 55 8 82 9 28 2 66 9 85 16 49 16 197 24 205
10 5 -8 13 -6 26 6 15 13 40 18 99 20 51 2 87 8 101 17 18 13 26 13 53 2 23
-10 36 -11 43 -4 14 14 112 14 126 0 21 -21 -6 -30 -86 -29 -45 0 -89 -2 -97
-5 -43 -16 -145 -30 -220 -31 -47 -1 -91 -5 -98 -9 -7 -5 -21 -5 -33 -2 -11 4
-30 0 -44 -9 -13 -9 -42 -16 -63 -16 -49 0 -106 -36 -110 -70 -2 -14 -8 -35
-15 -48 -10 -22 -12 -22 -18 -5 -5 12 -8 7 -8 -19 -1 -42 -20 -69 -68 -99 -28
-18 -31 -23 -22 -41 6 -11 9 -31 6 -44 -5 -27 20 -34 29 -9 4 8 12 15 19 15 8
0 22 11 33 25 11 14 27 25 36 25 9 0 16 3 16 8 0 18 109 61 170 67 36 3 79 8
95 11 17 3 105 7 197 9 119 3 183 9 225 21 57 18 96 19 496 16 35 -1 53 -6 62
-19 12 -16 15 -16 32 -2 31 27 43 13 43 -52 0 -46 3 -59 15 -59 9 0 15 9 15
25 0 20 5 25 25 25 17 0 25 6 25 18 1 15 2 15 15 -2 13 -17 15 -18 15 -3 0 11
8 17 25 17 23 0 25 -3 25 -50 0 -36 4 -50 14 -50 20 0 24 18 19 70 -4 33 -1
49 10 58 18 16 44 6 52 -20 6 -18 8 -18 33 -2 18 12 27 13 30 6 5 -16 39 -15
44 0 3 9 9 8 21 -4 28 -28 21 -40 -22 -36 -33 3 -41 0 -45 -16 -4 -14 -2 -16
7 -7 6 6 26 11 44 11 27 0 33 -4 33 -21 0 -20 4 -21 58 -17 31 3 49 3 40 1
-18 -5 -23 -19 -19 -62 2 -21 -1 -23 -28 -19 -17 3 -31 3 -31 1 0 -2 12 -15
27 -29 23 -21 25 -27 13 -34 -8 -6 -22 -7 -30 -4 -8 3 -40 7 -71 9 -42 4 -60
1 -69 -10 -7 -8 -19 -15 -26 -15 -8 0 -14 -10 -14 -22 0 -17 -3 -19 -9 -9 -5
7 -26 14 -47 15 -37 1 -39 -1 -42 -31 -2 -18 -7 -33 -13 -33 -5 0 -9 4 -9 10
0 5 -10 9 -22 8 -13 -1 -40 4 -62 10 -31 9 -41 8 -52 -3 -22 -22 -50 -27 -88
-16 -31 8 -38 6 -59 -15 -17 -17 -23 -32 -19 -49 3 -18 0 -25 -12 -25 -10 0
-16 9 -16 25 0 14 -4 25 -9 25 -13 0 -20 -50 -7 -50 20 -1 -69 -50 -90 -50
-12 0 -24 -7 -28 -15 -9 -25 -26 -17 -33 15 -4 23 -9 28 -19 20 -9 -9 -14 -6
-17 12 -2 13 -5 5 -6 -19 -1 -31 -5 -43 -16 -43 -8 0 -15 -6 -15 -13 0 -8 -11
-19 -25 -25 -31 -14 -95 -16 -95 -3 0 11 -71 2 -84 -10 -6 -5 -24 -9 -42 -9
-18 0 -34 -5 -36 -11 -2 -6 -44 -11 -110 -12 -105 -2 -106 -2 -128 26 -12 15
-27 27 -34 27 -24 0 -65 -25 -70 -42 -5 -22 -36 -24 -36 -2 0 22 -24 44 -39
35 -14 -9 -4 -41 13 -42 21 -1 -29 -18 -56 -18 -37 -1 -78 -21 -78 -38 0 -8
-7 -22 -16 -31 -13 -13 -21 -14 -46 -4 -19 7 -36 8 -46 2 -47 -25 -93 -39
-149 -45 -35 -4 -63 -10 -63 -14 0 -4 -7 -16 -15 -27 -14 -18 -15 -18 -38 9
-15 16 -28 47 -32 75 -9 59 -10 190 -1 199 9 9 8 41 -2 47 -4 3 -22 -16 -39
-42 -33 -51 -37 -75 -46 -284 -3 -58 -8 -112 -13 -120 -5 -7 -9 -53 -11 -103
-3 -124 -13 -171 -41 -191 -23 -17 -5 -34 36 -34 35 0 351 54 382 66 8 3 66
12 130 20 63 8 129 19 145 24 41 11 236 46 370 66 61 8 121 21 135 27 14 6 52
14 85 18 33 4 137 21 230 39 181 34 194 36 380 68 66 11 163 29 215 40 52 11
140 25 195 32 55 6 117 16 139 21 33 9 105 23 171 34 11 2 32 4 48 4 l27 1 0
1155 0 1155 -58 0 c-58 0 -59 0 -113 -59 l-54 -58 -380 2 c-209 1 -389 3 -400
6 -26 5 -50 46 -37 62 13 15 34 165 26 178 -3 5 -3 28 1 49 l7 40 504 0 c329
0 504 3 504 10 0 7 -1482 10 -4425 10 l-4425 0 0 -1210z m3329 1194 c30 -6 31
-8 31 -60 0 -65 -12 -74 -97 -74 -70 0 -81 13 -75 82 3 33 9 48 20 51 27 7 87
8 121 1z m418 -3 c15 -1 8 -80 -7 -95 -15 -15 -12 -36 4 -36 23 0 27 -28 5
-35 -30 -10 -56 3 -55 28 1 25 -7 26 -179 17 -89 -5 -89 -5 -99 21 -14 41 0
97 27 101 19 3 272 2 304 -1z m200 3 c26 -7 32 -29 21 -71 -8 -30 -11 -32 -72
-38 -86 -9 -106 2 -106 60 0 33 4 45 18 48 26 7 114 8 139 1z m582 -1 c20 -5
22 -10 17 -41 -3 -20 -11 -39 -18 -44 -7 -4 -42 -7 -78 -6 l-65 3 -3 42 c-2
33 1 42 15 46 28 7 105 7 132 0z m320 1 c27 -6 31 -10 31 -40 0 -23 -6 -37
-19 -44 -11 -5 -76 -10 -144 -10 -136 0 -137 1 -137 60 0 19 6 30 18 33 27 7
216 8 251 1z m-1771 -31 c-3 -27 -4 -28 -63 -26 -79 3 -122 -11 -140 -48 -9
-16 -12 -29 -8 -29 4 0 2 -5 -5 -12 -7 -7 -12 -20 -12 -30 0 -31 -39 -36 -251
-34 -112 1 -265 -1 -339 -5 -74 -5 -214 -10 -310 -13 -317 -10 -514 -18 -567
-26 -35 -4 -54 -3 -57 4 -2 6 -5 -21 -5 -61 l-1 -72 33 -5 c17 -3 56 -7 86
-10 29 -3 56 -7 58 -10 3 -2 7 -64 10 -138 7 -161 -8 -301 -48 -452 -27 -105
-40 -229 -20 -197 6 9 32 15 72 17 35 2 101 8 147 14 46 6 102 11 125 11 60
-1 267 15 367 28 126 16 266 31 345 36 39 2 80 5 92 7 12 2 23 -1 23 -7 0 -5
-12 -12 -27 -13 -15 -2 -32 -7 -38 -12 -19 -16 -161 -39 -241 -39 -44 0 -92
-5 -107 -10 -14 -6 -72 -11 -128 -12 -57 -1 -117 -6 -133 -12 -30 -9 -63 -14
-256 -36 -52 -6 -126 -15 -165 -21 -52 -6 -72 -6 -77 3 -6 9 -8 9 -8 0 0 -7
-7 -13 -16 -13 -8 0 -24 -19 -35 -44 -11 -25 -34 -55 -52 -67 -36 -25 -66 -59
-67 -74 0 -6 40 -9 107 -7 113 4 262 -5 280 -16 5 -4 13 -49 15 -101 5 -90 5
-95 -18 -116 -13 -12 -24 -29 -24 -37 0 -22 -27 -25 -199 -24 l-151 1 1 -58
c3 -103 -38 -104 -75 -2 -21 54 -47 81 -69 68 -9 -5 -207 -15 -272 -14 -22 0
-121 2 -220 3 -99 2 -186 7 -192 11 -7 4 -21 3 -31 -2 -22 -12 -42 3 -42 30 0
9 -7 19 -15 23 -12 4 -15 24 -15 90 0 47 4 96 10 110 9 25 12 26 95 26 l85 0
-3 40 c-1 27 -6 39 -14 35 -7 -2 -13 -1 -13 3 0 4 -17 6 -38 4 -28 -3 -42 1
-56 17 -11 12 -26 21 -35 21 -13 1 -13 3 3 11 10 6 37 9 60 7 28 -4 52 1 75
13 32 17 35 17 48 1 12 -15 13 -12 8 23 -4 26 -1 46 8 58 11 16 9 29 -11 89
-42 125 -82 292 -82 340 l0 47 -31 -11 c-17 -6 -49 -8 -72 -5 -22 3 -48 2 -56
-2 -9 -4 -41 -2 -71 4 l-55 12 42 12 c24 6 57 12 75 11 18 0 63 3 100 6 l68 6
-3 152 -2 151 73 9 72 9 0 43 c0 23 3 51 7 61 5 15 4 16 -8 6 -8 -6 -60 -12
-124 -13 -60 -2 -130 -4 -155 -5 -73 -5 -82 1 -78 46 2 21 0 39 -5 39 -8 0 -8
186 1 203 2 4 638 7 1413 7 l1410 0 -3 -27z m2960 18 c7 -1 11 -5 8 -10 -3 -5
-37 -8 -76 -7 -38 0 -70 -3 -70 -8 0 -9 -55 -4 -84 9 -13 5 -17 5 -13 -2 8
-13 -132 -33 -231 -33 -85 0 -113 11 -105 40 5 21 10 21 282 16 152 -3 282 -5
289 -5z m966 0 c10 -16 -6 -42 -33 -53 -14 -5 -118 -12 -231 -14 -113 -2 -239
-6 -281 -9 -86 -5 -107 7 -107 58 l1 27 323 0 c183 0 325 -4 328 -9z m-2085
-1170 c29 -40 28 -87 -1 -95 -65 -17 -118 9 -118 57 0 67 80 93 119 38z m2814
-243 c12 -7 24 -14 26 -15 2 -1 -7 -12 -20 -23 -16 -13 -33 -18 -49 -15 -19 4
-27 0 -35 -17 -9 -20 -18 -23 -74 -25 -36 -2 -79 -7 -96 -13 -18 -6 -39 -8
-48 -4 -15 5 -15 7 0 22 15 16 15 17 0 20 -9 2 -17 7 -17 12 0 19 169 65 205
56 13 -3 34 -2 47 3 31 13 35 13 61 -1z m-7185 -2348 c21 0 23 -3 17 -29 -8
-36 9 -49 34 -27 10 9 26 16 37 17 17 0 16 1 -3 9 -13 5 -23 17 -23 27 0 13 3
14 12 5 7 -7 27 -12 45 -12 36 0 39 -8 34 -96 -2 -30 2 -43 13 -47 9 -4 16
-16 16 -27 0 -15 7 -20 24 -20 19 0 26 -7 31 -32 4 -18 13 -40 19 -48 8 -10
10 -37 7 -83 l-6 -69 -21 24 c-12 12 -25 33 -29 46 -6 22 -25 31 -25 12 0 -5
-8 -10 -17 -11 -16 0 -15 -2 2 -10 16 -7 14 -8 -10 -3 -16 3 -31 7 -33 9 -2 1
4 19 12 40 15 35 15 37 -9 63 -14 15 -25 32 -25 39 0 7 -19 31 -42 53 -30 30
-38 44 -29 50 9 5 10 10 2 14 -6 4 -11 2 -11 -3 0 -22 -47 -11 -57 12 -9 20
-18 23 -54 21 -24 -1 -45 -7 -47 -13 -2 -6 -10 -11 -18 -11 -8 0 -14 -10 -14
-25 0 -14 -9 -34 -20 -45 l-20 -20 0 30 c0 28 44 123 72 158 9 11 25 13 63 8
27 -3 60 -6 73 -6z m174 -430 c36 -11 68 -42 68 -67 0 -19 -78 -17 -97 2 -17
18 -44 16 -50 -2 -4 -12 9 -17 68 -27 83 -14 113 -77 65 -133 -21 -24 -32 -28
-92 -31 -84 -4 -137 19 -142 62 -3 24 0 26 33 26 20 0 43 -7 51 -15 19 -19 74
-20 74 -1 0 8 -21 17 -57 25 -64 12 -103 42 -103 78 0 73 82 110 182 83z m223
-130 l0 -125 -47 -3 -48 -3 0 131 0 131 48 -3 47 -3 0 -125z m-533 -102 c2
-15 13 -25 33 -31 32 -9 55 -44 55 -84 0 -14 6 -23 15 -23 8 0 18 -12 21 -27
9 -37 19 -42 59 -29 25 8 33 15 30 27 -4 10 4 22 19 32 22 15 25 15 30 1 3 -9
1 -24 -4 -35 -9 -15 -7 -19 6 -19 14 0 14 -3 4 -15 -7 -9 -10 -18 -7 -22 7 -6
-72 -63 -88 -63 -14 0 -85 67 -85 80 0 5 -6 10 -12 10 -21 1 -71 80 -95 150
-13 36 -23 66 -23 68 0 1 9 2 19 2 13 0 21 -8 23 -22z m421 -289 c33 -16 55
-52 59 -95 l3 -39 -97 -3 -97 -3 11 -24 c14 -31 55 -34 86 -7 12 10 32 18 44
16 13 -1 30 -3 39 -3 12 -1 15 -8 12 -25 -9 -44 -38 -60 -117 -64 -86 -5 -127
12 -152 60 -23 45 -15 130 16 163 38 41 132 52 193 24z m192 -6 c11 -15 14
-15 36 0 36 26 95 22 124 -8 23 -23 25 -31 25 -130 l0 -105 -49 0 -48 0 -2 87
c-2 95 -4 103 -30 103 -33 0 -41 -22 -41 -107 l0 -83 -50 0 -50 0 0 123 c0 68
3 127 7 130 13 13 66 7 78 -10z"/>
<path d="M783 5052 c-122 -3 -111 15 -116 -192 -3 -96 -8 -145 -16 -148 -6 -2
-11 -11 -11 -20 0 -15 -2 -15 -10 -2 -15 23 -13 190 3 191 6 1 -10 5 -38 9
-27 4 -53 5 -57 3 -5 -2 -8 -78 -8 -167 0 -213 21 -340 87 -518 23 -64 43 -88
43 -53 0 9 12 18 30 22 17 3 33 10 36 14 3 5 10 9 15 9 17 0 -1 -20 -30 -33
-15 -7 -45 -32 -66 -56 l-39 -43 17 -30 c17 -30 17 -32 -1 -52 -27 -30 -44
-65 -37 -76 4 -6 4 -24 0 -40 l-7 -30 -94 0 -94 0 0 -85 0 -85 83 0 82 0 -3
80 -4 80 31 0 c21 0 32 6 36 20 8 25 49 53 100 68 39 12 41 11 67 -21 15 -17
28 -38 28 -44 0 -9 16 -13 45 -13 25 0 45 -3 45 -7 -1 -22 -20 -35 -43 -31
-34 7 -45 -1 -47 -37 -4 -51 -2 -54 31 -48 42 6 65 -3 50 -21 -6 -7 -9 -15 -7
-17 3 -2 -24 -2 -60 -1 l-64 4 3 79 c1 43 -1 79 -5 79 -5 0 -8 -38 -8 -85 l0
-85 54 0 c52 0 53 0 50 -27 -2 -16 -1 -22 2 -15 3 6 12 12 20 12 8 0 17 7 20
15 5 12 27 15 110 15 98 0 104 1 104 20 l0 21 22 -20 c14 -14 29 -19 45 -15
20 5 24 2 29 -25 4 -17 11 -34 15 -37 5 -3 9 -13 9 -23 0 -9 7 -26 15 -37 14
-18 15 -16 9 19 -4 24 -2 37 5 37 6 0 11 9 11 21 0 11 -4 17 -10 14 -5 -3 -10
1 -10 9 0 14 26 16 206 16 l207 0 -7 68 c-3 37 -6 75 -6 85 0 9 -4 17 -8 17
-4 0 -5 -33 -1 -72 4 -40 4 -77 -1 -81 -4 -4 -34 -7 -66 -5 l-59 3 -3 79 -3
79 46 -6 c27 -4 45 -3 45 3 0 6 -44 9 -112 8 -64 -1 -88 -3 -55 -5 48 -3 58
-7 55 -21 -3 -13 -13 -17 -41 -16 -31 2 -37 -2 -38 -20 -1 -11 -2 -28 -3 -36
-1 -8 -4 -19 -8 -25 -4 -6 10 -9 39 -6 42 3 75 -11 60 -25 -3 -4 -35 -9 -71
-11 l-65 -5 1 43 c0 24 0 63 -1 87 l-1 42 -70 -6 c-61 -6 -70 -5 -70 10 0 23
64 110 93 125 32 17 112 180 103 209 -4 12 3 56 18 104 50 168 68 319 58 488
l-7 115 -42 1 c-41 0 -43 -1 -43 -28 0 -21 -5 -28 -20 -28 -18 0 -20 -7 -20
-69 0 -60 -3 -69 -19 -74 -28 -7 -31 -1 -31 69 0 57 -2 63 -22 66 -51 7 -86
-3 -92 -27 -8 -33 3 -55 28 -55 12 0 27 -9 34 -20 11 -18 9 -22 -12 -32 -32
-14 -82 5 -92 35 -11 35 -6 98 10 122 21 33 21 52 0 34 -14 -11 -18 -10 -30 5
-23 33 -28 -5 -10 -92 20 -97 20 -96 -1 -87 -15 5 -16 4 -5 -6 6 -7 12 -25 12
-39 0 -14 6 -49 14 -78 7 -29 12 -52 10 -52 -1 0 -10 7 -19 16 -15 15 -15 14
-10 -12 l7 -29 -36 37 -36 38 0 -30 c0 -27 -2 -29 -19 -18 -11 7 -24 21 -30
33 -8 17 -10 17 -10 3 -1 -12 -9 -18 -27 -18 -16 0 -24 5 -21 13 2 6 11 11 21
9 12 -2 16 5 16 35 0 21 -4 43 -8 48 -12 17 -52 36 -52 25 0 -6 -12 -29 -27
-51 -15 -22 -28 -57 -30 -76 -4 -51 -13 -54 -13 -4 0 26 -4 40 -10 36 -5 -3
-10 -21 -10 -39 0 -19 -6 -39 -14 -45 -11 -9 -12 -2 -8 41 3 32 11 56 19 62
48 28 70 76 34 76 -11 0 -22 6 -24 13 -4 10 -6 10 -6 0 -1 -7 -6 -13 -11 -13
-6 0 -10 6 -9 13 1 6 0 19 -4 27 -3 8 -8 22 -10 30 -3 8 -6 3 -6 -12 -1 -16
-8 -28 -18 -31 -17 -4 -17 -5 0 -6 16 -1 17 -3 3 -16 -21 -21 -24 -19 -32 20
-3 19 -10 35 -15 35 -8 0 -14 -38 -10 -62 1 -6 -21 -2 -40 8 -8 5 6 103 25
168 15 50 20 56 43 56 38 0 20 13 -19 14 -44 1 -49 32 -13 75 29 34 69 41 79
15 11 -28 7 -34 -24 -34 -16 0 -30 -4 -30 -10 0 -5 10 -10 23 -10 13 0 28 -5
34 -11 8 -8 13 -3 18 20 6 28 46 71 66 71 4 0 21 -12 38 -26 30 -25 31 -25 31
-5 0 19 6 21 50 21 l50 0 0 -49 c0 -28 5 -53 10 -56 6 -4 10 6 10 24 0 50 17
81 43 81 22 0 26 -7 38 -62 l14 -63 3 63 3 62 39 0 c71 0 93 -68 39 -122 -38
-38 -26 -49 45 -41 63 7 96 22 49 23 -35 0 -37 4 -47 89 -5 49 -17 61 -61 61
-16 0 -104 1 -195 3 -91 1 -211 1 -267 -1z m-34 -577 c17 -75 54 -165 68 -165
6 0 14 8 18 19 3 10 14 26 24 35 17 15 19 11 54 -78 20 -52 37 -97 37 -102 0
-4 -10 -18 -21 -30 -26 -28 -33 -22 -70 56 l-26 55 -20 -33 -20 -32 -17 67
c-31 122 -36 147 -46 218 -15 110 -8 107 19 -10z m284 -644 c13 -1 17 -10 17
-40 0 -22 -5 -43 -11 -47 -8 -5 -8 -9 1 -14 7 -4 9 -16 6 -28 -6 -18 -14 -21
-69 -19 l-62 2 -3 78 -3 78 53 -5 c29 -2 61 -5 71 -5z m81 -6 c8 -8 18 -24 21
-35 10 -31 27 -12 20 21 -6 26 -4 29 18 29 24 0 25 -2 24 -75 -1 -72 -2 -75
-25 -75 -15 0 -26 7 -29 18 -2 10 -13 23 -24 30 -17 11 -19 9 -19 -23 0 -28
-4 -35 -20 -35 -18 0 -20 7 -20 80 0 72 2 80 19 80 11 0 26 -7 35 -15z"/>
<path d="M3548 4559 c-21 -11 -38 -24 -38 -30 0 -5 -12 -8 -26 -7 -35 4 -52
-22 -37 -54 6 -13 14 -31 17 -40 8 -26 24 -22 41 12 12 23 22 30 45 30 16 0
35 6 42 13 7 8 19 12 25 10 13 -5 35 58 24 68 -16 17 -59 16 -93 -2z"/>
<path d="M4023 3383 c-37 -7 -33 -28 10 -48 23 -11 52 -30 66 -42 13 -13 34
-23 46 -23 13 0 28 -7 36 -16 7 -8 30 -24 51 -35 21 -11 36 -24 33 -29 -4 -6
0 -10 8 -10 8 0 22 -9 32 -20 12 -13 25 -18 40 -14 17 4 35 -8 82 -53 71 -68
89 -83 101 -83 5 0 33 -24 63 -54 29 -30 58 -52 64 -49 7 2 17 -3 24 -11 10
-12 17 -13 31 -4 25 16 52 3 48 -25 -3 -24 32 -77 51 -77 6 0 11 -6 11 -12 0
-9 4 -8 10 2 27 41 -12 130 -57 130 -16 0 -27 7 -30 20 -6 23 -19 26 -27 8 -3
-7 -4 -4 -1 7 2 11 -2 38 -9 60 -9 25 -11 44 -5 50 5 5 9 13 9 17 0 14 -38 9
-53 -7 -8 -8 -17 -12 -19 -10 -2 2 -20 6 -39 7 -33 3 -63 21 -102 66 -12 12
-25 22 -30 22 -5 0 -21 8 -35 19 -15 10 -39 21 -54 25 -15 3 -55 33 -90 66
-34 33 -64 60 -66 60 -1 0 -31 13 -65 29 -69 31 -101 40 -134 34z"/>
<path d="M5865 2480 c-3 -5 0 -10 7 -10 7 0 4 -6 -7 -12 -27 -15 -36 -30 -29
-50 3 -10 1 -18 -5 -18 -6 0 -11 -13 -11 -30 0 -20 -11 -39 -37 -65 -20 -19
-40 -35 -45 -35 -4 0 -8 -7 -8 -16 0 -12 6 -15 23 -11 12 3 44 9 70 12 74 11
80 22 62 117 -6 31 -4 39 14 50 12 7 21 17 21 23 0 17 -48 57 -55 45z"/>
<path d="M1903 2110 c-10 -27 -9 -32 14 -50 14 -11 31 -20 38 -20 7 0 19 -10
27 -22 9 -14 35 -29 64 -37 27 -7 66 -26 86 -42 20 -16 44 -29 53 -29 9 0 29
-6 43 -14 15 -8 49 -18 75 -21 28 -4 57 -15 68 -26 10 -10 25 -19 32 -19 7 0
30 -9 50 -19 30 -15 103 -29 190 -35 5 -1 16 -11 25 -23 21 -27 77 -40 85 -20
8 20 -7 39 -45 56 -18 9 -31 20 -29 25 5 14 -30 30 -38 18 -5 -8 -15 -7 -34 3
-15 8 -34 12 -41 9 -8 -3 -27 11 -44 32 -29 35 -31 36 -48 20 -16 -16 -18 -17
-26 -1 -7 12 -18 15 -41 10 -23 -4 -28 -3 -17 4 22 15 8 22 -46 24 -38 2 -54
8 -80 32 -17 17 -39 29 -48 27 -9 -2 -25 7 -35 19 -15 19 -21 21 -34 11 -11
-10 -20 -9 -43 3 -16 8 -34 15 -40 15 -6 0 -17 7 -24 15 -7 8 -27 15 -44 15
-32 0 -68 28 -77 58 -3 7 -9 -1 -16 -18z"/>
<path d="M8128 1243 c-8 -10 -25 -35 -37 -56 -27 -45 -58 -65 -67 -43 -8 22
-217 21 -239 0 -8 -9 -15 -20 -15 -25 0 -5 -13 0 -29 12 -51 38 -156 46 -216
16 -11 -5 -32 -21 -48 -35 l-27 -26 -16 23 c-24 33 -74 51 -144 51 -64 0 -127
-20 -147 -46 -10 -14 -16 -13 -49 12 -33 25 -48 29 -118 32 -71 3 -85 1 -116
-20 -19 -13 -45 -44 -58 -70 -20 -39 -23 -56 -17 -98 8 -61 39 -109 85 -133
49 -25 177 -20 216 8 l27 21 22 -22 c29 -29 104 -41 156 -25 29 9 44 9 60 0
28 -15 105 -6 128 15 16 15 21 15 47 1 32 -17 148 -20 187 -6 13 5 31 17 40
26 15 14 19 11 16 -11 -2 -15 30 -24 88 -24 83 0 93 11 93 102 0 51 3 69 12
66 7 -3 16 -21 19 -40 13 -84 77 -128 184 -128 128 0 178 45 177 160 -1 77
-16 115 -61 153 -30 24 -30 25 -10 42 24 23 25 61 0 75 -33 17 -126 13 -143
-7z m-416 -141 c31 -18 48 -51 48 -92 0 -33 13 -30 -149 -35 -40 -1 -49 -16
-26 -39 23 -22 62 -20 77 4 10 15 24 20 55 20 38 0 43 -3 43 -23 0 -13 -12
-34 -26 -48 -23 -21 -34 -24 -111 -24 -83 0 -85 1 -114 33 -26 28 -29 40 -29
96 0 55 3 67 27 90 14 14 38 29 52 32 14 3 31 7 36 9 19 7 90 -7 117 -23z
m508 18 c37 -10 73 -54 84 -103 8 -33 7 -34 -106 -42 -49 -4 -88 -11 -88 -15
0 -17 32 -40 54 -40 13 0 31 9 41 20 12 13 31 20 57 20 34 0 38 -3 38 -24 0
-15 -12 -35 -32 -51 -30 -25 -37 -27 -111 -23 -74 3 -80 5 -108 36 -25 28 -29
40 -29 92 0 51 4 64 28 91 38 42 105 58 172 39z m-1159 -17 c29 -17 55 -64 45
-81 -3 -5 -21 -9 -41 -10 -26 -1 -41 5 -57 23 -40 46 -88 22 -88 -45 0 -68 49
-92 93 -44 18 20 32 25 58 22 30 -3 34 -6 31 -28 -1 -14 -16 -38 -33 -54 -30
-26 -36 -28 -105 -24 -67 3 -77 6 -105 34 -57 57 -47 166 19 207 37 23 144 23
183 0z m319 0 c37 -25 40 -32 40 -110 0 -60 3 -73 16 -73 11 0 14 -8 12 -32
-3 -29 -7 -33 -36 -36 -19 -2 -44 4 -58 13 -22 14 -27 14 -54 0 -37 -19 -83
-19 -120 0 -26 14 -30 21 -30 60 0 57 28 81 111 90 48 6 59 10 57 24 -4 21
-51 26 -68 7 -14 -18 -85 -22 -95 -6 -9 15 22 59 48 70 40 16 150 12 177 -7z
m514 1 c5 -14 7 -14 22 0 8 9 31 16 50 16 35 0 35 0 32 -42 -3 -39 -5 -43 -33
-46 -48 -6 -55 -18 -55 -98 l0 -74 -50 0 -50 0 0 130 0 130 39 0 c26 0 41 -5
45 -16z"/>
<path d="M5839 1233 c-11 -9 -27 -31 -35 -49 -8 -19 -19 -34 -24 -34 -6 0 -10
-7 -10 -15 0 -19 -2 -19 -42 4 -73 43 -188 36 -243 -15 l-27 -25 -27 24 c-44
42 -91 53 -169 40 -56 -10 -72 -17 -99 -46 -31 -34 -31 -37 -31 -126 0 -73 4
-96 19 -115 30 -39 85 -59 155 -57 73 1 104 11 133 42 l20 22 31 -26 c17 -15
47 -29 66 -33 51 -9 145 1 182 20 28 14 32 15 32 1 0 -21 28 -25 184 -22 146
2 139 0 163 46 1 2 17 -7 35 -20 28 -21 45 -24 115 -24 70 0 86 3 113 23 17
13 32 22 33 20 22 -42 23 -43 98 -43 l74 0 6 78 c4 43 8 79 10 81 2 1 20 7 39
12 35 10 35 10 38 73 2 36 -2 68 -8 76 -8 10 -40 14 -117 14 -100 0 -106 -1
-129 -26 -13 -14 -24 -21 -24 -15 0 22 -87 45 -154 40 -54 -3 -71 -9 -103 -35
l-38 -30 -18 24 c-16 20 -17 29 -7 58 8 24 8 40 1 54 -10 17 -22 19 -115 19
-77 0 -111 -4 -127 -15z m-458 -124 c26 -10 53 -51 42 -63 -13 -12 -72 -5
-102 11 -24 15 -33 15 -43 5 -17 -17 5 -32 45 -32 30 0 87 -25 99 -44 15 -22
8 -73 -13 -97 -19 -22 -28 -24 -104 -24 -74 0 -86 3 -109 24 -14 14 -26 33
-26 43 0 15 8 18 44 18 30 0 46 -5 50 -15 3 -10 19 -15 42 -15 48 0 40 22 -12
33 -65 15 -104 36 -114 62 -32 84 86 139 201 94z m316 0 c13 -5 32 -23 43 -41
20 -32 27 -87 13 -89 -5 0 -46 -2 -93 -3 -88 -4 -111 -16 -74 -43 25 -19 51
-16 71 7 12 14 30 20 60 20 51 0 57 -19 18 -64 -22 -25 -33 -29 -93 -34 -86
-6 -133 13 -157 65 -23 47 -14 127 16 159 37 39 125 49 196 23z m191 -5 c9
-16 11 -16 33 0 34 24 103 21 128 -5 17 -18 20 -38 23 -130 l3 -109 -47 0 -47
0 -3 86 c-2 70 -6 89 -20 98 -13 8 -23 8 -35 0 -15 -9 -19 -28 -21 -98 l-3
-86 -44 0 -45 0 0 130 0 130 35 0 c21 0 37 -6 43 -16z m479 -9 c65 -61 53
-184 -22 -219 -38 -18 -111 -21 -151 -6 -94 36 -100 184 -9 239 33 19 156 10
182 -14z m171 8 c9 -16 11 -16 27 0 9 9 30 17 46 17 28 0 29 -2 29 -45 0 -43
-1 -45 -28 -45 -43 0 -52 -17 -52 -97 l0 -73 -50 0 -50 0 0 130 0 130 35 0
c21 0 37 -6 43 -17z"/>
<path d="M3133 1227 c-5 -7 -15 -24 -23 -39 -7 -16 -19 -28 -26 -28 -7 0 -18
-8 -23 -18 -12 -22 -3 -102 14 -122 7 -8 15 -42 18 -76 5 -67 20 -97 53 -113
31 -14 294 -13 311 1 9 7 13 36 13 84 0 73 1 74 25 74 22 0 24 -3 15 -19 -28
-54 5 -131 65 -151 23 -8 55 -10 84 -5 25 3 57 6 71 4 41 -3 106 -3 290 0 96
2 205 3 243 2 l67 -1 0 -45 c0 -47 -1 -46 55 -49 16 -1 21 -9 23 -38 3 -38 3
-38 -36 -38 -60 0 -101 -26 -124 -77 -37 -83 -16 -201 42 -243 23 -16 44 -19
136 -19 130 0 150 4 157 31 5 19 6 19 37 -4 43 -32 177 -38 229 -11 57 30 72
60 72 142 0 83 -18 123 -71 158 -27 19 -47 23 -110 23 -66 0 -83 -4 -114 -25
l-36 -24 0 47 c0 78 -7 92 -46 92 -32 0 -34 2 -34 34 0 33 1 34 49 41 27 4 58
15 70 26 21 20 21 20 49 -1 37 -28 103 -36 151 -20 30 10 43 10 61 0 28 -15
104 -5 125 16 19 20 20 103 1 110 -9 3 -16 30 -20 75 -11 104 -52 139 -165
139 -83 0 -117 -9 -146 -38 l-26 -26 -22 26 c-22 26 -62 45 -82 39 -5 -2 -54
-3 -108 -3 -84 1 -99 -2 -109 -17 -11 -18 -12 -18 -39 1 -22 17 -36 19 -80 14
-30 -3 -63 -6 -74 -6 -11 1 -80 3 -153 5 l-132 5 -12 -24 -11 -25 -29 22 c-35
26 -136 35 -204 18 -33 -9 -50 -9 -59 -1 -8 7 -58 11 -127 10 -62 -1 -121 -1
-130 -1 -13 1 -18 9 -18 31 0 18 -7 33 -17 38 -26 14 -110 13 -120 -1z m97
-72 c0 -31 3 -35 25 -35 22 0 25 -4 25 -35 0 -31 -3 -35 -25 -35 -25 0 -26 -1
-23 -62 3 -57 5 -63 26 -66 17 -3 22 -10 22 -33 0 -28 -1 -29 -53 -29 -80 0
-91 13 -95 109 -3 61 -8 81 -18 81 -9 0 -14 12 -14 35 0 28 4 35 20 35 14 0
21 9 26 35 6 33 9 35 45 35 38 0 39 -1 39 -35z m184 -51 c6 -16 8 -16 24 0 10
9 33 16 51 16 32 0 32 -1 29 -42 -3 -40 -5 -43 -33 -46 -43 -5 -55 -26 -55
-104 l0 -68 -50 0 -50 0 0 123 c0 68 3 127 7 130 14 14 71 7 77 -9z m377 -13
c27 -27 29 -35 29 -100 0 -58 3 -71 16 -71 11 0 14 -8 12 -32 -3 -31 -6 -33
-43 -36 -23 -2 -48 3 -59 11 -16 12 -25 11 -60 -1 -40 -15 -95 -12 -124 6 -7
5 -15 25 -19 45 -5 31 -1 40 24 65 23 24 41 31 91 37 64 7 71 12 50 33 -17 17
-43 15 -58 -3 -9 -11 -26 -15 -51 -12 -46 4 -53 9 -45 35 10 32 64 52 139 52
63 0 71 -3 98 -29z m173 13 c5 -14 8 -14 28 0 29 20 97 20 126 0 20 -14 24
-14 44 0 37 26 120 18 134 -12 5 -10 10 -65 13 -125 l6 -107 -52 0 -52 0 -3
93 c-3 86 -4 92 -25 95 -27 4 -32 -12 -35 -113 l-3 -70 -47 -3 -48 -3 0 80 c0
91 -5 111 -29 111 -33 0 -41 -22 -41 -107 l0 -83 -50 0 -50 0 0 123 c0 68 3
127 7 130 13 14 71 7 77 -9z m639 -4 c49 -39 60 -145 21 -205 -22 -33 -85 -52
-120 -37 -13 7 -27 12 -29 12 -2 0 -5 -24 -7 -52 l-3 -53 -45 0 -45 0 -3 173
-2 172 39 0 c22 0 41 -5 43 -12 3 -8 11 -7 28 5 33 23 91 22 123 -3z m329 -7
c18 -18 22 -36 25 -95 2 -52 7 -74 18 -80 20 -12 19 -54 -1 -62 -26 -10 -57
-7 -87 9 -24 12 -32 12 -62 -1 -91 -38 -158 3 -140 86 8 37 41 56 117 65 52 7
57 9 47 26 -12 23 -32 24 -62 5 -24 -16 -84 -18 -93 -4 -11 17 8 46 39 62 49
25 169 18 199 -11z m-387 -564 l0 -174 -35 -3 c-23 -2 -38 2 -46 12 -10 14
-13 15 -24 1 -8 -10 -30 -15 -64 -15 -72 0 -98 27 -104 110 -9 122 46 170 158
139 12 -3 16 8 18 54 l3 57 47 -4 47 -4 0 -173z m234 80 c65 -14 101 -53 101
-110 l0 -39 -95 0 c-52 0 -95 -4 -95 -9 0 -19 32 -41 61 -41 19 0 29 5 29 15
0 9 9 15 23 16 12 0 34 2 50 4 23 3 27 0 27 -20 0 -14 -13 -34 -32 -50 -29
-25 -37 -27 -107 -23 -92 4 -125 24 -139 83 -21 88 8 148 85 172 21 6 39 12
40 12 1 1 25 -4 52 -10z"/>
<path d="M1587 1165 c-32 -6 -71 -21 -87 -34 -17 -12 -30 -18 -30 -14 0 4 -19
17 -42 28 -31 15 -62 20 -115 19 -66 0 -76 -3 -110 -31 -43 -34 -62 -77 -62
-145 -2 -113 57 -166 190 -170 51 -2 75 3 108 20 23 12 46 20 51 17 11 -7 1
-35 -12 -35 -6 0 -5 6 2 15 7 8 8 15 2 15 -5 0 -15 -6 -21 -14 -10 -12 -7 -18
16 -31 15 -9 20 -14 10 -11 -11 4 -31 8 -45 11 -24 5 -25 4 -6 -4 28 -12 39
-101 14 -102 -11 0 -10 -2 3 -8 10 -4 19 -11 20 -16 1 -6 6 -9 10 -7 5 1 6 -2
2 -8 -3 -5 -14 -10 -23 -11 -14 0 -13 -2 3 -9 11 -5 14 -9 8 -9 -7 -1 -26 -22
-43 -48 -23 -37 -30 -60 -30 -99 0 -63 16 -113 44 -137 11 -10 15 -16 9 -12
-7 3 -13 2 -13 -4 0 -18 31 -41 56 -41 17 0 28 -8 36 -26 8 -17 18 -24 30 -21
10 3 21 1 24 -4 9 -15 24 -10 24 9 0 22 40 62 62 62 8 0 27 9 42 21 20 16 26
17 26 6 0 -9 -6 -17 -12 -20 -7 -2 -2 -5 12 -5 14 0 55 -1 92 -2 75 -2 88 2
88 31 0 11 5 30 11 41 8 14 8 23 0 31 -7 7 -11 66 -11 163 0 174 6 164 -100
164 -76 0 -80 -4 -80 -88 l0 -42 -42 21 c-26 14 -69 24 -111 27 -37 3 -70 9
-74 15 -4 6 -1 7 6 3 7 -5 21 0 31 9 11 10 27 15 37 13 14 -4 18 2 20 30 1 26
-3 35 -18 39 -10 3 -19 10 -19 15 0 6 7 8 15 4 8 -3 15 0 15 5 0 6 -9 9 -20 6
-21 -6 -37 8 -20 18 5 3 23 -1 41 -10 27 -15 34 -15 62 -2 18 8 43 18 57 22
67 20 89 67 85 179 -2 83 -4 89 -35 121 -41 42 -103 56 -183 40z m-205 -47
c47 -14 78 -53 81 -104 l2 -38 -92 2 c-92 1 -93 1 -93 -22 0 -39 55 -50 85
-16 12 13 31 20 56 20 47 0 52 -7 32 -47 -18 -37 -55 -53 -125 -53 -100 0
-148 44 -148 135 0 103 89 157 202 123z m323 -2 c31 -13 55 -41 55 -65 0 -17
-73 -13 -98 5 -22 15 -62 11 -62 -6 0 -10 14 -14 82 -25 55 -9 80 -33 80 -79
0 -65 -26 -81 -128 -81 -82 0 -87 1 -110 28 -37 43 -32 57 21 57 31 0 47 -5
51 -15 8 -20 74 -21 74 -1 0 8 -21 18 -58 25 -32 6 -68 20 -80 32 -26 23 -28
65 -7 97 28 39 119 53 180 28z m175 -592 l0 -175 -47 3 -48 3 -2 160 c-1 88 0
166 2 173 3 7 22 12 50 12 l45 0 0 -176z m-225 79 c11 -3 32 -17 48 -31 21
-20 27 -35 27 -69 l0 -43 -95 0 c-52 0 -95 -3 -95 -6 0 -39 58 -58 89 -30 9 8
34 16 56 18 34 2 40 0 43 -17 4 -29 -40 -67 -85 -74 -130 -22 -217 47 -198
158 14 85 99 123 210 94z"/>
<path d="M2468 1165 c-3 -4 -120 -6 -259 -6 -169 0 -257 -3 -266 -10 -9 -8
-13 -42 -13 -118 0 -113 19 -179 57 -199 24 -13 601 -14 609 -1 3 6 16 4 31
-6 19 -13 38 -15 81 -11 32 4 71 6 87 5 154 -7 165 -2 165 73 0 34 -4 50 -15
54 -11 5 -15 22 -15 63 0 68 -14 98 -60 129 -32 21 -44 23 -127 20 -80 -3 -95
-6 -117 -27 l-25 -24 -31 27 c-17 14 -37 26 -43 26 -7 0 -21 3 -32 6 -11 3
-23 2 -27 -1z m-398 -127 c0 -94 7 -111 41 -106 23 3 24 7 29 93 l5 90 48 3
47 3 0 -130 0 -131 -40 0 c-29 0 -40 4 -40 15 0 19 -9 19 -34 0 -11 -8 -39
-15 -63 -15 -49 0 -77 23 -87 72 -8 41 -8 173 1 181 3 4 26 7 50 7 l43 0 0
-82z m314 67 c5 -14 9 -14 35 0 41 21 94 19 122 -4 23 -18 24 -26 24 -128 l0
-108 -47 -3 -48 -3 0 83 c0 97 -7 113 -44 104 -26 -6 -26 -8 -26 -96 l0 -90
-50 0 -50 0 0 130 0 130 39 0 c26 0 41 -5 45 -15z m478 -13 c19 -18 23 -36 26
-97 3 -57 8 -75 19 -75 10 0 13 -9 11 -32 -3 -29 -7 -33 -35 -36 -18 -2 -44 3
-59 11 -24 13 -33 13 -72 -1 -106 -36 -180 41 -118 122 10 12 38 22 85 29 70
11 81 20 48 41 -12 8 -24 6 -44 -6 -28 -16 -85 -19 -99 -5 -12 12 17 56 45 66
14 6 59 9 98 8 60 -2 77 -6 95 -25z"/>
<path d="M3230 737 c-25 -12 -26 -15 -29 -99 l-1 -28 -32 20 c-37 22 -117 27
-135 9 -9 -9 -19 -9 -40 -1 -28 11 -222 15 -255 6 -10 -3 -18 -14 -18 -25 0
-20 -1 -20 -36 2 -24 15 -58 23 -105 27 -74 5 -118 -7 -157 -42 l-23 -21 -17
21 c-9 12 -26 26 -37 32 -28 14 -244 13 -267 -1 -16 -11 -18 -27 -18 -157 0
-100 4 -150 12 -158 15 -15 144 -16 153 -2 5 8 11 8 20 0 8 -6 42 -10 81 -8
58 3 70 6 79 24 l11 22 29 -22 c23 -16 47 -22 110 -24 73 -3 84 -1 118 22 45
31 47 31 47 7 0 -27 10 -31 77 -31 640 1 683 2 708 22 20 15 25 16 25 5 0 -20
22 -27 86 -27 87 0 94 7 94 95 0 42 4 75 10 75 13 0 30 -34 30 -62 0 -28 52
-82 93 -97 48 -18 153 -13 197 9 58 30 70 53 70 140 0 98 -20 132 -96 167 -62
28 -117 27 -176 -3 -29 -15 -34 -15 -58 -1 -19 11 -52 16 -121 15 -100 -1
-129 -9 -129 -36 0 -10 -3 -13 -8 -6 -12 18 -55 38 -97 43 -37 6 -40 8 -40 37
-1 49 -20 64 -79 64 -28 0 -62 -6 -76 -13z m110 -89 c0 -54 10 -72 25 -48 8
13 66 13 98 1 38 -15 60 -73 55 -144 -4 -50 -9 -64 -32 -84 -33 -28 -115 -33
-136 -8 -11 14 -14 13 -24 -1 -8 -10 -23 -14 -46 -12 l-35 3 -3 155 c-1 85 0
164 2 175 4 16 14 20 51 20 l45 1 0 -58z m636 -38 c13 0 38 -13 55 -28 24 -21
32 -38 36 -75 l6 -47 -97 0 c-53 0 -96 -3 -96 -6 0 -3 5 -14 10 -25 13 -23 65
-26 77 -5 8 14 35 19 81 17 31 -1 28 -27 -7 -62 -27 -26 -36 -29 -95 -29 -101
0 -134 17 -155 83 -23 67 4 145 57 166 34 13 73 19 90 15 8 -2 24 -4 38 -4z
m-1795 -16 c16 -15 20 -15 41 0 23 16 73 21 103 10 32 -12 45 -59 45 -159 l0
-95 -50 0 -50 0 0 90 c0 75 -3 92 -16 97 -37 14 -49 -10 -52 -101 l-3 -86 -49
0 -50 0 0 123 c0 68 3 127 7 130 12 13 56 7 74 -9z m458 2 c37 -20 51 -39 61
-80 22 -98 -32 -166 -131 -167 -102 -1 -149 38 -149 123 0 59 20 102 58 122
35 19 125 20 161 2z m193 -3 c17 -15 19 -15 36 0 23 21 90 22 120 2 19 -14 24
-14 51 0 44 22 88 19 116 -10 23 -23 25 -31 25 -130 l0 -106 -47 3 -48 3 -2
84 c-2 90 -9 107 -42 96 -18 -5 -21 -15 -23 -93 l-3 -87 -47 -3 -48 -3 0 91
c0 75 -3 92 -16 97 -37 14 -49 -10 -52 -101 l-3 -87 -47 3 -47 3 -3 114 c-1
63 0 121 2 128 7 18 56 16 78 -4z m817 0 c9 -17 10 -17 29 0 12 11 31 17 49
15 26 -3 28 -6 28 -43 0 -37 -2 -40 -30 -43 -48 -6 -55 -18 -55 -98 l0 -74
-50 0 -50 0 0 123 c0 68 3 127 7 130 13 14 62 7 72 -10z"/>
<path d="M7748 742 c-21 -9 -54 -51 -68 -86 -5 -14 -16 -26 -23 -26 -8 0 -22
-9 -32 -20 -18 -19 -18 -19 -47 5 -37 31 -67 39 -116 31 -20 -4 -46 -6 -57 -6
-244 9 -261 8 -282 -6 -13 -8 -23 -22 -23 -31 0 -16 -1 -16 -12 0 -35 46 -169
62 -243 28 -56 -25 -70 -46 -72 -110 -1 -31 -5 -70 -9 -88 -17 -87 43 -140
145 -129 31 4 65 6 76 6 19 -1 174 0 367 4 94 1 114 -11 58 -36 -17 -7 -30
-21 -30 -30 0 -10 -4 -18 -10 -18 -5 0 -10 -4 -10 -10 0 -5 7 -10 15 -10 8 0
15 5 15 10 0 6 11 10 25 10 14 0 25 4 25 9 0 5 13 23 29 40 23 25 37 31 69 31
50 0 72 8 72 26 0 18 3 18 47 -6 21 -11 49 -20 63 -20 23 -1 21 -3 -13 -21
-21 -11 -40 -26 -43 -34 -3 -8 -18 -17 -32 -20 -15 -3 -38 -21 -52 -40 -14
-18 -32 -33 -40 -33 -37 3 -79 -16 -91 -41 -8 -14 -22 -33 -33 -42 -14 -12
-17 -22 -11 -47 l7 -32 79 0 79 0 0 35 c0 24 5 35 14 35 8 0 16 10 18 22 2 13
15 29 31 36 15 7 27 19 27 25 0 19 78 99 90 92 5 -3 10 1 10 9 0 9 7 16 15 16
8 0 15 5 15 10 0 6 12 10 28 10 21 0 24 2 12 10 -12 8 -12 10 5 10 11 0 34 9
52 19 31 19 31 19 36 0 3 -13 14 -19 31 -19 31 0 36 -29 7 -37 -11 -3 -26 -20
-33 -38 -14 -34 -97 -105 -124 -105 -8 0 -31 -15 -49 -34 -25 -24 -35 -42 -35
-65 0 -31 0 -31 54 -31 34 0 56 5 59 13 4 9 6 9 6 0 1 -10 37 -13 146 -13 127
0 145 2 145 16 0 10 -5 14 -15 10 -9 -3 -18 1 -21 9 -4 8 -10 12 -15 10 -4 -3
-25 3 -46 14 -29 14 -51 18 -86 14 -37 -4 -48 -2 -53 11 -11 28 4 66 27 66 20
0 23 4 34 54 5 23 10 27 30 24 22 -5 25 -1 31 38 6 41 8 44 38 45 17 0 69 1
116 2 l85 2 8 65 c9 80 0 187 -19 217 -26 41 -62 51 -179 52 -128 0 -145 -3
-145 -30 0 -19 -1 -19 -27 -2 -16 9 -30 18 -32 20 -3 2 6 14 18 27 43 45 5 87
-77 85 -20 0 -45 -3 -54 -7z m102 -147 c32 -16 51 -51 53 -96 l2 -34 -92 -3
c-94 -3 -110 -11 -81 -40 16 -16 65 -15 75 2 9 15 90 28 99 15 8 -14 -27 -66
-53 -78 -35 -16 -139 -13 -173 4 -76 39 -81 187 -7 226 54 29 124 31 177 4z
m-793 -19 c19 -23 23 -38 23 -97 0 -56 3 -69 16 -69 11 0 14 -8 12 -32 -3 -29
-7 -33 -36 -36 -18 -2 -45 3 -60 10 -23 12 -33 12 -57 2 -93 -40 -171 9 -149
93 8 29 61 53 117 53 52 0 67 14 43 38 -16 16 -19 16 -47 -1 -34 -19 -94 -23
-104 -7 -9 15 21 59 48 71 12 5 55 7 96 5 66 -3 77 -6 98 -30z m168 17 c11
-15 14 -15 36 0 31 22 93 22 115 0 15 -16 18 -16 46 0 44 25 94 22 123 -8 23
-23 25 -31 25 -130 l0 -106 -47 3 -48 3 -5 90 c-5 88 -6 90 -30 90 -24 0 -25
-2 -30 -90 l-5 -90 -47 -3 -48 -3 0 80 c0 91 -5 111 -29 111 -33 0 -41 -22
-41 -108 l0 -83 -47 3 -48 3 -3 114 c-1 63 0 121 2 128 8 19 66 16 81 -4z
m814 0 c9 -17 10 -17 28 0 30 27 98 23 128 -8 23 -23 25 -31 25 -130 l0 -106
-47 3 -48 3 -1 77 c-2 88 -7 108 -28 108 -34 0 -46 -29 -46 -111 l0 -80 -46 3
-47 3 1 118 c0 64 1 122 1 127 2 18 69 11 80 -7z"/>
<path d="M6108 695 c-25 -35 -38 -45 -60 -45 -16 0 -35 -8 -44 -18 -15 -18
-17 -18 -52 0 -67 34 -222 16 -239 -27 -7 -19 -29 -19 -36 -2 -18 46 -171 63
-242 27 -22 -11 -40 -20 -42 -20 -1 0 -3 24 -5 53 l-3 52 -79 3 c-44 2 -83 -1
-88 -6 -4 -4 -11 -52 -15 -105 l-6 -96 -76 -3 -76 -3 0 -62 c0 -51 4 -66 24
-87 34 -36 81 -49 164 -44 73 3 126 27 127 56 0 18 15 15 36 -9 30 -34 78 -49
156 -49 62 0 79 4 111 25 l37 26 31 -23 c25 -19 46 -24 115 -27 77 -3 88 -1
122 22 l38 25 27 -23 c25 -22 35 -23 157 -24 118 0 131 2 140 19 10 19 11 19
43 0 47 -29 176 -28 223 1 41 25 60 81 46 133 -6 18 -7 45 -5 60 8 40 -14 81
-58 105 -52 30 -155 31 -203 3 -31 -19 -33 -19 -55 -1 -12 10 -28 16 -35 13
-8 -3 -17 -1 -21 5 -3 6 -1 11 5 11 6 0 15 11 22 25 18 41 -3 55 -83 55 l-69
0 -32 -45z m-760 -136 c4 -176 -16 -209 -133 -209 -88 0 -123 23 -139 93 -6
27 -6 27 49 27 49 0 55 -2 55 -21 0 -16 5 -20 28 -17 l27 3 3 115 c1 63 4 121
7 127 3 9 21 12 52 10 l48 -3 3 -125z m269 40 c31 -11 63 -66 63 -106 l0 -33
-95 0 c-52 0 -95 -4 -95 -9 0 -33 71 -55 87 -27 8 14 35 19 81 17 31 -1 28
-27 -7 -62 -27 -26 -36 -29 -98 -29 -88 0 -131 22 -150 76 -27 78 10 166 76
180 14 3 31 7 36 9 13 4 73 -5 102 -16z m280 11 c27 0 88 -54 78 -70 -8 -12
-95 -13 -95 -1 0 13 -36 20 -51 10 -20 -13 2 -25 57 -34 63 -9 94 -37 94 -86
0 -34 -5 -42 -32 -59 -37 -22 -128 -27 -174 -10 -31 12 -53 37 -54 62 0 21 55
22 87 2 28 -18 86 -19 81 -2 -3 7 -20 16 -39 20 -93 22 -107 28 -118 56 -13
32 -4 69 23 92 19 15 83 30 104 24 8 -2 25 -4 39 -4z m626 -1 c42 -11 77 -41
77 -64 0 -11 -12 -15 -44 -15 -24 0 -46 4 -48 9 -3 10 -22 14 -52 12 -37 -2 3
-28 53 -35 93 -12 129 -73 78 -132 -44 -50 -181 -50 -224 1 -13 15 -22 32 -20
39 6 18 72 19 90 2 19 -19 81 -22 75 -4 -3 7 -33 20 -68 30 -35 9 -70 24 -77
34 -32 44 -3 107 54 120 16 3 33 7 38 9 18 6 29 5 68 -6z m-395 -96 l3 -93 28
0 c36 0 41 12 41 111 l0 80 48 -3 47 -3 0 -125 0 -125 -38 -3 c-27 -2 -39 1
-43 13 -6 14 -9 14 -30 0 -35 -23 -103 -19 -131 7 -21 20 -23 30 -23 123 0 56
3 105 7 109 4 4 25 6 48 4 l40 -3 3 -92z"/>
<path d="M8745 550 c3 -5 -1 -20 -9 -32 -9 -12 -16 -35 -16 -50 0 -20 -7 -31
-22 -37 -38 -15 -58 -48 -58 -95 l0 -43 -52 -6 c-37 -4 -60 -1 -76 9 -27 18
-51 7 -83 -37 -26 -37 -16 -52 28 -40 25 7 33 6 37 -6 4 -9 2 -21 -4 -28 -14
-17 7 -33 50 -37 39 -3 50 -26 30 -63 -10 -19 -20 -23 -56 -21 -27 0 -46 -4
-49 -11 -2 -7 -16 -13 -29 -13 -15 0 -30 -8 -36 -20 -11 -20 -8 -20 230 -20
l240 0 0 174 c0 143 -3 176 -15 186 -9 7 -13 15 -11 18 8 7 -21 32 -39 32 -18
0 -30 24 -20 40 4 6 9 34 10 61 4 49 4 49 -26 49 -18 0 -28 -4 -24 -10z"/>
<path d="M8586 512 c-6 -30 -12 -42 -21 -38 -9 3 -12 0 -8 -10 7 -18 -2 -18
-31 2 -23 14 -25 14 -31 -6 -8 -26 -43 -49 -79 -52 -34 -3 -43 -21 -26 -54 20
-36 80 -34 130 6 21 17 46 30 55 30 17 0 17 1 2 18 -23 25 -21 37 9 59 23 17
25 23 16 53 l-9 35 -7 -43z"/>
<path d="M7260 194 c-14 -7 -33 -14 -42 -14 -10 0 -18 -4 -18 -10 0 -18 -46
-55 -64 -52 -10 2 -25 -3 -34 -11 -9 -8 -27 -18 -39 -21 -25 -8 -29 -26 -13
-57 11 -20 50 -27 50 -9 0 6 7 10 15 10 8 0 15 4 15 8 0 5 16 14 35 22 21 8
35 21 35 31 0 19 19 29 56 29 15 0 24 6 24 15 0 8 5 15 11 15 11 0 48 40 49
53 0 12 -53 6 -80 -9z"/>
<path d="M2078 195 c-2 -3 -42 -7 -88 -9 -62 -3 -86 -8 -92 -20 -9 -17 -34
-22 -40 -8 -1 4 -24 6 -50 4 -35 -3 -49 -9 -53 -23 -9 -27 2 -39 33 -39 15 0
34 -4 42 -10 12 -7 12 -12 -4 -29 -15 -16 -22 -18 -36 -8 -15 9 -23 8 -39 -7
-36 -33 -52 -3 -26 48 23 44 6 56 -75 56 -80 0 -84 -5 -74 -92 l7 -58 143 0
144 0 0 34 c0 18 -7 39 -15 46 -24 20 -18 28 25 32 33 3 40 0 40 -14 0 -25 32
-30 69 -12 41 20 24 37 -28 27 -22 -4 -32 -2 -27 5 3 5 33 13 66 17 33 4 67
13 75 21 7 8 27 14 43 14 36 0 62 9 62 21 0 9 -93 13 -102 4z"/>
</g>
</svg>
