<?xml version="1.0" encoding="UTF-8"?>
<svg version="1.1" viewBox="0 0 890 630" xmlns="http://www.w3.org/2000/svg">
<g transform="translate(-27.905 2.1465)">
<path d="m560.59 547.63c-7.063-22.7-12.766-34.664-26.088-54.725-4.1656-6.2729-10.016-16.355-13-22.405-5.6428-11.438-18.188-46.769-20.981-59.089-0.9593-4.2311-2.947-9.1232-4.9306-12.135-4.544-6.8997-6.7885-13.622-5.2505-15.725 2.0076-2.7456 7.988-3.0551 12.918-0.66856 7.0557 3.4156 21.877 24.924 24.713 35.863 3.7532 14.476 3.4194 10.315-1.0952-13.654-3.8421-20.398-4.8167-24.037-12.889-48.123-3.7843-11.292-7.1354-21.977-7.4468-23.744-0.3114-1.7675-3.4852-12.48-7.0529-23.805-7.7914-24.733-8.2294-30.719-2.5734-35.168 1.4287-1.1239 13.634-1.4659 12.519-0.35085-0.24015 0.24015 0.20678 1.1482 0.99318 2.0178s2.832 4.408 4.5459 7.8632c1.7138 3.4551 3.5268 6.0282 4.0287 5.718s0.6766-1.1791 0.38812-1.9308c-0.28847-0.75176-0.0365-1.6684 0.55999-2.0371 0.59647-0.36863 0.82559-1.0892 0.50915-1.6012-0.31643-0.51199-0.22316-1.4934 0.20726-2.1809s0.83844-1.7 0.9067-2.25c0.0683-0.55 0.19266-1.5625 0.27644-2.25 0.0838-0.6875 0.62887-1.25 1.2113-1.25s0.72313 0.54346 0.31262 1.2077c-0.41052 0.66423-0.84763 2.1571-0.97135 3.3176-0.12372 1.1604-0.7956 4.1045-1.4931 6.5423-0.69747 2.4378-1.3112 4.8824-1.3639 5.4324-0.12883 1.3455 6.54 20.182 10.444 29.5 1.7284 4.125 5.8686 14.7 9.2006 23.5 9.0976 24.027 12.912 30.5 17.975 30.5 2.2966 0 2.7623-0.94589 3.3443-6.7923 1.3291-13.353 9.4294-24.194 18.085-24.204 4.6299-6e-3 11.31 3.9721 13.757 8.1916 2.087 3.5986 2.0986 3.8366 0.48831 9.9955-0.90728 3.47-1.5163 6.4474-1.3533 6.6164 0.16298 0.16904 1.506-2.8583 2.9844-6.7274 3.4696-9.0799 6.8389-12.08 13.567-12.08 5.2517 0 8.3619 2.2343 11.597 8.3308 1.9574 3.6891 1.6063 13.167-0.80275 21.669-1.8001 6.3529-1.7699 9.6988 0.0774 8.5572 0.50691-0.31329 1.1223-4e-3 1.3675 0.68662 0.26901 0.75797 3.2391-1.421 7.4882-5.4938 7.8959-7.5681 9.8101-8.1032 16.831-4.7046 3.194 1.5462 4.6203 3.0325 5.8434 6.0894 1.6314 4.0772 1.9959 15.865 0.4906 15.865-0.80307 0-2.521 4.6671-3.3128 9-0.25126 1.375-1.1765 4.4946-2.056 6.9325-2.0849 5.7788-2.591 11.44-3.0349 33.945-0.22669 11.494-0.97453 21.685-1.9536 26.622-3.2033 16.155-3.8458 23.927-3.2651 39.5 0.31787 8.525 1.0851 18.132 1.705 21.348s0.88268 6.0922 0.58402 6.3909-17.361 3.5342-37.915 7.1901l-37.372 6.6471-3.717-11.946zm-324.59 5.0125c0-0.19673 3.401-8.6342 7.5577-18.75 9.797-23.842 10.524-27.026 10.025-43.892-0.47148-15.918-2.3776-27.163-11.063-65.259-7.2044-31.602-9.3806-43.126-10.001-52.957-0.73452-11.645 0.48378-14.195 17.038-35.66l14.943-19.376 0.63731 38.876c0.57636 35.158 1.1608 48.007 2.2323 49.079 0.20432 0.20432 1.548-3.3578 2.9859-7.9157 3.8528-12.212 4.9628-27.561 4.8663-67.287-0.0775-31.903 0.0776-35.368 1.7525-39.164 3.4522-7.8237 9.8798-8.263 16.227-1.1089 4.4143 4.9757 7.1598 11.906 9.8134 24.773 1.6548 8.024 1.9613 13.618 1.9724 36.007 0.0138 27.808 9e-3 27.768 5.0359 40.493 1.7382 4.4 5.0309 13.625 7.317 20.5l4.1567 12.5-0.0273 20c-0.0256 18.796-0.32847 22.196-3.9638 44.5-0.99672 6.1151-5.2712 23.162-8.313 33.154-1.6164 5.3094-3.6902 13.634-4.6082 18.5s-1.8837 9.859-2.1458 11.096l-0.47656 2.25h-32.981c-18.139 0-32.981-0.16096-32.981-0.3577zm412.08-130.23c0.048-1.165 0.28494-1.4019 0.60416-0.60417 0.28887 0.72187 0.25335 1.5844-0.0789 1.9167-0.33229 0.33229-0.56864-0.25834-0.52522-1.3125zm2.0789-14.417c0-1.375 0.22698-1.9375 0.50439-1.25s0.27741 1.8125 0 2.5-0.50439 0.125-0.50439-1.25zm-262.35-66.683c0.72187-0.28887 1.5844-0.25335 1.9167 0.0789 0.33229 0.33229-0.25834 0.56864-1.3125 0.52522-1.165-0.048-1.4019-0.28494-0.60417-0.60416zm69.188-1.8169c1.2918-1.375 2.5736-2.5 2.8486-2.5s-0.55688 1.125-1.8486 2.5-2.5736 2.5-2.8486 2.5 0.55688-1.125 1.8486-2.5zm-49-1.8129c0-0.1721 1.4625-1.6346 3.25-3.25l3.25-2.9371-2.9371 3.25c-2.7378 3.0295-3.5629 3.7096-3.5629 2.9371zm-31.128-2.4371c-1.2439-1.5861-1.2085-1.6214 0.37756-0.37756 1.6658 1.3064 2.1955 2.1276 1.3724 2.1276-0.20765 0-0.99515-0.7875-1.75-1.75zm60.128-7.25c0.825-0.53316 1.95-0.96937 2.5-0.96937s0.325 0.43621-0.5 0.96937-1.95 0.96937-2.5 0.96937-0.325-0.43621 0.5-0.96937zm-17.714-4.5c8e-3 -2.75 0.20172-3.7563 0.43157-2.2362 0.22986 1.5201 0.22371 3.7701-0.0136 5-0.23736 1.2299-0.42542-0.0138-0.41792-2.7638zm-14.036 2.4199c0.9625-0.5606 1.8022-2.0094 1.866-3.2196 0.093-1.7642 0.20849-1.8439 0.58258-0.40227 0.5124 1.9746-1.2921 4.7195-3.071 4.6716-0.62016-0.0167-0.34006-0.48908 0.62244-1.0497zm19.257-0.90845c-0.35034-0.56686 0.0511-0.7345 0.94098-0.39301 1.7324 0.66479 2.0494 1.3816 0.61096 1.3816-0.51754 0-1.2159-0.44485-1.5519-0.98855zm-54.255-6.5114c0.0111-2.2 0.21589-2.9822 0.45508-1.7383s0.23011 3.0439-0.0202 4c-0.25029 0.95609-0.446-0.0617-0.4349-2.2617zm10.748 1.8578c0-0.53655 0.69982-1.849 1.5552-2.9167 1.4664-1.8303 1.4872-1.7984 0.36454 0.55887-1.4578 3.061-1.9197 3.6283-1.9197 2.3578zm62.61-4.1794c-0.32355-0.52351 0.0818-1.5079 0.90072-2.1876 1.8117-1.5036 1.9557-3.1857 0.23899-2.7915-0.6875 0.15787-1.3625-0.1474-1.5-0.67839s0.72612-0.96543 1.9192-0.96543c1.5246 0 2.2177 0.65922 2.3326 2.2187 0.17892 2.4286-2.9347 5.9524-3.8915 4.4042zm2.5173-1.9284c1.2439-1.5861 1.2085-1.6214-0.37756-0.37756-1.6658 1.3064-2.1955 2.1276-1.3724 2.1276 0.20765 0 0.99515-0.7875 1.75-1.75zm-29.049 0.16667c0.048-1.165 0.28494-1.4019 0.60416-0.60417 0.28887 0.72187 0.25335 1.5844-0.0789 1.9167-0.33229 0.33229-0.56864-0.25834-0.52522-1.3125zm-32.65-1.4167c0-1.1 0.38013-2 0.84473-2s0.62621-0.35357 0.35914-0.78571c-0.26708-0.43215 0.32354-0.78572 1.3125-0.78572 1.6682 0 1.6493 0.20122-0.26148 2.7857-1.1328 1.5321-2.1035 2.7857-2.1572 2.7857-0.0537 0-0.0977-0.9-0.0977-2zm14.693-3.6267c-2.9174-3.0996-3.071-3.4921-1.1248-2.8744 1.743 0.55321 2.0687 0.40773 1.4368-0.64176-0.68165-1.132-0.54643-1.1377 0.81533-0.034 0.91859 0.7445 1.3655 2.0188 1.022 2.914-0.43765 1.1405-0.23551 1.3592 0.71395 0.77238 0.88124-0.54464 1.0857-0.43221 0.61092 0.33595-0.39244 0.63498-0.23697 1.1545 0.34549 1.1545s1.059 0.45 1.059 1c0 1.7999-1.4444 1.0222-4.8787-2.6267zm57.803-2.1233-2.4243-2.75l2.75 2.4243c2.5703 2.2659 3.2086 3.0757 2.4243 3.0757-0.17912 0-1.4166-1.2375-2.75-2.75zm-70.924 0.20578c0-0.11599 0.6-0.70885 1.3333-1.3175 0.99637-0.82691 1.3333-0.77361 1.3333 0.21089 0 0.7246-0.6 1.3175-1.3333 1.3175-0.73333 0-1.3333-0.0949-1.3333-0.21089zm4-0.59445c0-0.47373 1.125-0.86133 2.5-0.86133s2.5 0.17254 2.5 0.38342c0 0.21089-1.125 0.59848-2.5 0.86133s-2.5 0.0903-2.5-0.38342zm-13-5.3613c1.2918-1.375 2.5736-2.5 2.8486-2.5s-0.55688 1.125-1.8486 2.5-2.5736 2.5-2.8486 2.5 0.55688-1.125 1.8486-2.5zm17.5 1.5c-0.33992-0.55-0.14148-1 0.44098-1s1.059 0.45 1.059 1-0.19844 1-0.44098 1-0.7191-0.45-1.059-1zm14.372-2.75c-1.2439-1.5861-1.2085-1.6214 0.37756-0.37756 1.6658 1.3064 2.1955 2.1276 1.3724 2.1276-0.20765 0-0.99515-0.7875-1.75-1.75zm-16.122-5.9123c0.6875-0.27741 1.8125-0.27741 2.5 0s0.125 0.50439-1.25 0.50439-1.9375-0.22698-1.25-0.50439zm134.17-3.0886c0.47784-3.4512 0.54755-3.5209 0.87727-0.87727 0.19699 1.5795-0.0366 3.2666-0.5191 3.7491-0.50302 0.50302-0.65582-0.72209-0.35817-2.8718zm10.29 2.3518c0.70919-0.76953 1.447-1.2495 1.6396-1.0665 0.59314 0.56346-0.91014 2.4657-1.9486 2.4657-0.53923 0-0.40017-0.62961 0.30901-1.3991zm-1.9786-18.601c0-1.925 0.2058-2.7125 0.45733-1.75 0.25152 0.9625 0.25152 2.5375 0 3.5-0.25153 0.9625-0.45733 0.175-0.45733-1.75zm-12.207-3.0875c0.61849-2.1566 0.57848-3.6852-0.11844-4.525-0.84334-1.0162-0.56336-1.0373 1.4089-0.10657 2.1283 1.0044 2.2528 1.3141 0.92014 2.2886-0.8477 0.61986-1.2525 1.5943-0.89952 2.1654s-8e-3 1.5775-0.8017 2.2364c-1.2347 1.0247-1.3084 0.72689-0.50942-2.0588zm-18.525-8.9125c0.99549-1.1 2.035-2 2.31-2s-0.31449 0.9-1.31 2-2.035 2-2.31 2 0.31449-0.9 1.31-2zm33.905-0.25-1.905-2.25 2.25 1.905c1.2375 1.0477 2.25 2.0602 2.25 2.25 0 0.80025-0.80479 0.20945-2.595-1.905zm-208.53-12.5c-1.2439-1.5861-1.2085-1.6214 0.37756-0.37756 1.6658 1.3064 2.1955 2.1276 1.3724 2.1276-0.20765 0-0.99515-0.7875-1.75-1.75zm34.628-0.25c0.99549-1.1 2.035-2 2.31-2s-0.31449 0.9-1.31 2-2.035 2-2.31 2 0.31449-0.9 1.31-2zm-27.871-0.79101c-0.26888-0.43506 1.1671-0.63412 3.191-0.44236 6.1838 0.5859 6.913 0.9956 1.9889 1.1174-2.58 0.0638-4.911-0.23995-5.1799-0.67501zm15.009-0.70899c0.31659-0.825 0.75246-1.5 0.96862-1.5 0.21615 0 0.39301 0.675 0.39301 1.5s-0.43588 1.5-0.96862 1.5c-0.53273 0-0.70959-0.675-0.39301-1.5zm-11.638-1.893c0-0.21616 0.69837-0.661 1.5519-0.98855 0.88992-0.34149 1.2913-0.17385 0.94098 0.39301-0.58726 0.95021-2.4929 1.4054-2.4929 0.59554zm6.079-10.19c0.048-1.165 0.28494-1.4019 0.60416-0.60417 0.28887 0.72187 0.25335 1.5844-0.0789 1.9167-0.33229 0.33229-0.56864-0.25834-0.52522-1.3125zm26.116-3.9167c0.0204-1.65 0.2445-2.2039 0.49804-1.231s0.23687 2.323-0.0371 3c-0.27393 0.67703-0.48137-0.11903-0.46099-1.769zm-19.037-3.5c0-1.375 0.22698-1.9375 0.50439-1.25s0.27741 1.8125 0 2.5-0.50439 0.125-0.50439-1.25zm-6.9259-2c0-1.925 0.2058-2.7125 0.45733-1.75 0.25152 0.9625 0.25152 2.5375 0 3.5-0.25153 0.9625-0.45733 0.175-0.45733-1.75zm20.64-9.75c-1.2439-1.5861-1.2085-1.6214 0.37756-0.37756 1.6658 1.3064 2.1955 2.1276 1.3724 2.1276-0.20765 0-0.99515-0.7875-1.75-1.75zm-39.872 0.43709c0-0.1721 1.4625-1.6346 3.25-3.25l3.25-2.9371-2.9371 3.25c-2.7378 3.0295-3.5629 3.7096-3.5629 2.9371zm27.195-2.1871c0.0204-1.65 0.2445-2.2039 0.49804-1.231s0.23687 2.323-0.0371 3c-0.27393 0.67703-0.48137-0.11903-0.46099-1.769zm7.6775-3.25c-1.2439-1.5861-1.2085-1.6214 0.37756-0.37756 0.9625 0.75485 1.75 1.5424 1.75 1.75 0 0.82304-0.82119 0.29331-2.1276-1.3724zm-16.122-4.9557c1.2375-0.23836 3.2625-0.23836 4.5 0 1.2375 0.23835 0.225 0.43337-2.25 0.43337s-3.4875-0.19502-2.25-0.43337z" fill="#f8a981"/>
<path d="m434.75 344.57c-5.7156-2.0397-10.307-6.0317-12.756-11.09-3.2799-6.7754-2.5838-16.756 1.5827-22.69 7.6554-10.904 22.902-12.767 32.638-3.9893 10.114 9.1183 10.512 22.918 0.93028 32.215-6.7596 6.559-14.323 8.435-22.395 5.5544zm22.099-11.889c0.84175-1.0142-0.4948-2.903-5.829-8.2372l-6.9212-6.9212 2.042-2.1736c2.5844-2.7509 2.106-5.852-0.90272-5.852-1.23 0-2.2068 0.45-2.1707 1 0.0361 0.55 0.71106 0.86777 1.5 0.70616 1.9407-0.39755 1.7535 0.8313-0.54705 3.5907-1.3246 1.5888-4.6282 2.9953-10.717 4.5629-7.1147 1.8317-8.8018 2.6237-8.8018 4.132 0 1.5512 2.5305 2.5764 15 6.0773 8.25 2.3163 15.282 4.2608 15.628 4.3212 0.34515 0.0604 1.119-0.4824 1.7197-1.2062zm-13.847-4.3156c-6.325-1.8134-12.85-3.6737-14.5-4.1338-2.7346-0.7627-2.2157-1.0346 5.8655-3.0737l8.8655-2.237 5.9696 6.1196c3.2833 3.3658 5.8188 6.2327 5.6345 6.3708s-5.5101-1.2326-11.835-3.046zm-102.01-72.243c-13.35-4.378-20.658-17.538-16.997-30.612 1.5795-5.6415 8.079-13.188 13.465-15.635 5.3195-2.4163 14.75-2.4198 20.061-7e-3 18.677 8.4844 19.304 34.946 1.0502 44.331-4.29 2.2057-13.608 3.2248-17.579 1.9226zm5.5013-6.7616c0.91211-0.35002 2.1656-1.8125 2.7855-3.25l1.1271-2.6136 0.35962 3.25c0.1978 1.7875 0.72299 3.25 1.1671 3.25 0.96688 0 2.4109-11.633 1.6057-12.935-0.30926-0.50039-0.11738-5.9798 0.42639-12.176s0.85075-11.404 0.68216-11.573c-0.16859-0.16859-2.296-0.57925-4.7275-0.91259l-4.421-0.60606 0.63383 10.852c0.34861 5.9685 0.40208 12.202 0.11882 13.852-0.78355 4.5643-3.9323 9.1247-7.2488 10.498-1.6382 0.67854-2.7326 1.6315-2.4321 2.1177 0.62992 1.0192 7.4676 1.1898 9.9231 0.24756z" fill="#f3ab1b"/>
<path d="m643.54 430c0.50965-0.825 0.94529-3.075 0.96807-5 0.0373-3.1486 2.3856-9.1743 2.4588-6.309 0.0167 0.65504-0.35094 1.4267-0.81704 1.7147-0.67535 0.41739-0.83858 6.0943-0.17523 6.0943 0.0966 0 0.33251 0.82873 0.52416 1.8416s0.0861 1.5793-0.23451 1.2587c-0.32062-0.32063-1.2732-0.0244-2.1169 0.65837-1.2756 1.0323-1.3779 0.98873-0.60732-0.25868zm4-14.931c-0.31644-0.512-0.19299-1.1672 0.27431-1.456 0.46731-0.28881 0.84965 0.13009 0.84965 0.9309 0 1.6862-0.31534 1.8335-1.124 0.52511zm0.45729-4.0101c0-0.51754 0.44485-1.2159 0.98855-1.5519 0.56686-0.35034 0.7345 0.0511 0.39301 0.94098-0.66479 1.7324-1.3816 2.0494-1.3816 0.61096zm-380.4-11.619c0.25936-1.4302 0.083-2.3603-0.39199-2.0668-0.47494 0.29354-0.79945-0.33626-0.72111-1.3996 0.16796-2.2798 1.1224-3.5258 1.3207-1.724 0.0756 0.6875 0.33581 2.4856 0.57813 3.9957 0.24233 1.5101 0.0586 2.9818-0.40834 3.2704-0.46692 0.28857-0.63675-0.64553-0.3774-2.0758zm1.9034-3.4403c-0.33992-0.55-0.35064-1-0.0238-1 0.32681 0 0.10579-0.9126-0.49116-2.028-0.59695-1.1154-1.4164-1.8234-1.8209-1.5734-0.40455 0.25003-0.73554-0.4426-0.73554-1.5392 0-1.8696 0.0801-1.8843 1.2857-0.23545 1.1877 1.6242 1.7694 1.174 1.3477-1.0432-0.0962-0.5056 0.45445-0.39701 1.2236 0.24132 0.76913 0.63833 1.6945 0.9395 2.0564 0.66927 0.36189-0.27022 0.39549-0.15382 0.0747 0.25868-0.32084 0.4125-1.1083 0.77045-1.75 0.79545-0.64167 0.025-1.0115 0.7-0.82184 1.5 1.164 4.9099 1.0504 6.2121-0.34483 3.9546zm348.28-9.4167c0.37988-0.59583 0.69759-1.3833 0.70601-1.75 0.0443-1.9277 1.1153-1.4156 1.1153 0.53334 0 1.265-0.56521 2.3-1.256 2.3-0.69081 0-0.9452-0.4875-0.56531-1.0833zm76.221 1.0237c0-0.21616 0.69837-0.661 1.5519-0.98855 0.88992-0.34149 1.2913-0.17385 0.94098 0.39301-0.58726 0.95021-2.4929 1.4054-2.4929 0.59554zm5.7487-3.2383c2.628-2.1839 12.251-7.6992 12.251-7.0214 0 0.25447-2.1375 1.7049-4.75 3.2231s-5.875 3.4144-7.25 4.2137l-2.5 1.4532zm-6.2487-1.0944c0.55-0.52481 2.8-1.9649 5-3.2003s3.1-1.498 2-0.58383c-2.2342 1.8569-8.5693 5.2816-7 3.7841zm-2.5-3.6673c0-0.21616 0.69837-0.661 1.5519-0.98855 0.88992-0.34149 1.2913-0.17385 0.94098 0.39301-0.58726 0.95021-2.4929 1.4054-2.4929 0.59554zm-425.55-32.607c0-17.875 0.1356-25.188 0.30134-16.25 0.16573 8.9375 0.16573 23.562 0 32.5-0.16574 8.9375-0.30134 1.625-0.30134-16.25zm429.55 30.57c0-0.275 0.9-0.98167 2-1.5704s2-0.84537 2-0.57037-0.9 0.98167-2 1.5704-2 0.84537-2 0.57037zm8 0c0-0.275 0.9-0.98167 2-1.5704s2-0.84537 2-0.57037-0.9 0.98167-2 1.5704-2 0.84537-2 0.57037zm-15-0.96338c0-0.21616 0.69837-0.661 1.5519-0.98855 0.88992-0.34149 1.2913-0.17385 0.94098 0.39301-0.58726 0.95021-2.4929 1.4054-2.4929 0.59554zm-136.13-3.357c-1.2439-1.5861-1.2085-1.6214 0.37756-0.37756 0.9625 0.75485 1.75 1.5424 1.75 1.75 0 0.82304-0.82119 0.29331-2.1276-1.3724zm142.04 0.0439c1.3281-0.98667 4.2531-2.8262 6.5-4.0879 2.2469-1.2617 2.9987-1.4867 1.6706-0.5-1.3281 0.98667-4.2531 2.8262-6.5 4.0879-2.2469 1.2617-2.9987 1.4867-1.6706 0.5zm7.5853 0.21586c2.2342-1.8569 8.5693-5.2816 7-3.7841-0.55 0.52481-2.8 1.9649-5 3.2003s-3.1 1.498-2 0.58383zm7.2333 0.3661c0.67834-0.68342 1.4852-0.99067 1.7931-0.68278s-0.24711 0.86705-1.2333 1.2426c-1.4252 0.54268-1.5401 0.42782-0.5598-0.5598zm-21.733-1.3055c0-0.275 0.9-0.98167 2-1.5704s2-0.84537 2-0.57037-0.9 0.98167-2 1.5704-2 0.84537-2 0.57037zm-132-1.5704l-5.5-0.67401 5.191-0.16299c2.855-0.0897 5.4691 0.287 5.809 0.837s0.47898 0.92665 0.30902 0.837c-0.16996-0.08964-2.784-0.4663-5.809-0.837zm-280.92-1.5833c0.048-1.165 0.28494-1.4019 0.60416-0.60417 0.28887 0.72187 0.25335 1.5844-0.0789 1.9167-0.33229 0.33229-0.56864-0.25834-0.52522-1.3125zm84.171 0.83351c29.562-0.14715 77.938-0.14715 107.5 0 29.562 0.14716 5.375 0.26756-53.75 0.26756s-83.312-0.1204-53.75-0.26756zm232.75-1.1912c0-0.51754 0.44485-1.2159 0.98855-1.5519 0.56686-0.35034 0.7345 0.0511 0.39301 0.94098-0.66479 1.7324-1.3816 2.0494-1.3816 0.61096zm93 0.62839c0-0.29843 2.8125-2.2327 6.25-4.2984s7.2625-4.4 8.5-5.1874 2.25-1.1874 2.25-0.88899c0 0.29843-2.8125 2.2327-6.25 4.2984s-7.2625 4.4-8.5 5.1874-2.25 1.1874-2.25 0.88899zm8-0.11704c0-0.275 0.9-0.98167 2-1.5704s2-0.84537 2-0.57037-0.9 0.98167-2 1.5704-2 0.84537-2 0.57037zm6.5-4.0885c1.1-0.89564 2.9-2.0703 4-2.6103l2-0.98189-2 1.6284c-1.1 0.89564-2.9 2.0703-4 2.6103l-2 0.98189zm-22.041-1.5484c-0.36253-0.58659-0.44468-1.281-0.18255-1.5431 0.26212-0.26213 0.74306 0.21781 1.0688 1.0665 0.67618 1.7621 0.0998 2.0721-0.8862 0.4766zm2-1c-0.36253-0.58659-0.44468-1.281-0.18255-1.5431 0.26212-0.26213 0.74306 0.21781 1.0688 1.0665 0.67618 1.7621 0.0998 2.0721-0.8862 0.4766zm-6.7256-2.0576c0.67834-0.68342 1.4852-0.99067 1.7931-0.68278s-0.24711 0.86705-1.2333 1.2426c-1.4252 0.54268-1.5401 0.42782-0.5598-0.5598zm11.726-0.94244c-0.36253-0.58659-0.44468-1.281-0.18255-1.5431 0.26212-0.26213 0.74306 0.21781 1.0688 1.0665 0.67618 1.7621 0.0998 2.0721-0.8862 0.4766zm-14.726-4.0576c0.67834-0.68342 1.4852-0.99067 1.7931-0.68278s-0.24711 0.86705-1.2333 1.2426c-1.4252 0.54268-1.5401 0.42782-0.5598-0.5598zm24.726-1.9424c-0.36253-0.58659-0.44468-1.281-0.18255-1.5431 0.26212-0.26213 0.74306 0.21781 1.0688 1.0665 0.67618 1.7621 0.0998 2.0721-0.8862 0.4766zm3-2c-0.36253-0.58659-0.44468-1.281-0.18255-1.5431 0.26212-0.26213 0.74306 0.21781 1.0688 1.0665 0.67618 1.7621 0.0998 2.0721-0.8862 0.4766zm-30.726-1.0576c0.67834-0.68342 1.4852-0.99067 1.7931-0.68278s-0.24711 0.86705-1.2333 1.2426c-1.4252 0.54268-1.5401 0.42782-0.5598-0.5598zm32.704-0.64656c0.34132-0.34131 1.3238-0.72378 2.1833-0.84993 0.85947-0.12614 1.2834 0.0499 0.94211 0.39123-0.34132 0.34131-1.3238 0.72378-2.1833 0.84993-0.85947 0.12614-1.2834-0.0499-0.94211-0.39123zm-34.423-2.6436c0.64761-0.64761 1.3238-0.64761 1.9714 0 0.64762 0.64762 0.30953 0.98572-0.98571 0.98572s-1.6333-0.3381-0.98571-0.98572zm16.928-5.2372c-0.55445-1.4583-0.83583-3.1458-0.6253-3.75 0.21054-0.60418 0.70506 0.33658 1.0989 2.0906 0.48793 2.1729 1.412 3.3244 2.9 3.6138 2.1609 0.42023 2.16 0.42614-0.0908 0.56089-1.6076 0.0962-2.5704-0.64145-3.2828-2.5153zm-20.247-0.29137c0.29587-1.1314 0.93547-2.0572 1.4213-2.0572 1.3488 0 1.0529 1.6144-0.53796 2.9347-1.1662 0.9679-1.3248 0.81041-0.88336-0.87756zm36.305 1.5498c0-0.21616 0.69837-0.661 1.5519-0.98855 0.88992-0.34149 1.2913-0.17385 0.94098 0.39301-0.58726 0.95021-2.4929 1.4054-2.4929 0.59554zm-421.67-7.107c4e-3 -3.85 0.18518-5.3025 0.40166-3.2277 0.21647 2.0748 0.21284 5.2248-8e-3 7-0.22091 1.7752-0.39803 0.0777-0.39359-3.7723zm418.24 1.6133c-0.30141-0.48768 0.23454-1.5002 1.191-2.25 1.6068-1.2597 1.6249-1.216 0.23899 0.57392-1.3689 1.7679-1.3425 1.8782 0.30194 1.2615 1.0825-0.40597 1.558-0.28109 1.191 0.31276-0.75895 1.228-2.1959 1.2781-2.9229 0.10186zm-190.07-2.1133c0.99549-1.1 2.035-2 2.31-2s-0.31449 0.9-1.31 2-2.035 2-2.31 2 0.31449-0.9 1.31-2zm168.06-3.7097c-0.48874-1.2736-0.32908-1.3453 0.83848-0.37631 1.1509 0.95516 1.6493 0.83226 2.4678-0.60856 0.9494-1.6712 1.0151-1.6528 0.88283 0.24665-0.17037 2.4472-3.3204 3.0023-4.1892 0.73822zm19.442 1.3167c0-0.21616 0.69837-0.661 1.5519-0.98855 0.88992-0.34149 1.2913-0.17385 0.94098 0.39301-0.58726 0.95021-2.4929 1.4054-2.4929 0.59554zm-14.436-4.3139c-0.54268-1.4252-0.42782-1.5401 0.5598-0.5598 0.68342 0.67834 0.99067 1.4852 0.68278 1.7931s-0.86705-0.24711-1.2426-1.2333zm11.436-0.68614c0-0.21616 0.69837-0.661 1.5519-0.98855 0.88992-0.34149 1.2913-0.17385 0.94098 0.39301-0.58726 0.95021-2.4929 1.4054-2.4929 0.59554zm-24.085-2.313c1.3281-0.98667 4.2531-2.8262 6.5-4.0879 2.2469-1.2617 2.9987-1.4867 1.6706-0.5-1.3281 0.98667-4.2531 2.8262-6.5 4.0879-2.2469 1.2617-2.9987 1.4867-1.6706 0.5zm-6.4147-1.0197c0.55-0.52481 2.8-1.9649 5-3.2003s3.1-1.498 2-0.58383c-2.2342 1.8569-8.5693 5.2816-7 3.7841zm-178.31-3.7743c0.0204-1.65 0.2445-2.2039 0.49804-1.231s0.23687 2.323-0.0371 3c-0.27393 0.67703-0.48137-0.11903-0.46099-1.769zm175.81 0.10699c0-0.21616 0.69837-0.661 1.5519-0.98855 0.88992-0.34149 1.2913-0.17385 0.94098 0.39301-0.58726 0.95021-2.4929 1.4054-2.4929 0.59554zm5.9147-3.313c1.3281-0.98667 4.2531-2.8262 6.5-4.0879 2.2469-1.2617 2.9987-1.4867 1.6706-0.5-1.3281 0.98667-4.2531 2.8262-6.5 4.0879-2.2469 1.2617-2.9987 1.4867-1.6706 0.5zm6.0853 1.3175c0-0.68914 7.0537-4.891 7.4856-4.4592 0.20921 0.20922-1.3895 1.399-3.5526 2.6439-2.1632 1.245-3.933 2.0618-3.933 1.8152zm8.7333-0.73551c0.67834-0.68342 1.4852-0.99067 1.7931-0.68278s-0.24711 0.86705-1.2333 1.2426c-1.4252 0.54268-1.5401 0.42782-0.5598-0.5598zm-21.233-1.6016c0.55-0.52481 2.8-1.9649 5-3.2003s3.1-1.498 2-0.58383c-2.2342 1.8569-8.5693 5.2816-7 3.7841zm-3.5-2.7039c0-0.275 0.9-0.98167 2-1.5704s2-0.84537 2-0.57037-0.9 0.98167-2 1.5704-2 0.84537-2 0.57037zm6.9147-4.2764c1.3281-0.98667 4.2531-2.8262 6.5-4.0879 2.2469-1.2617 2.9987-1.4867 1.6706-0.5-1.3281 0.98667-4.2531 2.8262-6.5 4.0879-2.2469 1.2617-2.9987 1.4867-1.6706 0.5zm6.0853 1.2764c0-0.275 0.9-0.98167 2-1.5704s2-0.84537 2-0.57037-0.9 0.98167-2 1.5704-2 0.84537-2 0.57037zm-11-3.3944c9.7855-6.0583 12-7.3192 12-6.8324 0 0.62786-14.8 9.6636-15.785 9.6374-0.39299-0.0104 1.3105-1.2727 3.7855-2.805zm-378.92-8.7593c0.048-1.165 0.28494-1.4019 0.60416-0.60417 0.28887 0.72187 0.25335 1.5844-0.0789 1.9167-0.33229 0.33229-0.56864-0.25834-0.52522-1.3125zm210.73-2.0998c0.72187-0.28887 1.5844-0.25335 1.9167 0.0789 0.33229 0.33229-0.25834 0.56864-1.3125 0.52522-1.165-0.048-1.4019-0.28494-0.60417-0.60416zm-65.812-1.5895c-1.375-0.68374-3.3417-2.9629-4.3704-5.0649-1.7323-3.5396-1.7567-4.1111-0.33044-7.7421l1.54-3.9204h-2.941c-4.0084 0-2.3392 4.7594-17.929-51.119l-5.1944-18.619-8.513-2.3814c-8.3295-2.3301-10.592-3.9512-8.4737-6.07 0.73878-0.73878 3.2463-0.40591 8.3828 1.1128 13.134 3.8835 12.351 3.21 15.008 12.906l2.375 8.6693h45.389c29.383 0 45.499 0.35263 45.703 1 0.17275 0.55-3.1803 12.925-7.4512 27.5l-7.7653 26.5-3.1697 0.31002-3.1697 0.31001 1.5901 3.3345c4.0475 8.4877-5.1813 17.44-13.529 13.124-1.7005-0.87937-3.5552-2.4646-4.1215-3.5228-1.3182-2.463-1.3386-9.7464-0.0296-10.555 2.8779-1.7787-7e-3 -2.5-10-2.5-10.691 0-12.191 0.40916-9.9 2.7 1.4311 1.4311 1.4135 7.472-0.0296 10.169-1.2643 2.3623-6.0243 5.1392-8.7707 5.1167-0.98981-8e-3 -2.9247-0.57416-4.2997-1.2579zm8.5274-5.7576c4.1203-4.5529-2.9442-11.617-7.4971-7.4971-2.46 2.2263-2.6066 5.2331-0.37529 7.6987 2.1799 2.4088 5.5891 2.3215 7.8724-0.20154zm36.901 0.45885c4.012-4.012-0.73497-10.977-5.8828-8.6314-3.2148 1.4648-4.097 4.7125-2.1056 7.7518 1.852 2.8265 5.626 3.242 7.9884 0.87961zm6.9486-18.179c8.4326-28.823 12.623-43.345 12.623-43.747 0-0.27655-9.5504-0.50281-21.223-0.50281h-21.223l6.909 6.9624c7.4248 7.4821 8.9994 10.443 5.0234 9.4448-1.9609-0.49216-2.3882-0.16136-2.661 2.0604l-0.32507 2.6467-10.251 0.19291-10.251 0.19291 9.1e-4 -2.6866c7.8e-4 -2.3004-0.46636-2.7317-3.2491-3l-3.25-0.31336 8-7.6988 8-7.6988-19.5 0.55956c-10.725 0.30776-19.56 0.6222-19.634 0.69876-0.0739 0.0766 1.8398 7.1142 4.2527 15.639s5.1478 18.538 6.0777 22.25l1.6906 6.75h29.239c26.985 0 29.279-0.13491 29.751-1.75zm-41.377-1.75c0-1.2381 1.8333-1.5 10.5-1.5s10.5 0.2619 10.5 1.5-1.8333 1.5-10.5 1.5-10.5-0.2619-10.5-1.5zm0-4.2814c0-1.587 1.1458-1.7959 10.5-1.914 9.7222-0.12278 10.5 9e-3 10.5 1.7814 0 1.7638-0.82394 1.914-10.5 1.914-9.4038 0-10.5-0.18597-10.5-1.7814zm0-5.7186v-2.5h21v5h-21zm0-6.5v-3h21v6h-21zm-71.188 14.317c0.72187-0.28887 1.5844-0.25335 1.9167 0.0789 0.33229 0.33229-0.25834 0.56864-1.3125 0.52522-1.165-0.048-1.4019-0.28494-0.60417-0.60416zm158.27-48.817c0.13606-0.55-0.092-2.2049-0.50689-3.6776-0.42014-1.4914-0.30598-3.4786 0.25771-4.4859 0.92078-1.6453 1.0676-1.5843 1.6289 0.67756 0.70402 2.837 0.29222 6.5666-0.85129 7.7101-0.42667 0.42667-0.66445 0.32577-0.5284-0.22423zm0.58158-6.75c-0.27741-0.6875-0.50439-0.125-0.50439 1.25s0.22698 1.9375 0.50439 1.25 0.27741-1.8125 0-2.5zm6.7221 2.4371c0.32649-0.52828-0.0715-1.5125-0.88435-2.1871-0.81289-0.67464-1.2016-1.6738-0.86376-2.2204 0.37752-0.61084-0.20477-0.73389-1.511-0.31931-1.2609 0.4002-2.1252 0.24042-2.1252-0.39286 0-1.827 3.0845-1.174 5.9856 1.267 2.6992 2.2712 2.7206 2.368 0.78972 3.5738-1.0915 0.68167-1.7175 0.80717-1.391 0.27888zm1.6156-1.5647c0-0.20765-0.7875-0.99515-1.75-1.75-1.5861-1.2439-1.6214-1.2085-0.37756 0.37756 1.3064 1.6658 2.1276 2.1955 2.1276 1.3724zm-284.5-17.622c0.99549-1.1 2.035-2 2.31-2s-0.31449 0.9-1.31 2-2.035 2-2.31 2 0.31449-0.9 1.31-2zm-24.628-0.75c-1.2439-1.5861-1.2085-1.6214 0.37756-0.37756 0.9625 0.75485 1.75 1.5424 1.75 1.75 0 0.82304-0.82119 0.29331-2.1276-1.3724zm30.38-11.75c0.0111-2.2 0.21589-2.9822 0.45508-1.7383s0.23011 3.0439-0.0202 4c-0.25029 0.95609-0.446-0.0617-0.4349-2.2617zm-35.094-0.5c0-1.375 0.22698-1.9375 0.50439-1.25s0.27741 1.8125 0 2.5-0.50439 0.125-0.50439-1.25zm27.655-12.683c0.72187-0.28887 1.5844-0.25335 1.9167 0.0789 0.33229 0.33229-0.25834 0.56864-1.3125 0.52522-1.165-0.048-1.4019-0.28494-0.60417-0.60416zm128.52-9.0668c40.606-0.14466 106.76-0.14464 147 4e-5 40.244 0.14468 7.0216 0.26304-73.828 0.26302-80.85-3e-5 -113.78-0.1184-73.172-0.26306zm-119.33-70.25c0-0.55 0.47656-1 1.059-1s0.7809 0.45 0.44098 1-0.81648 1-1.059 1-0.44098-0.45-0.44098-1zm-4.5638-10.862c0.5045-0.83777 0.28976-1.6977-0.55804-2.2347-0.75797-0.48009-0.92812-0.87288-0.37812-0.87288s1.5838 0.37033 2.2973 0.82296c1.0203 0.64721 0.9259 1.1244-0.44195 2.2347-1.391 1.129-1.5751 1.139-0.91922 0.04993zm397.13-6.4313c0.37553-0.98622 0.93469-1.5412 1.2426-1.2333 0.30789 0.30789 6.4e-4 1.1148-0.68278 1.7931-0.98762 0.98027-1.1025 0.8654-0.5598-0.5598zm-400.93-6.2069c0.31659-0.825 1.0326-1.5 1.5911-1.5 0.58531 0 0.48812 0.63541-0.22943 1.5-0.68469 0.825-1.4007 1.5-1.5911 1.5s-0.0872-0.675 0.22943-1.5zm391.9-8.4309c-0.31644-0.512-0.19299-1.1672 0.27431-1.456 0.46731-0.28881 0.84965 0.1301 0.84965 0.9309 0 1.6862-0.31534 1.8335-1.124 0.52511zm-395.54-4.1281c0-0.58246 0.45-0.7809 1-0.44098s1 0.81648 1 1.059-0.45 0.44098-1 0.44098-1-0.47656-1-1.059zm154.81-20.624c0.72187-0.28887 1.5844-0.25334 1.9167 0.07895 0.33229 0.33229-0.25834 0.56864-1.3125 0.52522-1.165-0.04798-1.4019-0.28494-0.60417-0.60417zm-10.062-0.97917c0.6875-0.27741 1.8125-0.27741 2.5 0 0.6875 0.27741 0.125 0.50439-1.25 0.50439s-1.9375-0.22697-1.25-0.50439zm15.281 0.16228c0-0.55 0.43621-1.675 0.96937-2.5s0.96937-1.05 0.96937-0.5-0.43621 1.675-0.96937 2.5-0.96937 1.05-0.96937 0.5zm-1-5c0-0.55 0.43621-1.675 0.96937-2.5s0.96937-1.05 0.96937-0.5-0.43621 1.675-0.96937 2.5-0.96937 1.05-0.96937 0.5z" fill="#7a808d"/>
<path d="m643.61 428.73c0.0875-2.3276 0.26669-4.3444 0.39814-4.4819 0.13144-0.1375 0.29524-0.6625 0.36399-1.1667 0.0688-0.50416 0.43149-1.2232 0.8061-1.5978 0.3746-0.37461 0.45643-1.2666 0.18183-1.9822-0.2746-0.71559-0.0113-1.6027 0.58521-1.9713 0.59647-0.36863 0.82559-1.0892 0.50915-1.6012-0.31643-0.51199-0.1246-0.9309 0.42628-0.9309s0.82596-0.91202 0.61129-2.0267c-0.23867-1.2393 0.0195-1.7734 0.66455-1.3748 0.68312 0.42219 0.81715-0.097 0.38034-1.4733-0.37099-1.1689-0.28992-2.1252 0.18015-2.1252 1.1602 0 1.5279 5.7288 0.41199 6.4185-0.48942 0.30248-0.76602 2.0053-0.61466 3.784 0.26202 3.0791 0.20186 3.1398-1.2556 1.2658-1.5181-1.952-1.5247-1.9518-0.79515 0.0317 1.6312 4.435 1.3568 8.0127-0.82289 10.732l-2.1899 2.7319 0.15915-4.2319zm2.6569-2.8083c-0.6553-2.5059-1.6566-1.6202-1.8296 1.6184-0.0984 1.8423 0.1759 2.1917 1.1114 1.4153 0.68311-0.56693 1.0063-1.9321 0.71825-3.0337zm3.0636-20.468c0-0.8008 0.375-1.456 0.83334-1.456 0.45833 0 0.83333 0.42344 0.83333 0.94098s-0.375 1.1728-0.83333 1.456c-0.45834 0.28327-0.83334-0.14017-0.83334-0.94098zm-381.92-3.706c0.27331-1.6507 2e-3 -2.75-0.67846-2.75-0.80825 0-0.78924-0.34454 0.0662-1.2 1.3283-1.3283 1.6507-3.1966 0.42036-2.4362-0.4288 0.26502-0.81775-2.5206-0.86433-6.1904-0.0736-5.8012 0.65477-6.3893 1.75-1.413 0.0895 0.40673 1.0039 1.3286 2.0319 2.0487 1.415 0.99109 1.6338 1.7488 0.90076 3.1185-0.53258 0.99514-0.64667 2.1657-0.25352 2.6012 0.39315 0.4355 0.13428 0.45696-0.57526 0.0477-0.97153-0.56038-1.13-0.10611-0.64159 1.8397 0.41995 1.6732 0.23707 2.5838-0.51894 2.5838-0.64208 0-0.94556 0.35899-0.67439 0.79775s0.063 1.4513-0.46252 2.25c-0.69163 1.0512-0.82979 0.69272-0.50024-1.2978zm2.9866-10.914c-0.29539-0.47795-0.91754-0.63385-1.3826-0.34645s-1.0637-0.0428-1.3304-0.73369c-0.26667-0.69093-0.35641 0.0938-0.19943 1.7438 0.39988 4.203 0.41304 4.2167 2.0132 2.1027 0.78989-1.0435 1.1945-2.2884 0.8991-2.7663zm-2.3989 2.2226c0-0.51754 0.44485-1.2159 0.98855-1.5519 0.56686-0.35034 0.7345 0.0511 0.39301 0.94098-0.66479 1.7324-1.3816 2.0494-1.3816 0.61096zm349.39-5.5301c0.11875-0.80908 0.49793-1.7531 0.84262-2.0978s0.38457-1.2577 0.0886-2.029c-0.29593-0.77122-0.13564-1.4022 0.35621-1.4022 0.49186 0 1.0039-1.4389 1.1379-3.1976 0.13401-1.7587 0.45825-3.4122 0.72052-3.6745 0.43617-0.43616-0.10079 10.719-0.57144 11.872-0.11229 0.275-0.15086 0.8375-0.0857 1.25 0.0651 0.4125-0.51676 0.75-1.2931 0.75-0.77633 0-1.3144-0.66198-1.1956-1.4711zm-230.64-46.956c-9.5502-3.4081-15.72-12.231-15.738-22.508-0.0286-15.886 16.045-27.066 31.154-21.669 11.62 4.1506 17.92 17.73 13.891 29.939-3.7854 11.469-17.879 18.316-29.306 14.237zm20.614-15.782c0.82834-1.3159 0.52318-2.8115-1.3262-6.5-1.3212-2.635-2.3152-5.1419-2.209-5.571 0.42539-1.7191-3.0716-6.8741-5.3752-7.9237-1.3485-0.61444-2.4519-1.4949-2.4519-1.9566 0-0.46171-0.9-0.83948-2-0.83948s-2 0.37777-2 0.83948c0 0.46172-1.1034 1.3422-2.4519 1.9566-2.4566 1.1193-6.1884 6.8969-5.1351 7.9502 0.30826 0.30827-0.28225 1.954-1.3122 3.6571-2.967 4.906-3.3563 7.1982-1.5324 9.0221 2.4273 2.4273 24.204 1.8915 25.794-0.63463zm-20.362-15.168c0-0.20765 0.7875-0.99515 1.75-1.75 1.5861-1.2439 1.6214-1.2085 0.37756 0.37756-1.3064 1.6658-2.1276 2.1955-2.1276 1.3724zm134.27-10.826c-1.118-2.9129-1.9033-5.4415-1.7452-5.6191 0.15809-0.17759 1.8743 0.11526 3.8138 0.65078 4.2551 1.1749 4.6581 0.85189 4.6722-3.7446 0.0149-4.839 1.0964-11.083 1.9196-11.083 0.3679 0 1.5212 3.4226 2.5629 7.6057 1.7895 7.1864 3.6053 9.771 5.4638 7.7771 0.45255-0.48553 0.19318-4.2578-0.5764-8.3828-0.76957-4.125-1.6499-10.067-1.9562-13.204-0.44739-4.5814-0.95729-5.8307-2.5915-6.3493-1.119-0.35515-2.5292-0.15102-3.1338 0.45361-1.9247 1.9247-5.5714 1.2242-7.2913-1.4007-2.7249-4.1587-5.6279-3.2486-9.8312 3.0821-2.5645 3.8624-4.1737 5.4028-5.2234 5-0.83437-0.32018-3.0668-0.58214-4.9609-0.58214h-3.4439l1.6398-3.25c4.3369-8.5954 11.781-13.176 21.412-13.176 7.2614 0 12.619 2.2149 17.136 7.0844 12.656 13.643 5.5533 35.822-12.734 39.766-2.9968 0.64629-3.1652 0.49439-5.1312-4.628zm-8.5775-19.154c-0.41421-1.0794-0.0736-2.4037 0.85773-3.3351 2.1237-2.1237 2.4928-1.3624 1.047 2.1594-1.0307 2.5106-1.3232 2.6911-1.9047 1.1757z" fill="#f2562b"/>
<path d="m480.56 341.51c-21.697-7.7292-19.673-39.184 2.7909-43.381 4.1638-0.77789 10.964-0.14808 12.246 1.1342 0.63553 0.63553 10.405 31.923 10.405 33.323 0 2.0706-7.7151 8.243-11.679 9.3438-5.0595 1.4049-8.9756 1.2854-13.763-0.42zm17.027-9.1466c-0.95303-2.4836-2.5352-23.836-1.936-26.127 0.99868-3.819-1.5741-3.3011-3.6311 0.73089-1.5851 3.1071-2.6403 4.0353-4.5872 4.0353-1.9771 0-2.9121-0.85663-4.2872-3.928-0.96723-2.1604-2.1827-3.6229-2.7011-3.25-0.51838 0.3729-1.0558 5.178-1.1942 10.678s-0.51814 12.138-0.84384 14.75l-0.59217 4.75h10.201c9.0404 0 10.129-0.18643 9.572-1.6387zm-147.59-29.379c-9.6059-4.4838-14.359-11.757-14.364-21.983-5e-3 -9.6132 4.3179-16.772 12.864-21.305 5.1878-2.7514 15.39-2.9239 20.65-0.34923 8.165 3.9967 13.85 12.885 13.85 21.654 0 8.4892-5.6388 17.693-13.251 21.63-5.1494 2.6628-14.444 2.8288-19.749 0.35256zm18.074-13.54c-0.59069-3.1953-1.074-7.1321-1.074-8.7485 0-2.5242 0.21581-2.7597 1.5296-1.6693 1.1696 0.97068 2.111 1.0046 4 0.14388 3.056-1.3924 3.0544-1.6512-0.0522-8.4369-2.9101-6.3564-5.7004-7.8101-9.0149-4.6963-2.659 2.498-6.9544 2.5281-8.6826 0.0607-0.93919-1.3409-2.1131-1.755-3.9693-1.4001-2.0931 0.40012-3.1734 1.7436-5.2474 6.526-2.4762 5.7097-2.5197 6.092-0.8374 7.3683 2.2391 1.6989 3.5251 1.7384 5.2027 0.15983 1.1005-1.0355 1.2249 0.0544 0.72523 6.3525-0.33175 4.1814-0.88098 8.3264-1.2205 9.2113-0.53565 1.3959 0.61884 1.647 8.7248 1.8975 5.1382 0.1588 9.7129 8e-3 10.166-0.33524 0.45319-0.34319 0.34069-3.2383-0.25-6.4337zm152.55-37.911c-16.998-6.059-21.874-28.128-9.0486-40.953 15.596-15.596 41.795-4.6736 41.806 17.429 9e-3 17.281-16.67 29.259-32.758 23.524zm17.741-10.652c3.6475-2.8158 6.6318-5.5748 6.6318-6.131s-2.9591-5.8663-6.5758-11.8c-5.9885-9.8255-6.8046-10.748-9.1381-10.324-1.7218 0.31222-3.3189-0.24615-4.8688-1.7023-4.4908-4.2189-10.42 0.46652-7.4988 5.9254 0.89644 1.675 0.70766 2.3008-1.0697 3.5457l-2.1582 1.5117 5.3515 11.5c5.5079 11.836 5.2908 11.603 11.576 12.445 0.61498 0.0824 4.1025-2.154 7.75-4.9699zm-19.719-26.13c0.27555-2.9617 0.22468-3.0282-0.57351-0.75-0.85504 2.4405-0.87825 2.4459-0.97556 0.22525-0.14506-3.3103 4.4528-4.9403 7.1219-2.5247 1.9108 1.7293 1.8966 1.7936-0.88985 4.0234-3.8851 3.109-5.0405 2.8687-4.683-0.97399zm6.3512-1.1276c0-0.20765-0.7875-0.99515-1.75-1.75-1.5861-1.2439-1.6214-1.2085-0.37756 0.37756 1.3064 1.6658 2.1276 2.1955 2.1276 1.3724z" fill="#1aa6ae"/>
<path d="m518.75 396.29c1.2375-0.23836 3.2625-0.23836 4.5 0 1.2375 0.23835 0.225 0.43337-2.25 0.43337s-3.4875-0.19502-2.25-0.43337zm-245.59-17.294c0-1.375 0.22698-1.9375 0.50439-1.25s0.27741 1.8125 0 2.5-0.50439 0.125-0.50439-1.25zm414.84-0.05902c0-0.58246 0.45-0.7809 1-0.44098s1 0.81648 1 1.059-0.45 0.44098-1 0.44098-1-0.47656-1-1.059zm24.812-1.6241c0.72187-0.28887 1.5844-0.25335 1.9167 0.0789 0.33229 0.33229-0.25834 0.56864-1.3125 0.52522-1.165-0.048-1.4019-0.28494-0.60417-0.60416zm-407.73-2.9002c0.048-1.165 0.28494-1.4019 0.60416-0.60417 0.28887 0.72187 0.25335 1.5844-0.0789 1.9167-0.33229 0.33229-0.56864-0.25834-0.52522-1.3125zm386 0.89235c-0.11408-1.7209 1.6556-2.5475 2.5065-1.1708 0.43129 0.69784 0.29172 0.9039-0.34549 0.51008-0.58801-0.36341-1.297-0.0954-1.5756 0.59549-0.3625 0.89914-0.52891 0.91769-0.58541 0.0652zm-6.2664-2.9921c0.72187-0.28887 1.5844-0.25335 1.9167 0.0789 0.33229 0.33229-0.25834 0.56864-1.3125 0.52522-1.165-0.048-1.4019-0.28494-0.60417-0.60416zm-410.58-7.3169c0-1.925 0.2058-2.7125 0.45733-1.75 0.25152 0.9625 0.25152 2.5375 0 3.5-0.25153 0.9625-0.45733 0.175-0.45733-1.75zm429.77 2.059c0-0.51754 0.44485-1.2159 0.98855-1.5519 0.56686-0.35034 0.7345 0.0511 0.39301 0.94098-0.66479 1.7324-1.3816 2.0494-1.3816 0.61096zm-30.493-5.0476c-0.35034-0.56686 0.0511-0.7345 0.94098-0.39301 1.7324 0.66479 2.0494 1.3816 0.61096 1.3816-0.51754 0-1.2159-0.44485-1.5519-0.98855zm5.4929-0.44108c0-0.275 0.9-0.98167 2-1.5704s2-0.84537 2-0.57037-0.9 0.98167-2 1.5704-2 0.84537-2 0.57037zm-84.541-2.6369c-0.36253-0.58659-0.44468-1.281-0.18255-1.5431 0.26212-0.26213 0.74306 0.21781 1.0688 1.0665 0.67618 1.7621 0.0998 2.0721-0.8862 0.4766zm76.541-0.93347c-0.5887-1.1-0.84537-2-0.57037-2s0.98167 0.9 1.5704 2 0.84537 2 0.57037 2-0.98167-0.9-1.5704-2zm30.812 1.3169c0.72187-0.28887 1.5844-0.25335 1.9167 0.0789 0.33229 0.33229-0.25834 0.56864-1.3125 0.52522-1.165-0.048-1.4019-0.28494-0.60417-0.60416zm-16.312-1.8071c2.2342-1.8569 8.5693-5.2816 7-3.7841-0.55 0.52481-2.8 1.9649-5 3.2003s-3.1 1.498-2 0.58383zm-17.446-4.4098c-0.734-1.3715-0.67424-2.0315 0.21481-2.3727 0.76231-0.29253 1.2317 0.43155 1.2317 1.9 0 2.8668-0.14061 2.9127-1.4465 0.47264zm-61.804-2.7893c0.9625-0.25152 2.5375-0.25152 3.5 0 0.9625 0.25153 0.175 0.45733-1.75 0.45733s-2.7125-0.2058-1.75-0.45733zm91.618-0.55534c0.75242-0.95957 1.1319-2.6477 0.84326-3.7514-0.28862-1.1037-0.11673-1.7545 0.38198-1.4463 1.503 0.92892 1.0219 4.1072-0.84326 5.5699-1.5849 1.243-1.6209 1.2078-0.38198-0.37223zm-109.39-95.255c6e-5 -51.7 0.12154-72.703 0.26997-46.674s0.14838 68.329-1e-4 94-0.26992 4.3743-0.26987-47.326zm74.474 90.414c-0.61391-1.1471-0.92784-2.274-0.69762-2.5042s0.93203 0.70832 1.5596 2.0856c1.3781 3.0245 0.70709 3.3504-0.86196 0.41858zm33.046-3.9144c-0.5887-1.1-0.84537-2-0.57037-2s0.98167 0.9 1.5704 2 0.84537 2 0.57037 2-0.98167-0.9-1.5704-2zm-15.436-0.29313c0.37553-0.98622 0.93469-1.5412 1.2426-1.2333s6.4e-4 1.1148-0.68278 1.7931c-0.98762 0.98026-1.1025 0.8654-0.5598-0.5598zm-18.132-1.5978c0.71346-1.1544 4.5674-3.4827 4.5674-2.7593 0 0.23109-1.1804 1.1936-2.6231 2.1389-1.4427 0.9453-2.3177 1.2245-1.9443 0.62038zm31.067-1.8744c-1.0481-0.77003-1.8369-3.2347-1.0352-3.2347 0.25565 0 0.94648 0.9 1.5352 2 1.1523 2.1532 1.0601 2.3809-0.5 1.2347zm-25.5-1.6643c0-0.275 0.9-0.98167 2-1.5704s2-0.84537 2-0.57037-0.9 0.98167-2 1.5704-2 0.84537-2 0.57037zm22-4.5704c-0.5887-1.1-0.84537-2-0.57037-2s0.98167 0.9 1.5704 2 0.84537 2 0.57037 2-0.98167-0.9-1.5704-2zm-32.554-3.0871c-0.36954-0.59793-0.10508-1.6104 0.58769-2.25 0.97438-0.89958 1.0841-0.85453 0.48475 0.19893-0.4589 0.80655-0.21291 1.7177 0.60329 2.2347 0.90607 0.57389 0.97017 0.87813 0.18714 0.8882-0.65504 8e-3 -1.4933-0.4739-1.8629-1.0718zm24.995-1.3577c1.0676-0.85535 2.3801-1.5552 2.9167-1.5552 1.2705 0 0.70323 0.4619-2.3578 1.9197-2.3573 1.1226-2.3892 1.1018-0.55887-0.36454zm-3.4411-6.0552c0-0.825 0.17686-1.5 0.39301-1.5 0.21616 0 0.65203 0.675 0.96862 1.5 0.31658 0.825 0.13972 1.5-0.39301 1.5-0.53274 0-0.96862-0.675-0.96862-1.5zm-27.188-3.1831c0.72187-0.28887 1.5844-0.25335 1.9167 0.0789 0.33229 0.33229-0.25834 0.56864-1.3125 0.52522-1.165-0.048-1.4019-0.28494-0.60417-0.60416zm24.188-1.3169c-0.90129-0.58246-1.0246-0.97549-0.30902-0.98469 0.65504-8e-3 1.4691 0.43469 1.809 0.98469 0.7673 1.2415 0.42112 1.2415-1.5 0zm-5-3.941c0-0.51754 0.44485-1.2159 0.98855-1.5519 0.56686-0.35034 0.7345 0.0511 0.39301 0.94098-0.66479 1.7324-1.3816 2.0494-1.3816 0.61096zm-24.493-2.0476c-0.35034-0.56686 0.0511-0.7345 0.94098-0.39301 1.7324 0.66479 2.0494 1.3816 0.61096 1.3816-0.51754 0-1.2159-0.44485-1.5519-0.98855zm24.305-1.6946c0.72187-0.28887 1.5844-0.25335 1.9167 0.0789 0.33229 0.33229-0.25834 0.56864-1.3125 0.52522-1.165-0.048-1.4019-0.28494-0.60417-0.60416zm-495.65-3.3169c0-1.375 0.22698-1.9375 0.50439-1.25s0.27741 1.8125 0 2.5-0.50439 0.125-0.50439-1.25zm99.074-1c0-1.925 0.2058-2.7125 0.45733-1.75 0.25152 0.9625 0.25152 2.5375 0 3.5-0.25153 0.9625-0.45733 0.175-0.45733-1.75zm-37.232-0.39301c0-0.21616 0.69837-0.661 1.5519-0.98855 0.88992-0.34149 1.2913-0.17385 0.94098 0.39301-0.58726 0.95021-2.4929 1.4054-2.4929 0.59554zm428-5.607c-0.90129-0.58246-1.0246-0.97549-0.30902-0.98469 0.65504-8e-3 1.4691 0.43469 1.809 0.98469 0.7673 1.2415 0.42112 1.2415-1.5 0zm-491.92-6.5833c0.048-1.165 0.28494-1.4019 0.60416-0.60417 0.28887 0.72187 0.25335 1.5844-0.0789 1.9167-0.3323 0.33229-0.56864-0.25834-0.52522-1.3125zm120.39-66.417c0-35.475 0.1252-49.988 0.27821-32.25s0.15301 46.762 0 64.5-0.27821 3.225-0.27821-32.25zm-9.6588 58.317c0.72187-0.28887 1.5844-0.25335 1.9167 0.0789 0.33229 0.33229-0.25834 0.56864-1.3125 0.52522-1.165-0.048-1.4019-0.28494-0.60417-0.60416zm-66.734-33.9c0.048-1.165 0.28494-1.4019 0.60416-0.60417 0.28887 0.72187 0.25335 1.5844-0.0789 1.9167-0.3323 0.33229-0.56864-0.25834-0.52522-1.3125zm-34.266-6.0998c0.72187-0.28887 1.5844-0.25335 1.9167 0.0789 0.33229 0.33229-0.25834 0.56864-1.3125 0.52522-1.165-0.048-1.4019-0.28494-0.60417-0.60416zm32.06-2.0669c-1.2439-1.5861-1.2085-1.6214 0.37756-0.37756 0.9625 0.75485 1.75 1.5424 1.75 1.75 0 0.82304-0.82119 0.29331-2.1276-1.3724zm-23.872-0.62756c0-0.20765 0.7875-0.99515 1.75-1.75 1.5861-1.2439 1.6214-1.2085 0.37756 0.37756-1.3064 1.6658-2.1276 2.1955-2.1276 1.3724zm460.06-5.8724c0.0317-1.2375 0.42995-4.05 0.885-6.25 0.79046-3.8215 0.8325-3.7212 0.94237 2.25 0.0658 3.5767-0.31273 6.25-0.885 6.25-0.55 0-0.97407-1.0125-0.94237-2.25zm36.692 1.5877c0.6875-0.27741 1.8125-0.27741 2.5 0s0.125 0.50439-1.25 0.50439-1.9375-0.22698-1.25-0.50439zm-13.938-10.021c0.72187-0.28887 1.5844-0.25335 1.9167 0.0789 0.33229 0.33229-0.25834 0.56864-1.3125 0.52522-1.165-0.048-1.4019-0.28494-0.60417-0.60416zm-466.65-2.3169c0-1.375 0.22698-1.9375 0.50439-1.25s0.27741 1.8125 0 2.5-0.50439 0.125-0.50439-1.25zm442.92 0.41667c0.048-1.165 0.28494-1.4019 0.60416-0.60417 0.28887 0.72187 0.25335 1.5844-0.0789 1.9167-0.33229 0.33229-0.56864-0.25834-0.52522-1.3125zm-452-2c0.048-1.165 0.28494-1.4019 0.60416-0.60417 0.28887 0.72187 0.25335 1.5844-0.0789 1.9167-0.3323 0.33229-0.56864-0.25834-0.52522-1.3125zm9.0789-8.4167c0-1.375 0.22698-1.9375 0.50439-1.25s0.27741 1.8125 0 2.5-0.50439 0.125-0.50439-1.25zm-7.3454-2.6831c0.72187-0.28887 1.5844-0.25335 1.9167 0.0789 0.33229 0.33229-0.25834 0.56864-1.3125 0.52522-1.165-0.048-1.4019-0.28494-0.60417-0.60416zm446.42-5.3169c0-1.925 0.2058-2.7125 0.45733-1.75 0.25152 0.9625 0.25152 2.5375 0 3.5-0.25153 0.9625-0.45733 0.175-0.45733-1.75zm-436-22c0-1.925 0.2058-2.7125 0.45733-1.75 0.25152 0.9625 0.25152 2.5375 0 3.5-0.25153 0.9625-0.45733 0.175-0.45733-1.75zm38.847-4.5833c0.048-1.165 0.28494-1.4019 0.60416-0.60417 0.28887 0.72187 0.25335 1.5844-0.0789 1.9167-0.3323 0.33229-0.56864-0.25834-0.52522-1.3125zm-10.266-25.1c0.72187-0.28887 1.5844-0.25335 1.9167 0.0789 0.33229 0.33229-0.25834 0.56864-1.3125 0.52522-1.165-0.048-1.4019-0.28494-0.60417-0.60416zm124.44-19.067c42.762-0.14429 112.74-0.14429 155.5 0s7.775 0.26235-77.75 0.26235-120.51-0.11806-77.75-0.26235zm-152.61-4.7501c0.31659-0.825 0.75246-1.5 0.96862-1.5 0.21615 0 0.39301 0.675 0.39301 1.5s-0.43588 1.5-0.96862 1.5c-0.53273 0-0.70959-0.675-0.39301-1.5zm-8.8259-0.18311c0.72187-0.28887 1.5844-0.25335 1.9167 0.0789 0.33229 0.33229-0.25834 0.56864-1.3125 0.52522-1.165-0.048-1.4019-0.28494-0.60417-0.60416zm11.266-9.9002c0.048-1.165 0.28494-1.4019 0.60416-0.60417 0.28887 0.72187 0.25335 1.5844-0.0789 1.9167-0.3323 0.33229-0.56864-0.25834-0.52522-1.3125zm19-5c0.048-1.165 0.28494-1.4019 0.60416-0.60417 0.28887 0.72187 0.25335 1.5844-0.0789 1.9167-0.3323 0.33229-0.56864-0.25834-0.52522-1.3125zm-29-1c0.048-1.165 0.28494-1.4019 0.60416-0.60417 0.28887 0.72187 0.25335 1.5844-0.0789 1.9167-0.3323 0.33229-0.56864-0.25834-0.52522-1.3125zm12-4c0.048-1.165 0.28494-1.4019 0.60416-0.60417 0.28887 0.72187 0.25335 1.5844-0.0789 1.9167-0.3323 0.33229-0.56864-0.25834-0.52522-1.3125zm173.92-0.06542c8.2142-0.73352 20.005-0.7932 20.002-0.10125-1e-3 0.4125-5.2898 0.67435-11.752 0.5819-6.4625-0.0925-10.175-0.30875-8.25-0.48065zm-184.92-2.9346c0.048-1.165 0.28494-1.4019 0.60416-0.60417 0.28887 0.72187 0.25335 1.5844-0.0789 1.9167-0.3323 0.33229-0.56864-0.25834-0.52522-1.3125zm151.79-2.1667c-1.2439-1.5861-1.2085-1.6214 0.37756-0.37756 1.6658 1.3064 2.1955 2.1276 1.3724 2.1276-0.20765 0-0.99515-0.7875-1.75-1.75zm159.13-0.19098c0-0.51754 0.375-1.1728 0.83333-1.456 0.45834-0.28327 0.83334 0.14017 0.83334 0.94098 0 0.8008-0.375 1.456-0.83334 1.456-0.45833 0-0.83333-0.42344-0.83333-0.94098zm128.08-3.6424c0.048-1.165 0.28494-1.4019 0.60416-0.60417 0.28887 0.72187 0.25335 1.5844-0.0789 1.9167-0.33229 0.33229-0.56864-0.25834-0.52522-1.3125zm-437.88-1.9167c0.0204-1.65 0.2445-2.2039 0.49804-1.231 0.25354 0.97297 0.23687 2.323-0.0371 3-0.27393 0.67703-0.48137-0.11903-0.46099-1.769zm301.62-2.1831c0.72187-0.28887 1.5844-0.25334 1.9167 0.07895 0.33229 0.33229-0.25834 0.56864-1.3125 0.52522-1.165-0.04798-1.4019-0.28494-0.60417-0.60417zm-213.94-5.0669c-1.2439-1.5861-1.2085-1.6214 0.37756-0.37756 1.6658 1.3064 2.1955 2.1276 1.3724 2.1276-0.20765 0-0.99515-0.7875-1.75-1.75zm227.13 0.75c-0.90129-0.58246-1.0246-0.97549-0.30902-0.98469 0.65504-0.0084 1.4691 0.43469 1.809 0.98469 0.7673 1.2415 0.42112 1.2415-1.5 0zm-169.92-1.5833c0.048-1.1649 0.28494-1.4019 0.60416-0.60417 0.28887 0.72188 0.25335 1.5844-0.0789 1.9167-0.33229 0.33229-0.56864-0.25833-0.52522-1.3125zm293.08-0.41667c0-1.375 0.22698-1.9375 0.50439-1.25s0.27741 1.8125 0 2.5-0.50439 0.125-0.50439-1.25zm-232.93-3c0-1.925 0.2058-2.7125 0.45733-1.75 0.25152 0.9625 0.25152 2.5375 0 3.5-0.25153 0.9625-0.45733 0.175-0.45733-1.75zm88.58-1.6831c0.72187-0.28887 1.5844-0.25334 1.9167 0.07895 0.33229 0.33229-0.25834 0.56864-1.3125 0.52522-1.165-0.04798-1.4019-0.28494-0.60417-0.60417zm-10-2c0.72187-0.28887 1.5844-0.25334 1.9167 0.07895 0.33229 0.33229-0.25834 0.56864-1.3125 0.52522-1.165-0.04798-1.4019-0.28494-0.60417-0.60417zm97.345-1.3169c0-1.375 0.22698-1.9375 0.50439-1.25s0.27741 1.8125 0 2.5-0.50439 0.125-0.50439-1.25zm-379.76-15c0-8.525 0.15337-12.012 0.34082-7.75s0.18745 11.238 0 15.5-0.34082 0.775-0.34082-7.75zm437.16 9.2931c-0.54268-1.4252-0.42782-1.5401 0.5598-0.5598 0.68342 0.67833 0.99067 1.4852 0.68278 1.7931-0.30789 0.30789-0.86705-0.24711-1.2426-1.2333zm-232.37-1.7931c0.0204-1.65 0.2445-2.2039 0.49804-1.231 0.25354 0.97297 0.23687 2.323-0.0371 3-0.27388 0.67703-0.48132-0.11903-0.46094-1.769zm108.31 0.5c0.99549-1.1 2.035-2 2.31-2s-0.31449 0.9-1.31 2-2.035 2-2.31 2 0.31449-0.9 1.31-2zm-166.42-0.58333c0.048-1.1649 0.28494-1.4019 0.60416-0.60417 0.28887 0.72188 0.25335 1.5844-0.0789 1.9167-0.33229 0.33229-0.56864-0.25833-0.52522-1.3125zm1-5c0.048-1.1649 0.28494-1.4019 0.60416-0.60417 0.28887 0.72188 0.25335 1.5844-0.0789 1.9167-0.33229 0.33229-0.56864-0.25833-0.52522-1.3125zm265.73-14.1c0.72187-0.28887 1.5844-0.25334 1.9167 0.07895 0.33229 0.33229-0.25834 0.56864-1.3125 0.52522-1.165-0.04798-1.4019-0.28494-0.60417-0.60417zm5 0c0.72187-0.28887 1.5844-0.25334 1.9167 0.07895 0.33229 0.33229-0.25834 0.56864-1.3125 0.52522-1.165-0.04798-1.4019-0.28494-0.60417-0.60417zm-211.58-4.3169c0-1.925 0.2058-2.7125 0.45733-1.75 0.25152 0.9625 0.25152 2.5375 0 3.5-0.25153 0.9625-0.45733 0.175-0.45733-1.75zm-183.96 1.307c0.97297-0.25354 2.323-0.23687 3 0.03705 0.67703 0.27392-0.11903 0.48137-1.769 0.46099s-2.2039-0.2445-1.231-0.49804zm391.49-0.01427c1.2439-0.23919 3.0439-0.23011 4 0.02018s-0.0617 0.446-2.2617 0.4349c-2.2-0.0111-2.9822-0.21588-1.7383-0.45508zm1-3c1.2439-0.23919 3.0439-0.23011 4 0.02018s-0.0617 0.446-2.2617 0.4349c-2.2-0.0111-2.9822-0.21588-1.7383-0.45508zm-208.12-9.7927c-0.31658-0.825-0.13972-1.5 0.39301-1.5 0.53274 0 0.96862 0.675 0.96862 1.5s-0.17686 1.5-0.39301 1.5c-0.21616 0-0.65203-0.675-0.96862-1.5zm-162.83-4.1831c0.72187-0.28887 1.5844-0.25334 1.9167 0.07895 0.33229 0.33229-0.25834 0.56864-1.3125 0.52522-1.165-0.04798-1.4019-0.28494-0.60417-0.60417zm153.94 0.02083c0.6875-0.27741 1.8125-0.27741 2.5 0 0.6875 0.27741 0.125 0.50439-1.25 0.50439s-1.9375-0.22697-1.25-0.50439zm-3.4776-5.3377c0-2.475 0.19502-3.4875 0.43337-2.25 0.23836 1.2375 0.23836 3.2625 0 4.5-0.23835 1.2375-0.43337 0.225-0.43337-2.25zm155.67 0.25-3.4462-3.75l3.75 3.4462c3.4904 3.2076 4.2098 4.0538 3.4462 4.0538-0.16711 0-1.8546-1.6875-3.75-3.75zm-178.44 1.7615c-0.35034-0.56686 0.0511-0.73451 0.94098-0.39301 1.7324 0.66479 2.0494 1.3816 0.61096 1.3816-0.51754 0-1.2159-0.44485-1.5519-0.98855zm-12.695-0.69457c0.72187-0.28887 1.5844-0.25334 1.9167 0.07895 0.33229 0.33229-0.25834 0.56864-1.3125 0.52522-1.165-0.04798-1.4019-0.28494-0.60417-0.60417zm34.042-8.8169c-0.31413-1.65-0.88844-3.9-1.2762-5-0.3878-1.1 0.0265-0.73666 0.92059 0.80743 0.89413 1.5441 1.4684 3.7941 1.2762 5-0.29095 1.8255-0.44506 1.6904-0.9206-0.80743zm-12.796-7.3963c1.0667-2.1872 0.98412-2.3481-0.94621-1.8433-1.1632 0.30418-1.8627 0.14502-1.5545-0.35369 0.69462-1.1239 4.4424-1.2065 4.4424-0.097871 0 0.44488-0.69982 1.6824-1.5552 2.75-1.4751 1.8412-1.495 1.8177-0.38651-0.45518zm-6.0583-0.10369c0-0.55 0.47656-1 1.059-1s0.7809 0.45 0.44098 1-0.81648 1-1.059 1-0.44098-0.45-0.44098-1zm10.75-1.6623c0.6875-0.27741 1.8125-0.27741 2.5 0 0.6875 0.27741 0.125 0.50439-1.25 0.50439s-1.9375-0.22697-1.25-0.50439z" fill="#6a7484"/>
<path d="m312.22 395c-0.291-0.825-1.746-4.65-3.2334-8.5s-2.9491-8.9125-3.2483-11.25l-0.54406-4.25h213.37l1.8894 7.25c1.0392 3.9875 2.4482 9.6125 3.1313 12.5l1.2419 5.25-4.1598-4e-3c-3.8606-4e-3 -4.4663-0.40066-8.4214-5.5217-2.3439-3.0349-5.7189-6.4065-7.5-7.4924-3.9907-2.4332-12.872-2.7305-14.729-0.49296-1.409 1.6977-0.76349 6.5449 1.4315 10.75l1.4298 2.7395-90.063 0.26052c-79.311 0.22943-90.126 0.0815-90.592-1.2395zm-41.896-6.1621c-4.5057-5.6317-4.3204-0.39045-4.3204-122.17v-114.44l2.7844-5.3298c2.2571-4.3207 3.7979-5.8593 8.1372-8.1262l5.3528-2.7963 159.61 0.26199 159.61 0.262 4.84 2.8449c3.7398 2.1982 5.3856 4.0167 7.2402 8l2.4003 5.1551 0.01 100.17 0.01 100.17-3.0871-1.5401c-5.9191-2.9528-13.286-0.14825-16.953 6.4545-1.1423 2.0564-1.83 2.9262-1.5281 1.933 0.66563-2.1904-1.5013-7.6798-3.7764-9.5665-1.5184-1.2592-1.6549-9.1174-1.6549-95.25l-4.6e-4 -93.878h-296v63.571c0 59.157-0.11494 63.456-1.6552 61.916-4.9334-4.9334-11.143-3.6977-14.601 2.9055-2.0824 3.9764-2.1417 5.0599-1.8668 34.107 0.26279 27.774-1.1372 60.326-2.7862 64.783-0.56711 1.533-0.90333 1.6383-1.7705 0.55448zm424.68 0.31673c0-1.1896 16.522-11.155 18.494-11.155 2.7272 0 0.81807 1.6771-7.9111 6.9498-8.1943 4.9496-10.583 5.8987-10.583 4.2049zm-1.9833-3.4046c0.0151-1.1257 16.53-11.75 18.264-11.75 0.39536 0 0.71131 0.5625 0.70211 1.25-0.0151 1.1257-16.53 11.75-18.264 11.75-0.39536 0-0.71131-0.5625-0.70211-1.25zm-1.7901-3.9298c0.38409-1.1523 16.538-11.714 18.023-11.785 0.4125-0.0195 0.75 0.58295 0.75 1.3389 0 1.3216-16.095 11.626-18.16 11.626-0.55389 0-0.83011-0.53089-0.61382-1.1798zm-1.637-2.564c-1.2726-1.2726-0.2958-2.1662 7.784-7.1212 8.4024-5.1527 11.143-6.1858 10.386-3.9147-0.5239 1.5717-17.39 11.816-18.17 11.036zm-136.59-5.7563-2.3486-2.5h4.6743c4.7876 0 5.9753 1.299 3.4743 3.8-1.7889 1.7889-3.194 1.474-5.8-1.3zm133.56 1.5977c-0.54846-0.88744 16.711-12.098 18.625-12.098 2.5757 0-0.60592 2.9773-8.2615 7.7309-8.937 5.5493-9.4892 5.782-10.364 4.3668zm-1.6786-4.4552c1.9073-2.2982 16.258-10.765 17.703-10.444 2.2091 0.4895 0.38533 2.1374-7.8702 7.1113-7.7214 4.6521-12.182 6.1643-9.8328 3.3332zm-12.382-2.5921c-2.7143-1.1166-16.5-24.066-16.5-27.468 0-1.5582 1.0257-3.6284 2.4531-4.9513 1.5201-1.4088 2.277-3.0071 1.9901-4.2022-0.37082-1.5445 1.2956-2.9746 8.3649-7.1788 4.8554-2.8875 9.1349-5.25 9.5099-5.25 0.37507 0 0.68195 0.72314 0.68195 1.607 0 1.1489 0.49884 1.3936 1.75 0.85857 3.2851-1.4049 7.018-1.6601 8.9738-0.61336 1.0744 0.57502 5.0226 6.131 8.7736 12.347 7.4574 12.357 8.3687 16.136 4.8298 20.024-1.14 1.2525-1.8814 2.798-1.6476 3.4344s-3.7332 3.7292-8.8155 6.873c-7.2618 4.492-9.5941 5.4951-10.892 4.6847-0.99897-0.62386-2.2085-0.67851-3.0618-0.13833-1.7078 1.0811-3.7394 1.0728-6.4105-0.026zm17.151-10.326c9.5217-5.8468 11.898-7.7615 12.099-9.75 0.30684-3.0339-12.485-24.3-14.896-24.764-2.061-0.39691-26.485 14.385-27.307 16.527-0.37505 0.97736 2.1148 6.1455 6.4681 13.426 5.8365 9.7609 7.4909 11.837 9.4327 11.837 1.2951 0 7.6866-3.274 14.203-7.2756zm-3.6056-3.6388c-0.6143-1.1478-0.69884-2.0856-0.18801-2.0856 1.0278 0 2.4466 3.0289 1.7467 3.7288-0.24339 0.24339-0.94481-0.49602-1.5587-1.6431zm-15.82-3.6593c0.94941-0.99401 2.0004-1.533 2.3356-1.1978s-0.44159 1.1485-1.7262 1.8073c-2.2329 1.1451-2.2597 1.1183-0.60946-0.60945zm14.024-4.1586c-3.6032-0.32452-4.2454-0.71649-4.2196-2.5753 0.0273-1.9701 0.13382-2.015 1.0497-0.4425 0.65909 1.1316 2.2386 1.75 4.4696 1.75 1.8977 0 3.4503 0.45 3.4503 1s-0.1125 0.92138-0.25 0.82529c-0.1375-0.0961-2.1625-0.34696-4.5-0.5575zm-3.018-10.268c0-1.925 0.2058-2.7125 0.45733-1.75 0.25152 0.9625 0.25152 2.5375 0 3.5-0.25153 0.9625-0.45733 0.175-0.45733-1.75zm8.768 2c0.825-0.53316 1.95-0.96937 2.5-0.96937s0.325 0.43621-0.5 0.96937-1.95 0.96937-2.5 0.96937-0.325-0.43621 0.5-0.96937zm-15.847-3.5637c-0.66721-1.4644-0.73835-2.2981-0.1659-1.9443 1.4676 0.90705 3.2319 4.508 2.2087 4.508-0.48107 0-1.4003-1.1537-2.0428-2.5637zm-15.906-7.6764c0.47839-1.4352 15.639-10.752 17.503-10.757 2.875-7e-3 0.76818 2.0221-7.1236 6.8617-8.4236 5.1658-11.143 6.1864-10.38 3.895zm-2.7246-2.724c-0.32774-0.53029 1.3332-2.1564 3.691-3.6135 2.3578-1.4572 6.3513-3.9483 8.8744-5.5358 4.8635-3.0601 7.3432-3.6786 6.6716-1.664-0.37208 1.1162-16.342 11.528-17.95 11.703-0.38004 0.0413-0.95914-0.35885-1.2869-0.88915zm-479.31-10.286c-0.51018-17.084-5.3334-38.113-11.525-50.25-1.5833-3.1033-1.9871-5.5864-1.8013-11.077 0.27575-8.1498-1.3754-13.341-6.6071-20.771-1.8773-2.6664-3.2699-4.9716-3.0946-5.1228 0.59605-0.51405 6.7172-3.5292 7.1648-3.5292 0.24498 0 1.8608 2.2057 3.5908 4.9016 4.1784 6.5115 11.806 13.529 16.329 15.021 3.166 1.0449 4.2663 0.93545 8.2314-0.8185 6.1843-2.7356 9.337-9.3755 10.19-21.461 0.63616-9.0145 1.0403-9.5858 6.8129-9.6313 1.833-0.0144 1.9717 0.53381 1.6611 6.5665-0.40847 7.934 1.6599 15.01 6.2676 21.443 2.1797 3.0428 3.4312 6.1484 3.8283 9.5 1.2606 10.639 8.3988 28.442 21.505 53.632 0.18678 0.359-1.8208 1.3536-4.4613 2.2102-4.0462 1.3126-57.198 16.637-57.705 16.637-0.0934 0-0.26735-3.2625-0.38642-7.25zm476.79 6.3851c0-1.2275 16.401-11.135 18.433-11.135 2.7712 0 0.92033 1.68-7.6849 6.9757-7.9021 4.863-10.748 5.9643-10.748 4.1594zm-0.94508-4.6186c2.6411-2.6411 16.231-10.609 17.582-10.308 2.1044 0.46873 0.35868 2.0585-7.7725 7.0781-7.5608 4.6674-13.056 6.4771-9.8091 3.2304zm-2.8225-2.7137c0.3931-1.1793 16.558-11.753 18.018-11.786 0.4125-9e-3 0.75 0.60165 0.75 1.3576 0 1.3216-16.095 11.626-18.16 11.626-0.55389 0-0.82749-0.53876-0.608-1.1972zm-2.2324-3.6772c0-0.94222 16.545-11.126 18.076-11.126 2.6174 0 0.0915 2.4094-7.2844 6.9486-7.9551 4.8956-10.792 5.9936-10.792 4.177zm22.5-72.995c-1.1086-0.49354-3.7181-4.4757-5.8548-8.9345-5.8747-12.259-10.576-15.504-10.703-7.3868-0.0317 2.03-0.42995 5.491-0.885 7.691l-0.82737 4-0.15062-3.5c-0.0828-1.925-0.89727-6.2-1.8098-9.5-1.8921-6.8422-2.3057-19.868-0.68238-21.489 1.5532-1.5508 6.1392 0.37276 10.252 4.3001 3.5871 3.4253 6.9551 9.3913 10.205 18.076 2.7304 7.2977 4.2917 8.5302 8.0636 6.3654 2.8052-1.61 3.2172-1.5497 12.646 1.8506 11.974 4.3179 13.713 5.6892 9.2102 7.2591-4.1575 1.4493-26.862 2.4261-29.464 1.2676zm-445.59-34.086c-10.127-3.069-15.679-15.182-12.022-26.228 1.4687-4.4363 7.7276-10.354 11.927-11.276 3.5557-0.78095 5.3952-2.6856 5.6094-5.8079 0.0905-1.3196 0.71228-2.1082 1.521-1.9292 0.75232 0.16653 1.7329-0.28347 2.179-1 0.65582-1.0534 1.1999-1.0618 2.8416-0.0443 1.1998 0.74361 2.0305 0.84589 2.0305 0.25 0-0.55466 0.72314-1.0085 1.607-1.0085 1.0086 0 1.3953 0.5516 1.0385 1.4814-0.40929 1.0666 0.0508 1.4166 1.643 1.25 1.6222-0.16973 2.1324 0.23845 1.9146 1.532-0.1633 0.96986 0.36306 2.0166 1.1697 2.3262 1.2535 0.48102 1.2739 1.0211 0.14011 3.7176-1.2107 2.8794-1.1024 3.5372 1.2406 7.5352 4.8704 8.3106 2.6895 20.926-4.4809 25.92-5.5606 3.8732-12.383 5.0926-18.359 3.2814zm16.608-4.4926c7.4377-5.673 9.4046-16.082 4.5294-23.97-1.6708-2.7035-2.8876-3.5817-4.9626-3.5817-1.5119 0-4.8737-1.0757-7.4706-2.3904-4.05-2.0504-5.2161-2.2386-8.1978-1.3235-6.9459 2.1318-12.443 9.9891-12.392 17.714 0.021 3.2083 3.1394 10.011 5.5835 12.181 6.5295 5.796 16.339 6.383 22.91 1.371zm-37.832-67.253c-1.3702-0.35492-1.6774-1.1174-1.2624-3.134 1.7916-8.7065 3.6965-21.674 4.1375-28.165 0.28024-4.125 0.70169-9.975 0.93656-13s0.44326-11.649 0.46308-19.165l0.03604-13.665 4.626-2.5855c5.6095-3.1352 5.7836-3.1421 9.6585-0.38297 1.7012 1.2114 5.1083 2.7142 7.5713 3.3396l4.4781 1.137 11.083 32.652c6.0957 17.959 11.533 32.649 12.083 32.645 4.2807-0.0288 4.0172-1.2656-7.4498-34.961l-11.285-33.16 2.5637-2.6772c1.41-1.4724 3.4858-4.7626 4.6129-7.3114 2.0167-4.5608 2.1399-4.6456 7.7701-5.349 6.583-0.8225 4.6606-2.4118 18.249 15.087 4.6538 5.9929 15.116 17.576 23.25 25.741 8.1337 8.1644 14.789 15.164 14.789 15.554 0 0.3902-1.4911 2.1547-3.3136 3.9211l-3.3136 3.2116-19.622-17.015c-10.792-9.3585-19.935-17.015-20.317-17.015-2.7474 0 4.5667 18.935 13.182 34.127 3.5115 6.1918 6.3793 11.509 6.3729 11.816-6e-3 0.30673-10.806 4.2253-24 8.708l-23.988 8.1503-0.0378-2.6503c-0.17833-12.514-8.3083-44.802-11.546-45.854-0.67404-0.219-2.6949 7.8774-5.3478 21.426-6.0781 31.041-5.5196 29.3-9.3573 29.162-1.7663-0.0638-4.0263-0.32707-5.0222-0.58503zm52.853-15.23c-0.31644-0.512-0.11799-1.2136 0.44098-1.559s1.0163 0.0734 1.0163 0.9309c0 1.7565-0.60006 2.0152-1.4573 0.62812zm100.34-10.279-6.6219-6.2903l6.3371-33c3.4854-18.15 6.3527-33.026 6.3719-33.057 0.18009-0.29492 15.786 0.8036 24.38 1.7161 9.131 0.96956 10.986 0.92946 11.735-0.25372 0.7238-1.1433 0.89253-1.0906 0.90499 0.28256 8e-3 0.92832 0.80281 1.7023 1.7653 1.72 3.6131 0.06631 8.8296 1.4367 11.092 2.9139 2.6337 1.7195 2.6313 1.948-0.36539 34.678-0.75534 8.25-1.6702 19.5-2.033 25s-0.9486 10.298-1.3018 10.662c-0.35316 0.36409-10.767 0.94474-23.142 1.2903l-22.5 0.62834zm255.47-5.1515c-11.083-5.0263-21.095-9.9961-22.25-11.044-1.4435-1.3095-2.0999-3.1151-2.0999-5.7763 0-3.2243 0.714-4.5853 4.2722-8.1436 5.1548-5.1548 21.606-15.521 27.421-17.278 3.087-0.93291 5.1974-0.99283 8-0.22713 11.043 3.017 13.515 7.7203 16.307 31.023 1.7987 15.011-0.41186 20.914-7.7504 20.696-2.4126-0.0715-10.936-3.3705-23.9-9.25zm-92.523-0.26848c4.0506-8.0592 2.6121-9.6436-4.4216-4.8703-2.0262 1.375-4.9555 2.5-6.5096 2.5-3.2648 0-21.169-11.076-19.047-11.783 0.74097-0.24699 3.9636 0.10618 7.1615 0.7848 5.8135 1.2337 5.8153 1.2333 13.131-2.6341 11.3-5.9738 14.805-10.325 28.782-35.728l12.411-22.557 6.583 6.1266c3.6206 3.3696 6.7309 6.4946 6.9117 6.9445 0.38481 0.95762-8.0179 13.174-18.809 27.346-8.8238 11.588-11.324 15.582-12.962 20.709-0.72999 2.2843-4.0902 6.7013-8.7484 11.5l-7.5632 7.7912zm-267.28 3.6988c-0.31644-0.512-0.11799-1.2136 0.44098-1.559s1.0163 0.0734 1.0163 0.9309c0 1.7565-0.60006 2.0152-1.4573 0.62812zm-4.0427-12.069c-0.33992-0.55-0.14148-1 0.44098-1s1.059 0.45 1.059 1-0.19844 1-0.44098 1-0.7191-0.45-1.059-1zm-4.5-12c0-0.55 0.45-1 1-1s1 0.45 1 1-0.45 1-1 1-1-0.45-1-1zm400.8-3c-0.34144-0.825-1.1447-3.75-1.785-6.5-1.5699-6.7428-4.9088-10.812-11.528-14.051-7.0099-3.4296-11.288-2.9858-19.782 2.0524l-6.203 3.6791 2.9395-3.0928c4.393-4.6221 10.264-7.0877 16.876-7.0877 4.386 0 5.6843-0.34259 5.6843-1.5 0-1.8259 0.7992-1.8725 4.2928-0.25 2.8474 1.3224 3.3369 2.2428 1.723 3.2402-0.54127 0.33452 0.53704 2.1294 2.3962 3.9886 3.9564 3.9564 6.863 11.825 6.3611 17.22-0.20433 2.1962-0.61575 3.1677-0.97445 2.3011zm-10.195-25.729c-1.0165-1.0165-1.8552 0.51389-1.0212 1.8634 0.63003 1.0194 0.86558 1.0202 1.2043 4e-3 0.2316-0.69478 0.14921-1.5351-0.18308-1.8674zm-394.6 16.729c0-0.55 0.45-1 1-1s1 0.45 1 1-0.45 1-1 1-1-0.45-1-1zm-4-12c0-0.55 0.45-1 1-1s1 0.45 1 1-0.45 1-1 1-1-0.45-1-1zm162.19-25.5c0.0204-1.65 0.2445-2.2039 0.49804-1.231 0.25354 0.97297 0.23687 2.323-0.0371 3-0.27388 0.67703-0.48132-0.11903-0.46094-1.769zm-17.186-2.0833c0.01193-1.1653 5.8659-11.417 6.5194-11.417 0.26857 0-0.94458 2.5875-2.6959 5.75-3.6991 6.6798-3.8359 6.8826-3.8235 5.6667zm14.135-8.1667c-1.0912-2.55-1.0665-2.6089 0.33949-0.80887 0.83394 1.0676 1.5162 2.3051 1.5162 2.75 0 1.5199-0.67833 0.81036-1.8557-1.9411zm-5.4109-4.3741c0.67834-0.68342 1.4852-0.99067 1.7931-0.68278s-0.24711 0.86705-1.2333 1.2426c-1.4252 0.54268-1.5401 0.42782-0.5598-0.5598z" fill="#16253f"/>
</g>
</svg>
