<?xml version="1.0" encoding="UTF-8"?>
<svg version="1.1" viewBox="0 0 900 512" xmlns="http://www.w3.org/2000/svg">
<path d="m445 479.31c-31.511-2.3787-66.939-12.816-94.503-27.841-80.984-44.145-127.35-131.29-116.99-219.88 0.83003-7.0958 1.295-13.115 1.0334-13.377-0.26168-0.26167-6.2283-1.7626-13.259-3.3353-7.0309-1.5727-13.807-3.0992-15.059-3.3922-3.5488-0.83073-6.2246-4.1285-6.2246-7.6716 0-2.8797 4.2418-7.3763 43.628-46.25 23.996-23.683 44.583-43.607 45.75-44.275 1.1669-0.66802 3.1091-1.2305 4.3159-1.25 5.2679-0.0851 6.4822 2.5184 28.761 61.663 11.85 31.459 21.545 58.142 21.545 59.295 0 2.5448-4.2406 7.006-6.6596 7.006-0.96277 0-10.234-1.8491-20.603-4.1091s-19.036-3.926-19.259-3.7022c-0.22379 0.2238-0.95638 5.6784-1.628 12.121-2.5312 24.283 2.7484 53.1 14.209 77.557 11.088 23.662 34.159 50.282 56.366 65.037 45.292 30.094 100.7 37.843 151.44 21.181 34.576-11.354 63.026-31.717 84.643-60.584 8.569-11.443 7.518-11.57 34.645 4.1835 28.799 16.724 28.522 16.217 17.333 31.817-43.427 60.543-116.33 97.274-191.2 96.325-7.5842-0.09609-15.814-0.32757-18.289-0.5144zm-83.345-145.14c-1.3754-1.5198-1.655-4.2126-1.655-15.939v-14.11l13.25-11.765c33.727-29.948 48.662-48.612 51.596-64.48 1.6428-8.8869-1.0445-16.501-6.942-19.668-6.3805-3.427-20.648 0.58276-31.662 8.8981-7.7471 5.8491-9.076 5.4048-17.993-6.0154-4.7312-6.0592-7.2399-10.14-7.0475-11.463 0.64919-4.463 18.526-16.212 31.545-20.732 7.3949-2.5674 20.182-3.5072 27.211-1.9999 18.119 3.8858 31.925 18.278 35.117 36.607 4.3298 24.863-8.5454 51.92-39.006 81.969-3.8877 3.8352-7.0686 7.3228-7.0686 7.75s9.8303 0.77682 21.845 0.77682c19.893 0 21.993 0.1634 23.5 1.8287 1.3544 1.4966 1.655 4.1018 1.655 14.345 0 10.856-0.24264 12.736-1.8287 14.171-1.644 1.4878-6.3255 1.655-46.345 1.655-41.857 0-44.615-0.10926-46.171-1.8287zm175.92 0.25731c-1.2834-1.2834-1.5714-4.2164-1.5714-16v-14.429h-30.345c-28.128 0-30.466-0.13362-32-1.8287-1.3854-1.5309-1.6453-4.1778-1.5957-16.25l0.0593-14.421 31.783-47.5 31.783-47.5 14.297-0.27831c12.254-0.23854 14.563-0.0377 16.157 1.405 1.7624 1.5949 1.86 4.1159 1.86 48.028l2e-5 46.345h6.345c9.2531 0 9.655 0.67328 9.655 16.174 0 15.179-0.40183 15.826-9.8287 15.826h-6.1713v14.429c0 11.784-0.28807 14.717-1.5714 16-1.2656 1.2656-4.0736 1.5714-14.429 1.5714s-13.163-0.30582-14.429-1.5714zm-2.0548-85.75c0.0161-22.112-0.0389-22.749-1.7703-20.5-0.98283 1.2765-2.6438 3.3334-3.691 4.5709s-1.6006 2.2637-1.2297 2.2804c0.37088 0.0167-0.12263 0.49438-1.0967 1.0615s-1.508 1.4566-1.1866 1.9766-0.11652 1.2146-0.97322 1.5433c-0.85671 0.32874-1.3067 1.0037-1 1.5 0.3067 0.49625-0.1433 1.1712-1 1.5-0.85671 0.32874-1.3067 1.0037-1 1.5 0.3067 0.49625-0.1433 1.1712-1 1.5-0.85671 0.32874-1.3067 1.0037-1 1.5 0.3067 0.49625-0.14589 1.1722-1.0058 1.5022s-1.5634 1.2268-1.5634 1.9929c0 0.76615-0.34015 1.393-0.75589 1.393s-1.3323 1.3021-2.0367 2.8936-2.3678 4.0665-3.6964 5.5-2.0995 2.6201-1.7133 2.6368c0.38624 0.0167-0.0947 0.49438-1.0688 1.0615-0.97407 0.56708-1.5392 1.4062-1.2558 1.8648 0.28341 0.45856-0.18564 1.1027-1.0424 1.4315-0.8567 0.32875-1.2776 1.0509-0.93524 1.6048 0.34232 0.55388 0.14585 1.0071-0.43661 1.0071s-1.059 0.3375-1.059 0.75c3e-5 0.4125 7.0875 0.75 15.75 0.75h15.75l0.0167-22.821zm98.938 20.866c-2.311-2.311-2.4546-3.1032-2.4546-13.545s0.14357-11.234 2.4546-13.545l2.4545-2.4546h54.182l2.4545 2.4546c2.311 2.311 2.4546 3.1032 2.4546 13.545s-0.14357 11.234-2.4546 13.545l-2.4545 2.4546h-54.182zm-17.578-83.845c-0.89314-0.67993-3.9469-5.2781-6.7861-10.218-5.6242-9.786-5.8949-12.296-1.7291-16.032 1.2571-1.1275 11.897-7.5994 23.644-14.382 26.489-15.294 25.662-15.256 33.648-1.5679 5.6137 9.6224 6.3785 13.088 3.5972 16.299-2.7678 3.1959-45.382 27.205-48.223 27.169-1.3899-0.0175-3.2579-0.58811-4.151-1.268zm-240.33-64.95c-3.0165-2.643-26.435-42.958-27.213-46.847-0.84934-4.2467 1.0845-6.4179 10.531-11.824 9.4889-5.4301 12.73-6.1072 15.938-3.3293 3.2122 2.7818 27.201 45.377 27.201 48.299 0 1.4316-1.0312 3.5716-2.2915 4.7556-3.1544 2.9634-17.771 11.196-19.878 11.196-0.94515 0-2.874-1.0125-4.2864-2.25zm176.96-2.3025c-9.8787-5.6652-12.5-8.0569-12.5-11.405 0-2.9422 23.975-45.527 27.188-48.293 3.2371-2.7858 6.45-2.0986 16.025 3.4275 9.1754 5.2954 11.46 8.0047 10.379 12.31-0.70563 2.8114-24.249 43.589-26.385 45.699-3.4738 3.4321-6.2653 3.1019-14.707-1.7395zm-95.045-24.902-2.4546-2.4545v-54.182l2.4546-2.4545c2.311-2.311 3.1032-2.4545 13.545-2.4545s11.234 0.14357 13.545 2.4545l2.4546 2.4545v54.182l-2.4546 2.4545c-2.311 2.311-3.1032 2.4545-13.545 2.4545s-11.234-0.14357-13.545-2.4545z" fill="#0599d9"/>
<path d="m435.94 477.95c-53.453-6.8755-101.01-29.764-137.67-66.257-14.942-14.873-26.253-29.665-36.829-48.163-22.534-39.412-32.11-83.79-27.779-128.73 0.77702-8.0621 1.4128-15.174 1.4128-15.805 0-1.2766-2.4564-2.0311-18.402-5.6519-12.849-2.9177-14.14-3.499-15.599-7.0218-0.91154-2.2007-0.87784-2.9771 0.20066-4.6231 2.5437-3.8822 19.05-20.624 53.548-54.314 23.574-23.021 35.765-34.335 37.317-34.631 3.4398-0.65755 6.4416 2.233 9.6588 9.3007 6.8108 14.962 41.433 107.89 41.433 111.21 0 0.81219-1.1497 2.5782-2.555 3.9245-2.9508 2.827-1.1182 2.9935-27.874-2.5322-8.3405-1.7225-15.298-2.9981-15.462-2.8347-0.9614 0.9614-2.1491 15.025-2.1596 25.573-0.0426 42.575 17.148 81.055 50.449 112.93 12.774 12.227 23.22 19.505 39.905 27.805 22.257 11.071 41.508 16.416 66.381 18.431 42.291 3.4249 88.938-11.284 122.02-38.477 8.2946-6.8176 21.533-20.587 28.696-29.845 6.3151-8.1635 8.2551-9.3227 12.896-7.705 3.3329 1.1618 28.3 15.32 36.702 20.813 10.119 6.6151 10.634 8.9787 4.0453 18.575-10.885 15.854-30.194 36.469-45.52 48.601-34.717 27.479-79.497 45.611-123.1 49.846-12.692 1.2326-40.64 1.0077-51.709-0.41602z" fill="#fff" stroke-width=".87223"/>
<path d="m364.16 334.78c-3.0965-1.1442-3.4889-3.0412-3.4889-16.863v-13.63l14.349-12.861c24.24-21.727 39.734-39.044 45.95-51.357 7.3887-14.637 5.5538-28.828-4.2129-32.583-6.7078-2.5793-17.706 0.68897-30.709 9.1253-3.0727 1.9936-6.3732 3.6248-7.3346 3.6248-2.0975 0-7.9132-6.1216-13.37-14.073-4.788-6.9771-4.6571-7.4488 3.8561-13.899 7.8124-5.9196 21.854-12.764 29.413-14.338 7.1218-1.4827 16.674-1.6374 22.218-0.35994 14.627 3.3705 27.704 15.637 32.403 30.396 2.3672 7.4343 2.5526 20.611 0.41196 29.283-2.0848 8.4459-10.742 25.564-17.429 34.465-3.0685 4.084-10.524 12.719-16.568 19.189-6.0437 6.47-10.992 12.008-10.997 12.307-5e-3 0.29882 9.7858 0.83103 21.757 1.1827 15.733 0.46215 22.2 0.95674 23.332 1.7845 1.3831 1.011 1.5668 2.6309 1.5668 13.819 0 9.2311-0.30781 12.982-1.1332 13.808-0.8958 0.89717-10.307 1.1696-44.92 1.3-24.083 0.0908-44.375-0.0525-45.095-0.31839z" fill="#fff" stroke-width=".87223"/>
<path d="m538.23 334c-1.1348-1.1348-1.3706-3.8363-1.3706-15.7v-14.33l-22.896-0.0819c-26.929-0.0964-38.497-0.77715-40.08-2.3587-0.80872-0.80807-1.2184-5.1627-1.4308-15.208l-0.2976-14.076 32.057-47.81 32.057-47.81h13.648c10.408 0 14.05 0.2938 15.341 1.2376 1.6342 1.1946 1.7015 2.8638 1.9333 47.973l0.2402 46.735h6.3844c4.9903 0 6.6759 0.33331 7.7195 1.5264 2.6781 3.062 2.9245 24.175 0.32353 27.732-0.6979 0.95445-3.0676 1.5316-7.7388 1.8849l-6.7329 0.50921v13.83c0 18.175 0.77304 17.319-15.638 17.319-9.8815 0-12.405-0.2558-13.52-1.3706zm-2.446-84.326c-0.16862-15.936-0.51148-22.024-1.2404-22.024-0.95603 0-8.151 8.3852-8.151 9.4993 0 0.29001-1.3738 2.4395-3.0528 4.7766-1.679 2.3371-3.0528 4.693-3.0528 5.2354 0 0.54236-0.40482 0.98611-0.89961 0.98611-0.49478 0-1.1619 0.68689-1.4824 1.5264s-0.90731 1.9189-1.3039 2.3986c-0.3966 0.47972-1.8627 2.6385-3.258 4.7973-1.3953 2.1588-3.3475 4.7918-4.3382 5.8511-0.99074 1.0593-1.8013 2.2869-1.8013 2.728 0 0.44104-0.58444 1.2869-1.2988 1.8798-0.71431 0.59283-1.0836 1.4259-0.82075 1.8513 0.26289 0.42537 0.0623 0.7734-0.44572 0.7734-0.50804 0-0.92371 0.3925-0.92371 0.87223 0 0.55008 5.9652 0.87223 16.151 0.87223h16.151z" fill="#fff" stroke-width=".87223"/>
<path d="m635.15 269.25c-2.2858-2.3859-2.3438-2.7136-2.3438-13.254s0.058-10.868 2.3438-13.254l2.3438-2.4464h53.448l2.1146 2.2508c2.0112 2.1409 2.1146 2.798 2.1146 13.449s-0.10331 11.308-2.1146 13.449l-2.1146 2.2508h-53.448z" fill="#fff" stroke-width=".87223"/>
<path d="m616.49 184.26c-2.4947-2.7295-9.6384-15.403-10.345-18.353-0.49701-2.074-0.0698-2.9147 2.8809-5.6695 3.5064-3.2736 31.53-20.014 40.355-24.107 2.6385-1.2237 5.6498-2.2287 6.6918-2.2334 2.573-0.0116 7.0326 5.3841 11.006 13.315 3.9028 7.7914 4.0709 10.315 0.85538 12.845-7.5975 5.9762-44.164 26.165-47.39 26.165-1.2422 0-3.0658-0.88314-4.0523-1.9625z" fill="#fff" stroke-width=".87223"/>
<path d="m556.59 119.51c-7.8515-4.1747-13.676-8.3213-14.63-10.416-0.8438-1.8519-0.25228-3.456 4.7869-12.981 6.5576-12.395 15.99-28.698 19.848-34.305 2.2992-3.3418 3.0123-3.8041 5.8674-3.8041 6.2677 0 21.961 10.468 21.961 14.648 0 2.6131-22.878 42.718-26.779 46.944-2.4894 2.6966-5.8692 2.6701-11.054-0.0865z" fill="#fff" stroke-width=".87223"/>
<path d="m459.3 93.251-2.6836-2.2581v-54.677l2.5333-1.8039c2.2216-1.5819 3.8169-1.8039 12.966-1.8039 9.2336 0 10.697 0.20776 12.731 1.8078l2.2982 1.8078v55.722l-2.8348 1.7284c-2.3783 1.4501-4.4039 1.7289-12.58 1.7316-9.2144 0.0031-9.892-0.11983-12.429-2.2549z" fill="#fff" stroke-width=".87223"/>
<path d="m376.87 119.71c-3.1442-3.165-14.615-22.053-22.555-37.138-5.8216-11.061-5.85-12.047-0.46319-16.108 5.2178-3.9337 14.719-8.4644 17.75-8.4644 3.6155 0 4.9004 1.5727 13.972 17.101 9.8545 16.87 17.142 31.556 16.563 33.38-0.27513 0.86687-1.3766 2.382-2.4478 3.3669-2.5464 2.3415-17.222 10.696-18.789 10.696-0.66776 0-2.4814-1.2756-4.0302-2.8348z" fill="#fff" stroke-width=".87223"/>
</svg>
