<?xml version="1.0" encoding="UTF-8"?>
<svg version="1.1" viewBox="0 0 900 620" xmlns="http://www.w3.org/2000/svg">
<g transform="translate(-21.124 31.687)">
<path d="m567.5 451.02 109-0.5238 6-2.8008c6.3049-2.9431 13.672-9.3184 16.096-13.929 0.78937-1.5016 2.0737-5.1016 2.854-8 0.78033-2.8984 1.4484-4.2742 1.4846-3.0574s-0.89839 4.8169-2.0768 8c-2.5547 6.9005-8.4825 12.915-17.357 17.612l-6 3.1754-109.5 0.0238-109.5 0.0238 109-0.52379zm-116-1.0705c-1.3939-0.63152-0.7878-0.72154 2-0.29705 2.2 0.33499 4.1875 0.77437 4.4167 0.97641 0.85918 0.75747-4.497 0.19039-6.4167-0.67936zm-9.3674-4.1257c-4.0387-2.3538-6.4416-4.7887-9.7063-9.8355l-4.3389-6.7072-4.7937 0.72837c-2.6365 0.40061-29.544 0.61475-59.794 0.47588-53.536-0.24578-55.183-0.31102-61.877-2.4502-8.094-2.5866-14.157-7.9952-19.662-17.539l-3.4608-6-0.27428-76.388c-0.23715-66.05-0.0741-76.694 1.2045-78.645 1.5089-2.3029 13.711-8.752 28.07-14.835 4.4-1.8641 12.275-5.4375 17.5-7.9407 13.631-6.5305 28.78-13.247 36.14-16.024 3.498-1.3196 10.288-4.2593 15.09-6.5328 4.8013-2.2735 8.9726-4.1336 9.2696-4.1336s6.5508-2.9106 13.897-6.468c7.3466-3.5574 16-7.4423 19.23-8.633 3.2302-1.1907 6.4355-2.6102 7.123-3.1544 0.85511-0.67687 1.25-4.2447 1.25-11.294v-10.304l-5.357-2.4525c-7.7543-3.55-12.822-11.275-12.525-19.093 0.0933-2.4596 0.27841-2.1502 0.89522 1.4963 1.4111 8.342 5.7335 13.97 13.487 17.561l4 1.8527 0.28498 10.244c0.21599 7.7641 0.61004 10.244 1.6276 10.244 2.6122 0 3.5071-2.7046 3.7956-11.471l0.29182-8.8668 6.8804-1.3881c3.7842-0.76345 7.4747-1.1601 8.201-0.88135 0.85254 0.32715 1.4265 2.7396 1.6196 6.8069 0.23823 5.0194 0.60396 6.2195 1.799 5.9034 0.825-0.21825 4.0476-0.60696 7.1614-0.86378 4.5557-0.37575 6.4111-0.0409 9.5 1.7145 5.7887 3.2897 7.7109 6.5294 8.1722 13.773 0.33491 5.2598-0.028 7.1498-2.2417 11.674-2.9736 6.0777-6.1741 8.8376-17.055 14.707l-7.5478 4.0712 0.25533 89.66 0.25533 89.66h93c80.901 0 92.959-0.18944 92.681-1.4562-2.3368-10.676-1.7792-15.963 2.3454-22.239 1.3357-2.0321 4.5761-4.9536 7.2009-6.4922 4.5283-2.6544 5.514-2.8156 19.272-3.1504 7.975-0.19409 14.882-0.71479 15.349-1.1571 0.46713-0.44233 0.54931-1.7495 0.18261-2.9049-0.63256-1.993-1.3363-2.1007-13.733-2.1007-14.651 0-19.075-0.95471-24.271-5.2382-10.919-9.0003-10.24-26.092 1.3597-34.253 4.2065-2.9591 4.5332-3.0175 19.649-3.5092 16.219-0.52755 19.01-1.3196 16.836-4.7775-0.92071-1.4645-3.3141-1.7974-15.978-2.2226-16.819-0.5647-18.873-1.2361-24.735-8.0847-6.7834-7.9248-6.7459-18.949 0.0915-26.937 5.8073-6.7846 9.4618-7.9303 25.377-7.9559 11.195-0.018 13.862-0.30463 14.942-1.6058 0.95196-1.147 1.0256-2.0433 0.26691-3.25-0.8806-1.4007-3.5276-1.7459-16.61-2.1662-15.33-0.49252-15.627-0.54503-19.84-3.5092-4.7618-3.3501-8.7577-10.112-9.5745-16.202-1.1242-8.3812 6.6645-19.467 15.546-22.128 2.1305-0.63831 9.7358-1.1606 16.901-1.1606 10.956 0 13.123-0.25142 13.634-1.5818 0.33384-0.86998 0.60698-13.219 0.60698-27.442v-25.86l7.25 0.52506c3.9875 0.28877 7.805 0.69559 8.4833 0.90403 0.92788 0.28512 1.2994 6.8894 1.5 26.667 0.25902 25.532 0.32416 26.288 2.2667 26.288 1.9448 0 2.0074-0.75542 2.2663-27.36l0.26627-27.36 3.4757-4.0606c5.0563-5.9072 7.5855-13.525 8.2204-24.76 0.435-7.698 0.2186-10.161-1.1204-12.75-0.91276-1.7651-1.4346-3.2092-1.1596-3.2092s1.2426 1.436 2.1502 3.1911c1.3198 2.5523 1.5501 5.1047 1.1502 12.75-0.58801 11.243-3.0969 18.769-8.2733 24.816l-3.5082 4.0986 0.26621 27.218 0.2662 27.218 4.7457 1.3833c7.8996 2.3027 14.191 9.9366 15.388 18.672 0.47898 3.4946 0.0409 5.6279-2.1654 10.544-3.2796 7.308-7.9094 11.7-14.07 13.348-3.8821 1.0383-4.449 1.5234-4.1937 3.5885 0.22547 1.8236 1.4137 2.8108 5.0285 4.1775 9.9884 3.7766 14.659 9.9769 14.725 19.549 0.078 11.26-6.607 20.026-16.83 22.071-2.8825 0.57651-3.2016 0.97461-2.9314 3.6572 0.25931 2.5742 0.90201 3.1862 4.4364 4.2244 12.214 3.5876 18.798 17.961 13.844 30.224-1.8031 4.4637-9.9826 10.899-15.064 11.853-2.9106 0.54603-3.4125 1.0487-3.4125 3.4176 0 2.4132 0.48728 2.8688 3.7162 3.4746 3.7497 0.70344 8.7564 3.6562 11.002 6.4887 2.091 2.6372 5.0939 9.5191 5.8029 13.299 1.6008 8.5332-6.0704 19.921-15.521 23.041l-4.5 1.4856-0.54537 7.3557-0.54536 7.3557-0.45464-7.5c-0.4129-6.8116-0.6575-7.5288-2.6648-7.8143-2.116-0.30093-2.2244 0.0611-2.5444 8.5l-0.33424 8.8143-0.20563-8.75-0.20564-8.75-21.75-6e-3c-12.247-3e-3 -23.419-0.46914-25.571-1.0665-2.1014-0.58354-5.5284-2.6037-7.6155-4.4893l-3.7948-3.4283-94.384-0.25512-94.384-0.2547-0.5-88.986c-0.43853-78.047-0.6844-89.02-2-89.26-0.825-0.15052-3.975 1.2214-7 3.0488l-5.5 3.3224-0.25484 100.42-0.25484 100.42 2.5449 5.2016c2.336 4.7746 6.2263 9.0058 11.06 12.03 1.0474 0.65516 1.4052 1.2177 0.79512 1.25-2.3355 0.12383-10.766-8.551-13.025-13.403l-2.346-5.0381-0.0251-98c-0.0146-56.983-0.40532-98.601-0.93356-99.436-0.7529-1.1898-1.1784-1.2117-2.4847-0.12755-1.4153 1.1746-1.5762 11.297-1.5762 99.148 0 95.521 0.0476 97.967 2.008 103.21 2.5637 6.8521 7.8425 13.008 14.361 16.746 2.8223 1.6187 4.6814 2.9374 4.1314 2.9304-0.55-7e-3 -3.4153-1.4204-6.3674-3.141zm254.68-87.578c-0.30911-2.6864-0.48398-2.7568-7.5664-3.0438l-7.25-0.29381v6.0876h15.133zm5.9221 0.75c0.39845-2.308-1.3539-4.3616-3.1376-3.6771-0.90008 0.34539-1.6009 1.7529-1.6009 3.2153 0 2.1222 0.41226 2.5421 2.2398 2.2814 1.2319-0.17575 2.3563-0.99455 2.4988-1.8196zm-5.9221-50.75c-0.31158-2.708-0.42343-2.75-7.3164-2.75s-7.0048 0.042-7.3164 2.75l-0.31642 2.75h15.266zm5.8517 1.1725c0.72462-1.8883-2.0162-4.9434-3.5722-3.9818-0.60278 0.37254-1.096 1.7758-1.096 3.1183 0 1.7869 0.54434 2.441 2.0314 2.441 1.1173 0 2.3038-0.70989 2.6368-1.5775zm-5.8517-50.672 0.31642-2.75h-7.5664c-7.2601 0-7.5664 0.0945-7.5664 2.3333 0 3.4414 0.77275 3.7772 7.9576 3.4576 6.3109-0.28066 6.5536-0.38826 6.8588-3.041zm5.5542 1.0243c0.71242-1.1294 0.63767-2.0594-0.25167-3.131-1.6898-2.0361-4.1189-0.97634-4.1189 1.7971 0 3.8624 2.3276 4.5728 4.3706 1.334zm-5.604-74.524 0.26661-26.25-5.2666-0.0137c-2.8966-8e-3 -6.2791-0.285-7.5166-0.61664l-2.25-0.60297v54.321l7.25-0.29381 7.25-0.29381 0.2666-26.25zm-254.77-10.524 6.5-3.2264l0.29569-6.75c0.18921-4.3193-0.0903-6.75-0.77628-6.75-0.58958 0-3.9851 0.55262-7.5457 1.228l-6.4737 1.2281v8.7719c0 4.8246 0.3375 8.7613 0.75 8.7483 0.4125-0.013 3.675-1.4755 7.25-3.25zm39 270.54c62.097-0.64494 196.77-0.70753 195.21-0.0907-0.94278 0.37385-50.989 0.60679-111.21 0.51765-60.225-0.0891-98.025-0.28126-84-0.42692zm-30-1.2704c-1.828-1.1813-0.24909-1.1813 2.5 0 1.3187 0.56668 1.4891 0.87815 0.5 0.9144-0.825 0.0302-2.175-0.38124-3-0.9144zm230.5-1.6549c4.241-2.2262 10.334-8.2255 12.539-12.345 1.0301-1.925 1.8928-3.0146 1.9171-2.4214 0.15979 3.8994-12.464 16.527-16.377 16.381-0.59321-0.022 0.27144-0.7487 1.9214-1.6148zm-575.26-0.73992c-1.2093-1.921-0.88762-226.82 0.3262-228.03 0.73605-0.73601 15.51-1.0457 47.002-0.98518 70.794 0.136 66.743-0.0358 70.331 2.9828 2.1924 1.8448 3.6034 4.4577 4.995 9.25 1.8484 6.3655 1.955 11.191 2.2712 102.83 0.18247 52.883 0.66926 95.944 1.0818 95.691 0.4125-0.25319 0.75 0.0162 0.75 0.59866s-0.47829 1.059-1.0629 1.059-0.95627 0.7875-0.82599 1.75c0.29666 2.1918-2.663 7.5311-6.6946 12.077l-3.0834 3.477-57.197 0.20309c-40.876 0.14513-57.396-0.11228-57.893-0.9021zm115.48-1.4579c1.2168-0.65122 3.464-3.3133 4.9938-5.9156l2.7814-4.7316 0.26609-28c0.14635-15.4-0.0849-61.525-0.51399-102.5-0.73376-70.075-0.89207-74.727-2.6656-78.325-3.5942-7.2913-0.35185-6.9218-62.255-7.0938-39.55-0.1099-55.936 0.16555-56.724 0.95353-1.7452 1.7452-1.5561 225.26 0.19151 226.34 2.1855 1.3507 111.34 0.65232 113.93-0.72887zm-51.45-11.24c-7.5961-3.76-10.448-12.524-6.668-20.49 3.447-7.2639 14.784-10.263 22.213-5.8769 10.235 6.0441 9.5147 21.679-1.2236 26.556-5.3438 2.4269-9.1369 2.3768-14.321-0.18931zm15.251-1.9226c6.3829-3.9448 8.2437-13.347 3.8301-19.353-3.1437-4.2776-7.3643-5.9811-13.386-5.4025-4.5302 0.4353-5.8464 1.0598-8.6265 4.0936-3.7732 4.1172-4.8315 7.3389-3.9204 11.934 1.8083 9.1207 13.803 13.857 22.103 8.7277zm380.58 13.032c15.253-1.9638 23.791-15.015 18.003-27.517-2.9009-6.2656-7.1944-9.6266-14.847-11.622-3.7166-0.96929-5.8266-1.7883-4.6889-1.82 1.1377-0.0317 4.3434 0.61792 7.1238 1.4436 5.5627 1.652 12.725 8.3276 13.882 12.94 0.61966 2.4689 2.4255 3.6188 2.4255 1.5444 0-1.7205 6.3247-4.9776 9.6733-4.9816 7.2006-8e-3 12.531 8.963 8.764 14.751-2.6873 4.1289-4.5219 5.1788-9.1105 5.2138-3.0915 0.0236-4.994-0.65881-7.3395-2.6324-2.588-2.1776-3.3297-2.4059-4.0614-1.25-0.49235 0.77781-0.90208 1.8217-0.9105 2.3198-8e-3 0.49808-1.2002 2.459-2.6483 4.3576-3.433 4.501-11.485 8.2545-17.367 8.0959l-4.5-0.12134zm38.409-14.211c7.3337-8.7156-4.5492-19.692-13.324-12.308-3.7685 3.171-4.6719 6.6624-2.7071 10.462 1.9767 3.8226 4.0857 4.9734 9.1824 5.0107 3.4713 0.0254 4.6067-0.4992 6.8492-3.1643zm-49.01 13.034c-3.8818-2.1341-9.4822-8.2557-10.571-11.555l-1.1022-3.3398-3.4482 3.0275c-2.6218 2.302-4.4168 3.0275-7.4903 3.0275-10.241 0-13.913-13.833-4.9083-18.49 1.6064-0.83069 4.1806-1.4586 5.7204-1.3954 2.3648 0.0971 2.2139 0.22855-0.97209 0.84612-8.2824 1.6055-11.718 10.14-6.2737 15.584 5.5374 5.5374 16.545 1.1826 16.545-6.5454 0-2.1525-0.92808-4.0819-2.9231-6.0769-1.6077-1.6077-2.5861-2.9231-2.1743-2.9231s1.8214 1.1417 3.1323 2.5372l2.3835 2.5372 1.9062-3.7872c1.0484-2.0829 2.8667-4.8434 4.0408-6.1345 2.5319-2.7841 8.8211-6.1707 11.345-6.1088 0.98441 0.0241 0.10643 0.64471-1.9511 1.379-7.7442 2.7639-11.664 6.9836-13.825 14.885-2.2142 8.0926 3.3834 18.345 12.066 22.1 1.925 0.83251 2.825 1.5176 2 1.5224-0.825 5e-3 -2.4-0.48605-3.5-1.0908zm-309-10.84c0.38862-0.62881-1.8785-1-6.1076-1-10.452 0-7.1374-0.76407 5.3757-1.2392 9.452-0.35889 11.484-0.72262 12.605-2.2568 0.88435-1.2094 1.952-1.5931 3.152-1.1326 1.0762 0.41299 2.1462 0.17392 2.6293-0.58752 0.47928-0.75536 0.82094-0.8331 0.82995-0.18886 0.0242 1.7341-3.7369 4.6761-7.7773 6.0835-4.4442 1.548-11.598 1.7628-10.707 0.32148zm449.58-3.5833c0.048-1.165 0.28494-1.4019 0.60416-0.60417 0.28887 0.72187 0.25335 1.5844-0.0789 1.9167-0.33229 0.33229-0.56864-0.25834-0.52522-1.3125zm-430.55-6.3764c-0.84806-1.3722-0.0973-2.4024 1.3806-1.8944 0.60526 0.20803 0.68263 0.91401 0.1875 1.7109-0.62501 1.006-1.0304 1.0534-1.5681 0.18347zm-2.1224-18.04c0-8.525 0.15337-12.012 0.34082-7.75s0.18745 11.238 0 15.5-0.34082 0.775-0.34082-7.75zm-0.40249-18.559c0-0.85746 0.45-1.2809 1-0.94098s1 1.0415 1 1.559-0.45 0.94098-1 0.94098-1-0.70156-1-1.559zm0-19.941c0-9.2583 0.20617-16.627 0.45816-16.375 0.68952 0.68952 0.81821 31.932 0.13435 32.616-0.32588 0.32588-0.59251-6.9825-0.59251-16.241zm0-20.059c0-0.85746 0.45-1.2809 1-0.94098s1 1.0415 1 1.559-0.45 0.94098-1 0.94098-1-0.70156-1-1.559zm-15.5-4.1878c-7.9092-0.40118-9.1813-1.1117-7.5264-4.2038 1.101-2.0572 1.7322-2.15 12.632-1.8574 11.014 0.29566 11.497 0.40002 12.054 2.6046 0.68951 2.7287-0.2487 4.0146-1.7984 2.4649-0.60786-0.60786-1.7631-0.85273-2.5672-0.54417-1.1956 0.45878-1.2189 0.7151-0.12815 1.4065 0.8524 0.54033 0.0705 0.78036-2.1662 0.66498-1.925-0.0993-6.65-0.34033-10.5-0.53562zm175.91-185.14c-3.3491-2.0423-7.4136-6.7028-7.4076-8.4939 2e-3 -0.61333 0.88057 0.32291 1.9523 2.0805 3.1173 5.1125 6.5284 6.7386 15.492 7.3851l8.0519 0.5808-7.5 0.16546c-5.796 0.12786-8.2017-0.26246-10.589-1.718zm63.089 1.2546c11.332-1.4871 16.193-4.1458 19.39-10.604 1.1597-2.3429 2.1089-3.5398 2.1093-2.6598 1e-3 2.7872-5.623 9.4936-9.5078 11.337-2.0576 0.97638-6.2724 1.8979-9.3662 2.0478-3.0939 0.14989-4.2752 0.0954-2.6252-0.12119zm45-0.23596c-1.65-0.43619-4.3957-1.5204-6.1016-2.4093-3.4866-1.8169-9.4145-8.1466-9.368-10.003 0.0167-0.66836 0.52818-0.3152 1.1366 0.7848 1.9662 3.5549 5.2415 6.6462 9.333 8.8088 3.1647 1.6726 5.7751 2.1141 12.5 2.1141 9.919 0 15.389-2.2131 18.857-7.6289 1.1601-1.8117 2.1168-2.9134 2.126-2.4484 0.0403 2.0241-4.476 6.8652-8.1562 8.7426-4.3978 2.2436-15.385 3.3459-20.327 2.0394zm47.283-2.0501c-4.9389-3.1322-9.1756-9.2922-11.255-16.364-0.87898-2.9898-1.8434-4.3044-3.3198-4.5251-1.6902-0.25273-2.1568 0.31067-2.4844 3l-0.40344 3.3112 0.0894-3.5c0.0774-3.0303 0.4511-3.5418 2.7844-3.8111 2.4147-0.27875 2.8156 0.13674 3.8544 3.9944 1.7772 6.5998 4.4127 11.098 8.853 15.11 4.4293 4.0016 5.9171 4.5307 14.098 5.013l5.5 0.32425-6.5542 0.18498c-5.7032 0.16096-7.1526-0.19447-11.162-2.7374zm58.48 2.2048c1.5201-0.22986 3.7701-0.22371 5 0.0136 1.2299 0.23736-0.0137 0.42542-2.7638 0.41792-2.75-8e-3 -3.7563-0.20172-2.2362-0.43157zm47.236-0.7184c-5.6565-2.0593-11.999-9.332-13.606-15.6-2.256-8.8023-4.8489-9.0494-7.2941-0.69519-0.84218 2.8773-2.9402 6.9321-4.6623 9.0105-3.285 3.9648-9.6068 7.7811-12.648 7.635-1.2046-0.0579-0.97026-0.33526 0.71663-0.84839 8.3303-2.534 13.943-8.5175 15.989-17.045 0.79476-3.3129 1.8125-5.1418 3.0864-5.5461 2.8833-0.91514 3.6821 0.0523 5.5553 6.7282 3.1105 11.086 12.409 17.86 22.632 16.488 2.094-0.28086 4.9093-1.2328 6.2563-2.1153 2.7864-1.8257 6.0787-7.7581 7.3867-13.31 0.6974-2.9601 0.90863-3.2157 0.9876-1.1948 0.13807 3.5335-4.819 12.906-8.0751 15.268-3.4525 2.5043-11.212 3.0868-16.324 1.2255zm-239.92-0.98245c7.3118-3.1838 11.835-9.3378 13.888-18.895 0.50056-2.3304 1.0536-2.7593 3.2234-2.5 2.2982 0.2747 2.8323 1.0944 4.3585 6.6897 2.0133 7.381 6.335 12.431 12.527 14.637 2.2502 0.8017 3.0723 1.4153 1.926 1.4375-2.9461 0.0571-9.0586-3.9642-11.919-7.8413-1.3749-1.8636-3.0397-5.8007-3.6996-8.7491-0.92758-4.1449-1.6243-5.3607-3.0719-5.3607-1.0297 0-2.0317 0.5625-2.2267 1.25-0.19492 0.6875-0.88225 3.1905-1.5274 5.5622-1.7809 6.547-10.585 15.289-15.256 15.149-0.71481-0.0215 0.0853-0.64221 1.7781-1.3793zm154.92-0.4586c5.1557-3.2129 8.5932-7.6843 10.971-14.27 1.9332-5.355 2.699-6.4018 4.8764-6.6658 2.7267-0.33046 2.8235-0.14583 4.0981 7.8131 0.76993 4.8076 3.9025 9.6318 7.7956 12.005 1.7925 1.0929 2.7312 1.9888 2.0859 1.9909-1.8721 6e-3 -7.2554-4.9577-8.9674-8.2683-0.86288-1.6686-1.8632-5.1025-2.223-7.6309-0.51898-3.647-1.0876-4.6592-2.7511-4.8977-1.7248-0.24732-2.3251 0.51436-3.383 4.2929-1.6957 6.0565-6.3361 12.933-10.438 15.468-1.815 1.1217-3.6968 2.0378-4.1819 2.0357-0.48509-2e-3 0.46803-0.84503 2.118-1.8733zm32.312 1.1939c0.72187-0.28887 1.5844-0.25335 1.9167 0.0789 0.33229 0.33229-0.25834 0.56864-1.3125 0.52522-1.165-0.048-1.4019-0.28494-0.60417-0.60416zm-217.18-13.407c-0.34757-1.7378-0.56727-5.691-0.48823-8.7847 0.12519-4.9004 0.2402-4.53 0.89279 2.875 0.79153 8.9817 0.6432 11.148-0.40456 5.9097zm145.45 0.50695c0.048-1.165 0.28494-1.4019 0.60416-0.60417 0.28887 0.72187 0.25335 1.5844-0.0789 1.9167-0.33229 0.33229-0.56864-0.25834-0.52522-1.3125zm-45.677-4.3053c-0.36548-2.2856-1.0751-4.4094-1.577-4.7196-1.5547-0.96084-3.69 1.6038-4.107 4.9327l-0.39777 3.1755-0.16003-3.0589c-0.22189-4.241 2.1358-7.301 4.5059-5.8482 1.6852 1.0329 3.9191 8.1553 2.8829 9.1915-0.26541 0.26541-0.7816-1.3875-1.1471-3.6731zm-106.21-3.6113c0.0204-1.65 0.2445-2.2039 0.49804-1.231s0.23687 2.323-0.0371 3c-0.27393 0.67703-0.48137-0.11903-0.46099-1.769zm300.99-4.25-0.18498-6.25h-146.43c-138.59 0-146.45 0.0936-146.94 1.75-0.40095 1.3601-0.46995 1.3044-0.30964-0.25 0.20509-1.9887 1.035-2.0014 146.97-2.2533 123.65-0.21343 146.85-0.0371 147.29 1.1192 0.28967 0.75488 0.35937 3.7939 0.15487 6.7533l-0.37182 5.3808zm-300-4.5871c-0.16294-4.3726 0.65965-6.3411 8.5665-20.5l8.7467-15.663 0.50326-31.169c0.27679-17.143 0.72825-31.393 1.0032-31.668 0.275-0.27472 0.36763 13.526 0.20585 30.669l-0.29416 31.168-8.9 16.225c-6.9322 12.638-8.9831 17.281-9.2756 21l-0.37556 4.775zm10-9.5528c0.46054-2.7238 31.108-58.978 32.413-59.494 2.3585-0.93376 223.42-1.0032 224.29-0.07043 1.3264 1.412 31.112 59.293 31.112 60.458 0 0.65729-49.034 0.99643-144.07 0.99643-140.72 0-144.06-0.044-143.75-1.8899zm286.82 0.39349c0-0.55585-30.004-58.745-30.659-59.458-0.22927-0.2499-50.462-0.32948-111.63-0.17685-83.651 0.20874-111.5 0.56916-112.36 1.4544-1.4824 1.5195-31.352 56.548-31.352 57.76 0 0.55184 56.952 0.91709 143 0.91709 78.65 0 143-0.22339 143-0.49643zm-0.04182-13.097-2.9582-6.5932 0.22231-30.657 0.22232-30.657 0.52768 31.5 0.52769 31.5l2.695 5.75c1.4822 3.1625 2.4759 5.75 2.2082 5.75-0.26774 0-1.818-2.967-3.445-6.5932zm-14.321-27.657c-4.6754-8.6347-10.14-20.014-11.045-23-0.50106-1.6535-6.8931-1.75-115.91-1.75-108.64 0-115.46 0.10212-116.88 1.75-0.82579 0.9625-4.0609 6.5704-7.189 12.462-3.1282 5.8916-6.1223 10.981-6.6536 11.309-0.61115 0.37771-0.95787-8.1481-0.94398-23.212 0.0248-26.824 0.50659-29.093 7.7828-36.644 3.6699-3.8084 9.9343-7.6742 12.405-7.6555 0.70941 0.00537-0.96016 1.0598-3.7102 2.3431-6.0174 2.8081-11.614 8.7489-13.888 14.744-1.413 3.7237-1.6278 7.8002-1.3914 26.404l0.2796 22 5.1421-9.5c2.8282-5.225 6.1264-10.739 7.3295-12.254l2.1874-2.7542 115.56 0.25417c101.57 0.22339 115.65 0.43582 116.28 1.7542 0.39523 0.825 2.3952 5.1 4.4444 9.5 2.0492 4.4 5.3749 10.925 7.3904 14.5l3.6646 6.5 0.52592-25.5 0.52592-25.5 0.22408 26.25c0.13679 16.024-0.14509 26.25-0.72355 26.25-0.5212 0-2.9578-3.7125-5.4148-8.25zm-125.64-36.73c43.929-0.39718 58.026-0.82031 59.727-1.7928 4.9918-2.8531 5.8811-10.367 1.6929-14.303l-2.58-2.4243-59.17-0.51571-59.17-0.51571 58.3-0.23429c62.476-0.25107 62.517-0.24808 65.171 4.7103 1.5407 2.8789 1.2425 8.3065-0.60105 10.939-3.5718 5.0994-4.0332 5.1343-64.587 4.8868l-56.282-0.23012zm-62.633-1.7921c-3.1944-2.5875-4.6442-6.0917-3.9522-9.5519 0.60986-3.0493 4.115-7.6759 5.8153-7.6759 0.4848 0-0.28384 1.0125-1.7081 2.25-3.6939 3.2096-4.3331 8.4491-1.4742 12.084 1.2256 1.5582 3.1788 3.217 4.3403 3.6863 1.2642 0.51082 1.5098 0.86981 0.61188 0.89445-0.825 0.02263-2.4598-0.73634-3.633-1.6866zm3.2044-4.7992c-2.5982-2.5982-1.3556-7.4918 1.8786-7.3982 0.5775 0.01672 0.2625 0.48908-0.7 1.0497-2.0784 1.2106-2.2907 4.2262-0.40757 5.7891 0.9434 0.78295 18.258 1.1934 58.25 1.3809l56.908 0.26675-57.179 0.24158c-50.857 0.21487-57.352 0.06784-58.75-1.3299zm116.99-0.7217c0.37553-0.98622 0.93469-1.5412 1.2426-1.2333 0.30789 0.30789 6.4e-4 1.1148-0.68278 1.7931-0.98762 0.98027-1.1025 0.8654-0.5598-0.5598zm78.631-1.2069c0.0204-1.65 0.2445-2.2039 0.49804-1.231 0.25354 0.97297 0.23687 2.323-0.0371 3-0.27388 0.67703-0.48132-0.11903-0.46094-1.769zm-6.4213-2.0353c-1.1459-5.4536-6.8701-12.57-12.774-15.881l-5.5-3.0841-111.5-0.51069-111.5-0.51069 110.59-0.23931 110.59-0.23931 6.1196 3.058c3.3658 1.6819 7.2842 4.442 8.7075 6.1335 3.5078 4.1688 6.6878 10.59 6.2568 12.634-0.21211 1.0059-0.60778 0.46253-0.99086-1.3607zm-73.215-1.9966c-1.0676-0.80751-1.4602-1.4682-0.87244-1.4682 0.58777 0 1.6289 0.675 2.3136 1.5 1.5572 1.8763 1.0673 1.8655-1.4411-0.0318zm77.078-4.0062c-2.119-5.1525-9.1128-12.605-14.5-15.452-2.0003-1.0569-3.1516-1.9416-2.5584-1.9659 4.352-0.17833 17.425 13.069 18.953 19.206 1.0191 4.092 0.20858 3.3273-1.8952-1.788zm-184.64 2.538c-3.025-0.275 19.362-0.5 49.75-0.5 30.387 0 55.25 0.2475 55.25 0.55 1.5e-4 0.68347-97.442 0.63706-105-0.05zm-85.95-1.0542c-0.13701-4.2724 8.3242-13.804 14.95-16.841 2.138-0.97996 2.2182-0.96193 0.55431 0.12452-4.7591 3.1074-11.559 10.24-13.421 14.079-1.1184 2.3051-2.0558 3.4916-2.0832 2.6368z" fill="#fadbbc"/>
<path d="m530.78 314.44c-4.8422-2.6278-6.2382-8.2786-3.1932-12.926 2.0417-3.116 7.2811-4.8981 10.643-3.62 3.0299 1.152 6.7754 5.6808 6.7754 8.1925 0 3.2092-2.3112 7.0218-5.145 8.4872-3.4444 1.7812-5.6099 1.7492-9.0798-0.1338zm47.582 0.56722c-4.8936-1.9748-6.9498-9.2893-3.8539-13.709 2.0322-2.9014 7.4875-4.6333 10.722-3.4037 3.0299 1.152 6.7754 5.6808 6.7754 8.1925 0 6.8589-7.1565 11.538-13.643 8.9206zm61.515-16.758c-1.2439-1.5861-1.2085-1.6214 0.37756-0.37756 0.9625 0.75485 1.75 1.5424 1.75 1.75 0 0.82304-0.82119 0.29331-2.1276-1.3724zm-124.21-3.9167c-1.687-1.687-0.57278-5.4185 1.8984-6.3581 1.4933-0.56776 17.529-0.97525 38.378-0.97525 27.447 0 36.047-0.292 36.818-1.25 0.5533-0.6875 4.2528-12.725 8.2212-26.75 3.9684-14.025 7.8387-26.486 8.6008-27.691 1.2772-2.0195 2.3065-2.2151 13.154-2.5l11.769-0.30904-3e-3 4.5-3e-3 4.5-8.5724-0.3164c-6.2176-0.22949-8.8747 0.0477-9.6726 1.0092-0.6051 0.7291-4.4928 13.18-8.6394 27.668-4.1466 14.488-8.0615 26.972-8.6998 27.741-0.95935 1.156-8.2187 1.3984-41.871 1.3984-22.391 0-41.011-0.3-41.378-0.66667zm6.4424-11.083c-2.8947-2.3979-14.036-44.556-12.443-47.082 0.95088-1.5078 5.2084-1.6942 44.443-1.9453 23.865-0.15274 44.354-0.0441 45.531 0.24136 1.1768 0.28549 2.394 1.1817 2.7048 1.9917 0.31079 0.80993-2.1193 11.276-5.4002 23.259-4.3953 16.052-6.518 22.247-8.0656 23.536-1.9018 1.5846-5.0565 1.75-33.379 1.75-28.318 0-31.478-0.16566-33.391-1.75zm62.019-8.4242c1.5474-2.4434 0.25115-3.3238-5.3322-3.622-4.5531-0.24315-5.6679 0.0207-6.2254 1.4736-1.0328 2.6914 2.192 4.5697 6.8238 3.9746 2.1418-0.27518 4.272-1.097 4.7337-1.8262zm-44.308-1.0758c-0.28419-2.001-0.97187-2.2837-6.2153-2.5542-6.2919-0.3247-8.0563 0.46266-7.03 3.137 0.50588 1.3183 1.9922 1.6672 7.1023 1.6672 6.1299 0 6.4461-0.11581 6.143-2.25zm23.68-0.25c0-1.8095-0.66667-2-7-2-6.539 0-7.0214 0.15116-7.3255 2.2953-0.31718 2.2367-0.13829 2.2878 7 2 6.5604-0.26448 7.3255-0.50422 7.3255-2.2953zm-25-13.5c0-2.4265-0.22788-2.5086-7.75-2.7921-7.5736-0.28542-7.75-0.23799-7.75 2.0833 0 3.5102 0.73865 3.8157 8.4563 3.4984 6.7694-0.27837 7.0437-0.38702 7.0437-2.7896zm26 0c0-2.4412-0.19412-2.5068-8.25-2.7904-8.0979-0.28509-8.25-0.24669-8.25 2.0833 0 1.3056 0.31727 2.691 0.70504 3.0788 0.38777 0.38777 4.1003 0.57527 8.25 0.41666 7.3044-0.27918 7.545-0.36808 7.545-2.7884zm23.316-0.25 0.31642-2.75h-6.9594c-7.2074 0-8.8752 1.0077-7.5186 4.5429 0.46792 1.2194 1.9814 1.4815 7.2186 1.25 6.4022-0.28297 6.6373-0.38598 6.943-3.0429zm-50.316-14.25v-3l-9.25-0.28753c-9.1106-0.28319-9.25-0.25228-9.25 2.05 0 4.0468 1.8247 4.834 10.487 4.5242l8.0134-0.28662zm27.337 2.6216c0.73562-0.46628 1.1856-1.9219 1-3.2347-0.32448-2.2949-0.69405-2.398-9.5875-2.6744l-9.25-0.28752v2.8709c0 1.579 0.3 3.1709 0.66667 3.5375 0.969 0.969 15.593 0.78868 17.171-0.21173zm26.826-2.0658c0.66815-1.3443 0.99071-2.8068 0.71679-3.25-0.27392-0.4432-4.2662-0.80583-8.8716-0.80583-7.5607 0-8.4367 0.19881-9.0236 2.048-1.205 3.7967 1.1655 5.0606 8.8956 4.7427 6.3562-0.26139 7.1904-0.53683 8.2828-2.7348zm47.337 23.567c0-0.20765 0.7875-0.99515 1.75-1.75 1.5861-1.2439 1.6214-1.2085 0.37756 0.37756-1.3064 1.6658-2.1276 2.1955-2.1276 1.3724z" fill="#d3554c"/>
<path d="m453.38 449.6c-10.838-2.6533-19.627-10.289-23.376-20.307-1.9604-5.2397-2.008-7.6854-2.008-103.21 0-87.852 0.16092-97.974 1.5762-99.148 1.3063-1.0841 1.7318-1.0623 2.4847 0.12755 0.52824 0.8348 0.91897 42.453 0.93356 99.436l0.0251 98 2.346 5.0381c1.2933 2.7774 4.4075 6.8526 6.94 9.0819 8.8741 7.8113 1.6708 7.38 123.27 7.38 106.67 0 108.43-0.0317 113.81-2.0435 3.0689-1.1482 7.2902-3.8179 9.6352-6.0937 6.203-6.0198 8.2858-11.509 8.7906-23.167 0.4037-9.3245 0.52872-9.7892 2.556-9.5 1.9988 0.2851 2.1288 0.86428 2.0871 9.304-0.0298 6.0438-0.65539 10.798-1.9045 14.473-2.5081 7.3799-9.6893 14.893-17.829 18.653l-6.2224 2.8742-109 0.17586c-84.426 0.13622-110.15-0.10653-114.12-1.0767zm-22.634-166.35c-0.14851-25.712-0.27002-4.675-0.27002 46.75s0.12151 72.462 0.27002 46.75 0.14851-67.788 0-93.5zm269.97 126.5c-0.22183-1.7875-0.40333-0.325-0.40333 3.25s0.1815 5.0375 0.40333 3.25c0.22182-1.7875 0.22182-4.7125 0-6.5zm-270.06-177c-0.27741-0.6875-0.50439-0.125-0.50439 1.25s0.22698 1.9375 0.50439 1.25 0.27741-1.8125 0-2.5zm-322.86 208.13c-1.7476-1.0801-1.9367-224.6-0.19151-226.34 0.78796-0.78798 17.174-1.0634 56.724-0.95353 61.903 0.17201 58.66-0.19745 62.255 7.0938 1.7735 3.5977 1.9318 8.2495 2.6656 78.325 0.42905 40.975 0.66034 87.1 0.51399 102.5l-0.26609 28-2.7814 4.7316c-1.5298 2.6024-3.7769 5.2644-4.9938 5.9156-2.5808 1.3812-111.74 2.0796-113.93 0.72887zm113.07-2.3072c1.5221-0.78709 3.5384-3.1496 4.4807-5.25 1.5878-3.5392 1.6927-11.327 1.433-106.32-0.26158-95.651-0.39794-102.72-2.0407-105.72-0.96819-1.7712-2.6261-3.6837-3.6843-4.25-1.2526-0.67035-21.095-1.0296-56.864-1.0296h-54.94l-0.74592 110.9c-0.41025 60.995-0.44019 111.4-0.0665 112 0.48039 0.77729 16.641 1.0993 55.17 1.0993 45.314 0 54.957-0.24101 57.258-1.4311zm-49.229-7.0337c-7.971-2.8416-12.321-9.7794-11.378-18.147 0.96481-8.5598 8.1479-14.674 17.24-14.674 10.237 0 17.5 6.9601 17.5 16.77 0 7.8123-5.0542 14.326-12.781 16.472-4.7177 1.3102-5.8525 1.2651-10.582-0.4208zm12.958-2.4391c10.738-4.8768 11.459-20.512 1.2236-26.556-7.4283-4.3866-18.766-1.387-22.213 5.8769-3.7801 7.966-0.92812 16.73 6.668 20.49 5.1841 2.5661 8.9772 2.6162 14.321 0.18931zm372.4 9.3119c-8.6829-3.7552-14.281-14.008-12.066-22.1 3.1885-11.653 13.339-17.908 24.874-15.326 18.718 4.1888 21.853 28.029 4.8031 36.525-5.7659 2.8732-12.28 3.2066-17.611 0.90131zm19.266-4.0271c13.157-9.2469 8.1792-28.629-8.151-31.74-7.2484-1.3808-17.051 3.5695-19.721 9.959-1.7922 4.2893-1.7867 11.745 0.0111 15.2 5.1669 9.9307 18.585 13.1 27.861 6.5813zm-49.811-7.8355c-3.7069-3.7069-3.4264-9.55 0.62218-12.957 4.3047-3.6222 9.1689-3.4972 13 0.33419 1.995 1.995 2.9231 3.9244 2.9231 6.0769 0 7.728-11.008 12.083-16.545 6.5454zm12.473-2.1803c2.7218-3.4602 2.6167-5.912-0.38197-8.9106-4.8559-4.8559-12.545-1.9648-12.545 4.7167 0 4.4231 2.495 6.8287 7.0824 6.8287 2.8844 0 4.2603-0.62028 5.845-2.6349zm52.823 3.5548c-2.6706-1.5555-4.8801-6.5532-4.162-9.4142 0.3467-1.3814 1.9658-3.6352 3.5979-5.0086 5.8876-4.9541 14.254-1.9437 15.447 5.5583 0.45964 2.8898 0.0623 4.1533-2.1226 6.75-2.2425 2.6651-3.378 3.1896-6.8492 3.1643-2.2886-0.0167-4.9486-0.48909-5.9111-1.0497zm11.177-3.5548c2.7218-3.4602 2.6167-5.912-0.38197-8.9106-4.9713-4.9713-12.545-1.9594-12.545 4.9888 0 6.4792 8.8128 9.1528 12.927 3.9218zm-152.26-30.032c-0.36667-0.36666-0.66667-40.844-0.66667-89.949v-89.283l7.75-4.0322c14.832-7.7168 19.25-13.489 19.25-25.153 0-7.7115-2.7307-12.612-8.5729-15.384-3.4264-1.626-11.142-1.8276-16.427-0.42925-1.1951 0.31616-1.5608-0.88394-1.799-5.9034-0.19304-4.0673-0.76704-6.4798-1.6196-6.8069-0.72631-0.27871-4.4168 0.1179-8.201 0.88135l-6.8804 1.3881-0.29182 8.8668c-0.28851 8.7663-1.1834 11.471-3.7956 11.471-1.0175 0-1.4116-2.4803-1.6276-10.244l-0.28498-10.244-4-1.8527c-5.5391-2.5655-9.3927-6.3617-11.835-11.658-1.7412-3.7768-2.0601-6.3483-1.984-16l0.0907-11.5 9.1045-16.5 9.1044-16.5 0.01-29.135c8e-3 -24.636 0.27118-29.945 1.7042-34.382 2.0737-6.4207 9.2505-14.602 15.585-17.765l4.5062-2.2505 115.64 0.012028c112 0.01165 115.76 0.072389 119.4 1.9298 5.7378 2.9272 12.084 9.6571 15.028 15.936l2.6509 5.6554 0.5 35.035 0.5 35.035 5.8816 11.465 5.8816 11.465-0.53685 9.5c-0.63247 11.192-3.1684 18.82-8.2181 24.719l-3.4757 4.0606-0.26627 27.36c-0.25892 26.605-0.32149 27.36-2.2663 27.36-1.9425 0-2.0077-0.75556-2.2667-26.288-0.20063-19.777-0.57212-26.382-1.5-26.667-0.67832-0.20844-4.4958-0.61526-8.4833-0.90403l-7.25-0.52506v25.86c0 14.223-0.27314 26.572-0.60699 27.442-0.51073 1.331-2.6912 1.5827-13.75 1.5874-7.2286 3e-3 -14.862 0.48301-16.964 1.0665-4.6408 1.2887-11.241 7.0514-13.511 11.796-0.91759 1.9182-2.3433 3.6669-3.1683 3.886-0.97786 0.25964-1.1118 0.11071-0.38478-0.42785 0.61337-0.45437 1.447-1.8884 1.8525-3.1867 1.0804-3.4593 7.328-9.9946 11.674-12.212 3.1084-1.5858 5.9018-1.9276 15.753-1.9276 6.5861 0 13.129-0.43886 14.54-0.97525l2.5651-0.97525v-54.05l2.25-0.0304c2.1836-0.0295 2.191-0.0629 0.25-1.1317-5.969-3.2868-13.461-13.888-13.49-19.088-0.00537-0.9625-0.45977-1.75-1.0098-1.75s-1.0044 0.7875-1.0098 1.75c-0.0197 3.528-4.8374 11.979-8.6112 15.105-5.1101 4.2334-13.107 6.5379-20.395 5.877-12.323-1.1174-19.315-7.9379-21.253-20.732-0.34898-2.3037-0.43797-2.3429-1.1331-0.5-4.229 11.212-9.0775 17.549-15.469 20.22-5.3495 2.2352-14.223 1.8972-19.691-0.74999-5.5414-2.6825-10.719-9.3032-13.133-16.794l-1.7162-5.3243-1.0973 5.3243c-2.1414 10.39-5.9639 14.743-15.34 17.469-3.8164 1.1094-7.4691 1.4281-11.768 1.0267-13.217-1.2342-19.959-6.6196-23.896-19.087-1.2278-3.8884-1.2953-3.9403-1.4104-1.0839-0.13859 3.4409-3.3838 11.076-5.8819 13.838-4.6852 5.1811-16.785 7.9165-25.195 5.6958-8.8854-2.3463-14.199-7.9093-17.464-18.282-0.73599-2.3385-1.3871-3.3518-1.4468-2.2518-0.21997 4.0496-4.9382 12.215-9.133 15.806-2.5674 2.1976-3.6787 3.6944-2.7431 3.6944 2.0914 0 2.787 2.095 2.787 8.3935v5.2299l7.3145-0.0617c6.4064-0.054 7.8452 0.28876 11.588 2.761 5.8764 3.8811 8.5318 9.9464 7.8151 17.85-0.94583 10.431-5.8833 16.443-19.63 23.901l-6.5877 3.5743-0.2554 88.676-0.25541 88.676h181.52l-4e-3 -8.9119c-3e-3 -8.3076 0.20182-9.2042 3.0244-13.222 1.6654-2.3706 4.965-5.6727 7.3324-7.3381 4.2185-2.9674 4.601-3.0379 19.143-3.5279 8.161-0.275 15.161-0.82491 15.556-1.222 1.607-1.6155-5.3667-2.778-16.664-2.778-9.8318 0-12.639-0.34223-15.685-1.9124-11.435-5.894-16.224-18.844-11.126-30.088 2.5394-5.6012 5.2794-8.5846 10.416-11.341 3.3825-1.8153 6.2011-2.2248 18.258-2.6527 18.745-0.66523 19.158-2.3453 0.74201-3.0154-12.019-0.43736-14.676-0.84101-18.777-2.8524-16.82-8.2491-16.82-33.027 0-41.276 4.1012-2.0114 6.7584-2.415 18.777-2.8524 18.416-0.67015 18.003-2.3502-0.74201-3.0154-12.057-0.42789-14.876-0.83741-18.258-2.6527-5.1858-2.7831-7.7241-5.6286-10.842-12.155-3.3196-6.9481-1.6222-6.2959 2.0725 0.79636 1.8084 3.4714 4.4296 6.5898 7.1448 8.5 4.227 2.9738 4.5115 3.0242 19.851 3.5171 13.083 0.42032 15.73 0.76552 16.61 2.1662 0.75338 1.1983 0.69499 2.091-0.20793 3.1789-0.99267 1.1961-4.3473 1.58-16.026 1.8338-14.421 0.31348-14.885 0.39223-19.632 3.33-13.217 8.1804-13.217 27.802-7e-5 35.982 4.7072 2.9134 5.3369 3.0248 19.84 3.5089 13.05 0.43564 15.121 0.73281 16.084 2.3086 0.88397 1.4463 0.71655 2.0973-0.83572 3.25-1.4679 1.0901-5.269 1.4414-15.593 1.4414-12.317 0-14.082 0.22555-18.059 2.307-12.969 6.7884-15.292 24.553-4.5107 34.491 5.7336 5.2851 9.4256 6.1898 25.286 6.1965 12.512 5e-3 13.217 0.11237 13.849 2.1062 0.3667 1.1554 0.28452 2.4681-0.18261 2.9173-0.46714 0.44914-7.3743 0.97505-15.349 1.1687-11.693 0.28391-15.177 0.70967-18 2.1997-10.043 5.3018-14.723 15.669-11.651 25.811 0.78266 2.5834 1.1742 4.9459 0.87013 5.25-0.7967 0.7967-184.76 0.68389-185.55-0.11379zm250.07-202.54c-0.19583-3.4591-0.35767-0.88919-0.35965 5.7108-2e-3 6.6 0.15825 9.4301 0.35606 6.2892 0.19781-3.141 0.19942-8.541 4e-3 -12zm-0.13961-37.521c-0.24849-0.24849-1.189-0.0393-2.09 0.46498-1.4817 0.82919-1.4888 1.0407-0.075 2.2141 1.2556 1.042 1.6069 3.9789 1.7851 14.925l0.22194 13.628 0.30486-15.39c0.16767-8.4644 0.10155-15.593-0.14694-15.842zm-269.53 12.211c0.17758-8.7426-0.0109-10.022-1.5197-10.319-1.4408-0.28383-1.5454-8e-3 -0.63947 1.6842 0.59564 1.113 1.083 5.9532 1.083 10.756 0 11.888 0.82468 10.263 1.0762-2.121zm12.424-13.598c5.5892-1.5473 12.917-9.0671 14.502-14.882 0.67455-2.475 1.386-5.0625 1.5809-5.75 0.19493-0.6875 1.1912-1.25 2.214-1.25 1.423 0 2.1439 1.2328 3.0703 5.25 1.5621 6.7739 5.0901 11.793 10.397 14.79 5.5904 3.1575 17.241 3.4253 23.102 0.53105 5.2189-2.577 9.4395-8.6256 10.242-14.679 0.65421-4.9317 2.4541-7.5892 4.3475-6.419 0.57409 0.35481 1.0438 1.462 1.0438 2.4604 0 3.4184 3.0768 10.537 5.7888 13.394 5.0737 5.3443 9.815 7.0955 19.211 7.0955 9.5765 0 15.255-2.1594 18.802-7.1503 2.2472-3.1616 4.1839-9.441 4.1921-13.592 5e-3 -2.3144 0.38986-2.7623 2.1506-2.5 1.5501 0.23092 2.4886 1.4883 3.3839 4.5335 2.0789 7.0714 6.3156 13.231 11.255 16.364 3.7711 2.3915 5.696 2.9224 10.597 2.9224 11.024 0 18.646-6.0628 22.336-17.767 1.376-4.3652 2.0443-5.2679 3.7218-5.0268 1.6048 0.23062 2.1863 1.2893 2.7033 4.9221 1.2581 8.8404 5.7074 14.19 13.745 16.527 14.182 4.1227 27.766-2.8961 31.714-16.387 2.4578-8.3973 5.038-8.1075 7.3268 0.82288 2.6572 10.368 13.369 17.937 23.468 16.583 5.491-0.73649 8.6468-3.3528 11.951-9.9079 2.4252-4.8113 2.8681-6.9453 3-14.455l0.15475-8.8107-146.45-0.25335c-87.143-0.15075-146.82 0.1156-147.36 0.65775-1.5577 1.5577-2.0181 13.583-0.72623 18.968 2.3356 9.7357 7.9364 14.121 18.031 14.118 3.575-1e-3 8.3-0.50015 10.5-1.1092zm-31.807-22.612c-0.25354-0.97297-0.47766-0.41903-0.49804 1.231-0.0204 1.65 0.18706 2.4461 0.46099 1.769 0.27392-0.67703 0.29059-2.027 0.0371-3zm299.6-14.954c-1.7414-2.6698-1.8044-2.6857-2.1145-0.53338l-0.31955 2.2184h-292.05l-0.54108-2.0691c-0.5099-1.9499-0.64817-1.9066-2.3998 0.75-1.0223 1.5505-1.8095 4.1691-1.7493 5.8191 0.0769 2.1094 0.25536 2.4062 0.60102 1 0.27038-1.1 0.94828-2.5625 1.5064-3.25 1.453-1.7897 294.78-1.8392 296.57-0.05 0.66 0.66 1.2881 3.6975 1.3959 6.75 0.19244 5.4532 0.20195 5.4328 0.54493-1.1666 0.27029-5.2009-0.056-7.3376-1.4459-9.4684zm-4.2949-1.3114c0-1.1654-29.786-59.046-31.112-60.458-0.87616-0.93275-221.94-0.86334-224.29 0.07043-1.3048 0.51659-31.952 56.77-32.413 59.494-0.31212 1.846 3.0316 1.8899 143.75 1.8899 95.035 0 144.07-0.33914 144.07-0.99643zm-4.8759-16.27c-0.98762-0.98027-1.1025-0.8654-0.5598 0.5598 0.37553 0.98622 0.93469 1.5412 1.2426 1.2333 0.30789-0.30789 6.4e-4 -1.1148-0.68278-1.7931zm-1.3253-16.983c-0.11069-8.3875-0.33652-11.65-0.50186-7.25-0.4088 10.879-0.93175 12.829-3.2771 12.215-1.7178-0.44921-1.6493-0.0043 0.75366 4.8952 1.4538 2.9641 2.7744 5.3893 2.9349 5.3893 0.16042 0 0.20112-6.8625 0.0904-15.25zm-268.32 2.2832c3.0271-5.9737 3.0277-5.9796 0.53426-5.3275-1.9332 0.50554-1.9893-0.11375-2.2532-24.844l-0.27065-25.362-0.49675 30.251c-0.27322 16.638-0.39184 30.25-0.26361 30.25 0.12824-3.08e-4 1.3657-2.2356 2.75-4.9673zm265.34-29.783-0.32056-27.75-2.954-5.3327c-3.4822-6.2864-7.1612-9.6204-14.173-12.844l-5.1271-2.3572-111.37 0.26703-111.37 0.26703-4 2.1653c-5.3825 2.9137-10.95 8.8589-13.423 14.335-1.8584 4.114-2.0346 6.5422-2.0547 28.309-0.0139 15.064 0.33283 23.59 0.94398 23.212 0.53126-0.32834 3.5254-5.4174 6.6536-11.309 3.1282-5.8916 6.3633-11.5 7.189-12.462 1.4138-1.6479 8.2342-1.75 116.88-1.75 109.01 0 115.41 0.09651 115.91 1.75 1.9848 6.55 15.05 31.25 16.53 31.25 0.67415 0 0.90987-9.3763 0.69763-27.75zm-191.43-18.23c-1.1615-0.46931-3.1147-2.1281-4.3403-3.6863-2.8589-3.6345-2.2197-8.874 1.4742-12.084l2.5895-2.25h117.74l3.0767 2.5889c3.3145 2.789 4.1382 7.5593 1.9962 11.562-2.5346 4.7359-4.1141 4.8538-64.137 4.7862-30.955-0.03486-57.232-0.44737-58.394-0.91668zm116.68-5.0551c2.3292-1.2465 2.5392-5.2179 0.37113-7.0172-2.0916-1.7359-112.27-2.2117-115.72-0.49976-2.7622 1.3715-3.3528 4.7763-1.2016 6.9275 1.4612 1.4612 7.3088 1.6246 58.119 1.6246 37.031 0 57.161-0.35665 58.429-1.0352zm-120.38-4.1523c-0.31922-0.79773-0.55618-0.56078-0.60416 0.60417-0.0434 1.0542 0.19293 1.6448 0.52522 1.3125 0.33229-0.33229 0.36781-1.1948 0.0789-1.9167zm198.06 14.938c-0.1853-4.5375-0.3369-0.825-0.3369 8.25s0.1516 12.788 0.3369 8.25c0.18529-4.5375 0.18529-11.962 0-16.5zm-151.24 10.24l99-0.50965-99.128-0.24035c-92.078-0.22326-99.225-0.12003-100.5 1.4516-1.1851 1.461-1.1677 1.5634 0.12756 0.75 0.89769-0.56373 41.252-1.1466 100.5-1.4516zm129.5 0.50965c0-0.87695-0.91013-1.5-2.1911-1.5-2.1413 0-2.147 0.03337-0.25 1.4682 2.4344 1.8413 2.4411 1.8414 2.4411 0.031803zm-244.62-33.052c0.34149-0.88992 0.17385-1.2913-0.39301-0.94098-0.5437 0.33602-0.98855 1.0344-0.98855 1.5519 0 1.4384 0.71677 1.1215 1.3816-0.61096zm263.62 340.09c0-2.947 2.7278-4.5665 4.0997-2.4339 1.4244 2.2143 0.57494 4.3679-1.8599 4.7153-1.8275 0.26073-2.2398-0.15919-2.2398-2.2814zm0-49.979c0-3.1478 1.7703-4.2173 3.7327-2.2549 1.9535 1.9535 0.95994 4.6959-1.7013 4.6959-1.487 0-2.0314-0.6541-2.0314-2.441zm-125.81-2.059c0.0204-1.65 0.2445-2.2039 0.49804-1.231s0.23687 2.323-0.0371 3c-0.27393 0.67703-0.48137-0.11903-0.46099-1.769zm-47.116-0.0833c0.048-1.165 0.28494-1.4019 0.60416-0.60417 0.28887 0.72187 0.25335 1.5844-0.0789 1.9167-0.33229 0.33229-0.56864-0.25834-0.52522-1.3125zm16.326-6.6667-1.905-2.25l2.25 1.905c1.2375 1.0477 2.25 2.0602 2.25 2.25 0 0.80025-0.80479 0.20945-2.595-1.905zm47 0-1.905-2.25 2.25 1.905c1.2375 1.0477 2.25 2.0602 2.25 2.25 0 0.80025-0.80479 0.20945-2.595-1.905zm-55.807-2.909c0.258-0.41746-3.2586-0.91087-7.8146-1.0965-4.556-0.18559 9.9413-0.34233 32.216-0.34831 22.275-6e-3 37.674 0.14925 34.221 0.34493-3.4535 0.19569-6.07 0.69398-5.8146 1.1073s-1.0524 0.75153-2.9064 0.75153-3.1483-0.36-2.8764-0.8c0.27193-0.44-9.0087-0.8-20.624-0.8s-20.896 0.36-20.624 0.8c0.27194 0.44-1.0224 0.8-2.8764 0.8s-3.1597-0.34156-2.9017-0.75901zm-18.519-5.4243c0.048-1.165 0.28494-1.4019 0.60416-0.60417 0.28887 0.72187 0.25335 1.5844-0.0789 1.9167-0.33229 0.33229-0.56864-0.25834-0.52522-1.3125zm19.171-5.1451c2.0625-0.21574 5.4375-0.21574 7.5 0 2.0625 0.21575 0.375 0.39226-3.75 0.39226s-5.8125-0.17651-3.75-0.39226zm-12.378-3.0215c-1.2695-1.6188-1.2224-1.64 0.62756-0.28297 1.1 0.80687 2.1875 1.5944 2.4167 1.75 0.22916 0.15563-0.0532 0.28297-0.62756 0.28297-0.57432 0-1.6618-0.7875-2.4167-1.75zm66.211 1.467c0.22917-0.15563 1.3167-0.94313 2.4167-1.75 1.85-1.357 1.8971-1.3358 0.62756 0.28297-0.75485 0.9625-1.8424 1.75-2.4167 1.75s-0.85672-0.12734-0.62756-0.28297zm-10.833-8.4064c0.9625-0.25152 2.5375-0.25152 3.5 0 0.9625 0.25153 0.175 0.45733-1.75 0.45733s-2.7125-0.2058-1.75-0.45733zm-3.7911-1.3772c-0.36253-0.58659-0.44468-1.281-0.18255-1.5431 0.26212-0.26213 0.74306 0.21781 1.0688 1.0665 0.67618 1.7621 0.0998 2.0721-0.8862 0.4766zm-46.459-1.835c0-1.0384 1.9022-2.5417 2.4657-1.9486 0.18294 0.19258-0.297 0.93038-1.0665 1.6396-0.76953 0.70918-1.3991 0.84824-1.3991 0.30901zm57.564-0.80531c-0.54268-1.4252-0.42782-1.5401 0.5598-0.5598 0.68342 0.67834 0.99067 1.4852 0.68278 1.7931s-0.86705-0.24711-1.2426-1.2333zm-60.105-10.36c-1.0261-1.6602-0.10511-1.8904 1.3306-0.33261 0.70918 0.76953 0.84824 1.3991 0.30901 1.3991-0.53922 0-1.277-0.47994-1.6396-1.0665zm39.752-0.33261c0.70919-0.76953 1.447-1.2495 1.6396-1.0665 0.59314 0.56346-0.91014 2.4657-1.9486 2.4657-0.53923 0-0.40017-0.62961 0.30901-1.3991zm21.789 1.0061c0-0.21616 0.69837-0.661 1.5519-0.98855 0.88992-0.34149 1.2913-0.17385 0.94098 0.39301-0.58726 0.95021-2.4929 1.4054-2.4929 0.59554zm113.69-1.2528c-1.2308-1.2308-0.72439-5.126 0.73939-5.6877 2.1099-0.80966 4.2031 2.1113 2.9437 4.1079-1.192 1.8897-2.7184 2.5445-3.6831 1.5799zm-178.49-13.554c-0.66-0.66-1.2-1.646-1.2-2.1911s0.5625-0.25812 1.25 0.63778c0.6875 0.89591 2.6 1.8145 4.25 2.0413l3 0.41239-3.05 0.14983c-1.6775 0.0824-3.59-0.39017-4.25-1.0502zm13.8 0.81663c0-0.21085 0.90062-0.61888 2.0014-0.90674 1.1008-0.28785 1.7492-0.11534 1.441 0.38337-0.53825 0.87091-3.4424 1.3124-3.4424 0.52337zm13.652-0.36663c-0.25651-0.4125 2.3044-0.62409 5.691-0.47019 10.353 0.47044 11.579 0.91282 2.9664 1.0704-4.505 0.0824-8.4008-0.18767-8.6574-0.60017zm30.11 0.0427c1.2439-0.23919 3.0439-0.23011 4 0.0202 0.95609 0.25029-0.0617 0.446-2.2617 0.4349-2.2-0.0111-2.9822-0.21589-1.7383-0.45508zm8.5074 0.0143c0.97297-0.25354 2.323-0.23687 3 0.0371 0.67703 0.27393-0.11903 0.48137-1.769 0.46099-1.65-0.0204-2.2039-0.2445-1.231-0.49804zm-12.19-2.8903c0.048-1.165 0.28494-1.4019 0.60416-0.60417 0.28887 0.72187 0.25335 1.5844-0.0789 1.9167-0.33229 0.33229-0.56864-0.25834-0.52522-1.3125zm-66-7c0.048-1.165 0.28494-1.4019 0.60416-0.60417 0.28887 0.72187 0.25335 1.5844-0.0789 1.9167-0.33229 0.33229-0.56864-0.25834-0.52522-1.3125zm2.171-238.17c30.112-0.14699 79.388-0.14699 109.5 0 30.112 0.14699 5.475 0.26726-54.75 0.26726s-84.862-0.12027-54.75-0.26726z" fill="#36678c"/>
<path d="m108.44 438.9c-0.37367-0.6046-0.34373-51.005 0.0665-112l0.74594-110.9h54.94c35.769 0 55.612 0.35929 56.864 1.0296 1.0582 0.56631 2.7161 2.4788 3.6843 4.25 1.6427 3.0052 1.7791 10.069 2.0407 105.72 0.25979 94.992 0.15483 102.78-1.433 106.32-3.091 6.8898-1.1621 6.6811-61.739 6.6811-38.529 0-54.69-0.322-55.17-1.0993zm73.78-6.9447c7.7268-2.1459 12.781-8.6598 12.781-16.472 0-9.8095-7.2632-16.77-17.5-16.77-9.0923 0-16.275 6.1137-17.24 14.674-0.94319 8.368 3.4065 15.306 11.378 18.147 4.7292 1.6859 5.864 1.731 10.582 0.4208zm375.79 4.5064c-7.2603-3.2637-11.007-8.6913-11.007-15.945 0-8.9019 4.8366-15.093 13.615-17.427 14.499-3.856 27.366 10.197 21.748 23.753-3.7145 8.9626-15.48 13.609-24.356 9.6196zm-30.352-11.291c-0.91025-1.0058-1.655-3.2558-1.655-5 0-6.6815 7.6896-9.5726 12.545-4.7167 2.9986 2.9986 3.1037 5.4504 0.38197 8.9106-2.5592 3.2534-8.6626 3.6899-11.272 0.80612zm64.568 0.27204c-1.565-1.0962-2.2225-2.5754-2.2225-5 0-6.9482 7.5742-9.96 12.545-4.9888 2.9986 2.9986 3.1037 5.4504 0.38197 8.9106-2.4142 3.0691-7.1775 3.5489-10.705 1.0782zm-161.74-95.443c0-51.425 0.12151-72.462 0.27002-46.75s0.14851 67.788 0 93.5-0.27002 4.675-0.27002-46.75zm269.84 83c0-3.575 0.1815-5.0375 0.40333-3.25 0.22182 1.7875 0.22182 4.7125 0 6.5-0.22183 1.7875-0.40333 0.325-0.40333-3.25zm-248.08-108.68 0.2554-88.676l6.5877-3.5743c13.747-7.4586 18.684-13.47 19.63-23.901 0.71673-7.9041-1.9387-13.969-7.8151-17.85-3.7432-2.4722-5.182-2.815-11.588-2.761l-7.3145 0.0617v-5.2299c0-6.2985-0.69563-8.3935-2.787-8.3935-0.93568 0 0.1757-1.4968 2.7431-3.6944 4.1948-3.5906 8.9131-11.756 9.133-15.806 0.0598-1.1 0.71082-0.0867 1.4468 2.2518 3.2647 10.373 8.5787 15.936 17.464 18.282 8.4098 2.2207 20.51-0.51471 25.195-5.6958 2.4981-2.7624 5.7433-10.398 5.8819-13.838 0.11504-2.8564 0.18256-2.8045 1.4104 1.0839 3.9369 12.468 10.679 17.853 23.896 19.087 4.2987 0.40142 7.9515 0.0827 11.768-1.0267 9.376-2.7257 13.199-7.0787 15.34-17.469l1.0973-5.3243 1.7162 5.3243c3.9087 12.127 12.433 19.024 23.511 19.024 12.101 0 18.815-5.8784 24.782-21.7 0.69515-1.8429 0.78414-1.8037 1.1331 0.5 1.9382 12.794 8.9302 19.615 21.253 20.732 7.2876 0.66081 15.285-1.6437 20.395-5.877 3.7738-3.1264 8.5915-11.577 8.6112-15.105 0.00537-0.9625 0.45977-1.75 1.0098-1.75s1.0044 0.7875 1.0098 1.75c0.029 5.2002 7.5212 15.801 13.49 19.088 1.941 1.0688 1.9336 1.1022-0.25 1.1317l-2.25 0.03041v54.05l-2.5651 0.97525c-1.4108 0.53639-7.9537 0.97525-14.54 0.97525-9.8513 0-12.645 0.34181-15.753 1.9276-4.3462 2.2173-10.594 8.7526-11.674 12.212-0.40549 1.2983-1.2391 2.6912-1.8525 3.0952s-5.9369 0.74158-11.83 0.75c-9.9276 0.0142-10.799 0.17303-11.864 2.1622-0.63194 1.1808-4.4733 13.867-8.5363 28.192-4.063 14.325-7.9493 26.413-8.6362 26.863-0.68689 0.44978-17.224 0.72577-36.749 0.61331-19.525-0.11247-36.489 0.13129-37.699 0.54169-3.0466 1.0339-3.898 4.3268-1.7363 6.7155 1.4478 1.5998 3.1243 1.9302 9.8401 1.9394l8.095 0.0111-3.3245 2.6197c-4.3395 3.4195-5.5567 6.6733-4.1223 11.02 2.1726 6.583 10.979 8.4602 16.024 3.4155 4.3122-4.3122 4.0788-9.2508-0.64812-13.709l-3.5712-3.3681h21.071c11.589 0 21.071 0.21344 21.071 0.47432s-1.2866 1.1396-2.8592 1.9528-3.4235 2.841-4.1133 4.5063c-4.0022 9.6621 8.5791 17.614 16.049 10.143 4.3122-4.3122 4.0788-9.2508-0.64812-13.709l-3.5712-3.3681h5.8801c3.3133 0 6.6738-0.58037 7.6984-1.3296 1.2408-0.90733 4.3137-10.016 9.676-28.682 4.3217-15.044 8.427-27.724 9.1228-28.178 0.69584-0.45405 4.4101-0.70982 8.254-0.56838l6.9888 0.25717 2.3511 5c2.9063 6.1807 5.5127 9.0728 10.671 11.841 3.3825 1.8153 6.2011 2.2248 18.258 2.6527 18.745 0.66523 19.158 2.3453 0.74201 3.0154-12.019 0.43736-14.676 0.84101-18.777 2.8524-13.327 6.5359-16.711 23.287-7.2191 35.732 4.581 6.0059 10.204 7.8221 25.996 8.3967 18.416 0.67015 18.003 2.3502-0.74201 3.0154-12.057 0.42789-14.876 0.83741-18.258 2.6527-5.1366 2.7567-7.8766 5.7401-10.416 11.341-5.0975 11.244-0.30879 24.194 11.126 30.088 3.0462 1.5701 5.8531 1.9124 15.685 1.9124 11.297 0 18.271 1.1625 16.664 2.778-0.39491 0.39711-7.3952 0.94702-15.556 1.222-14.542 0.49001-14.924 0.56051-19.143 3.5279-2.3675 1.6654-5.6671 4.9675-7.3324 7.3381-2.8226 4.0178-3.0277 4.9145-3.0244 13.222l4e-3 8.9119h-181.52l0.25541-88.676zm138.14-21.574c0.78682-1.2375 4.028-11.859 7.2027-23.603 4.3272-16.008 5.5121-21.766 4.7337-23-0.93533-1.4831-5.5646-1.6724-46.639-1.9066-44.163-0.25186-45.633-0.19924-46.633 1.6696-0.79508 1.4856 0.31939 7.0121 4.8434 24.018 3.2318 12.148 6.4334 22.76 7.1146 23.58 1.0528 1.2685 6.2409 1.4923 34.593 1.4923h33.354zm-63.062-8.3509c-0.83699-2.1812 1.3696-3.3655 6.3047-3.3838 4.1796-0.0155 7.1276 1.9538 5.8995 3.9409-0.35481 0.57409-3.1077 1.0438-6.1175 1.0438-4.0952 0-5.627-0.4029-6.0867-1.6009zm22 0c-0.8781-2.2883 1.424-3.3662 7.2271-3.3838 5.2676-0.016 7.6646 1.262 6.7649 3.6066-0.81214 2.1164-13.17 1.9196-13.992-0.22278zm24.021 0.0552c-0.88778-2.3135 1.4289-3.5235 6.1559-3.2152 3.2464 0.21175 4 0.63773 4 2.2609 0 1.6772-0.7684 2.0493-4.7602 2.3052-3.6963 0.23699-4.9022-0.0649-5.3957-1.3509zm-48.817-13.07c-2.8393-2.8393-1.2396-3.8839 5.9476-3.8839 5.4426 0 7.03 0.35661 7.9167 1.7785 1.5692 2.5166-0.66387 3.6873-7.0696 3.7062-3.4517 0.0102-5.7175-0.5236-6.7946-1.6008zm24.625 0.73093c-0.74162-0.46998-1.1868-1.7006-0.9894-2.7347 0.30455-1.595 1.4334-1.9243 7.4422-2.1708 5.2122-0.21388 7.3977 0.0883 8.2739 1.1441 0.93696 1.129 0.84847 1.7769-0.41524 3.0406-1.7533 1.7533-11.878 2.2632-14.311 0.72081zm26 0c-0.74162-0.46998-1.1871-1.7006-0.98996-2.7347 0.51221-2.6868 12.516-3.3829 13.514-0.78362 0.40779 1.0627-0.0404 2.1971-1.2041 3.0481-2.0568 1.504-9.2191 1.8015-11.32 0.47025zm-50.9-13.788c-3.4546-0.48169-6.1788-3.799-4.4991-5.4787 0.51562-0.51562 4.4475-0.80481 8.7375-0.64264 6.0786 0.22979 8.039 0.67499 8.8827 2.0173 0.78456 1.2482 0.76861 2.0365-0.0579 2.863-1.2787 1.2787-8.1269 1.9292-13.063 1.2409zm54.938-0.115c-4.0223-0.31014-4.2898-0.51226-4-3.0219 0.30821-2.669 0.37174-2.6895 8.2969-2.6895 6.3156 0 8.0412 0.31379 8.2488 1.5 0.61276 3.5022-3.5631 4.904-12.546 4.2114zm-31.828-1.7114c-1.3824-3.6024 0.31005-4.5 8.4845-4.5 8.2806 0 10.8 1.1521 9.5641 4.3732-0.88116 2.2963-17.172 2.4107-18.049 0.12675zm-117.2-12.5c0-1.375 0.22698-1.9375 0.50439-1.25s0.27741 1.8125 0 2.5-0.50439 0.125-0.50439-1.25zm270.22-36.5c2e-3 -6.6 0.16382-9.1699 0.35965-5.7108 0.19583 3.459 0.19422 8.859-4e-3 12-0.19781 3.1409-0.35803 0.31081-0.35606-6.2892zm-0.15982-25.628c-0.17827-10.946-0.52954-13.883-1.7851-14.925-1.4138-1.1734-1.4067-1.3849 0.075-2.2141 0.90101-0.50423 1.8415-0.71347 2.09-0.46498s0.31461 7.3772 0.14694 15.842l-0.30486 15.39zm-270.22-3.2715c0-4.8028-0.48734-9.643-1.083-10.756-0.9059-1.6927-0.80135-1.9681 0.63947-1.6842 1.5089 0.29723 1.6973 1.5766 1.5197 10.319-0.25154 12.384-1.0762 14.009-1.0762 2.121zm-18.805-37.101c0.0204-1.65 0.2445-2.2039 0.49804-1.231s0.23687 2.323-0.0371 3c-0.27393 0.67703-0.48137-0.11903-0.46099-1.769zm301-5.55c-0.10772-3.0525-0.73586-6.09-1.3959-6.75-1.7892-1.7892-295.12-1.7397-296.57 0.05-0.55816 0.6875-1.2361 2.15-1.5064 3.25-0.34566 1.4062-0.52409 1.1094-0.60102-1-0.0602-1.65 0.72701-4.2686 1.7493-5.8191 1.7516-2.6566 1.8899-2.6999 2.3998-0.75l0.54108 2.0691h292.05l0.31955-2.2184c0.31003-2.1523 0.37303-2.1364 2.1145 0.53338 1.3899 2.1308 1.7162 4.2675 1.4459 9.4684-0.34298 6.5994-0.35249 6.6198-0.54493 1.1666zm-10.632-27.657c-0.54268-1.4252-0.42782-1.5401 0.5598-0.5598 0.68342 0.67833 0.99067 1.4852 0.68278 1.7931-0.30789 0.30789-0.86705-0.24711-1.2426-1.2333zm-3.7908-7.6825c-2.4029-4.8995-2.4714-5.3444-0.75366-4.8952 2.3454 0.61333 2.8683-1.336 3.2771-12.215 0.16534-4.4 0.39117-1.1375 0.50186 7.25 0.11068 8.3875 0.07 15.25-0.0904 15.25-0.16043 0-1.4811-2.4252-2.9349-5.3893zm-267.78-32.86 0.49675-30.251l0.27065 25.362c0.26391 24.73 0.32007 25.349 2.2532 24.844 1.0904-0.28515 1.9826-0.32063 1.9826-0.078836 0 0.58642-4.9688 10.373-5.2668 10.374-0.12823 3.08e-4 -0.01-13.612 0.26361-30.25zm270.41-8.7506c0-9.075 0.1516-12.788 0.3369-8.25 0.18529 4.5375 0.18529 11.962 0 16.5-0.1853 4.5375-0.3369 0.825-0.3369-8.25zm-251.53 2.692c1.2748-1.5716 8.4221-1.6749 100.5-1.4516l99.128 0.24035-99 0.50965c-59.248 0.305-99.602 0.88788-100.5 1.4516-1.2952 0.81336-1.3126 0.71098-0.12756-0.75zm227.69-0.22376c-1.897-1.4348-1.8913-1.4682 0.25-1.4682 1.281 0 2.1911 0.62305 2.1911 1.5 0 1.8095-7e-3 1.8095-2.4411-0.0318zm-174.48-25.052c0.048-1.1649 0.28494-1.4019 0.60416-0.60417 0.28887 0.72188 0.25335 1.5844-0.0789 1.9167-0.33229 0.33229-0.56864-0.25833-0.52522-1.3125zm-69.079-7.3576c0-0.51754 0.44485-1.2159 0.98855-1.5519 0.56686-0.35034 0.7345 0.05106 0.39301 0.94098-0.66479 1.7324-1.3816 2.0494-1.3816 0.61096zm76.827-17.809c30.98-0.14677 81.38-0.14674 112 7.28e-5s5.2731 0.2669-56.327 0.26686c-61.6-4e-5 -86.653-0.12016-55.673-0.26693z" fill="#09395c"/>
</g>
<path d="m407.44 144.25-7.6536-0.60187 9.6039-17.956c5.2822-9.8756 12.157-22.515 15.278-28.088l5.6737-10.132 15.085-0.69007c8.2966-0.37954 58.608-0.69181 111.8-0.69394l96.718-0.0039 14.977 28.9c8.2374 15.895 14.977 29.204 14.977 29.574 0 0.82763-265.79 0.53086-276.46-0.3087z" fill="#fff" stroke-width="1.0562"/>
<path d="m667.53 94.956-7.3935-14.891-6.8654-0.68119c-3.776-0.37465-56.173-0.68457-116.44-0.6887l-109.57-0.0075-3.5707 5.5451c-1.9639 3.0498-5.0477 8.1593-6.8529 11.354l-3.2822 5.8092-0.0174-20.596c-0.01-11.453 0.48447-22.404 1.1131-24.668 1.4013-5.0465 8.0641-12.418 14.451-15.987l4.8193-2.6935 110.99 0.69767c124.96 0.78546 114.45 0.02067 123.12 8.9563 6.8107 7.0179 7.4974 10.707 7.171 38.517l-0.28439 24.223zm-62.652-27.777c5.9394-3.0183 6.885-13.489 1.5744-17.432-2.9555-2.1947-3.5966-2.2161-62.78-2.0911l-59.794 0.1263-2.9692 3.3231c-4.0633 4.5477-4.0486 9.7664 0.0392 13.854 2.607 2.607 3.6288 2.9463 7.6576 2.5427 3.5504-0.35563 4.1499-0.22031 2.5367 0.57257-1.4049 0.69049 16.815 0.95552 54.395 0.79126 45.239-0.19774 57.073-0.53413 59.341-1.6868z" fill="#fff" stroke-width="1.0562"/>
<path d="m667.28 94.895-7.6433-14.951-9.7843-0.68306c-5.3814-0.37568-57.789-0.53935-116.46-0.3637l-106.68 0.31936-6.6014 11.085-6.6014 11.085 6e-3 -20.59c3e-3 -11.369 0.5122-22.414 1.1364-24.662 1.4077-5.0698 8.0691-12.419 14.543-16.044l4.9112-2.7503 110.9 0.73182 110.9 0.73182 5.0947 2.7256c2.8021 1.4991 6.5061 4.5076 8.2312 6.6857 5.7496 7.2595 6.2844 10.607 5.9705 37.373l-0.28448 24.26zm-70.656-26.619c7.2919-0.66282 8.6184-1.1138 10.826-3.6805 3.13-3.6388 3.3829-9.9526 0.53935-13.464-1.824-2.2526-3.1094-2.5054-16.635-3.2728-8.0623-0.45738-35.71-0.52703-61.438-0.15479l-46.78 0.67681-2.5985 3.0881c-3.6686 4.3599-3.4974 9.5831 0.44315 13.524 2.5533 2.5533 3.6365 2.9451 6.7467 2.4404 2.0378-0.33069 4.5903-0.08688 5.6722 0.54178 2.2471 1.3057 89.377 1.5603 103.22 0.3016z" fill="#fff" stroke-width="1.0562"/>
<path d="m413.51 200.74c0-4.3226 0.35647-8.0775 0.79216-8.3442s3.5251-0.82481 6.8654-1.2402l6.0732-0.75536v12.478l-5.8326 2.8606c-3.2079 1.5733-6.2974 2.8606-6.8654 2.8606-0.58041 0-1.0328-3.4426-1.0328-7.8593z" fill="#fff" stroke-width="1.0562"/>
<path d="m439.28 476.22c-0.52074-0.1279-3.142-0.52732-5.825-0.88762-5.7721-0.77513-12.315-5.8519-16.939-13.144l-3.0036-4.7362v-201.93l5.7451-3.1077c3.1598-1.7092 6.1304-2.7224 6.6014-2.2515s1.1213 40.254 1.4452 88.407c0.32388 48.153 0.93494 87.897 1.3579 88.32 0.42298 0.42298 42.935 0.96868 94.471 1.2127l93.702 0.44363 3.9311 3.1047c2.1621 1.7076 5.486 3.5506 7.3866 4.0957s13.321 0.99102 25.379 0.99102h21.924l-6e-3 8.1857c-8e-3 11.026-1.2978 14.979-6.9316 21.246-9.3522 10.402 3.2132 9.3694-119.92 9.8538-59.604 0.23447-108.8 0.32168-109.32 0.1938zm114.19-5.5372c4.5314-2.0586 11.081-8.7198 11.081-11.27 0-2.1401 1.8151-1.9348 4.9929 0.56486 6.5976 5.1897 17.188 0.40879 17.188-7.7593 0-4.5601-4.0773-9.7641-8.3927-10.712-3.4056-0.74799-11.642 2.7832-11.722 5.026-0.0257 0.71435-0.94454-0.39959-2.0419-2.4754-2.7419-5.1866-9.6376-11.18-14.365-12.485-9.1732-2.5328-19.958 1.8028-25.236 10.145l-2.9395 4.6463-2.5025-2.351c-1.3764-1.293-2.8171-2.0364-3.2016-1.6518s-1.3186 0.18505-2.0757-0.44331c-1.9912-1.6526-8.3111 0.66824-10.948 4.0202-7.4713 9.4982 6.2866 21.377 15.642 13.506l3.1456-2.6469 2.6923 4.594c3.007 5.131 8.4595 9.7565 12.366 10.49 5.8156 1.0922 12.329 0.61396 16.318-1.198z" fill="#fff" stroke-width="1.0562"/>
<path d="m439.39 476.28c-0.58092-0.15793-3.2514-0.58194-5.9344-0.94224-5.7721-0.77513-12.315-5.8519-16.939-13.144l-3.0036-4.7362v-201.93l5.7451-3.1077c3.1598-1.7092 6.0391-2.8137 6.3984-2.4544 0.88856 0.88856 1.4864 33.417 2.0419 111.1 0.25694 35.932 0.66694 65.53 0.91112 65.774 0.24418 0.24417 42.695 0.7321 94.335 1.0843l93.891 0.64033 3.4331 2.5578c7.0248 5.2337 9.282 5.6183 32.972 5.6183h22.215l-6e-3 8.1857c-8e-3 11.026-1.2978 14.979-6.9316 21.246-9.3205 10.367 3.154 9.3362-119.81 9.8962-59.544 0.2712-108.74 0.36387-109.32 0.20592zm111.8-4.7633c4.3788-1.2159 13.36-9.3053 13.36-12.034 0-2.1459 2-2.0413 4.5166 0.23626 1.3698 1.2397 3.7752 1.8484 7.3041 1.8484 4.4555 0 5.6522-0.45404 7.8107-2.9635 3.3982-3.9506 3.3637-9.109-0.0883-13.212-1.4506-1.7239-3.8461-3.4378-5.3234-3.8085-3.1683-0.79519-12.083 2.7792-12.154 4.8731-0.0257 0.75882-0.96263-0.354-2.0821-2.4729-4.4744-8.4689-14.494-14.144-22.721-12.868-7.8399 1.2154-13.223 4.9385-17.815 12.321-1.7536 2.8193-1.9747 2.8915-3.7991 1.2404-1.0654-0.96423-2.573-1.8494-3.3501-1.967s-2.0163-0.5908-2.7538-1.0515c-2.045-1.2773-8.3989 1.2459-10.789 4.2845-3.2389 4.1176-2.7458 8.3534 1.4622 12.561 4.3632 4.3632 8.2651 4.6632 13.596 1.0456l3.751-2.5455 2.8934 4.5774c5.959 9.4273 15.276 12.963 26.182 9.9345z" fill="#fff" stroke-width="1.0562"/>
<path d="m661.72 217.2v-26.553h13.731v25.287c0 16.141-0.39184 25.529-1.0834 25.956-0.59586 0.36826-3.6853 0.9381-6.8654 1.2663l-5.782 0.59676z" fill="#fff" stroke-width="1.0562"/>
<path d="m494.33 324.83c-0.34593-0.55973 0.33896-1.9856 1.522-3.1687 2.0556-2.0556 3.4736-2.1568 31.989-2.2822 16.411-0.0722 33.153-0.42863 37.204-0.79216l7.3658-0.66097 8.0799-27.317c4.444-15.024 8.7341-27.731 9.5337-28.238 0.79959-0.50646 5.0185-1.0025 9.3754-1.1023 4.3569-0.0998 9.2287-0.27389 10.826-0.38682 2.7014-0.19095 2.9046 0.0793 2.9046 3.8621v4.0674h-9.0005c-8.3178 0-9.0803 0.18025-10.053 2.3765-0.57894 1.3071-4.3858 13.515-8.4596 27.129-4.0738 13.614-7.9258 25.377-8.56 26.141-0.91635 1.1041-9.4625 1.3894-41.626 1.3894-24.821 0-40.716-0.39356-41.102-1.0177z" fill="#fff" stroke-width="1.0562"/>
<path d="m504.87 315.6c-1.1618-0.30224-2.7085-1.0335-3.437-1.625-2.7237-2.2114-14.055-44.402-12.376-46.082 0.9774-0.97782 89.944-0.82897 90.925 0.15213 1.8255 1.8248-9.9084 43.779-12.952 46.307-1.3795 1.1463-7.9043 1.4895-30.899 1.625-16.032 0.0945-30.1-0.0755-31.262-0.37771zm58.734-8.921c1.7007-2.687 0.24598-3.5477-5.9962-3.5477-5.2626 0-6.2945 0.30966-6.6173 1.9859-0.21034 1.0922 0.25845 2.4199 1.0418 2.9504 2.0028 1.3564 10.478 0.33938 11.572-1.3886zm-44.665-1.1712c-0.30017-2.1136-1.0265-2.412-6.5647-2.6978-6.6456-0.34295-8.5092 0.48866-7.4253 3.3134 0.53432 1.3924 2.1042 1.7609 7.5016 1.7609 6.4746 0 6.8085-0.12231 6.4884-2.3765zm23.427-0.31231c0-2.6462-0.11293-2.6839-7.1295-2.3765-6.478 0.28377-7.1603 0.52947-7.467 2.6888-0.3227 2.2722-0.01 2.3765 7.1295 2.3765 7.2964 0 7.467-0.0614 7.467-2.6888zm-25.509-10.921c0.78331-0.49641 1.2537-1.7962 1.0452-2.8884-0.29622-1.5522-1.6451-2.1304-6.1772-2.6479-7.8679-0.89835-10.551-0.20841-10.551 2.7129 0 1.2925 0.31686 2.6669 0.70414 3.0542 1.0225 1.0225 13.3 0.83333 14.979-0.23075zm26.807-2.1685c-0.15775-1.4164-0.40508-2.6936-0.54961-2.8381-0.61179-0.61179-13.772-1.2518-15.118-0.7352-1.5426 0.59196-2.0264 4.7154-0.70788 6.0339 0.42103 0.42103 4.3422 0.61907 8.7138 0.44009 7.7229-0.31618 7.9402-0.39844 7.6615-2.9007zm23.386 0.72692c1.2158-4.5369 0.83728-5.017-3.9552-5.017-8.043 0-11.222 1.0348-11.222 3.6528 0 3.4011 0.72421 3.7408 7.9745 3.7408 5.9165 0 6.6292-0.23513 7.2031-2.3765zm-50.825-12.33c0.43569-0.0442 0.79216-1.4771 0.79216-3.1843 0-2.8429-0.37755-3.1601-4.4889-3.7712-2.4689-0.36699-6.8654-0.51494-9.77-0.32877-4.8208 0.30899-5.2811 0.56589-5.2811 2.9478 0 4.551 5.0691 5.7235 18.748 4.3364zm25.613 0.052c2.217-0.47156 3.27-1.3852 3.506-3.042 0.45373-3.1854-3.1812-4.4838-12.553-4.4838h-7.3248v3.6193c0 2.5588 0.5416 3.7608 1.8484 4.1023 2.6732 0.69859 10.835 0.58852 14.523-0.19584zm28.782-1.9209c1.7862-2.4133 1.6606-4.1921-0.35044-4.9638-2.4928-0.95657-14.489-0.74315-16.113 0.28667-2.3044 1.4607-1.0355 5.7591 1.9408 6.5743 4.4085 1.2075 13.062 0.0772 14.523-1.8972z" fill="#fff" stroke-width="1.0562"/>
<path d="m555.52 344.38c-5.4863-5.4863-2.0484-14.307 5.5763-14.307 8.7916 0 12.08 11.398 4.4303 15.354-4.2709 2.2086-7.0406 1.9187-10.007-1.0473z" fill="#fff" stroke-width="1.0562"/>
<path d="m508.49 343.88c-3.81-3.81-3.983-7.7314-0.49487-11.22 3.8172-3.8172 9.0949-3.5425 12.629 0.65716 1.5039 1.7873 2.7344 4.2004 2.7344 5.3623 0 3.0834-5.6376 8.2875-8.9779 8.2875-1.6898 0-4.0292-1.2262-5.8904-3.0874z" fill="#fff" stroke-width="1.0562"/>
<path d="m101.24 470.89-12.831-0.4038-0.46145-4.4573c-0.2538-2.4515-0.23205-52.655 0.04832-111.56l0.50977-107.11 54.945 0.75024c30.549 0.41713 55.766 1.1899 56.795 1.7406 4.4283 2.3699 4.5063 4.2473 4.585 110.33 0.0824 111.13 0.31335 106.99-6.0978 109.35-3.4102 1.2567-70.885 2.1992-97.492 1.3619zm64.47-8.58c11.575-6.78 11.216-24.252-0.62392-30.413-1.5687-0.81619-5.6087-1.4822-8.9778-1.48-10.844 7e-3 -17.205 6.1729-17.212 16.684-6e-3 8.7075 3.6339 13.781 12.143 16.924 3.9199 1.4481 10.605 0.66645 14.671-1.7154z" fill="#ffff72" stroke-width="1.0562"/>
<path d="m148.4 457.66c-4.0483-2.7478-6.7502-8.8688-5.7224-12.964 0.33772-1.3456 2.184-4.1605 4.1028-6.2554 3.2022-3.4959 3.9694-3.8089 9.3386-3.8089 4.7379 0 6.4616 0.5148 9.0686 2.7084 5.957 5.0125 6.2634 14.189 0.64977 19.463-3.9941 3.7522-12.552 4.1727-17.437 0.85677z" fill="#fff" stroke-width="1.0562"/>
<path d="m148.6 457.84c-4.1796-2.5482-6.9353-8.4334-5.9817-12.775 0.37173-1.6925 2.2372-4.7327 4.1454-6.756 3.1529-3.3431 4.005-3.6788 9.337-3.6788 4.7569 0 6.4768 0.51265 9.0863 2.7084 9.3433 7.8618 4.0172 22.647-8.1548 22.637-3.0858-2e-3 -6.2465-0.80295-8.4323-2.1356z" fill="#fff" stroke-width="1.0562"/>
<path d="m540.09 468.47c-8.317-2.5448-12.724-7.6126-13.288-15.279-0.48152-6.55 1.893-11.686 6.9708-15.078 7.5465-5.0409 15.894-4.4447 22.217 1.5868 6.8407 6.5251 7.7469 15.66 2.2472 22.652-3.691 4.6923-12.786 7.759-18.147 6.1187z" fill="#fff" stroke-width="1.0562"/>
<path d="m571.68 456.76c-1.1862-0.70801-1.8484-2.4-1.8484-4.7232 0-6.9369 8.3869-9.0266 12.294-3.0633 1.6626 2.5374 1.6431 2.8398-0.35512 5.5284-2.2918 3.0835-6.9582 4.1278-10.091 2.2581z" fill="#fff" stroke-width="1.0562"/>
<path d="m507.06 456.21c-3.4892-3.4892-0.39075-11.015 4.5351-11.015 2.8191 0 7.536 4.0146 7.536 6.414 0 5.0918-8.3844 8.2875-12.071 4.6009z" fill="#71ffff" stroke-width="1.0562"/>
<path d="m431.47 335.97v-88.099l7.6576-4.2286c13.43-7.4162 18.748-14.906 18.748-26.402 0-7.1308-2.463-11.766-8.367-15.744-2.8456-1.9176-5.0223-2.4016-10.801-2.4016h-7.2373v-4.6842c0-2.5763-0.45336-5.8766-1.0075-7.334-0.85435-2.2471-0.50907-3.1805 2.2721-6.142 1.8038-1.9207 4.3244-5.7363 5.6013-8.4792l2.3217-4.987 1.3648 4.1355c3.3505 10.152 11.688 15.81 23.353 15.849 12.42 0.0413 19.744-4.0287 22.817-12.68 1.779-5.0088 3.4822-6.8809 3.4822-3.8274 0 2.3273 5.7522 10.187 9.069 12.392 4.2606 2.8324 9.9924 4.2434 17.38 4.2788 12.63 0.0604 19.749-4.1935 23.295-13.92l2.3179-6.357 2.0116 4.493c4.5132 10.081 11 15.196 20.725 16.344 10.671 1.2596 19.163-3.8565 24.354-14.672l3.1134-6.4869 1.1265 4.156c2.9652 10.939 10.713 16.387 23.364 16.427 10.27 0.0325 17.878-3.5648 22.317-10.551 1.708-2.6884 3.3757-5.9573 3.7061-7.2644 0.87562-3.4641 1.7176-2.9484 3.9167 2.3991 1.0784 2.6222 4.0313 6.8981 6.562 9.502 2.5307 2.6039 4.1437 4.7343 3.5844 4.7343-0.62496 0-1.0168 10.355-1.0168 26.871 0 18.51-0.36389 27.096-1.1695 27.594-0.64325 0.39754-6.4656 0.9229-12.939 1.1674-6.473 0.24456-13.368 0.69201-15.322 0.99434-4.1339 0.63951-12.976 8.365-14.906 13.023-1.542 3.7227-3.396 4.2525-14.947 4.2707-5.9861 0.01-9.4883 0.4674-10.208 1.3347-0.60232 0.72615-4.2092 11.777-8.0153 24.557-9.1286 30.652-9.2983 31.158-10.45 31.158-0.5456 0-0.64347-0.83178-0.21748-1.8484 3.8544-9.1984 12.126-40.033 12.126-45.203 0-3.3345-0.23417-3.5513-4.4889-4.1568-2.4689-0.35133-23.501-0.49928-46.738-0.32877l-42.249 0.31002-0.32851 3.3997c-0.53038 5.4887 10.288 44.855 12.768 46.462 0.71039 0.46024 13.649 1.1025 28.753 1.4273l27.462 0.59052-30.683 0.20164c-31.685 0.20821-33.218 0.41877-33.218 4.5623 0 3.6993 2.9667 5.1453 10.556 5.1453h7.2368l-3.0874 3.0874c-3.0777 3.0777-4.0518 7.9576-2.4313 12.18 0.9045 2.3571 5.961 4.8003 9.9349 4.8003 4.336 0 9.4772-4.9852 9.4772-9.1897 0-3.0606-2.2675-7.188-5.2326-9.5246-1.2994-1.024 2.4337-1.2935 18.283-1.3203l19.916-0.0336-3.2804 3.0643c-9.2462 8.6372 3.0704 22.585 13.027 14.753 5.4199-4.2633 5.5427-9.8836 0.3372-15.441l-2.2262-2.3765h5.3898c3.4773 0 5.9751-0.58531 7.0393-1.6495 0.90724-0.90724 3.3584-7.2049 5.447-13.995s5.9094-19.118 8.4907-27.396l4.6932-15.051h14.69l2.5905 5.1121c5.0453 9.9564 11.957 13.829 24.907 13.955 3.776 0.0368 8.7666 0.46002 11.09 0.94065 3.8706 0.8006 3.6049 0.88585-3.1687 1.0166-12.083 0.23321-20.452 1.8363-24.878 4.7657-9.8382 6.5106-12.771 20.103-6.7317 31.199 5.0273 9.2368 9.3566 11.075 29.498 12.524l11.618 0.83595-13.543 0.86827c-11.473 0.73557-14.379 1.2922-19.012 3.6414-12.549 6.3637-15.698 23.985-6.2573 35.014 5.6517 6.6027 10.355 8.3483 22.969 8.5253 5.8092 0.0815 11.988 0.511 13.731 0.95445 3.6981 0.94101 4.0871 0.88407-14.02 2.0519-12.896 0.83172-14.32 1.1332-17.764 3.7599-2.0592 1.5706-5.1373 4.7792-6.8404 7.1302-2.836 3.9149-3.0964 5.0165-3.0964 13.094v8.8194h-180.61z" fill="#80bbf8" stroke-width="1.0562"/>
<path d="m88.607 467.82c-0.76574-3.051 0.16616-218.95 0.94844-219.74 0.23695-0.23695 25.081 0.05 55.209 0.63767 44.819 0.87421 55.051 1.3407 56.276 2.566 2.7684 2.7684 3.4649 29.961 3.1137 121.56-0.35682 93.056-0.41741 94.292-4.712 96.122-1.0611 0.4521-26.265 1.051-56.008 1.3308l-54.078 0.50885zm76.734-4.988c8.4566-4.4719 11.575-14.468 7.3895-23.687-2.9158-6.4233-7.2486-8.7277-16.41-8.7277-12.477 0-17.428 4.8231-17.428 16.979 0 8.1089 2.4857 12.562 8.7396 15.658 5.8441 2.8928 11.964 2.8163 17.708-0.22133z" fill="#ffffd2" stroke-width="1.0562"/>
<path d="m667.31 94.905-7.61-14.942-12.986-0.69565c-7.1424-0.38261-59.554-0.55052-116.47-0.37316l-103.48 0.32249-6.3617 10.826-6.3617 10.826-0.28709-20.134c-0.17267-12.109 0.16957-21.83 0.85865-24.389 1.378-5.1175 7.867-12.434 14.449-16.291l4.8039-2.8153 111.55 0.78925 111.55 0.78925 5.5753 3.5665c6.4544 4.1289 11.483 11.305 12.397 17.693 0.34264 2.3935 0.48133 14.571 0.3082 27.06l-0.31478 22.709zm-73.286-26.652c10.158-0.76995 11.183-1.0519 13.467-3.7075 3.1079-3.6131 3.3204-9.9244 0.4536-13.466l-2.0187-2.4935-61.282-0.28888-61.282-0.28888-2.7132 3.5572c-3.4586 4.5345-3.5025 9.0632-0.12313 12.71 1.4246 1.5371 2.9693 2.808 3.4327 2.8242 6.8925 0.24043 19.901 1.2495 20.22 1.5685 0.78275 0.78275 78.797 0.42234 89.845-0.41507z" fill="#c7ffd2" stroke-width="1.0562"/>
<path d="m406.38 144.25-6.5988-0.60204 9.2854-17.428c5.107-9.5852 11.983-22.226 15.28-28.09l5.9946-10.662 12.873-0.69218c7.0802-0.3807 57.41-0.69218 111.84-0.69218h98.972l14.934 28.873c8.2136 15.88 14.934 29.192 14.934 29.582 0 0.85199-268.07 0.57308-277.52-0.28873z" fill="#c7ffd2" stroke-width="1.0562"/>
<path d="m439.39 476.28c-0.58092-0.15793-3.2514-0.58194-5.9344-0.94224-5.7721-0.77513-12.315-5.8519-16.939-13.144l-3.0036-4.7362v-202.04l5.16-2.8084c2.838-1.5446 5.6419-2.8084 6.231-2.8084 1.6775 0 2.2292 19.684 2.8398 101.31 0.31035 41.49 0.69079 75.562 0.84542 75.717s42.573 0.60799 94.263 1.0075l93.982 0.72633 3.6015 2.6918c6.5223 4.8748 9.7104 5.3996 33.102 5.4491l21.917 0.0464-6e-3 8.1857c-8e-3 11.026-1.2978 14.979-6.9316 21.246-9.3205 10.367 3.154 9.3362-119.81 9.8962-59.544 0.2712-108.74 0.36387-109.32 0.20592zm111.54-4.843c4.9956-1.6989 11.095-6.6864 12.75-10.426 1.6466-3.72 1.9136-3.7631 6.3938-1.0315 1.902 1.1597 4.5513 2.1103 5.8872 2.1124 5.6664 0.01 10.774-5.0675 10.774-10.709 0-3.1191-3.6687-7.8124-7.2742-9.3058-2.6446-1.0955-3.8214-0.96854-7.949 0.85733-2.6647 1.1787-4.8449 2.6989-4.8449 3.3781 0 0.67924-1.5447-1.0625-3.4327-3.8706-1.9252-2.8634-5.6806-6.4891-8.5512-8.2558-9.8598-6.0681-22.136-2.9664-29.264 7.3937-2.797 4.0653-3.5343 4.582-4.9094 3.4408-2.8813-2.3913-8.1595-3.6758-11.523-2.8042-4.2008 1.0885-6.6956 3.9443-7.437 8.513-0.49362 3.0418-0.0722 4.2658 2.4216 7.0331 4.2456 4.7112 9.1977 5.338 14.366 1.8185l3.9529-2.692 1.5052 2.8674c5.2783 10.055 17.034 15.116 27.135 11.68z" fill="#c7ffd2" stroke-width="1.0562"/>
<path d="m661.72 217.05v-26.405h13.731v51.491l-3.3007 0.66014c-1.8154 0.36307-4.9048 0.66013-6.8654 0.66013h-3.5647z" fill="#c7ffd2" stroke-width="1.0562"/>
<path d="m406.05 183.31c-8.2436-2.5014-11.063-6.8422-11.872-18.28-0.45516-6.4356-0.24096-8.5296 0.99942-9.77 1.3855-1.3855 19.33-1.5787 146.61-1.5787h145.03l0.69018 4.6024c0.87388 5.8274-2.7458 17.476-6.7686 21.783-8.4066 8.9993-25.679 1.8547-29.63-12.256-2.75-9.8222-6.6919-9.6239-10.392 0.5226-4.5849 12.574-16.619 18.576-29.868 14.896-5.5281-1.5354-11.122-8.0968-12.022-14.102-1.6-10.669-5.3145-10.462-10.686 0.5962-2.0323 4.1842-5.0876 8.3578-7.8477 10.72-3.983 3.4093-5.1911 3.8687-10.173 3.8687-3.1092 0-7.2113-0.6511-9.1159-1.4469-4.7983-2.0049-10.846-9.4228-12.935-15.865-2.1489-6.6278-2.798-7.3785-5.6086-6.4865-1.5213 0.48284-2.2238 1.5949-2.2347 3.5376-0.0411 7.3314-4.815 15.204-10.63 17.531-5.639 2.2563-19.022 2.2297-23.82-0.0473-4.6003-2.183-10.951-9.5353-10.951-12.678 0-3.1498-2.0312-7.524-3.8109-8.207-2.0062-0.76986-4.6388 3.4548-4.6388 7.4441 0 4.9504-5.7882 12.048-11.661 14.298-13.006 4.9845-25.139-0.69693-29.235-13.689-2.9364-9.3154-7.1558-9.7658-9.7345-1.0389-1.71 5.7872-5.5044 10.772-10.693 14.047-3.2178 2.0313-5.4539 2.5808-10.214 2.5099-3.3518-0.0499-7.3102-0.45977-8.7965-0.91075z" fill="#c7ffd2" stroke-width="1.0562"/>
<path d="m507.72 455.55c-2.831-2.831-0.54464-9.2947 3.2877-9.2947 5.8501 0 9.5773 7.0299 5.0203 9.4688-2.7412 1.467-6.7508 1.383-8.3079-0.17408z" fill="#c7ffd2" stroke-width="1.0562"/>
<path d="m537.61 466.94c-1.7428-0.7779-4.5642-2.8976-6.2698-4.7106-2.5198-2.6782-3.1809-4.435-3.5262-9.3705-0.35468-5.0692-0.0163-6.6683 2.045-9.6638 5.2551-7.6369 16.495-9.7637 23.865-4.5158 4.4517 3.1699 8.0762 10.888 7.3153 15.577-1.6712 10.298-13.919 16.929-23.429 12.684z" fill="#c7ffd2" stroke-width="1.0562"/>
<path d="m571.59 456.11c-1.1816-1.1816-0.78414-7.2431 0.56331-8.5906 2.9079-2.9079 10.351-0.15194 10.351 3.8327 0 3.5789-8.4219 7.2502-10.914 4.7578z" fill="#c7ffd2" stroke-width="1.0562"/>
<path d="m572.05 454.44c-2.0674-5.5529 3.9756-9.5007 8.4058-5.4914 2.5856 2.3399 1.1943 5.1117-3.3634 6.7006-4.2879 1.4948-4.011 1.5612-5.0424-1.2092z" fill="#c7ffd2" stroke-width="1.0562"/>
<path d="m403.21 143.28c-2.2774-0.65843-1.8924-1.5822 9.2961-22.305 19.147-35.464 17.079-32.538 23.483-33.223 3.0297-0.32394 53.267-0.71256 111.64-0.86359l106.13-0.2746 14.512 27.99c7.9817 15.394 14.526 28.346 14.543 28.782 0.0375 0.9662-276.26 0.86217-279.6-0.10528z" fill="#047dc4" stroke-width="1.0562"/>
<path d="m402.95 141.88c0-3.0032 25.165-49.072 28.409-52.008 1.9989-1.809 7.6906-1.9134 112.19-2.0583l110.08-0.15261 14.033 26.934c7.7181 14.813 14.056 27.29 14.084 27.726 0.0281 0.43569-62.688 0.79217-139.37 0.79217-105.55 0-139.42-0.29947-139.42-1.2327z" fill="none" stroke-width="1.0562"/>
<path d="m402.95 141.88c0-3.0032 25.165-49.072 28.409-52.008 1.9989-1.809 7.6906-1.9134 112.19-2.0583l110.08-0.15261 14.033 26.934c7.7181 14.813 14.056 27.29 14.084 27.726 0.0281 0.43569-62.688 0.79217-139.37 0.79217-105.55 0-139.42-0.29947-139.42-1.2327z" fill="#fff" stroke-width="1.0562"/>
<path d="m456.02 142.41c-37.896-0.26754-52.019-0.69283-52.019-1.5665 0-2.7151 25.361-48.353 28.161-50.678 1.4422-1.1973 20.333-1.4414 111.57-1.4414h109.83l13.673 26.67 13.673 26.67-49.468 2e-3c-27.207 9.4e-4 -66.103 0.16171-86.435 0.35733-20.332 0.19561-60.376 0.1904-88.986-0.0116z" fill="#fff" stroke-width="1.0562"/>
<path d="m667.09 93.664-6.7736-13.68-4.7282-0.64807c-2.6005-0.35644-55.222-0.64807-116.94-0.64807h-112.21l-5.6764 9.77-5.6764 9.77-0.28685-20.33c-0.25931-18.378-0.0904-20.71 1.7589-24.293 2.3187-4.4923 8.3615-10.495 13.857-13.765l3.711-2.2083 111.59 0.87731 111.59 0.87731 4.7307 3.2548c5.6401 3.8805 11.038 10.887 11.847 15.378 0.32132 1.7824 0.44547 13.609 0.27589 26.282l-0.30832 23.041zm-67.779-25.448c4.3068-0.61152 6.3294-1.5204 8.1857-3.6786 3.0224-3.5138 3.3198-10.565 0.59366-14.078l-1.8249-2.3513-61.788-0.09129-61.788-0.09129-2.377 3.469c-3.1231 4.5578-3.0603 9.4808 0.16878 13.24 2.3038 2.6818 3.3831 3.0218 11.354 3.577 13.332 0.92846 100.94 0.93208 107.48 0.0044z" fill="#fff" stroke-width="1.0562"/>
<path d="m502.98 60.998c-13.58-0.26048-16.791-0.61176-17.282-1.8907-0.33151-0.8639-0.0161-2.2776 0.70096-3.1416 1.1246-1.3551 9.0125-1.5663 57.418-1.5373 60.538 0.03624 61.7 0.13846 58.57 5.1507-1.3653 2.1862-1.8038 2.2068-42.054 1.9741-22.371-0.12938-48.18-0.37919-57.353-0.55515z" fill="#fff" stroke-width="1.0562"/>
<path d="m89.26 365.2c5e-3 -57.954 0.31773-107.94 0.69485-111.08l0.68567-5.7108 46.043 0.72391c25.324 0.39814 50.004 1.0212 54.845 1.3845 8.1647 0.61277 8.8909 0.85904 10.034 3.4026 1.8317 4.0756 1.7624 208.84-0.0717 212.04-1.6991 2.9664-6.975 3.2865-66.558 4.0383l-45.681 0.57641 0.0092-105.37zm75.992 97.975c5.4609-2.7859 8.7235-7.6075 9.3153-13.767 0.61674-6.4185-1.08-11.506-5.1322-15.388-2.885-2.764-4.0419-3.1118-11.474-3.4493-14.294-0.64911-19.067 3.6081-19.067 17.004 0 5.3303 0.51737 7.5716 2.3765 10.295 4.9056 7.1868 15.639 9.5608 23.982 5.3045z" fill="#fff" stroke-width="1.0562"/>
<path d="m303.66 461.18c-19.774-0.63961-20.837-0.78465-26.642-3.6352-6.284-3.0858-11.645-8.4782-16.262-16.356l-2.698-4.6038-0.51592-69.893c-0.28375-38.441-0.12328-73.438 0.3566-77.771l0.87252-7.8785 4.753-2.9305c5.286-3.2591 45.801-22.08 67.07-31.157 16.83-7.1826 27.468-11.89 50.698-22.435 9.8756-4.483 19.277-8.7056 20.891-9.3836 1.6145-0.67793 3.3667-2.3059 3.8939-3.6177 0.52713-1.3118 0.98854-1.791 1.0254-1.0648 0.11341 2.2362 3.248 1.4588 4.2589-1.0562 0.52538-1.3071 0.98536-1.7824 1.0222-1.0562 0.10597 2.0897 2.8119 1.5646 9.603-1.8636 4.7426-2.394 6.3376-3.7696 6.4297-5.5452 0.0961-1.8534 0.22818-1.9545 0.61378-0.47015 0.42797 1.6475 1.2765 1.8023 6.5863 1.2016 7.9418-0.89851 14.895 1.9124 17.594 7.1129 2.5993 5.0075 2.3933 14.032-0.4467 19.571-2.5713 5.0155-5.9576 7.847-16.548 13.837l-7.3935 4.1816-0.57807 13.07-0.57806 13.07-0.2141-11.387c-0.25377-13.497-0.77637-14.052-8.9162-9.4595l-5.5568 3.135-0.5876 10.44-0.58762 10.44-0.20455-9.3194c-0.18098-8.2451-0.41762-9.2788-2.0529-8.9673-1.5467 0.29463-1.9584 1.9882-2.5223 10.376-0.92991 13.831-0.88901 170.34 0.0477 182.72 0.41784 5.5187 0.63269 10.21 0.47745 10.426-0.52453 0.72762-83.133 0.94603-103.89 0.27467z" fill="#fff" stroke-width="1.0562"/>
<path d="m432.35 474.58c-4.7013-1.252-11.428-6.8414-15.692-13.039l-3.1597-4.5924 0.2694-100.64 0.2694-100.64 4.2249-2.3927c2.3237-1.316 4.7744-2.4005 5.446-2.41 0.67164-0.01 1.5273 2.2403 1.9014 4.9997s1.0688 42.225 1.5436 87.702c0.47482 45.477 1.125 82.947 1.4448 83.267 0.31982 0.31981 42.707 0.96803 94.193 1.4405l93.611 0.85902 3.9114 2.5684c6.9943 4.5928 9.9469 5.0404 33.251 5.0404h22.159l-0.76261 9.7484c-0.41943 5.3616-1.5017 11.178-2.4051 12.925-2.7901 5.3955-8.9513 12.05-12.35 13.339-1.9218 0.72873-14.621 1.567-31.229 2.0615-40.312 1.2001-191.91 1.014-196.63-0.24145zm121.12-3.8902c4.0407-1.8356 10.297-7.8432 11.317-10.866 0.38741-1.1488 1.231-1.0668 4.3828 0.42576 5.9823 2.8331 10.817 2.4193 14.475-1.239 4.4645-4.4644 4.2833-9.6588-0.50373-14.446-4.1297-4.1297-6.9132-4.4699-12.649-1.5457l-4.012 2.0454-5.9814-6.0776c-4.5382-4.6112-7.2279-6.4222-11.148-7.5056-8.8004-2.4324-17.788 1.2474-24.482 10.024-2.7286 3.5773-2.8292 3.6116-5.9173 2.0147-6.4523-3.3366-14.271-1.6828-16.642 3.5198-2.1583 4.737-1.3736 8.2895 2.6021 11.78 4.4019 3.865 8.7037 4.2498 13.61 1.2177l3.3338-2.0604 3.6563 4.8985c6.7916 9.0989 18.146 12.273 27.958 7.8147z" fill="#fff" stroke-width="1.0562"/>
<path d="m661.72 217.09v-26.442h13.731v25.382c0 19.383-0.31205 25.479-1.3203 25.792-0.72615 0.22538-3.8156 0.70213-6.8654 1.0594l-5.5451 0.64967z" fill="#fff" stroke-width="1.0562"/>
<path d="m565.43 183.31c-7.4207-1.4396-12.435-6.4852-17.238-17.346-2.2485-5.0843-3.0828-6.0347-5.0517-5.755-1.7975 0.25544-2.576 1.3399-3.2733 4.56-1.5291 7.0608-2.7713 9.6095-6.3959 13.123-4.7516 4.6055-14.493 6.0108-25.677 3.7044-5.128-1.0576-12.958-10.166-12.958-15.073 0-1.1263-0.90526-3.1658-2.0117-4.5322-1.9418-2.398-2.0842-2.4187-4.0976-0.59656-1.1473 1.0383-2.3735 3.6859-2.7249 5.8836-1.5113 9.4509-9.6296 15.928-20 15.958-9.8045 0.0278-14.746-3.6483-20.28-15.086-4.2519-8.7884-6.3052-8.7922-10.562-0.0197-5.7384 11.825-10.392 15.124-21.336 15.121-13.118-3e-3 -17.989-4.6682-19.014-18.21-0.46591-6.1604-0.25669-7.983 1.04-9.0591 1.2956-1.0753 30.793-1.3903 146.16-1.561l144.53-0.21385-0.0708 6.8765c-0.091 8.8403-4.0313 18.064-8.7618 20.51-9.5408 4.9338-21.524-1.4406-26.088-13.878-3.6671-9.9915-6.1417-10.012-11.1-0.0901-5.8152 11.637-11.683 15.839-22.119 15.839-9.7657 0-16.707-5.2012-19.023-14.254-1.7004-6.6465-1.9038-7.077-3.6619-7.7517-2.3232-0.89149-4.3296 1.1448-8.1022 8.2229-3.6503 6.8486-10.327 13.572-13.477 13.572-1.1127 0-2.656 0.18167-3.4297 0.40372-0.77367 0.22204-3.1481 0.0659-5.2766-0.34707z" fill="#fff" stroke-width="1.0562"/>
<path d="m408.47 182.19c-9.0944-1.3402-13.259-7.7469-12.693-19.529l0.3041-6.3373 24.821-0.65122c13.652-0.35817 78.886-0.71464 144.97-0.79216l120.14-0.14094v5.1132c0 11.048-4.8643 20.53-11.441 22.301-8.6634 2.3328-16.759-2.9386-22.636-14.739-3.9909-8.0137-6.3877-8.8458-9.7346-3.3798-8.9292 14.583-12.095 17.551-19.978 18.733-10.676 1.601-19.502-4.1235-22.606-14.661-2.8855-9.7982-6.4213-9.2908-12.764 1.8317-4.6668 8.1839-9.5897 12.398-15.225 13.033-9.5498 1.0764-16.091-3.5267-22.308-15.698-2.7885-5.4592-3.9159-6.7259-5.9868-6.7259-2.1962 0-2.8453 0.9116-4.6637 6.5498-3.4906 10.823-9.5242 15.11-21.247 15.097-8.416-0.01-12.535-1.6917-17.244-7.0411-2.3572-2.6779-4.2857-5.5619-4.2857-6.4089 0-0.84703-0.7787-3.181-1.7304-5.1867-2.7606-5.8175-5.6637-4.5508-8.4896 3.7043-3.6476 10.656-9.4288 15.09-19.673 15.089-9.5747-9.7e-4 -13.497-2.8288-19.986-14.409-2.4106-4.302-4.2003-6.3373-5.5729-6.3373-1.3722 0-3.1641 2.0364-5.5763 6.3373-4.0719 7.26-7.0302 10.721-10.795 12.629-3.4819 1.7649-10.01 2.4422-15.601 1.6183z" fill="#fff" stroke-width="1.0562"/>
<path d="m681.75 441.5c-0.63277-5.4649-0.93616-5.5247-29.007-5.7122-23.802-0.159-27.888-0.94633-32.642-6.2899-1.1632-1.3074-3.3913-2.3133-5.2811-2.3841-1.798-0.0674-2.4372-0.3399-1.4205-0.60559 1.617-0.42256 1.7653-1.3787 1.1839-7.6342-0.80094-8.6178 0.51678-13.242 5.1128-17.943 5.6749-5.8044 8.5771-6.7219 24.069-7.6092 7.8424-0.44914 14.615-0.84452 15.051-0.87859 1.5347-0.12003 0.77102-5.1252-0.87855-5.7582-0.9189-0.35262-6.7413-0.64377-12.939-0.64701-17.434-9e-3 -24.228-2.9117-28.768-12.29-4.5998-9.5019-0.56808-22.235 8.522-26.915 4.0863-2.1036 25.38-3.9598 45.681-3.9819l11.354-0.0124v-2.7237c0-3.1011-2.4777-4.5457-4.6724-2.7243-1.0112 0.83922-1.6927 0.87647-2.1613 0.11817-1.0715-1.7338-11.769-1.3662-13.602 0.46739-1.1117 1.1117-1.6966 1.2099-1.9886 0.33372-0.27272-0.81818-5.5223-1.5262-15.403-2.0775-16.182-0.90291-18.743-1.6758-24.265-7.3246-6.5782-6.7283-7.2969-17.56-1.6918-25.494 4.9756-7.0426 8.9671-8.4573 25.955-9.199 10.404-0.45429 14.952-1.0463 15.557-2.0252 0.67595-1.0937 0.98927-1.0331 1.4968 0.28963 0.83726 2.1819 11.598 2.3635 13.592 0.22938 1.1367-1.2168 1.54-1.1816 2.5679 0.22418 1.0427 1.4259 1.4731 1.4572 2.969 0.21567 0.96227-0.79862 1.6078-2.4442 1.4346-3.6569-0.29393-2.0573-0.98078-2.2049-10.262-2.2049-6.9809 0-10.077 0.39087-10.383 1.3108-0.3349 1.0066-0.77614 0.97084-1.901-0.15399-1.0227-1.0227-5.8592-1.6923-16.022-2.2183-16.676-0.86306-19.957-2.0738-25.084-9.254-2.4454-3.425-3.221-5.7873-3.535-10.767-0.36707-5.821-0.0929-6.8361 3.1327-11.6 5.4002-7.9756 10.322-10.092 23.505-10.106 5.8631-6e-3 12.418-0.30226 14.567-0.65748 3.6818-0.60872 3.9293-0.89651 4.3044-5.0054 0.395-4.3268 0.39938-4.3208 0.58252 0.80104l0.18453 5.1606 4.9004-0.67167c2.6952-0.36942 6.0223-0.67168 7.3935-0.67168 2.3656 0 2.4974-0.36481 2.5765-7.1295 0.0944-8.0745 0.50003-7.7731 1.5038 1.1176 0.55955 4.9562 1.0316 6.0695 2.4573 5.7959 1.5624-0.29986 1.8289-2.9402 2.3246-23.034l0.5599-22.695 0.23227 22.888 0.23227 22.888 5.0969 1.6929c8.5175 2.829 14.971 11.497 14.971 20.107 0 8.2506-7.139 18.08-15.431 21.247-6.683 2.5522-6.0225 5.0635 2.6136 9.9373 3.6975 2.0867 7.7204 5.1636 8.9398 6.8376 2.6803 3.6794 3.6574 14.358 1.8225 19.918-1.5739 4.769-8.2037 10.772-13.723 12.426-3.7246 1.1159-4.2905 1.6863-4.2905 4.3245 0 2.6201 0.6915 3.3348 5.017 5.185 6.0308 2.5797 9.3424 5.5028 11.842 10.454 2.5818 5.1126 3.329 10.329 2.1938 15.315-1.1518 5.0592-9.4427 13.317-14.958 14.899-2.9613 0.84928-3.5671 1.5263-3.5671 3.9863 0 2.5037 0.64578 3.1853 4.1638 4.3947 6.0062 2.0648 9.2188 4.8046 12.023 10.253 3.1156 6.0541 3.9543 12.145 2.3444 17.023-1.7569 5.3234-9.445 12.911-14.667 14.476-4.0054 1.2-4.3086 1.5671-4.6421 5.6216l-0.35686 4.3377zm-1.2808-48.846c1.6086-0.60757 1.7555-5.1601 0.1975-6.123-0.61753-0.38165-1.9941 0.0946-3.0591 1.0584-1.3121 1.1875-2.0679 1.3578-2.3443 0.52838-0.22799-0.68397-3.5382-1.4752-7.5031-1.7935l-7.0951-0.56952v7.7913l9.2419-0.19674c5.083-0.10821 9.836-0.42112 10.562-0.69539z" fill="#fff" stroke-width="1.0562"/>
<path d="m537.56 466.36c-1.1936-0.4834-3.6889-2.6087-5.5452-4.7228-2.9704-3.3831-3.375-4.5821-3.375-10.002 0-9.6636 5.4573-14.897 15.527-14.889 6.4551 5e-3 11.181 2.8267 14.005 8.3623 4.1085 8.0534 1.617 16.113-6.2782 20.308-3.8142 2.0269-10.561 2.4707-14.333 0.94289z" fill="#fff" stroke-width="1.0562"/>
<path d="m431.47 336.36v-87.715l3.2621-1.7992c8.7739-4.8393 16.574-10.814 19.437-14.887 2.7458-3.9068 3.2211-5.6263 3.5486-12.837 0.3221-7.0928 0.0411-8.8709-1.8977-12.008-3.6419-5.8927-8.0688-8.0136-16.727-8.0136h-7.4428l-0.43765-7.1295c-0.35108-5.7194-0.0554-7.6517 1.4951-9.77 1.063-1.4523 3.2997-4.9327 4.9704-7.7343l3.0377-5.0937 1.1906 3.4154c3.3974 9.7459 11.385 14.694 23.722 14.694 12.852 0 19.032-3.3936 23.082-12.675l2.074-4.753 1.3427 3.1686c4.242 10.01 12.289 14.523 25.87 14.507 13.604-0.0159 19.872-3.7335 24.097-14.291l1.6763-4.1894 2.0589 4.0993c2.8636 5.7015 7.9244 10.867 12.916 13.183 5.0713 2.353 14.993 2.6272 19.838 0.54827 4.1765-1.7921 9.2673-7.0666 12.714-13.173l2.5953-4.5976 1.3015 3.9435c1.7683 5.3581 7.7437 11.723 12.471 13.284 5.5754 1.841 17.861 1.5354 22.907-0.56979 5.3853-2.2464 10.336-7.04 12.712-12.308 1.025-2.2732 2.1788-4.133 2.5639-4.133s1.4379 1.5447 2.3396 3.4327c0.90168 1.888 3.4284 5.5716 5.615 8.1857l3.9756 4.753-0.76425 26.934c-0.42033 14.813-0.96387 27.138-1.2079 27.387-0.24399 0.24941-6.7353 0.86998-14.425 1.379-16.553 1.0958-20.464 2.8015-27.14 11.838l-4.1816 5.6605-11.094 0.75617-11.094 0.75617-1.6607 4.3655c-0.91337 2.401-2.5271 7.2173-3.5861 10.703l-1.9254 6.3373 0.11317-7.9216 0.11316-7.9216-46.738-0.27504-46.738-0.27504 1e-3 4.4999c2e-3 5.3037 3.7894 21.475 8.4056 35.885 3.598 11.232 2.4612 10.182 12.717 11.755 1.4523 0.22279-0.76649 0.4698-4.9306 0.54891-9.5267 0.18098-10.913 0.72336-10.913 4.2705 0 4.397 1.8106 5.3793 9.9148 5.3793h7.3799l-2.7021 2.9046c-3.3583 3.61-4.3376 7.5173-2.9103 11.612 1.2857 3.6881 4.7784 5.5519 10.404 5.5519 8.1574 0 12.647-9.5726 7.5368-16.069l-2.0635-2.6233 12.792-0.68779c7.0353-0.37829 15.182-0.68779 18.104-0.68779h5.3129l-2.8382 2.9624c-6.29 6.5653-2.0498 17.106 6.8813 17.106 5.2494 0 7.7956-1.3653 9.8097-5.2599 2.2131-4.2796 2.0065-6.5138-1.0134-10.964l-2.6087-3.8442h5.2249c4.2573 0 5.5106-0.44013 6.7673-2.3765 0.84833-1.3071 5.2558-14.37 9.7944-29.028l8.2519-26.652 6.8654-1e-3 6.8654-1e-3 3.25 6.0569c4.7733 8.8959 9.2241 11.617 21.586 13.197l10.019 1.2807-8.0068 0.66558c-10.321 0.85801-14.607 2.3268-18.827 6.4522-5.4575 5.3357-6.9101 8.9543-6.9062 17.204 2e-3 5.55 0.57671 8.4797 2.3023 11.75 4.5474 8.617 10.118 11.444 25.415 12.897l8.1345 0.77301-9.3893 0.71582c-6.5647 0.50047-10.838 1.4431-14.205 3.1333-12.7 6.3755-16.508 22.116-8.2959 34.295 5.1238 7.5994 10.107 9.6627 25.553 10.58l12.675 0.7525-14.383 1.2072c-16.012 1.3439-18.851 2.5988-24.577 10.861-2.4601 3.5499-2.761 4.9852-2.761 13.169v9.1851h-180.61z" fill="#047dc4" stroke-width="1.0562"/>
<path d="m500.87 60.999c-11.693-0.26209-14.686-0.63591-15.169-1.8942-0.33086-0.86222-0.0149-2.2746 0.70214-3.1386 1.1246-1.3551 9.0125-1.5663 57.418-1.5373 60.449 0.03619 61.495 0.12794 58.801 5.1609-1.1659 2.1785-1.5769 2.1968-44.181 1.9673-23.652-0.12742-49.559-0.37862-57.571-0.55821z" fill="#047dc4" stroke-width="1.0562"/>
<path d="m230.59 363.15c0.76245-0.30511 1.6734-0.26758 2.0244 0.0834 0.35098 0.35097-0.27285 0.60061-1.3863 0.55475-1.2304-0.0507-1.4807-0.30096-0.63813-0.63814z" fill="#047dc4" stroke-width="1.0562"/>
<path d="m148.6 457.84c-4.1796-2.5482-6.9353-8.4334-5.9817-12.775 0.37173-1.6925 2.2372-4.7327 4.1454-6.756 3.1444-3.334 4.0138-3.6788 9.2756-3.6788 4.3567 0 6.5328 0.57162 8.7171 2.2898 9.9178 7.8014 4.804 23.066-7.7242 23.056-3.0858-2e-3 -6.2465-0.80295-8.4323-2.1356z" fill="#047dc4" stroke-width="1.0562"/>
<path d="m533.45 462.16c-3.7187-3.8083-4.062-4.6525-4.062-9.9892 0-9.7848 4.6844-14.506 14.481-14.594 9.2588-0.0832 15.4 5.7017 15.376 14.484-0.0245 8.9168-5.9312 14.259-15.766 14.259-5.554 0-6.2478-0.28779-10.029-4.1599z" fill="#047dc4" stroke-width="1.0562"/>
<path d="m572.02 454.85c-0.76565-1.4306-0.80067-3.0108-0.10714-4.8349 1.2747-3.3528 6.1713-3.7275 8.9264-0.6832 1.747 1.9304 1.7297 2.1308-0.36441 4.2249-1.2091 1.2091-2.6348 2.1984-3.1682 2.1984-0.53341 0-1.6852 0.27452-2.5596 0.61003-0.9535 0.3659-2.0449-0.24048-2.7271-1.5152z" fill="#047dc4" stroke-width="1.0562"/>
<path d="m507.95 454.31c-1.334-3.4764 9e-3 -6.4689 3.0605-6.8188 3.8566-0.44221 6.197 1.577 5.7987 5.003-0.27032 2.3254-0.90684 2.7797-4.2868 3.0593-2.7671 0.22888-4.152-0.14774-4.5725-1.2434z" fill="#047dc4" stroke-width="1.0562"/>
</svg>
