<?xml version="1.0" encoding="UTF-8"?>
<svg width="1200" height="693.33" version="1.1" viewBox="0 0 1200 693.33331" xmlns="http://www.w3.org/2000/svg">
<path d="m404.67 490.67-122.66-122.67 134.66-134.75c145.16-145.25 141.64-142.03 162.44-148.64 10.068-3.1971 14.068-3.6277 92.228-9.9277 18.333-1.4777 44.32-3.5866 57.747-4.6864 30.779-2.5209 39.891-2.512 49.773 0.04868 21.419 5.5502 39.394 23.068 45.689 44.527 1.2804 4.3643 2.1052 12.047 2.0757 19.333-0.0584 14.436-7.2663 109.85-8.3827 110.97-1.8347 1.8347-28.748-19.837-34.276-27.6l-2.7232-3.8243 2.7154-35.142c1.4934-19.328 2.7154-38.879 2.7154-43.446 0-10.935-3.4547-17.731-11.657-22.933-5.1342-3.256-7.5852-3.9247-14.271-3.8934-4.4398 0.0208-43.472 2.953-86.739 6.5161-84.609 6.9677-84.92 7.0178-96.667 15.586-3.3 2.407-58.499 56.91-122.66 121.12l-116.66 116.74 94.66 94.667 94.66 94.667 120.35-120.33c66.191-66.184 120.68-121.38 121.09-122.67 1.0388-3.2524 2.1147-3.0123 12.273 2.7386 4.9275 2.7896 12.409 6.5 16.626 8.2454 4.2167 1.7454 7.6667 3.8455 7.6667 4.667 0 5.5275-20.334 26.801-142.44 149.02-73.816 73.883-134.52 134.33-134.89 134.33-0.37311 0-55.876-55.2-123.34-122.67zm140.6-37.736c-11.616-3.2854-21.836-11.933-28.21-23.87-2.6028-4.8746-3.0576-7.7107-3.0567-19.06 9e-4 -11.861 0.39254-14.075 3.5473-20.054 4.336-8.2167 13.86-17.222 22.217-21.008 9.5694-4.3347 26.449-4.0884 36.295 0.52973 10.519 4.9339 16.581 10.799 21.512 20.816 3.7715 7.661 4.2932 10.04 4.2867 19.553-0.012 18.358-8.185 31.88-23.961 39.647-9.9242 4.8857-22.753 6.241-32.63 3.4472zm20.674-26.235c17-8.2293 12.273-33.203-6.7236-35.529-10.534-1.2896-20.551 7.8909-20.551 18.834 0 6.954 4.2968 13.784 10.693 16.998 6.0012 3.0151 9.8735 2.9444 16.582-0.30295zm-115.27-87.362v-12.667h213.33v25.333h-213.33zm381.33-22.737c-47.487-10.183-98.934-52.296-123.71-101.26-2.8375-5.6088-6.0261-9.4645-10.668-12.899-9.1318-6.758-13.636-15.933-13.597-27.696 0.0685-20.46 13.673-34.083 33.971-34.017 15.205 0.0493 26.334 7.5116 32.223 21.606 2.886 6.9071 1.8555 22.394-1.9154 28.785l-2.7766 4.706 4.6562 7.7577c16.588 27.637 41.738 50.83 69.146 63.767 14.444 6.8174 21.594 8.6593 33.59 8.6527 10.877-5e-3 16.928-3.0528 19.823-9.9814 5.7812-13.836-2.3644-40.587-19.695-64.68l-7.1933-10 1.2909-27.667c0.70999-15.217 1.8338-27.667 2.4974-27.667 2.2397 0 27.219 25.92 34.846 36.159 21.313 28.61 31.697 56.1 31.668 83.839-0.0277 26.934-11.702 46.558-33.685 56.622-13.569 6.212-32.935 7.7375-50.476 3.976zm-285.43-5.0096c-13.298-3.7524-24.224-12.875-29.764-24.852-2.2322-4.826-2.8054-8.66-2.8011-18.734 5e-3 -11.229 0.42092-13.456 3.6656-19.622 4.8635-9.2423 11.803-15.962 20.878-20.218 10.006-4.6926 28.097-4.9925 37.612-0.62357 13.439 6.1707 24.012 20.729 25.873 35.624 1.6576 13.267-4.0004 28.33-14.302 38.074-10.158 9.6083-27.945 14.082-41.162 10.352zm17.804-25.415c13.805-5.8824 16.438-24.663 4.6352-33.068-5.754-4.0972-15.196-4.6405-20.69-1.1905-13.178 8.2752-12.657 26.219 0.96137 33.086 6.9161 3.4876 9.2361 3.6677 15.094 1.1718z" fill="#07002d" stroke-width="1.3333"/>
<path d="m405.72 490.18-122.24-122.25 116.93-117.05c122.69-122.81 151.06-150.4 162.64-158.13 14.134-9.4381 20.038-10.35 118.56-18.304 72.449-5.8495 87.534-6.3826 97.435-3.4433 24.094 7.1528 42.347 27.27 46.119 50.832 1.3886 8.6719-0.0441 38.526-4.3279 90.183-2.1853 26.352-2.8923 31.891-4.0706 31.891-0.52488 0-5.6573-3.6365-11.405-8.0811-11.663-9.0182-24.193-21.893-23.479-24.124 0.25647-0.80143 1.6524-18.706 3.1021-39.788 2.8675-41.7 2.5916-47.267-2.6985-54.454-1.5018-2.0404-4.9034-4.9867-7.559-6.5473-7.4993-4.407-14.115-4.1411-122.14 4.909-48.191 4.0372-60.142 5.6692-68.059 9.2939-5.4122 2.4778-15.927 12.279-64.58 60.199-31.964 31.482-86.285 85.449-120.71 119.93l-62.598 62.688 95.378 95.376 95.378 95.376 91.831-92.086c50.507-50.647 105.39-105.92 121.95-122.84l30.119-30.754 15.907 7.9931c8.7488 4.3962 16.349 8.435 16.889 8.9751 2.7638 2.7638-23.787 30.349-165.28 171.72l-110.83 110.73z" fill="#fff" stroke-width="1.1812"/>
<path d="m544.6 310.01c-9.1562-3.2494-16.226-8.2163-21.885-15.376-6.4355-8.1415-7.7365-12.699-7.7365-27.1 0-13.446 1.3813-17.633 9.0193-27.341 10.808-13.737 36.496-19.33 52.731-11.481 11.984 5.7938 23.06 21.483 24.651 34.919 2.1166 17.871-10.501 38.672-27.344 45.078-10.307 3.9198-20.756 4.3817-29.436 1.3013zm20.035-23.436c9.0463-4.1092 13.532-12.499 11.937-22.327-2.8501-17.563-28.269-20.591-36.217-4.3134-3.0411 6.2284-2.9611 10.602 0.31281 17.094 2.0808 4.1263 4.0495 5.9752 9.0704 8.5183 7.5346 3.8163 8.5968 3.8896 14.897 1.028z" fill="#fff" stroke-width="1.1812"/>
<path d="m451.79 339.58v-11.811h211.43v23.623h-211.43z" fill="#fff" stroke-width="1.1812"/>
<path d="m546.32 452.26c-11.642-3.1287-21.018-10.651-27.888-22.374-2.6696-4.5554-3.2944-7.2661-3.7699-16.358-0.82497-15.772 1.2722-22.116 10.61-32.099 4.0036-4.2799 9.9698-9.2016 13.258-10.937 5.381-2.84 7.2192-3.1555 18.381-3.1555 10.961 0 13.181 0.3651 19.105 3.1423 13.116 6.1487 22.75 18.741 24.706 32.292 1.1775 8.1589-0.73444 20.846-4.145 27.505-5.8028 11.33-18.155 20.075-31.91 22.593-8.7302 1.5979-10.337 1.5447-18.347-0.60807zm20.52-25.59c9.4553-5.4068 12.469-14.774 8.0025-24.871-7.0703-15.984-30.659-14.376-35.695 2.4328-5.0108 16.725 12.654 31.038 27.692 22.438z" fill="#fff" stroke-width="1.1812"/>
<path d="m835.6 316.57c-10.37-1.9716-27.255-7.7253-36.558-12.458-36.523-18.58-70.772-52.282-89.808-88.375-2.524-4.7854-6.3737-9.6019-10.642-13.314-3.678-3.199-8.2076-8.5951-10.066-11.991-2.8495-5.2079-3.3852-7.5618-3.4216-15.033-0.0568-11.683 2.5565-18.321 9.928-25.216 10.25-9.5881 25.859-11.586 38.897-4.9788 6.3112 3.1981 10.769 7.8739 14.523 15.233 3.6946 7.242 3.3947 21.348-0.62655 29.473l-2.9949 6.0516 4.287 7.1408c19.046 31.724 49.419 57.839 80.532 69.241 8.5022 3.1157 11.955 3.7414 21.362 3.8704 13.052 0.179 18.092-1.8611 21.554-8.7248 2.6207-5.1951 2.7406-18.113 0.25767-27.764-2.5253-9.8155-12.088-28.935-19.9-39.789l-6.5687-9.1259 1.219-23.356c0.67046-12.846 1.6684-24.95 2.2177-26.899l0.99864-3.5434 14.346 14.764c33.593 34.573 49.775 68.009 50.019 103.35 0.13999 20.258-4.8742 33.819-16.81 45.461-7.2341 7.0568-16.242 12.16-26.229 14.859-9.547 2.5806-26.165 3.092-36.518 1.1237z" fill="#fff" stroke-width="1.1812"/>
</svg>
