<?xml version="1.0" encoding="UTF-8"?>
<svg version="1.1" viewBox="0 0 890 890" xmlns="http://www.w3.org/2000/svg">
<g fill="#047dc4" stroke-width="1.459">
<path d="m399.77 883.87c-86.063-11.432-155.03-38.885-220.8-87.888-21.323-15.887-60.295-54.019-78.355-76.665-63.34-79.425-96.9-174.71-96.952-275.26-0.0258-49.873 7.1317-95.432 22.017-140.14 45.665-137.17 158.49-246.07 295.96-285.68 39.847-11.479 69.885-15.922 115.41-17.067 48.68-1.2254 89.757 4.1537 135.78 17.781 51.971 15.387 111.92 47.215 151.87 80.632 22.448 18.775 60.686 57.982 74.341 76.225 47.772 63.822 76.418 135.19 86.634 215.83 3.1013 24.481 2.3169 91.009-1.3568 115.08-5.053 33.103-14.824 69.566-26.663 99.5-14.052 35.53-40.716 81.505-64.731 111.61-18.212 22.833-48.288 52.754-73.631 73.252-30.542 24.702-78.918 52.112-116.57 66.048-33.86 12.532-79.087 23.342-109.88 26.262-14.771 1.4007-83.466 1.7525-93.071 0.47668zm-124.62-169.75c7.6886-3.9224 8.6732-6.8128 3.7603-11.039-5.1907-4.4649-12.687-6.3829-25.045-6.4081-5.6172-0.0117-13.66-0.43483-17.873-0.94086l-7.6598-0.92005v-60.872l23.709-0.0321c19.87-0.0268 24.654-0.46601 29.545-2.712 6.7471-3.0983 11.662-8.042 10.257-10.316-1.7845-2.8874-12.263-7.363-20.057-8.5668-7.4737-1.1543-7.2422-1.2225 7.6117-2.2433 8.4258-0.57905 17.782-1.4119 20.791-1.8507l5.4713-0.79788v108.22h281.59v-108.99l6.9303 1.0856c3.8117 0.59709 14.152 1.5886 22.98 2.2034l16.049 1.1178-10.286 1.7676c-16.672 2.8649-24.676 8.5049-18.712 13.186 6.8978 5.4149 10.434 6.203 31.94 7.119 12.024 0.51216 23.996 1.261 26.604 1.6642l4.7418 0.73298v60.835l-22.25 0.5679c-14.848 0.379-23.463 1.2196-25.898 2.5268-4.0596 2.1801-10.219 7.4793-10.203 8.7788 0.01 0.46196 2.4182 2.4813 5.3616 4.4875l5.3517 3.6475 108.88 0.89216 6.718-4.6222 6.7181-4.6222-11.078-11.345h-12.621c-6.9416 0-16.657-0.42182-21.589-0.93736l-8.9682-0.93735v-59.194l7.6599-0.77404c4.2129-0.42573 15.588-1.0914 25.278-1.4793 9.6901-0.38786 19.323-1.482 21.407-2.4313 5.4048-2.4626 10.539-14.845 28.139-67.863 18.118-54.578 19.603-60.761 16.182-67.377-3.0637-5.9244-4.8975-5.9223-11.679 0.0131-5.9258 5.1868-7.2488 8.3948-27.895 67.635-12.333 35.386-16.008 43.829-20.014 45.973-3.2005 1.7129-24.488 3.6842-24.488 2.2677 0-0.49645 1.8546-1.8617 4.1213-3.0338s6.206-4.0787 8.7541-6.4589l4.6328-4.3277v-19.687c0-15.996 0.5834-21.563 3.1115-29.689 2.8604-9.195 3.0301-11.945 2.1028-34.076-0.5548-13.241-1.4682-26.666-2.0297-29.834l-1.0209-5.7603-7.5455 10.137c-7.9411 10.669-17.08 19.988-24.721 25.207-5.1014 3.4848-20.295 7.4904-28.537 7.5234-2.9619 0.0117-5.7232 0.56844-6.1363 1.2368-0.4131 0.6684 0.8613 3.5881 2.8319 6.4882 3.0169 4.4397 3.583 7.0006 3.583 16.207 0 6.8197-0.647 11.334-1.7194 11.997-0.9458 0.58448-26.33 1.605-56.409 2.2679s-55.075 1.5908-55.547 2.062c-0.4718 0.47125-1.0405 31.989-1.2638 70.04l-0.406 69.183h-7.6451l0.937-12.037c0.5153-6.6203 0.9409-39.769 0.9457-73.663l0.01-61.626 113.07-0.76378v-18.967l-40.854-13.458c-22.469-7.4019-50.701-17.025-62.738-21.385-12.037-4.3599-31.734-10.45-43.77-13.534l-21.885-5.6067h-42.312c-50.078 0-40.412-1.9769-122.17 24.985-66.089 21.793-85.221 28.959-87.203 32.661-1.8802 3.5133-1.8526 9.6388 0.06 13.212 1.4559 2.7205 3.6889 2.8221 62.008 2.8221h60.498v147.36h-8.7541v-139.62l-15.547-0.95122c-8.5507-0.52319-29.068-0.95463-45.594-0.95878-16.526-4e-3 -36.449-0.43146-44.273-0.94957l-14.225-0.94201 0.01-10.358c0.01-11.018 2.2796-16.424 9.033-21.518 1.8235-1.3754 2.9397-2.8766 2.4804-3.3358-0.4592-0.45926-5.8679-1.4731-12.019-2.253-18.323-2.3231-27.235-8.5441-44.504-31.066l-11.172-14.569-1.3381 9.2352c-1.5211 10.498 2.6943 103.15 5.1401 112.97 0.9339 3.7512 3.381 7.5376 6.8501 10.599l5.3965 4.7629-23.056-0.77172-19.314-55.567c-10.623-30.562-20.408-57.682-21.745-60.268-2.1599-4.1768-3.0306-4.6509-7.8113-4.2528-7.8106 0.65039-9.6816 5.2106-7.4937 18.264 1.7781 10.609 31.99 104.02 36.581 113.11 5.0215 9.9366 7.308 10.599 36.575 10.599h25.962v63.467l-17.873 9e-3c-19.878 9e-3 -26.895 1.3977-32.822 6.496l-4.0112 3.4503 4.2858 3.4121c2.3572 1.8767 5.3101 4.212 6.562 5.1895 1.69 1.3196 15.726 1.7893 54.494 1.8238 49.773 0.0442 52.492-0.0934 58.067-2.9376zm385.86-198.37c26.15-4.798 28.819-6.2946 42.987-24.099 11.028-13.859 17.479-25.299 17.479-30.996 0-4.6541-13.099-46.882-15.89-51.224-0.7107-1.1059-2.0212-1.5602-2.9122-1.0095-0.8909 0.55065-6.8585 11.359-13.261 24.018-12.662 25.034-20.197 35.043-29.048 38.585-7.0943 2.8386-19.595 4.5854-23.085 3.226-2.2196-0.86438-1.9532-1.2982 1.7621-2.8692 2.4074-1.018 7.9881-2.6598 12.402-3.6487 13.053-2.9244 15.717-4.4521 20.346-11.666 8.1035-12.628 26.546-51.185 26.074-54.51-0.4508-3.1717-0.9096-3.2456-20.158-3.2456-18.763 0-20.014 0.18638-26.386 3.9325-6.7284 3.9555-12.852 10.606-21.567 23.424-2.5916 3.8117-5.2471 6.9303-5.901 6.9303-0.654 0-3.6669-5.909-6.6955-13.131-3.0757-7.3346-6.3761-13.131-7.4767-13.131-2.3728 0-6.2705 6.0835-16.553 25.835-9.641 18.52-13.802 23.53-20.471 24.647l-5.1065 0.85569 5.3746-4.8782c2.9561-2.683 7.7411-8.6609 10.634-13.284 5.9158-9.4563 18.279-35.427 18.279-38.399 0-1.0683-2.3337-2.3779-5.1933-2.9144-5.0098-0.93984-20.579 0.18578-24.76 1.7901-1.5079 0.57862-15.764 17.095-19.184 22.226-0.4843 0.72644-20.515-11.165-21.505-12.767-0.4148-0.67115 1.7897-1.9824 4.8988-2.9139 11.95-3.5804 18.642-16.9 20.111-40.031 0.9191-14.468-0.5009-18.87-7.2059-22.337-4.3101-2.2288-26.465-4.8441-41.567-4.9069l-9.0528-0.0376-0.7636 4.7418c-1.9528 12.126-3.7378 31.986-3.7415 41.629 0 10.667 2.3426 19 6.7089 23.825 2.02 2.232 1.6233 3.3369-4.3079 12-3.9737 5.8042-7.2186 12.607-8.284 17.368-2.3506 10.504-1.3972 30.933 1.5827 33.913 1.2384 1.2384 16.664 6.7956 34.278 12.349s43.718 14.431 58.007 19.728c14.29 5.2968 29.39 10.549 33.557 11.672 10.862 2.9263 27.212 2.6767 45.594-0.69617zm-381.62-3.0061c5.2159-0.80643 35.418-10.204 67.115-20.882 56.649-19.085 57.676-19.501 60.275-24.385 5.9545-11.19 0.5526-34.25-11.456-48.905-3.3149-4.0453-4.518-6.556-3.4561-7.2123 0.8959-0.55371 2.8593-3.7161 4.363-7.0276 3.2511-7.1592 3.6353-29.986 0.8628-51.25l-1.7121-13.131-8.0246-0.46493c-9.3056-0.53914-35.012 2.0963-41.972 4.3031-6.4257 2.0373-9.0935 7.6936-9.0935 19.28 0 11.135 4.0818 25.354 9.9074 34.513 3.9048 6.1389 7.0794 8.5842 14.148 10.897 2.413 0.78971 1.1888 2.0562-7.2951 7.5467l-10.195 6.5978-5.1066-6.2964c-2.8086-3.463-7.6779-8.7692-10.821-11.791l-5.7141-5.495h-15.806c-14.271 0-15.806 0.25609-15.806 2.6365 0 1.4501 4.2103 11.16 9.3563 21.578 10.87 22.005 17.662 30.029 28.151 33.253 6.82 2.0962 5.6288 2.9708-3.2136 2.3595-6.3461-0.43866-12.018-3.8097-15.432-9.1722-1.6444-2.5826-8.0383-14.162-14.208-25.733-6.1702-11.571-11.894-21.261-12.72-21.535-0.8259-0.27353-4.0207 7.1564-7.0995 16.511l-5.5978 17.008-4.5674-8.6045c-6.3053-11.879-20.434-26.127-27.922-28.16-6.3543-1.7247-29.881-1.9227-35.746-0.3008-2.0857 0.57675-3.8302 2.2592-4.0742 3.9291-0.4061 2.7806 19.402 45.075 25.042 53.471 3.9183 5.8325 10.676 9.4684 23.675 12.737l11.529 2.8994-10.371-0.48319c-18.854-0.87837-23.679-5.4802-42.936-40.946-6.1237-11.278-12.032-20.506-13.128-20.506-1.1111 0-4.9342 6.4619-8.632 14.59l-6.6376 14.59v35.016l4.985 7.182c8.506 12.255 24.662 28.249 30.51 30.204 12.342 4.1264 46.028 4.7032 68.825 1.1786zm-173.73-35.776c2.4689-2.0775 4.489-4.7678 4.489-5.9784 0-2.3815-9.8185-30.829-15.477-44.841-4.4518-11.025-7.1784-13.977-12.908-13.977-10.531 0-10.677 8.1818-0.68888 38.566 9.8191 29.871 14.422 34.782 24.585 26.23zm697.44-1.5562c3.0543-3.8829 15.439-40.403 17.038-50.24 0.968-5.957-3.8923-17.377-7.3954-17.377-4.8775 0-11.953 13.385-21.102 39.92-6.4109 18.595-7.2969 25.656-3.6738 29.279 3.7407 3.7408 11.592 2.9202 15.133-1.5817zm-480.96-80.844c3.8196-1.0607 5.9806-2.6956 6.9568-5.2631 0.8113-2.134 1.2489-18.14 1.0248-37.482l-0.3913-33.757-24.803 0.31419c-35.378 0.44813-40.176 2.8047-43.925 21.571l-1.7485 8.7541-0.143-14.011c-0.079-7.7063-0.556-17.963-1.0608-22.794l-0.918-8.7822-29.357 0.63383c-33.063 0.71385-38.968 1.9968-45.988 9.9918-7.9577 9.0633-9.6917 24.73-4.4571 40.269 9.3691 27.812 30.04 41.274 61.945 40.344l14.43-0.42099 2.8792-4.9366c2.2036-3.7782 3.0395-8.5428 3.5626-20.305l0.6835-15.368 2.5072 8.1032c3.0818 9.9602 10.226 20.16 17.796 25.406 11.798 8.1758 28.244 11.278 41.005 7.7337zm282.6-2.1551c10.752-3.286 19.245-11.761 22.612-22.564 1.3735-4.4073 2.8023-14.579 3.1751-22.603 0.6027-12.973 0.3402-15.126-2.3677-19.42-4.8446-7.6823-9.7507-8.8827-38.2-9.3471l-25.331-0.41347-0.9665 7.2951c-1.6393 12.375-1.3737 60.458 0.3518 63.682 3.9353 7.3532 22.632 8.9004 40.726 3.3704zm79.759-1.7796c4.9418-1.5814 11.033-4.3335 13.536-6.1159 9.5228-6.7808 18.176-31.343 18.271-51.862 0.053-11.577-0.3535-13.712-3.4391-18.038-5.8614-8.2182-10.479-9.2886-45.377-10.52-17.253-0.60868-31.566-0.90991-31.807-0.66939-1.0574 1.0549-2.0867 72.238-1.1362 78.574 0.6017 4.0111 2.3473 8.3274 4.0606 10.041 2.7889 2.7889 4.2253 2.9498 19.956 2.2352 10.938-0.49689 20.138-1.7899 25.936-3.6452zm-228.99-88.982c6.2943-3.4676 12.565-11.778 19.6-25.975 5.3494-10.796 6.0114-13.401 7.2178-28.409 0.7459-9.2796 2.1996-17.851 3.3159-19.551 1.0933-1.6655 7.9372-9.835 15.209-18.154 21.094-24.134 26.528-36.874 26.558-62.26 0.03-25.481-5.6986-39.993-22.29-56.465-11.402-11.32-26.636-19.488-45.447-24.367-15.889-4.1209-24.288-3.8308-40.265 1.3902-35.466 11.59-54.499 29.506-61.983 58.344-1.8846 7.2621-2.3066 13.585-1.8015 26.992 0.9698 25.742 3.08 30.319 24.033 52.127 9.7656 10.164 17.867 19.988 19.466 23.603 1.5066 3.4059 4.088 14.679 5.7365 25.051 4.1542 26.137 6.0195 31.117 14.698 39.234 3.9844 3.727 9.3677 7.6994 11.963 8.8275 6.6306 2.8824 18.398 2.6922 23.989-0.38785z"/>
<path d="m433.73 243.31-8.3489-0.52523-3.1007-10.506c-4.1982-14.225-6.9119-18.324-23.498-35.49-19.192-19.863-24.547-30.521-24.547-48.851 0-11.823 0.3757-13.389 5.8185-24.264 7.2178-14.421 15.869-22.799 32.308-31.286l12.21-6.304h18.313c18.17 0 18.398 0.04209 29.18 5.3806 22.4 11.091 35.181 29.378 36.164 51.747 0.969 22.034-4.4624 34.072-25.17 55.788-15.071 15.805-19.203 21.812-20.432 29.704-0.4686 3.0092-1.21 7.7693-1.6476 10.578l-0.7956 5.1066-9.0528-0.27587c-4.979-0.15173-12.81-0.51224-17.402-0.80111zm5.1242-64.77c3.3785-1.7101 14.842-11.731 25.475-22.269 15.58-15.442 19.332-19.948 19.332-23.219 0-5.9765-5.8906-11.222-12.602-11.222-5.036 0-6.6494 1.2613-21.74 16.995-11.866 12.372-16.854 16.658-18.336 15.757-1.1192-0.6813-5.9109-4.0826-10.648-7.5585-4.7374-3.4759-9.3017-6.0904-10.143-5.81-1.6104 0.53679-5.2413 12.808-5.2893 17.876-0.016 1.659 4.0119 7.3008 9.1138 12.766 10.418 11.16 14.06 12.14 24.838 6.6844z"/>
</g>
</svg>
