<?xml version="1.0" encoding="UTF-8"?>
<svg width="346.67" height="186.67" version="1.1" viewBox="0 0 346.66666 186.66667" xmlns="http://www.w3.org/2000/svg">
<path d="m166 182.66c-2.9333-0.9907-17.033-5.4831-31.333-9.9831-14.3-4.5-26.68-8.8715-27.512-9.7146-0.89882-0.9113-2.673-16.611-4.3758-38.719-1.5752-20.452-4.2822-55.115-6.0155-77.029-2.0273-25.629-2.7089-40.672-1.9107-42.167 1.1599-2.1725 6.2806-2.3241 78.48-2.3241 72.881 0 77.312 0.13426 78.518 2.3795 0.8321 1.5487 0.64532 10.012-0.53492 24.238-0.99738 12.022-3.7171 46.66-6.0439 76.973-2.6055 33.945-4.8147 55.709-5.7515 56.66-1.4979 1.5209-64.283 21.796-66.863 21.592-0.72882-0.0576-3.7251-0.91542-6.6585-1.9061zm28.956-37.836 20.796-6.645 0.75775-6.3038c0.41676-3.4671 1.3868-15.268 2.1555-26.225 0.76879-10.957 1.711-21.864 2.0938-24.238l0.69604-4.3163h-73.291l-0.80702-6.3084c-0.44386-3.4696-1.1078-8.2507-1.4754-10.625l-0.66844-4.3163h77.454l0.012-2.9882c7e-3 -1.6435 0.38995-6.1258 0.85239-9.9606l0.8408-6.9724h-102.02l0.81688 8.3005c0.44929 4.5653 1.4562 17.564 2.2376 28.886 0.78136 11.322 1.6648 21.332 1.9633 22.245 0.4161 1.2731 8.8342 1.6601 36.109 1.6601h35.566l-0.92793 12.244c-0.51038 6.7341-1.0516 12.367-1.2026 12.517-0.15107 0.15049-5.4086 1.6283-11.683 3.284l-11.409 3.0104-11.58-3.0997-11.58-3.0997v-15.559h-22.879l0.81262 8.9646c0.44694 4.9305 1.1373 12.098 1.5341 15.927l0.7215 6.9622 20.239 6.5577c11.131 3.6067 20.875 6.5995 21.652 6.6506 0.77734 0.0511 10.771-2.8973 22.209-6.552z" fill="#fa480b" stroke-width="1.3307"/>
<path d="m167.32 182.9c-2.4822-0.80678-12.561-4.0357-22.398-7.1754-20.767-6.6283-29.188-9.4352-34.158-11.386l-3.5694-1.4007-0.36796-1.7157c-0.59744-2.7858-1.5972-11.15-2.5083-20.985-0.77005-8.3123-7.1236-89.05-8.3524-106.14-1.2078-16.796-1.5314-27.652-0.8617-28.904 1.1301-2.1116 3.5435-2.1788 78.4-2.1826 69.451-0.0035 74.312 0.086625 77.054 1.4288 2.3326 1.1417 2.3037 3.3387-0.50951 38.683-0.81952 10.296-2.4695 31.357-3.6667 46.802-2.5142 32.435-3.8582 48.281-5.0329 59.338-0.79631 7.4953-1.6286 13.291-1.9554 13.618-0.95521 0.95521-43.709 15.053-59.692 19.684-7.1444 2.0697-7.0504 2.0672-12.382 0.33436zm12.294-33.175c2.8087-0.80893 11.534-3.5193 19.389-6.023 7.8554-2.5037 14.842-4.7006 15.526-4.882 0.68373-0.18135 1.3165-0.57588 1.4062-0.87673 0.31985-1.073 1.5495-14.467 2.5362-27.625 1.4195-18.93 1.9692-25.265 2.5216-29.059 0.26571-1.8251 0.4831-3.5174 0.4831-3.7608 0-0.36452-6.4547-0.44256-36.606-0.44256-23.872 0-36.606-0.11484-36.606-0.33012 0-0.18157-0.5403-4.2809-1.2007-9.1096s-1.2817-9.4188-1.3807-10.2l-0.17999-1.4208h77.207l0.213-4.0951c0.18448-3.547 0.70191-8.7097 1.4407-14.375l0.20708-1.5879h-51.191c-28.155 0-51.189 0.11282-51.188 0.25072 2e-3 0.1379 0.14629 1.5294 0.32173 3.0923 0.50441 4.4932 1.2673 13.774 2.3494 28.582 1.3793 18.874 1.628 21.869 2.1928 26.402 0.17621 1.4143 0.2605 1.5166 1.5316 1.8589 2.7007 0.72722 12.759 0.9663 41.156 0.9782l29 0.01216v1.1247c0 1.6442-1.6364 21.619-1.8563 22.658-0.14264 0.6743-0.47917 0.96108-1.4218 1.2116-0.67922 0.18052-5.8141 1.5604-11.411 3.0664l-10.176 2.7381-11.285-3.0304c-6.2069-1.6667-11.368-3.0304-11.47-3.0304s-0.18458-3.5352-0.18458-7.856v-7.856h-23.388l0.16919 1.4208c0.0931 0.78142 0.69812 7.062 1.3446 13.957s1.282 13.489 1.4123 14.654l0.23694 2.1174 10.196 3.3208c9.5182 3.1 27.78 8.8704 30.421 9.6128 1.461 0.4106 1.9967 0.31379 8.2826-1.4966z" fill="#fff" stroke-width=".3343"/>
</svg>
