<?xml version="1.0" encoding="UTF-8"?>
<svg version="1.1" viewBox="0 0 900 512" xmlns="http://www.w3.org/2000/svg">
<g transform="matrix(1.6538 0 0 1.6538 -294.15 -167.31)">
<path d="m320 256v-130h260v260h-260zm122.18 106.29c6.5672-2.9702 13.184-9.4228 15.961-15.566l2.3633-5.227 0.28585-48 0.28585-48-12.036-0.03235-12.036-0.03235-2e-3 44.532c-2e-3 50.77 0.0652 50.3-7.5457 52.932-7.3022 2.5247-15.308-0.8514-19.014-8.0184-0.81937-1.5845-2.0407-2.8471-2.7141-2.8058-1.779 0.10902-18.011 10.284-18.435 11.556-0.62679 1.8804 7.4997 11.655 12.446 14.97 7.5068 5.0311 13.218 6.407 25.264 6.0863 8.1145-0.21606 11.562-0.76002 15.176-2.3943zm91.893 1.0968c10.657-3.1596 17.972-8.6287 21.938-16.402 4.3236-8.475 4.2805-23.585-0.0918-32.156-4.5721-8.9621-10.738-13.08-39.998-26.714-5.8524-2.7269-8.8538-5.945-9.5364-10.225-0.74609-4.6778 0.96509-8.5233 4.8455-10.889 6.2306-3.7988 14.193-1.9603 19.525 4.5083l3.1001 3.761 9.0751-5.7262c4.9913-3.1494 9.0751-5.9632 9.0751-6.2528 0-1.8964-7.8384-10.614-11.766-13.086-7.2668-4.5738-11.719-5.6803-22.734-5.6499-8.7731 0.0242-10.751 0.36918-16.117 2.8118-7.3279 3.3351-13.464 9.314-16.553 16.13-3.2011 7.0622-3.143 19.792 0.12457 27.26 2.9294 6.6959 11.828 15.063 20.273 19.062 3.45 1.6337 10.62 5.0324 15.934 7.5528 11.147 5.2875 13.839 8.0351 13.839 14.125 0 5.3929-2.6237 8.809-8.4849 11.047-9.4666 3.6153-21.719-0.0693-28.42-8.5465l-3.752-4.7466-9.4215 5.5164c-5.1818 3.034-9.5774 5.6452-9.7679 5.8026-0.19052 0.1574 1.0089 2.256 2.6654 4.6636 6.0865 8.8465 15.36 15.236 26.446 18.221 7.3017 1.9664 23.062 1.9301 29.804-0.0687z" fill="#f4dd17"/>
<path d="m411.5 363.38c-2.75-0.87251-7.144-3.0233-9.7644-4.7795-4.9463-3.315-13.073-13.089-12.446-14.97 0.42399-1.272 16.656-11.447 18.435-11.556 0.67338-0.0413 1.8947 1.2214 2.7141 2.8058 3.7062 7.167 11.712 10.543 19.014 8.0184 7.6109-2.6314 7.544-2.1616 7.5457-52.932l2e-3 -44.532 12.036 0.0323 12.036 0.0324-0.28585 48-0.2863 48-2.3633 5.227c-2.7774 6.143-9.3939 12.596-15.961 15.566-6.2523 2.8278-23.287 3.4317-30.676 1.0875zm92.765 0.078c-11.086-2.9855-20.359-9.375-26.446-18.221-1.6565-2.4076-2.8559-4.5062-2.6654-4.6636 0.19051-0.1574 4.5861-2.7686 9.7679-5.8026l9.4215-5.5164 3.752 4.7466c6.7008 8.4771 18.954 12.162 28.42 8.5465 5.8612-2.2384 8.4849-5.6544 8.4849-11.047 0-6.0896-2.692-8.8372-13.839-14.125-5.3135-2.5204-12.484-5.9191-15.934-7.5528-8.445-3.9989-17.344-12.366-20.273-19.062-3.2675-7.4688-3.3257-20.198-0.12457-27.26 3.0895-6.816 9.2253-12.795 16.553-16.13 5.3669-2.4426 7.3443-2.7876 16.117-2.8118 11.014-0.0304 15.467 1.0761 22.734 5.6499 3.928 2.4723 11.766 11.19 11.766 13.086 0 0.28964-4.0838 3.1034-9.0751 6.2528l-9.0751 5.7262-3.1001-3.761c-5.332-6.4687-13.294-8.3072-19.525-4.5083-3.8804 2.3659-5.5916 6.2114-4.8455 10.889 0.68261 4.2798 3.684 7.4979 9.5364 10.225 29.26 13.634 35.426 17.752 39.998 26.714 4.3723 8.5704 4.4154 23.681 0.0918 32.156-3.9656 7.7732-11.281 13.242-21.938 16.402-6.7419 1.9988-22.502 2.0351-29.804 0.0687z" fill="#040300"/>
</g>
<path d="m538.19 432.23c-17.346-5.6144-32.114-16.028-41.08-28.966-4.9499-7.1427-5.2779-6.7018 12.796-17.201l12.828-7.4519 7.3672 7.819c10.879 11.546 17.599 14.553 32.612 14.592 9.6197 0.0248 13.505-0.61133 18.032-2.9524 11.368-5.879 14.132-20.642 5.5744-29.774-2.4649-2.6306-14.084-9.2641-28.8-16.443-20.576-10.037-26.322-13.564-34.631-21.257-5.557-5.1449-11.553-12.338-13.559-16.265-3.2162-6.2976-3.5959-8.7929-3.5959-23.63 0-15.23 0.31843-17.193 3.8872-23.957 4.4673-8.4674 15.71-19.167 24.725-23.531 9.2225-4.4645 21.676-6.3227 34.774-5.1886 17.52 1.5169 25.663 5.2208 37.933 17.254 5.763 5.6519 10.473 10.903 10.467 11.67-7e-3 0.76643-6.2913 5.4696-13.967 10.451l-13.956 9.058-5.8677-5.6554c-10.436-10.058-19.842-12.664-30.076-8.332-7.9264 3.3549-10.412 7.3712-10.412 16.824 0 6.9519 0.61729 9.0507 3.6064 12.262 1.9835 2.1309 14.635 9.4053 28.115 16.165 38.852 19.485 47.153 26.409 52.233 43.572 2.9416 9.9382 2.9257 28.604-0.0324 38.017-4.5956 14.624-18.683 27.207-36.683 32.767-12.503 3.8619-40.577 3.9447-52.288 0.15414z" fill="#047dc4" stroke-width="1.4425"/>
<path d="m387.45 433.02c-3.1736-1.0493-8.0045-3.0717-10.735-4.4943-6.3561-3.3111-19.428-15.655-23.422-22.117l-3.0866-4.9943 3.4754-2.6286c1.9115-1.4457 8.5153-5.6782 14.675-9.4055l11.2-6.7768 8.2744 8.7647c8.8506 9.3751 14.204 11.58 24.185 9.9599 8.8998-1.4442 12.697-4.1667 14.465-10.37 1.5952-5.5967 3.5109-75.284 3.5195-128.03l3e-3 -24.162h37.683l-0.44898 79.7-0.44897 79.7-4.0686 7.7259c-5.3005 10.065-15.577 19.955-25.503 24.543-6.9325 3.2045-10.21 3.7192-25.966 4.078-12.111 0.27578-19.926-0.21581-23.802-1.4972z" fill="#047dc4" stroke-width="1.4425"/>
<path d="m235.26 256.08v-214.94h428.43v429.88h-428.43zm202.32 176.35c9.4963-4.2782 21.905-16.451 26.679-26.171l3.9739-8.0919 0.46717-80.421 0.46718-80.421h-40.604l-0.0987 46.522c-0.13098 61.806-1.7354 104.72-4.0762 109.03-2.159 3.9788-9.7272 7.4512-16.24 7.4512-7.3902 0-16.659-5.3431-21.517-12.404-2.4024-3.4918-5.3827-6.3488-6.6228-6.3488-2.0894 0-22.287 11.724-28.435 16.506-4.0619 3.1591-2.1721 7.6616 7.7694 18.511 8.6151 9.4018 18.75 15.808 29.236 18.48 2.5536 0.65076 13.082 1.0165 23.396 0.81279 15.536-0.30686 19.929-0.90007 25.606-3.4578zm151.57 1.8071c16.55-4.3108 30.029-14.275 36.449-26.944 4.731-9.3362 6.7324-24.491 4.9211-37.262-3.513-24.77-12.886-33.714-58.237-55.572-22.342-10.768-28.314-16.054-28.314-25.059 0-9.2117 8.8442-17.455 18.728-17.455 6.7526 0 13.072 3.3172 20.017 10.508l6.2872 6.5095 14.979-9.5905c9.414-6.0276 14.983-10.509 14.99-12.062 0.0192-4.0754-16.421-20.416-24.767-24.618-9.6722-4.869-25.887-7.2677-40.625-6.0099-21.475 1.8327-40.266 15.19-47.17 33.529-2.5935 6.8895-3.0121 10.57-2.5782 22.668 1.0153 28.308 10.179 38.758 53.103 60.558 16.808 8.5363 28.412 15.318 29.778 17.402 1.2307 1.8782 2.5378 5.874 2.9047 8.8795 1.5271 12.508-10.749 21.379-28.166 20.352-12.414-0.73185-21.612-5.3744-30.577-15.433-4.994-5.6031-7.6012-7.5044-9.3636-6.8281-2.126 0.81579-29.271 16.376-30.738 17.62-0.30043 0.25464 1.5534 3.735 4.1197 7.7341 8.9352 13.924 26.4 26.359 43.471 30.95 10.597 2.8499 40.046 2.9213 50.789 0.12304z" fill="#fff" stroke-width="1.4425"/>
</svg>
