<?xml version="1.0" encoding="UTF-8"?>
<svg version="1.1" viewBox="0 0 360 231" xmlns="http://www.w3.org/2000/svg">
<path d="m131.26 206.94c-4.7614-1.4557-9.7692-7.0198-12.225-13.583-3.6066-9.6395-3.735-21.252-0.44672-40.392l0.60766-3.537-5.5974-1.7644c-8.4586-2.6664-22.507-10.087-27.852-14.713-16.804-14.541-12.806-30.903 10.757-44.014 3.85-2.1424 10.375-5.1073 14.5-6.5887 4.125-1.4814 7.6256-2.7784 7.7791-2.8821s-0.40899-4.1344-1.25-8.9571c-4.0192-23.048 0.15804-41.32 10.688-46.751 10.985-5.6664 31.456 1.7483 48.473 17.557l3.1899 2.9635 4.7789-4.2066c13.125-11.553 27.009-18.367 37.568-18.437 5.8802-0.03885 7.2531 0.32749 10.911 2.9114 10.482 7.405 13.389 25.242 8.3915 51.5l-0.67455 3.5445 5.8227 1.8132c8.6774 2.7022 22.139 9.954 27.983 15.074 5.6584 4.958 10.34 13.119 10.34 18.024 0 4.9084-4.6813 13.066-10.34 18.018-6.5815 5.76-18.353 11.962-31.775 16.74-1.4511 0.51664-1.4818 1.3175-0.30261 7.9082 2.5845 14.445 1.4504 32.108-2.5606 39.879-4.0812 7.9075-12.543 11.731-22.07 9.9724-7.8086-1.4411-20.136-7.8695-29.775-15.527l-8.3229-6.612-4.4256 4.0794c-6.1449 5.6642-18.448 13.531-24.992 15.979-6.6535 2.4894-14.801 3.3389-19.18 2zm14.837-10.471c5.3459-1.8861 16.893-9.1231 22.825-14.305l4.4183-3.8597-6.4183-7.4213c-3.5301-4.0817-7.5433-8.852-8.9183-10.601-2.3458-2.9832-3.2406-3.302-14.504-5.1666-6.6021-1.093-12.72-2.2621-13.596-2.5981-3.5866-1.3763-5.4085 27.703-2.306 36.808 2.8211 8.2794 8.7689 10.576 18.498 7.1435zm81.312 0.39424c6.8247-3.1095 9.0854-19.501 5.4014-39.164-0.87184-4.6534-1.4016-5.6824-2.674-5.1941-1.4618 0.56093-23.398 4.4972-25.062 4.4972-0.40211 0-2.1999 2.0453-3.9952 4.5451s-5.7303 7.2089-8.7445 10.465l-5.4805 5.9196 3.7318 3.2853c14.596 12.85 29.274 19.087 36.823 15.647zm-40.605-32.668 5.4588-6.1931h-11.689c-9.0831 0-11.522 0.27863-10.94 1.25 1.9772 3.3038 9.8907 11.743 10.745 11.458 0.53168-0.17723 3.4232-3.1091 6.4255-6.5153zm13.815-17.996c2.5625-3.4549 15.498-26.038 16.626-29.025 0.9696-2.5688 0.86455-3.7338-0.62054-6.882-2.6158-5.5452-15.472-26.923-16.899-28.1-1.1753-0.96948-14.721-1.5389-30.992-1.3028l-7.7702 0.11275-4.9069 7.5166c-2.6988 4.1341-7.0444 11.708-9.6569 16.83l-4.75 9.3138 4.3078 8.4197c2.3693 4.6308 6.6979 12.108 9.6193 16.615l5.3116 8.1957 5.3078 0.4373c2.9193 0.24052 11.576 0.24116 19.236 1e-3 11.606-0.36319 14.138-0.71886 15.187-2.133zm-27.462-13.264c-7.5904-3.0409-12.141-9.9642-12.148-18.483-8e-3 -9.5348 5.1055-16.15 14.407-18.638 12.07-3.2283 23.874 6.0113 23.874 18.688 0 5.9259-2.915 12.121-7.1699 15.239-5.3794 3.9413-13.629 5.3309-18.963 3.1942zm-26.37 10.817c-0.79603-1.2375-3.3829-5.5274-5.7486-9.5331s-4.4681-7.1162-4.6721-6.9123c-0.82652 0.82652-5.3241 15.067-4.8943 15.496 0.63652 0.63651 11.488 2.9705 14.397 3.0965 2.2191 0.0962 2.2757-0.0363 0.91769-2.1475zm75.021 0.82757c3.4672-0.7437 6.5511-1.5994 6.8532-1.9014s-0.68361-4.2513-2.1905-8.776l-2.7397-8.2267-1.5116 2.885c-0.83138 1.5867-3.448 6.1602-5.8146 10.163-4.8418 8.1896-4.9467 8.0759 5.4032 5.8559zm-98.857-8.8276c0.695-2.3375 2.7866-8.0384 4.6479-12.669l3.3843-8.4186-3.3837-8.5814c-1.861-4.7198-3.9526-10.494-4.6479-12.831s-1.6575-4.25-2.1382-4.25c-0.48068 0-4.412 1.3644-8.7362 3.032-15.3 5.9004-27.073 15.682-27.073 22.493 0 6.7419 10.847 15.847 26.388 22.151 4.4616 1.8097 8.6032 3.2979 9.2036 3.3071 0.60044 9e-3 1.6603-1.8957 2.3553-4.2332zm123.78 1.7024c17.143-6.4484 28.25-15.489 28.266-23.008 0.0138-6.3799-10.444-15.534-24.352-21.318-11.921-4.9569-12.081-4.9562-13.547 0.05939-0.69343 2.3726-2.7984 8.195-4.6778 12.939l-3.417 8.6248 2.3694 5.3752c1.3031 2.9564 3.4169 8.6377 4.6972 12.625 1.2803 3.9875 2.679 7.25 3.1082 7.25 0.42919 0 3.8281-1.1464 7.5532-2.5476zm-103.92-45.452c2.7523-4.675 4.8358-8.6738 4.6299-8.8861-0.36594-0.37748-11.132 1.4721-14.77 2.5374-2.0825 0.60982-1.8998 1.9742 1.4708 10.983 1.1426 3.0539 2.4347 5.1731 2.8714 4.7093s3.0458-4.6683 5.7981-9.3433zm83.736 2.476c1.5093-4.1382 2.4792-7.7889 2.1554-8.1127-0.66793-0.66794-12.317-3.2747-14.874-3.3282-1.2898-0.02702-0.39939 2.1587 3.8558 9.4649 3.0431 5.225 5.6646 9.5 5.8256 9.5 0.16103 0 1.5277-3.3858 3.0369-7.524zm-83.715-20.532c6.2546-1.0693 11.671-1.9441 12.036-1.9441 0.36509 0 2.6722-2.5875 5.1268-5.75 2.4546-3.1625 6.487-7.9294 8.9607-10.593l4.4977-4.843-3.4739-2.9244c-11.537-9.7119-25.386-16.89-32.588-16.89-4.5637 0-8.7782 4.0733-10.442 10.092-1.581 5.7196-1.577 19.458 8e-3 28.726 1.0388 6.0736 1.528 7.2119 2.8772 6.6941 0.89404-0.34308 6.743-1.4986 12.998-2.5679zm90.217-4.1941c1.5586-9.2269 1.5588-22.966 6.2e-4 -28.658-1.7706-6.4678-5.8092-10.092-11.246-10.092-7.0916 0-19.14 6.4628-32.267 17.308l-2.9686 2.4526 5.6241 6.0747c3.0933 3.3411 7.08 8.1019 8.8593 10.58 2.8141 3.9185 3.8351 4.5885 7.8445 5.1472 3.7624 0.5243 9.2908 1.5919 22.269 4.3004 0.36281 0.07572 1.2107-3.1248 1.8843-7.1123zm-42.083 0.5c-0.0214-0.4125-2.5054-3.45-5.5199-6.75l-5.4809-6-4.513 5c-7.9568 8.8154-8.1244 8.5 4.5176 8.5 6.0694 0 11.018-0.3375 10.996-0.75z" fill="#5dd8fb"/>
<path d="m131.63 206.85c-4.7638-1.5671-10.038-7.326-12.358-13.492-3.5585-9.4606-3.7496-20.654-0.67064-39.29 0.41121-2.4891 0.63375-4.6354 0.49454-4.7696s-1.5813-0.63747-3.2046-1.1183c-7.4925-2.2192-18.161-7.3525-25.793-12.411-12.717-8.4286-17.337-19.382-12.367-29.32 4.746-9.4904 16.677-17.774 35.701-24.786 3.0843-1.1368 5.6045-2.2668 5.6005-2.5112-4e-3 -0.24436-0.54697-3.8089-1.2066-7.9213-3.4443-21.473-0.89218-37.377 7.2016-44.876 3.5156-3.2573 5.5959-3.9184 12.311-3.9126 4.5575 0.0039 6.0533 0.1607 8.6576 0.9074 9.768 2.8007 20.088 8.8271 29.466 17.206 2.2889 2.0452 4.2988 3.7145 4.4665 3.7095 0.16761-5e-3 1.6329-1.1791 3.2562-2.6092 14.996-13.211 28.342-19.813 40.052-19.813 4.5554 0 6.7673 0.70888 10.105 3.2384 4.8038 3.6406 7.5527 8.632 9.3265 16.935 1.6205 7.5853 1.1094 21.135-1.2642 33.517-0.41223 2.1504-0.67913 3.9802-0.5931 4.0662 0.086 0.08603 2.5176 0.93849 5.4036 1.8944 6.3336 2.0978 16.991 7.3149 22.919 11.219 6.7759 4.463 10.717 8.8821 13.939 15.63 1.2921 2.7057 1.4453 3.3604 1.4453 6.1748 0 2.8302-0.15018 3.4628-1.4865 6.2615-3.1108 6.5153-7.3013 11.189-14.019 15.635-5.2017 3.4427-14.688 8.2216-21.752 10.958-4.3202 1.6734-5.4255 2.2566-5.6009 2.9553-0.12016 0.47878 0.12999 3.0064 0.55589 5.617 1.2551 7.693 1.6915 13.962 1.4444 20.75-0.68071 18.704-5.2793 27.1-16.399 29.941-9.552 2.4402-24.191-3.6653-41.432-17.28-3.1997-2.5267-5.8968-4.5941-5.9936-4.5941-0.0968 0-1.5518 1.2602-3.2335 2.8004-8.9219 8.1716-22.379 16.398-30.211 18.467-3.3981 0.898-12.915 1.4267-14.76 0.81992zm11.893-9.4662c4.7914-1.2254 12.293-5.2807 19.985-10.804 3.4762-2.496 9.5462-7.5604 9.7697-8.1512 0.0706-0.18659-2.498-3.3978-5.7079-7.1361-3.2099-3.7383-6.9783-8.1841-8.3742-9.8796-1.3959-1.6955-3.1875-3.4141-3.9815-3.8192-1.5705-0.80123-4.776-1.4832-17.635-3.7515-8.1931-1.4453-8.431-1.465-8.9608-0.74046-0.72699 0.99423-1.1966 2.8346-1.9681 7.7136-0.89967 5.689-0.9046 20.922-8e-3 25.263 2.0893 10.118 7.4592 13.715 16.88 11.305zm82.214 0.1774c6.0486-0.94938 9.4894-10.805 8.8651-25.392-0.34665-8.0997-2.0424-18.707-3.1357-19.614-0.32558-0.2702-2.8327 0.0723-7.9491 1.086-4.1105 0.81436-10.108 1.9016-13.327 2.4161l-5.8532 0.93542-3.8395 4.9319c-2.1118 2.7126-5.6759 6.9402-7.9202 9.3947-4.6616 5.098-6.0313 6.7211-5.8102 6.8853 0.0855 0.0635 1.5721 1.3469 3.3036 2.852 8.7652 7.6194 17.177 12.903 24.407 15.33 4.6534 1.5621 7.139 1.8214 11.259 1.1747zm-42.702-29.032c1.3122-1.3527 3.9634-4.2304 5.8915-6.3948l3.5056-3.9353-10.232-0.11431c-10.855-0.12128-12.79 0.0142-12.79 0.89585 0 1.2296 9.7747 12.008 10.89 12.008 0.19165 0 1.4221-1.1068 2.7344-2.4595zm9.497-20.366c3.0851-0.21066 6.185-0.6236 6.8888-0.91765 1.059-0.44248 2.0024-1.7488 5.4738-7.58 6.263-10.521 12.173-21.284 12.764-23.248 0.65541-2.1778 0.39752-3.5419-1.3262-7.0153-1.6095-3.2433-7.6848-13.793-10.998-19.097-4.4382-7.1061-5.3028-8.2583-6.3714-8.4904-0.56173-0.12202-1.2764-0.30299-1.5882-0.40216-1.3331-0.42402-22.486-0.87131-29.288-0.6193l-7.4243 0.27506-3.5382 5.4691c-4.5377 7.014-8.146 13.33-12.343 21.606l-3.3534 6.6118 3.1019 5.981c4.3102 8.3109 7.0898 13.124 11.957 20.702l4.1928 6.5291 1.9069 0.23332c3.2204 0.39403 24.008 0.36785 29.947-0.0377zm-44.923-2.5162c0.21671-0.56473-8.6796-15.647-10.324-17.502-0.77943-0.87946-0.97697-0.94592-1.3196-0.44399-0.50868 0.74508-4.1822 11.977-4.5386 13.877l-0.26591 1.4174 1.9697 0.58494c1.7008 0.50509 8.0626 1.8518 11.094 2.3484 2.085 0.34158 3.1797 0.25056 3.3838-0.28134zm70.95-0.21029c2.1563-0.41799 5.3701-1.1511 7.1419-1.6292l3.2214-0.86922-0.21278-1.5863c-0.24625-1.836-4.632-15.623-4.9654-15.609-0.44787 0.0184-10.652 18.395-10.652 19.183 0 0.72462 0.43202 1.1482 1.265 1.2402 0.15466 0.0171 2.0454-0.31092 4.2017-0.72892zm-96.993-6.0283c0.31715-0.48699 1.3209-3.0105 2.2305-5.6078 0.90963-2.5973 2.9461-7.9762 4.5256-11.953l2.8717-7.2309-1.5932-3.9846c-1.3218-3.3059-3.9273-10.278-7.2496-19.4-0.32883-0.90282-0.83685-1.8398-1.129-2.0823-1.2387-1.0281-17.231 5.7996-24.023 10.256-3.7631 2.4692-9.9823 8.5345-11.185 10.908-0.47358 0.93467-0.96442 2.5721-1.0908 3.6388-0.7437 6.2794 9.463 15.61 23.885 21.836 3.2489 1.4024 11.318 4.445 11.895 4.4852 0.15734 0.0109 0.54557-0.37855 0.86272-0.86554zm124.39-1.4479c4.8413-1.7537 13.892-6.2131 17.709-8.7249 4.0758-2.6826 8.8271-7.4127 10.238-10.192 1.4577-2.8718 1.5266-5.7293 0.20357-8.4457-2.1411-4.396-9.3682-10.587-17.013-14.574-4.6224-2.4109-13.976-6.2965-16.114-6.6936-2.3688-0.44007-2.8704 0.12078-4.486 5.0155-0.80447 2.4373-2.8652 8.0276-4.5794 12.423l-3.1167 7.9912 2.0635 4.7984c1.1349 2.6391 3.1595 7.9409 4.4991 11.782 1.3396 3.8409 2.7208 7.4188 3.0695 7.9509 0.72738 1.1101 0.85038 1.0884 7.5261-1.3298zm-20.524-40.005c1.8636-4.8898 3.4053-9.8529 3.4053-10.962 0-0.81804-0.35328-1.0157-3.1769-1.7776-3.5349-0.95383-10.595-2.3772-11.791-2.3772-0.47405 0-0.77298 0.26639-0.77279 0.68867 3.9e-4 1.0657 1.9264 4.8849 5.5069 10.92 4.0531 6.8322 4.7379 7.8186 5.1436 7.4089 0.17727-0.179 0.93551-1.9345 1.685-3.9011zm-83.781-3.7115c4.1437-6.9223 6.2778-10.986 5.9446-11.319-0.2821-0.28211-9.6732 1.2423-13.401 2.1753l-2.7547 0.68944-0.11752 1.601c-0.1731 2.3584 3.2126 11.67 4.9719 13.674 0.78971 0.89962 0.55931 1.193 5.3567-6.8213zm-4.36-19.049c3.9244-0.73471 9.526-1.7255 12.448-2.2019 3.3031-0.53847 5.5927-1.1103 6.0531-1.5117 0.40727-0.35514 2.8299-3.2135 5.3836-6.3518 2.5537-3.1384 6.4242-7.6541 8.6011-10.035l3.9581-4.3288-1.636-1.3773c-7.4851-6.3017-14.373-10.959-20.983-14.186-5.9059-2.8836-9.0642-3.9332-12.652-4.2049-2.3711-0.17951-3.0943-0.07754-4.5919 0.64744-3.3352 1.6146-5.9375 5.1882-7.261 9.9714-0.98305 3.5528-0.96122 21.918 0.0329 27.645 1.053 6.0659 1.785 7.9319 2.938 7.4894 0.31557-0.1211 3.7847-0.82129 7.7091-1.556zm94.633 0.5673c0.22491-0.64518 0.8076-3.4343 1.2949-6.198 0.75196-4.2651 0.88924-6.483 0.90774-14.666 0.0134-5.9413-0.15461-10.472-0.43789-11.806-1.1588-5.4561-3.5806-9.3262-6.9653-11.131-2.3197-1.2368-7.67-1.2084-11.266 0.05981-3.2259 1.1377-7.7491 3.3865-12.136 6.0335-3.2823 1.9806-12.451 8.7244-15.515 11.412l-1.4817 1.2995 4.1597 4.5256c2.2878 2.4891 5.5821 6.2964 7.3205 8.4608 1.7384 2.1644 3.774 4.6879 4.5235 5.6078 1.8527 2.2739 3.0074 2.7838 8.3443 3.6846 2.5235 0.42592 7.8643 1.4588 11.868 2.2953 9.08 1.8969 8.8723 1.8876 9.383 0.4224zm-42.341-4.9824c0.81164-0.13416 1.4757-0.44891 1.4757-0.69945 0-0.48272-4.9005-6.2314-8.853-10.385l-2.3625-2.4829-4.7223 5.3242c-7.5793 8.5454-7.6045 8.4978 4.5024 8.4916 4.6662-0.0024 9.1481-0.1141 9.9597-0.24825z" fill="#fff" stroke-width=".39353"/>
<path d="m173.31 132.68c-3.1358-1.29-4.7094-2.3412-6.7169-4.4874-3.843-4.1084-5.2512-7.9092-5.2116-14.066 0.0228-3.5433 0.19366-4.7572 0.94154-6.69 1.8061-4.6674 4.5958-7.6714 9.1517-9.8548 3.5572-1.7047 6.4309-2.286 10.129-2.0489 3.7617 0.24122 6.8729 1.4292 9.9709 3.8073 8.7831 6.7422 9.9448 19.931 2.4864 28.226-4.6021 5.1187-14.693 7.6051-20.751 5.1131z" fill="#fff" stroke-width=".39353"/>
</svg>
