<?xml version="1.0" encoding="UTF-8"?>
<svg width="1200" height="693.33" version="1.1" viewBox="0 0 1200 693.33331" xmlns="http://www.w3.org/2000/svg">
<path d="m370 660.74c-32.867-6.4838-64.406-27.391-83.17-55.132-13.972-20.657-21.26-42.219-22.455-66.436-2.5743-52.154 23.341-99.096 68.01-123.19 48.232-26.016 109.95-19.587 149.29 15.549 2.7521 2.4584 5.6389 4.4699 6.4152 4.4699 1.2676 0 16.178-10.52 71.248-50.267 9.5333-6.8808 18.391-13.386 19.683-14.456 2.1779-1.8035 2.3242-5.5151 2-50.76l-0.34976-48.814-11.333-3.2282c-29.003-8.2612-53.541-25.17-71.376-49.182-35.163-47.344-33.804-113.17 3.2968-159.73 13.283-16.668 26.995-27.381 47.232-36.902 21.277-10.011 27.999-11.343 56.848-11.267 23.397 0.06166 25.25 0.25851 36 3.8243 46.83 15.533 79.238 49.758 90.462 95.533 3.9374 16.057 4.7203 27.956 2.9376 44.646-3.2082 30.036-15.161 55.438-36.497 77.565-15.73 16.313-34.335 27.7-56.247 34.425-6.5941 2.0239-12.739 4.262-13.656 4.9736-2.412 1.8723-2.412 95.528 0 98.535 1.8259 2.2762 81.779 62.303 84.246 63.25 0.83843 0.32174 5.701-2.7492 10.806-6.8244 11.995-9.5754 32.766-19.811 47.948-23.629 10.109-2.5417 15.362-3.0006 33.333-2.912 19.146 0.0944 22.564 0.47428 33.333 3.7048 43.306 12.991 75.437 42.823 89.309 82.919 6.1869 17.883 7.817 29.688 6.986 50.59-1.3972 35.143-12.603 60.308-38.295 86-25.827 25.827-51.042 36.873-87.4 38.288-22.267 0.86614-34.361-1.1105-54.108-8.843-37.747-14.781-65.464-45.845-78.025-87.444-3.2438-10.743-3.6326-14.164-3.712-32.667-0.0988-23.026 1.9586-35.137 8.6673-51.022 2.0957-4.9619 3.4974-9.7619 3.115-10.667-1.0373-2.454-77.435-58.913-80.353-59.382-1.5551-0.25003-17.942 10.616-43.015 28.522-22.276 15.909-41.776 30.074-43.332 31.476l-2.8294 2.5498 3.809 9.8095c8.9418 23.028 10.388 58.799 3.3326 82.425-13.61 45.576-45.42 77.423-90.978 91.083-10.039 3.0103-14.876 3.6182-31.838 4.001-13.357 0.30148-23.1-0.16012-29.333-1.3898zm83.189-62.602c2.7875-1.7958 1.1042-24.804-2.5242-34.502-3.704-9.8997-12.686-19.761-21.626-23.741-6.3366-2.8216-9.3903-3.1851-30.593-3.6419-27.181-0.58564-34.119 0.7363-44.179 8.4172-10.889 8.3144-16.064 19.904-17.38 38.922-0.63932 9.2402-0.41893 12.687 0.89516 14 1.3794 1.3784 13.413 1.742 57.647 1.742 30.747 0 56.739-0.5381 57.76-1.1958zm408.24-0.19972c2.5345-1.5664 0.64298-25.184-2.7415-34.229-3.688-9.857-11.67-18.683-21.073-23.3-7.2712-3.5706-8.6359-3.7618-29.873-4.186-13.199-0.2636-25.202 0.16767-29.5 1.06-14.146 2.9368-24.469 12.407-30.365 27.858-2.2347 5.856-2.8549 10.309-2.7944 20.062 0.0504 8.1284 0.63176 12.878 1.6536 13.51 2.0593 1.2727 112.59 0.52644 114.69-0.77442zm-448.51-77.716c7.224-3.703 14.209-10.953 18.035-18.719 4.5465-9.2279 4.28-24.978-0.58018-34.29-9.9084-18.984-33.052-26.776-51.956-17.493-14.058 6.9034-21.686 19.196-21.686 34.947 0 18.269 10.429 32.188 28.595 38.166 5.9754 1.9662 21.535 0.49415 27.592-2.6104zm407.51-0.0832c23.175-11.306 29.427-41.717 12.525-60.919-11.567-13.14-31.006-17.081-46.608-9.4476-17.402 8.5138-25.894 28.01-20.413 46.864 1.8008 6.1944 3.7948 9.3057 9.8358 15.347 9.3683 9.3683 16.072 12.063 28.897 11.617 6.579-0.22872 11.231-1.2502 15.764-3.4615zm-158.43-326.17c0-13.928-0.23013-15.166-4.3893-23.611-4.5642-9.2668-11.406-16.286-20.084-20.605-7.0299-3.4988-54.495-4.3064-64.173-1.0919-9.2106 3.0593-17.756 11.122-22.933 21.638-3.811 7.7413-4.4088 10.43-4.8696 21.9-0.28886 7.1917-0.17232 13.995 0.25896 15.119 0.69063 1.7997 7.6682 2.002 58.487 1.696l57.703-0.34752zm-40.995-63.833c13.637-6.9778 21.582-19.458 21.632-33.98 0.0379-11.028-1.8685-17.105-7.8102-24.896-7.0368-9.2263-16.633-14.186-28.984-14.978-9.0628-0.58162-10.575-0.28666-18.476 3.6029-14.319 7.0493-22.385 19.58-22.411 34.814-0.0239 14.181 6.6871 25.997 19.387 34.137 10.301 6.6021 25.263 7.1327 36.662 1.3002z" fill="#373985" stroke-width="1.3333"/>
<path d="m379.42 519.68c-8.8457-4.4964-16.134-12.226-19.202-20.364-2.0908-5.5456-2.4706-8.6179-2.0888-16.895 0.39582-8.5815 1.0133-11.091 4.0687-16.536 9.2323-16.453 31.169-23.841 47.962-16.153 8.4081 3.8493 14.942 9.8384 19.248 17.644 3.1342 5.6808 3.4574 7.3094 3.4703 17.485 0.0161 12.745-2.0207 18.21-9.8312 26.378-7.9571 8.3209-13.167 10.546-26.01 11.108-10.541 0.46137-11.855 0.26248-17.616-2.666z" fill="#c7ffd2" stroke-width="1.1812"/>
<path d="m379.38 518.96c-6.3072-3.122-14.53-11.22-17.456-17.189-2.6894-5.4885-3.7526-23.445-1.7784-30.035 2.3219-7.7498 9.7345-15.766 18.627-20.144 15.501-7.631 32.495-4.5502 44.05 7.9857 7.9108 8.5822 9.8323 14.188 9.2333 26.935-0.61442 13.075-2.8335 17.963-11.932 26.278-7.6738 7.0134-12.633 8.685-25.763 8.6838-7.7228-7.3e-4 -11.021-0.55443-14.982-2.5153z" fill="#047dc4" stroke-width="1.1812"/>
<path d="m338.99 597.1c-1.371-0.87586-1.702-3.1822-1.4632-10.196 0.80231-23.576 8.7424-38.261 25.006-46.248 6.5734-3.2282 6.5879-3.2297 33.152-3.2297h26.576l6.6634 3.2723c16.392 8.0501 25.396 26.014 24.407 48.698l-0.36049 8.268-56.104 0.28374c-34.273 0.17333-56.794-0.1567-57.876-0.84813z" fill="#047dc4" stroke-width="1.1812"/>
<path d="m388.01 520.26c-3.2482-0.36305-7.5075-1.5153-9.4653-2.5605-5.7684-3.0798-15.579-14.259-16.998-19.368-1.8535-6.6755-1.6252-24.565 0.37448-29.351 2.2944-5.4913 10.008-12.92 17.485-16.84 5.3964-2.829 7.6005-3.2719 16.281-3.2719 8.5702 0 10.911 0.45755 15.993 3.1259 6.818 3.58 15.295 12.236 17.76 18.135 2.0691 4.952 2.2253 21.501 0.26479 28.045-1.8093 6.0388-11.37 16.536-17.817 19.562-5.4682 2.5666-14.734 3.5459-23.878 2.5238z" fill="#047dc4" stroke-width="1.1812"/>
<path d="m788 520.34c-7.7668-3.6278-18.396-15.108-20.862-22.534-2.7779-8.3633-1.9881-22.184 1.6747-29.306 4.1744-8.1174 11.187-14.88 19.125-18.442 6.3377-2.8442 8.3451-3.1789 16.828-2.8055 11.308 0.49767 18.089 3.3089 25.627 10.624 14.964 14.522 15.019 39.081 0.12057 53.979-7.8546 7.8546-13.228 10.007-26.155 10.477-9.3748 0.34072-12.066 0.013-16.359-1.9921z" fill="#047dc4" stroke-width="1.1812"/>
<path d="m745.83 591.69c-1.781-14.255 2.0909-29.227 10.217-39.507 10.337-13.078 19.264-15.725 51.116-15.159 21.88 0.38909 22.797 0.50403 29.232 3.6642 8.0764 3.9662 16.762 12.973 20.527 21.284 2.7436 6.0574 5.3112 20.192 5.3112 29.24 0 3.3366-0.62659 4.9329-2.2846 5.8203-1.4819 0.79309-21.788 1.2227-57.791 1.2227h-55.507z" fill="#047dc4" stroke-width="1.1812"/>
<path d="m547.5 206.88c-1.985-1.4514-2.1086-2.7629-1.3639-14.469 0.67564-10.62 1.4138-14.15 4.2184-20.172 4.3611-9.3639 11.655-17.239 19.538-21.096 5.5347-2.7079 8.128-3.1227 23.2-3.7107 9.4611-0.36914 22.67-0.0769 29.855 0.66061 11.151 1.1445 13.656 1.8164 18.6 4.9886 6.5776 4.2209 11.093 9.5677 15.86 18.779 3.073 5.9389 3.4004 7.7886 3.8164 21.556l0.45496 15.06h-55.997c-45.173 0-56.419-0.30854-58.18-1.5961z" fill="#047dc4" stroke-width="1.1812"/>
<path d="m596.64 132.79c-12.829-2.5216-25.57-14.166-29.213-26.698-5.4691-18.813 2.6782-36.631 21.036-46.004 12.387-6.3249 31.037-3.0413 41.725 7.3462 7.9092 7.6868 11.618 16.545 11.573 27.641-0.0744 18.32-11.282 32.545-29.29 37.176-7.7322 1.9887-8.348 2.0096-15.83 0.53891z" fill="#ddffc2" stroke-width="1.1812"/>
<path d="m592.66 131.15c-15.313-5.8375-25.767-20.021-25.991-35.262-0.16245-11.055 2.9864-19.018 10.487-26.519 8.5786-8.5786 15.175-11.441 26.439-11.472 7.7092-0.0212 9.9407 0.49606 16.882 3.9133 8.7382 4.3018 15.894 11.935 18.714 19.964 2.5252 7.1887 1.9141 22.352-1.1564 28.696-4.2098 8.6982-9.1798 13.753-17.597 17.897-9.1334 4.4963-20.338 5.6187-27.778 2.7824z" fill="#ddffc2" stroke-width="1.1812"/>
<path d="m569.9 207.28c-12.343-0.38935-22.643-0.81103-22.889-0.93707-0.24586-0.12604-0.21027-5.975 0.0791-12.998 0.45947-11.152 0.98545-13.75 4.1537-20.521 4.5238-9.6672 10.21-16.046 18.298-20.526l6.2643-3.4703 26.576 0.0114c17.721 8e-3 28.192 0.49941 31.425 1.4761 7.602 2.296 15.222 8.9014 20.455 17.731 4.9956 8.4295 5.5187 10.734 6.5631 28.913l0.6616 11.516-34.572-0.24408c-19.015-0.13424-44.671-0.56263-57.014-0.95198z" fill="#ddffc2" stroke-width="1.1812"/>
<path d="m787.88 519.42c-5.8247-2.8685-15.78-13.227-18.894-19.659-2.2812-4.7123-2.5963-6.9584-2.2172-15.805 0.30298-7.0697 1.1645-11.797 2.7401-15.036 3.1802-6.5378 11.856-14.896 18.87-18.18 5.1378-2.4052 7.2075-2.6865 16.536-2.2479 12.378 0.58198 17.398 2.6744 25.093 10.46 7.8901 7.9829 10.314 14.063 10.328 25.913 0.0109 8.7253-0.42148 10.868-3.3023 16.366-4.7008 8.971-12.598 16.264-19.987 18.459-8.2772 2.4581-23.922 2.3136-29.167-0.26932z" fill="#ddffc2" stroke-width="1.1812"/>
<path d="m746.96 596.59c-0.42593-1.11-0.53144-7.4815-0.23446-14.159 0.46391-10.431 1.0533-13.238 4.1849-19.93 4.6674-9.9739 11.712-17.583 19.524-21.089 5.7478-2.5796 7.945-2.7995 31.836-3.1862 25.277-0.40908 25.758-0.37117 32.098 2.5312 12.776 5.8491 21.376 16.779 24.872 31.608 1.8952 8.0405 2.4498 22.992 0.88856 23.957-0.51256 0.31677-26.011 0.96063-56.663 1.4308-51.939 0.79667-55.784 0.71751-56.506-1.1633z" fill="#ddffc2" stroke-width="1.1812"/>
<path d="m338.22 593.82c-1.1744-4.6794 1.3142-22.196 4.2714-30.064 3.1555-8.3961 11.431-17.767 19.404-21.974 5.9631-3.146 6.3432-3.1872 32.884-3.5578l26.852-0.37495 7.128 3.7992c8.8622 4.7235 14.553 10.922 19.257 20.974 3.2288 6.8997 3.698 9.2863 4.1506 21.111l0.51031 13.332h-113.64z" fill="#ddffc2" stroke-width="1.1812"/>
<path d="m388.01 520.26c-3.2482-0.36305-7.5075-1.5153-9.4653-2.5605-5.7684-3.0798-15.579-14.259-16.998-19.368-1.8535-6.6755-1.6252-24.565 0.37448-29.351 2.2944-5.4913 10.008-12.92 17.485-16.84 5.3964-2.829 7.6005-3.2719 16.281-3.2719 8.5702 0 10.911 0.45755 15.993 3.1259 6.818 3.58 15.295 12.236 17.76 18.135 2.0691 4.952 2.2253 21.501 0.26479 28.045-1.8093 6.0388-11.37 16.536-17.817 19.562-5.4682 2.5666-14.734 3.5459-23.878 2.5238z" fill="#c8c8c8" stroke-width="1.1812"/>
<path d="m592.88 131.34c-5.9679-2.2217-14.727-8.497-18.181-13.026-14.654-19.212-8.9551-45.131 12.51-56.902 5.4754-3.0026 7.5763-3.4688 15.766-3.4991 7.7579-0.02865 10.622 0.51501 15.999 3.0374 9.0404 4.2403 14.624 9.4861 18.502 17.383 2.8218 5.7461 3.2955 8.1541 3.2955 16.751 0 8.5965-0.47374 11.004-3.2955 16.751-3.8907 7.9228-9.4975 13.177-18.502 17.338-7.7165 3.5659-19.671 4.5589-26.095 2.1675z" fill="#ffc8c8" stroke-width="1.1812"/>
<path d="m640.27 90.85c0.0567-1.376 0.33656-1.6558 0.71361-0.71361 0.3412 0.85264 0.29924 1.8714-0.0932 2.2639-0.39249 0.39248-0.67165-0.30513-0.62037-1.5503z" fill="#ffc8c8" stroke-width="1.1812"/>
<path d="m603.23 207.28c-30.157-0.43294-54.537-1.2561-55.119-1.861-1.8046-1.8754 0.61691-25.331 3.2214-31.204 3.8506-8.6825 9.3514-15.174 17.14-20.228l7.3332-4.758 28.348 0.40715c26.793 0.38482 28.625 0.55439 33.416 3.0926 7.0973 3.7603 13.791 11.051 17.951 19.553 3.0948 6.3242 3.6627 9.0918 4.4561 21.717 0.79081 12.584 0.67597 14.442-0.88131 14.263-0.98483-0.1133-26.124-0.55533-55.865-0.9823z" fill="#ffc8c8" stroke-width="1.1812"/>
<path d="m787.08 518.1c-5.2437-3.2943-11.963-10.263-15.934-16.525-3.1128-4.9084-3.4018-6.2826-3.3781-16.062 0.0314-12.968 2.0978-18.294 10.123-26.094 8.4042-8.168 12.831-9.9952 24.216-9.9952 12.876 0 17.873 1.701 25.514 8.6847 8.7989 8.0417 11.274 13.282 11.932 25.256 0.47955 8.7377 0.21505 10.378-2.6009 16.134-3.5427 7.241-10.496 14.935-16.292 18.025-2.8604 1.5255-7.3651 2.1891-16.893 2.4884-11.313 0.35536-13.47 0.10813-16.687-1.9126z" fill="#ffc8c8" stroke-width="1.1812"/>
<path d="m747.88 583.19c0.41827-12.477 0.818-14.594 3.9589-20.965 1.9215-3.8978 6.2075-9.8334 9.5243-13.19 8.7745-8.8804 12.798-9.8043 43.092-9.8932 24.126-0.0709 24.645-0.0203 30.573 2.9838 16.194 8.2059 24.797 23.6 24.83 44.426l0.014 8.9716-15.06 0.76806c-8.2828 0.42243-33.586 0.77022-56.229 0.77285l-41.169 5e-3z" fill="#ffc8c8" stroke-width="1.1812"/>
<path d="m384.28 519.02c-5.8522-1.4034-14.765-8.8761-19.509-16.357-3.1432-4.9564-3.3405-6.0321-3.3405-18.22 0-11.666 0.29168-13.451 2.9368-17.964 3.118-5.3205 11.754-12.36 18.749-15.283 6.0384-2.523 20.199-2.2703 26.228 0.46812 6.3593 2.8884 13.149 8.9558 17.256 15.42 3.0879 4.86 3.3364 6.1298 3.3364 17.049 0 9.4793-0.4758 12.781-2.4211 16.799-2.8916 5.9733-11.413 14.128-17.359 16.612-5.3502 2.2354-19.373 3.0348-25.877 1.4751z" fill="#ffc8c8" stroke-width="1.1812"/>
<path d="m339.01 589.1c0.0254-9.8674 2.5314-22.069 5.8812-28.635 3.7809-7.4112 11.307-14.953 18.145-18.183 5.7025-2.6936 7.6704-2.9062 32.265-3.4851l26.192-0.61651 6.8803 4.1399c8.5331 5.1344 10.384 6.7853 14.819 13.214 5.235 7.5895 7.6235 15.904 8.4555 29.432l0.74456 12.107h-113.4z" fill="#ffc832" stroke-width="1.1812"/>
<path d="m589.75 129.31c-7.921-4.0381-15.303-11.315-18.892-18.624-4.3234-8.8043-4.6351-21.475-0.73771-29.989 3.4614-7.5621 11.178-15.614 18.423-19.225 16.295-8.1203 39.58-0.07358 48.108 16.625 2.5242 4.9426 2.9417 7.3528 2.9417 16.981 0 9.6001-0.42091 12.045-2.914 16.926-6.1433 12.027-17.25 18.645-32.52 19.38-7.9088 0.38059-10.258 0.0425-14.41-2.0741z" fill="#ffc8c8" stroke-width="1.1812"/>
<path d="m589.75 129.31c-7.921-4.0381-15.303-11.315-18.892-18.624-4.3234-8.8043-4.6351-21.475-0.73771-29.989 3.4614-7.5621 11.178-15.614 18.423-19.225 17.476-8.7087 43.451 1.7251 49.66 19.948 2.4911 7.311 2.5466 19.842 0.11952 26.965-2.5499 7.4836-9.8949 15.442-17.838 19.328-9.2644 4.5326-23.523 5.2731-30.736 1.596z" fill="#ffc8c8" stroke-width="1.1812"/>
<path d="m575.81 206.04c-14.292-0.44909-26.384-0.88387-26.871-0.96618-1.2921-0.2183-1.0832-9.6445 0.43023-19.412 2.2422-14.471 7.8161-23.29 19.911-31.504l6.8279-4.6367 27.017 0.61673c31.27 0.7138 34.377 1.426 42.734 9.7951 8.2402 8.2515 11.869 16.626 13.219 30.507 0.61695 6.3423 1.1354 12.727 1.1522 14.189l0.0305 2.6576-29.233-0.21497c-16.078-0.11823-40.927-0.58239-55.219-1.0315z" fill="#ffc8c8" stroke-width="1.1812"/>
<path d="m339.58 587.92c0.94714-10.875 3.471-22.766 5.7758-27.213 3.2723-6.3138 11.504-14.326 17.967-17.488 6.356-3.1097 7.2514-3.2142 32.315-3.7709l25.778-0.57259 7.1101 4.3192c15.145 9.2001 20.842 20.058 22.513 42.905l0.80247 10.974h-113.06z" fill="#ffc8c8" stroke-width="1.1812"/>
<path d="m375.6 660.82c-13.88-1.633-31.796-8.0043-45.274-16.101-51.546-30.964-75.436-87.213-61.494-144.79 12.256-50.615 52.81-88.243 104.89-97.322 15.78-2.751 41.263-1.6503 55.947 2.4165 19.851 5.498 34.55 13.083 50.449 26.033 3.6318 2.9582 7.1513 5.3785 7.821 5.3785s3.7052-1.6872 6.7456-3.7494c7.4004-5.0194 68.484-48.862 78.169-56.105l7.6775-5.7421 0.59057-11.79c0.32482-6.4845 0.44363-28.865 0.26404-49.734l-0.32654-37.944-12.076-3.8212c-15.855-5.0172-24.738-9.1202-36.586-16.899-29.831-19.585-50.382-50.243-56.974-84.994-2.2932-12.089-2.2932-35.747 0-47.836 5.0979-26.874 16.802-48.617 37.09-68.904 12.527-12.526 24.273-20.396 42.134-28.229 16.136-7.0768 23.238-8.2399 50.46-8.2637 25.673-0.02251 28.864 0.47584 45.399 7.09 58.925 23.571 92.407 81.974 82.393 143.72-4.3976 27.115-17.03 51.057-37.56 71.186-16.264 15.946-28.762 23.457-53.979 32.439l-13.583 4.8378-0.75767 7.072c-1.0199 9.5194-1.1923 70.744-0.23396 83.056l0.76593 9.84 42.39 31.81c36.098 27.089 42.725 31.63 44.647 30.602 1.2413-0.66434 6.4008-4.181 11.465-7.8149 10.231-7.3406 28.77-16.722 40.485-20.487 11.103-3.5682 27.791-5.1465 45.744-4.3262 18.137 0.8287 31.386 4.421 49.362 13.384 34.777 17.341 58.933 47.247 68.49 84.796 5.0908 20 4.8648 45.951-0.58755 67.458-8.2666 32.607-37.86 67.265-70.94 83.08-15.625 7.4698-36.858 11.859-57.411 11.867-33.582 0.0132-67.231-14.606-91.284-39.66-14.903-15.523-24.025-30.967-31.569-53.444-3.7951-11.307-4.2909-14.253-4.818-28.624-0.80533-21.958 1.056-36.271 6.9498-53.443 2.6331-7.6718 4.5057-14.683 4.1613-15.58-0.65131-1.6973-48.628-38.027-68.684-52.01l-11.499-8.0172-4.2388 2.2569c-10.672 5.682-85.236 59.1-85.236 61.063 0 0.63357 1.5707 5.7329 3.4904 11.332 7.3529 21.445 9.3638 51.232 4.9135 72.781-7.9024 38.264-33.466 71.362-68.993 89.327-23.559 11.913-49.945 16.203-78.786 12.81zm77.269-62.104c1.4945-0.5735 1.8642-2.6414 1.8478-10.335-0.0523-24.532-8.8144-41.16-25.79-48.942-6.288-2.8826-7.9937-3.0875-29.703-3.567-25.046-0.55328-34.251 0.74278-41.758 5.8796-13.357 9.1396-18.656 19.208-20.724 39.374-1.2461 12.151-0.6979 16.781 2.0743 17.518 3.0375 0.8073 111.96 0.87705 114.05 0.073zm405.69-0.0243c2.6934-0.53868 3.9152-1.5733 4.4704-3.7852 1.156-4.6057-1.6021-25.096-4.3759-32.51-3.4102-9.1147-11.338-17.534-20.98-22.28l-7.8709-3.8748h-26.601c-26.303 0-26.675 0.035-33.272 3.1276-9.0868 4.2602-15.761 11.308-20.843 22.01-4.0379 8.5026-4.2633 9.6219-4.3184 21.445-0.032 6.8608 0.32377 13.404 0.79061 14.541 0.79097 1.9262 4.5416 2.067 55.071 2.067 29.822 0 55.89-0.33358 57.929-0.74127zm-445.75-77.832c6.4782-3.1082 15.562-12.439 18.677-19.185 3.712-8.039 3.703-25.606-0.0174-33.666-3.7006-8.0167-13.019-16.667-21.285-19.76-15.781-5.9043-32.872-1.9464-43.954 10.178-7.1813 7.8575-9.529 14.505-9.514 26.94 9e-3 7.7161 0.58564 10.773 3.0224 16.03 3.9846 8.5973 10.157 14.864 18.817 19.107 6.6093 3.2375 7.8431 3.4428 18.308 3.0467 7.9329-0.30025 12.605-1.0889 15.945-2.6915zm408.1-0.40175c10.476-5.3973 17.704-14.422 20.669-25.805 2.3262-8.931 2.2181-12.773-0.61791-21.955-2.8992-9.3866-10.513-18.419-19.35-22.955-8.7059-4.4689-23.343-5.1299-32.998-1.4902-9.339 3.5205-18.524 12.706-22.045 22.045-3.3865 8.9837-2.9642 24.388 0.8689 31.69 3.3605 6.4016 13.89 16.459 20.385 19.471 7.5798 3.5152 25.366 2.9767 33.088-1.0018zm-158.49-326.45c-0.34727-14.051-0.71031-16.34-3.5524-22.404-3.7385-7.9764-12.676-17.937-18.98-21.153-9.1041-4.6446-55.815-6.0178-67.242-1.9769-10.341 3.6567-20.034 13.951-24.903 26.447-2.0865 5.355-3.9632 25.764-2.7965 30.413 0.41006 1.6338 1.6754 3.2136 2.8118 3.5106 1.1364 0.29699 27.487 0.60166 58.557 0.67702l56.491 0.13701zm-41.509-63.625c9.1034-4.3332 17.126-12.934 20.011-21.453 2.8577-8.4378 2.6014-22.509-0.53932-29.609-4.5894-10.375-16.361-20.256-26.824-22.515-8.9368-1.9301-18.721-1.1074-25.615 2.1538-8.4185 3.9826-16.828 12.042-20.173 19.332-3.9183 8.5396-3.6842 24.534 0.48788 33.331 9.6067 20.258 32.424 28.388 52.652 18.76z" fill="#ffffc8" stroke-width="1.1812"/>
<path d="m589.75 129.31c-7.921-4.0381-15.303-11.315-18.892-18.624-4.4307-9.0227-4.6601-22.832-0.51132-30.785 3.9185-7.5119 11.309-14.996 18.197-18.429 15.923-7.9346 38.224-0.6148 47.81 15.693 2.9767 5.0637 3.2398 6.5185 3.2398 17.913 0 11.36-0.26906 12.86-3.203 17.85-6.9097 11.754-17.364 17.74-32.231 18.455-7.9088 0.38059-10.258 0.0425-14.41-2.0741z" fill="#ffc8c8" stroke-width="1.1812"/>
<path d="m790.78 660.6c-28.932-2.2806-56.931-15.598-78.643-37.407-15.546-15.615-25.121-31.328-33.195-54.475l-3.9142-11.221 0.0652-25.395c0.0699-27.195-0.37694-24.237 7.7386-51.233l2.7964-9.3022-5.2094-4.623c-5.5917-4.9622-42.13-32.486-63.04-47.487l-12.765-9.158-5.5424 3.1828c-7.4321 4.268-43.794 29.684-66.076 46.185-11.47 8.4941-18.007 14.097-17.997 15.426 8e-3 1.1475 1.1041 5.5412 2.4349 9.7638 8.6362 27.402 9.8984 57.483 3.4178 81.448-3.1488 11.644-13.651 32.856-21.157 42.732-14.156 18.625-36.413 35.487-57.152 43.297-18.602 7.0055-30.272 8.8138-52.761 8.1754-23.19-0.65837-30.702-2.4618-50.199-12.052-15.972-7.8566-25.465-14.966-39.098-29.281-58.876-61.819-40.528-165.06 36.145-203.38 19.818-9.9055 35.744-13.621 58.389-13.621 32.686 0 55.099 7.3764 81.122 26.698 5.5966 4.1554 11.177 7.5466 12.402 7.5361 2.2085-0.019 19.33-11.903 67.304-46.715l24.919-18.082 0.76422-9.818c0.9792-12.58 0.81809-77.693-0.21095-85.255l-0.78238-5.7491-14.174-4.9667c-23.918-8.3812-38.738-17.394-54.382-33.073-15.646-15.681-26.428-33.836-33.36-56.175-2.9489-9.503-3.1155-11.366-3.1155-34.844 0-23.725 0.14133-25.261 3.2489-35.317 11.877-38.432 38.55-68.416 75.26-84.603 16.381-7.2229 23.604-8.386 51.957-8.3656 22.997 0.01658 24.811 0.18425 34.268 3.1675 47.41 14.956 82.468 53.743 91.47 101.2 2.2932 12.089 2.2932 35.747 0 47.836-4.796 25.282-15.429 45.548-34.103 64.999-16.682 17.376-28.814 25.133-54.252 34.688l-15.892 5.9689-0.71278 4.3102c-0.94079 5.6889-0.92289 86.9 0.0204 92.608 0.69593 4.2105 2.4513 5.7156 34.536 29.612 42.36 31.55 49.135 36.331 51.767 36.529 1.1629 0.0875 7.1234-3.2088 13.246-7.3254 12.827-8.6247 34.083-19.114 44.383-21.901 9.6694-2.6167 41.004-3.7157 53.568-1.8787 25.247 3.6916 52.062 17.654 71.613 37.289 22.532 22.629 35.207 51.301 36.862 83.384 1.2665 24.556-2.7761 45.627-12.286 64.041-15.384 29.786-42.944 54.919-71.532 65.231-17.46 6.2981-38.35 8.9548-58.145 7.3944zm-336.26-71.803c0.68579-18.662-4.1707-32.835-14.52-42.375-10.163-9.3676-13.138-10.133-41.059-10.567-29.024-0.45101-34.739 0.44403-43.67 6.8394-11.545 8.2671-16.724 18.799-18.923 38.484-1.038 9.2883-1.0307 12.891 0.0305 15.22l1.3903 3.0514 58.192-0.30644 58.192-0.30642zm406.61 9.4076c1.8921-1.0126 2.2846-2.5169 2.2846-8.7547 0-9.7952-2.8343-24.427-5.9972-30.961-3.4085-7.0409-11.131-14.484-19.85-19.131l-7.2544-3.8665-28.037 0.37244-28.037 0.37243-6.2464 3.4606c-8.2344 4.562-14.952 12.028-19.545 21.722-3.3341 7.0376-3.7806 9.2486-4.1346 20.475-0.61772 19.591-7.4691 17.534 58.392 17.534 36.44 0 56.942-0.42906 58.425-1.2227zm-451.72-75.712c6.4202-1.6166 16.713-10.542 21.45-18.6 2.985-5.0776 3.2058-6.3888 3.2058-19.036 0-12.66-0.21869-13.955-3.2178-19.057-4.5025-7.6591-13.96-15.795-21.326-18.347-14.885-5.1564-32.059-1.3223-42.584 9.5067-7.9439 8.1737-9.5512 12.399-10.034 26.378-0.37443 10.851-0.12087 12.709 2.5223 18.483 3.5237 7.6968 10.48 14.946 18.193 18.961 4.7417 2.4678 7.3389 2.9528 16.059 2.9989 5.7214 0.0302 12.8-0.54873 15.731-1.2866zm411.65-1.4412c17.584-8.5491 26.778-31.367 19.939-49.485-3.5148-9.3113-10.15-17.309-17.839-21.503-5.4575-2.9768-8.0025-3.5645-17.208-3.9743-15.145-0.6741-21.233 1.4935-30.63 10.906-8.9124 8.9272-11.139 14.734-11.102 28.958 0.0324 12.618 2.1918 17.812 11.118 26.738 9.7229 9.7229 13.96 11.306 29.015 10.839 8.8265-0.27378 13.643-0.9881 16.707-2.4777zm-158.08-325.87c-0.73693-17.995-1.5661-21.318-7.558-30.291-11.034-16.523-16.471-18.39-53.637-18.414l-27.166-0.0176-6.0328 3.1828c-11.488 6.0611-20.791 19.304-22.99 32.729-1.5587 9.5151-1.377 24.165 0.3209 25.862 1.064 1.064 15.908 1.4174 59.537 1.4174h58.119zm-49.336-61.754c12.339-3.1735 23.015-12.459 27.795-24.175 2.6561-6.5101 2.1896-24.138-0.81302-30.719-3.2827-7.1944-12.617-16.267-20.53-19.954-8.864-4.1303-23.769-4.225-32.149-0.20429-7.4693 3.5837-15.605 10.92-19.547 17.626-2.9647 5.0432-3.2295 6.5105-3.2295 17.896 0 10.12 0.45759 13.391 2.4871 17.777 5.0171 10.843 14.252 18.691 25.59 21.744 8.119 2.1867 11.921 2.1882 20.397 8e-3z" fill="#fff" stroke-width="1.1812"/>
<path d="m589.98 129.54c-7.4834-3.563-15.5-11.463-19.127-18.85-4.4307-9.0227-4.6601-22.832-0.51132-30.785 3.9185-7.5119 11.309-14.996 18.197-18.429 15.923-7.9346 38.224-0.6148 47.81 15.693 2.9767 5.0637 3.2398 6.5185 3.2398 17.913 0 11.36-0.26906 12.86-3.203 17.85-6.9221 11.775-17.383 17.756-32.231 18.429-7.4867 0.33949-10.43-0.0387-14.174-1.821z" fill="#ffffc8" stroke-width="1.1812"/>
<path d="m586.95 127.18c-7.2253-4.5822-14.724-13.412-16.958-19.968-2.9383-8.6233-2.4487-19.931 1.178-27.209 4.3008-8.6305 14.358-17.487 22.569-19.874 12.294-3.5741 28.386 1.2785 37.404 11.279 6.5211 7.2321 7.858 11.291 7.858 23.857 0 13.286-2.1711 18.566-10.838 26.358-7.1999 6.4733-14.538 8.8964-26.942 8.8964-7.8533 0-9.6765-0.42677-14.271-3.3405z" fill="#ffffc8" stroke-width="1.1812"/>
<path d="m574.04 206.05c-13.317-0.43983-24.612-0.87294-25.099-0.96248-1.2919-0.23741-1.0833-9.6571 0.43023-19.425 2.2499-14.521 7.8109-23.287 20.043-31.593l6.9593-4.726 27.476 0.76482c31.474 0.87609 33.994 1.4942 42.728 10.481 7.5903 7.8098 11.097 16.013 12.487 29.209 0.63692 6.0462 1.1672 12.455 1.1785 14.241l0.0205 3.2482-31.005-0.21867c-17.053-0.12027-41.901-0.57853-55.219-1.0184z" fill="#ffffc8" stroke-width="1.1812"/>
<path d="m784.66 515.58c-8.1544-5.9968-14.843-15.742-15.838-23.077-2.0937-15.428 1.9046-26.777 12.49-35.451 6.8688-5.6285 10.485-6.7172 22.174-6.6762 12.872 0.0451 18.418 2.4457 26.775 11.589 6.7936 7.4333 8.334 11.832 8.3432 23.822 8e-3 10.435-3.2795 17.878-11.369 25.74-6.5251 6.3417-10.731 7.5733-25.893 7.5817-11.334 6e-3 -12.093-0.15418-16.682-3.5289z" fill="#ffffc8" stroke-width="1.1812"/>
<path d="m748.35 583.9c0.91619-16.641 4.2474-24.987 13.777-34.517 8.5573-8.5573 12.555-9.4344 43.417-9.5274l24.214-0.0729 6.2464 3.4606c13.148 7.2841 20.79 19.494 22.723 36.302 1.8077 15.723 2.0751 14.895-5.0511 15.632-3.4106 0.35252-28.67 0.9762-56.133 1.3859l-49.932 0.745z" fill="#ffffc8" stroke-width="1.1812"/>
<path d="m339.77 592.05c1.3155-11.93 2.8274-20.783 4.5188-26.461 2.2801-7.6539 9.9817-16.423 18.505-21.069 6.2252-3.3938 6.6923-3.4581 32.097-4.4156l25.78-0.97172 6.8632 4.1692c7.3053 4.4378 14.086 11.189 17.109 17.036 2.4865 4.8084 5.0266 16.448 6.0187 27.579l0.81584 9.1539h-112.26z" fill="#ffffc8" stroke-width="1.1812"/>
<path d="m380.92 517.24c-4.7311-2.5871-13.112-10.727-16.312-15.844-2.2559-3.6064-2.5859-5.8033-2.5859-17.213 0-12.313 0.19163-13.368 3.2709-18.022 6.8306-10.322 17.559-15.929 30.392-15.884 10.642 0.037 15.661 1.9285 22.953 8.6505 8.9488 8.2487 10.561 11.809 10.635 23.484 0.0901 14.294-0.9416 17.888-7.101 24.739-8.6777 9.6517-11.931 11.117-25.771 11.605-9.4272 0.33263-12.682 0.0138-15.48-1.5165z" fill="#ffffc8" stroke-width="1.1812"/>
<path d="m586.95 127.18c-7.2253-4.5822-14.724-13.412-16.958-19.968-2.9383-8.6233-2.4487-19.931 1.178-27.209 6.7602-13.566 21.864-22.69 34.988-21.135 12.881 1.5255 26.844 11.154 31.161 21.487 1.042 2.4938 1.6816 8.1655 1.6816 14.911 0 13.286-2.1711 18.566-10.838 26.358-7.1999 6.4733-14.538 8.8964-26.942 8.8964-7.8533 0-9.6765-0.42677-14.271-3.3405z" fill="#0000c8" stroke-width="1.1812"/>
<path d="m595.84 129.39c-6.0217-0.93092-12.073-4.6469-17.687-10.861-12.78-14.146-12.356-35.04 0.97344-47.973 8.0071-7.769 14.085-10.324 24.44-10.276 7.2405 0.03364 9.9605 0.615 14.891 3.1827 8.1573 4.248 12.927 8.4441 16.47 14.491 2.5973 4.4319 2.9714 6.464 2.9982 16.286 0.021 7.6969-0.56618 12.653-1.8694 15.777-3.7824 9.0679-14.621 17.446-24.222 18.724-10.051 1.3377-11.234 1.3857-15.994 0.64983z" fill="#047dc4" stroke-width="1.1812"/>
<path d="m597.28 206.03c-25.868-0.48009-47.395-1.2345-47.836-1.6765-1.1255-1.1263-0.46941-14.1 1.1057-21.866 2.4389-12.025 8.7385-20.951 20.258-28.704l6.1812-4.1602 26.074 0.96796c14.644 0.54364 28.266 1.6247 31.075 2.4662 7.1242 2.1344 14.769 9.3649 19.01 17.98 3.5172 7.1445 5.0002 13.843 6.3918 28.872l0.68356 7.3822-7.9546-0.19426c-4.375-0.10684-29.12-0.58706-54.988-1.0672z" fill="#047dc4" stroke-width="1.1812"/>
<path d="m791.12 518.34c-4.2289-0.73599-14.373-9.9597-18.274-16.616-4.1944-7.1573-5.1133-19.744-2.103-28.808 2.9125-8.7686 13.081-18.969 20.854-20.92 6.9113-1.7343 14.419-1.7711 22.171-0.10858 7.0976 1.5222 17.584 10.327 21.547 18.092 3.4528 6.7649 3.5238 21.55 0.1398 29.112-3.0967 6.9206-9.0484 13.665-14.523 16.458-4.3871 2.2381-22.983 3.9779-29.813 2.7892z" fill="#047dc4" stroke-width="1.1812"/>
<path d="m748.28 593.23c0.25797-2.1113 0.74514-7.9088 1.0826-12.883 0.82733-12.196 4.2611-20.834 11.378-28.621 9.076-9.9306 11.305-10.512 42.594-11.099l26.734-0.50183 6.3385 4.1106c8.1641 5.2946 13.131 10.623 16.769 17.989 4.5926 9.2999 7.5152 28.592 4.7503 31.357-0.94593 0.94594-60.071 2.8451-107.53 3.454-2.2282 0.0286-2.5188-0.49457-2.1143-3.8056z" fill="#047dc4" stroke-width="1.1812"/>
<path d="m379.74 515.74c-4.7502-2.9252-14.514-13.533-15.962-17.342-1.5008-3.9475-1.5122-24.281-0.0158-28.217 1.8358-4.8285 10.314-13.245 16.065-15.948 7.0052-3.2928 17.52-4.3138 25.273-2.4539 4.8797 1.1706 7.7343 2.948 13.705 8.5336 8.5702 8.017 9.9398 11.318 9.9398 23.956 0 12.816-1.5454 16.715-9.8692 24.899-8.2626 8.1234-10.127 8.7662-25.404 8.7596-7.835-3e-3 -11.006-0.50826-13.731-2.1864z" fill="#047dc4" stroke-width="1.1812"/>
<path d="m340.18 593.82c0.01-6.7139 3.6857-25.594 6.0558-31.103 2.9034-6.7491 11.969-15.664 19.166-18.847 4.1164-1.8209 9.7149-2.4436 29.785-3.3128l24.716-1.0705 5.3152 3.0243c2.9233 1.6634 8.0912 5.647 11.484 8.8524 8.4692 8.0015 10.556 14.01 13.922 40.095l0.72402 5.6104h-111.17l5e-3 -3.2482z" fill="#047dc4" stroke-width="1.1812"/>
</svg>
