<?xml version="1.0" encoding="UTF-8"?>
<svg version="1.1" viewBox="0 0 920 558" xmlns="http://www.w3.org/2000/svg">
<path d="m292.6 480.93c-30.035-5.8986-54.643-31.514-59.651-62.095-2.3326-14.244-2.2603-313.59 0.0786-325.92 5.9599-31.427 30.9-55.892 62.202-61.018 13.691-2.2421 310.97-2.2421 324.66 0 28.783 4.7136 52.546 25.658 60.595 53.408 3.7505 12.93 3.7505 329.48 0 342.41-8.0493 27.75-31.813 48.695-60.595 53.408-12.843 2.1032-316.51 1.9314-327.29-0.18513zm216.28-91.332c30.026-6.5131 52.266-23.508 59.599-45.544 8.4188-25.299 3.5038-55.874-11.987-74.566-5.2052-6.2811-23.602-17.353-28.834-17.353-4.5987 0-3.2063-2.9086 2.5298-5.2845 8.2484-3.4166 20.671-16.557 25.206-26.661 14.089-31.396 1.5532-68.501-27.842-82.407-17.155-8.1155-20.879-8.4623-99.263-9.2454l-74.711-0.74635v131.79c0 72.482 0.41256 132.2 0.9168 132.7 0.50426 0.50424 32.551 0.73552 71.215 0.51396 56.715-0.32501 72.786-0.94237 83.17-3.1949zm-108.12-75.257v-41.234l45.875 0.0105c25.338 5e-3 48.705 0.7959 52.197 1.7659 9.6892 2.6914 17.698 8.9222 22.513 17.516 3.6191 6.4584 4.3513 10.046 4.2658 20.904-0.15274 19.389-7.0978 31.003-22.64 37.858-5.9466 2.6229-13.94 3.1711-54.589 3.7441l-47.623 0.67123v-41.234zm-2e-3 -111.58 2e-3 -36.263h41.626c46.161 0 55.594 1.4867 63.501 10.008 11.663 12.57 11.269 37.948-0.79001 50.864-8.8039 9.4291-11.085 9.8435-59.338 10.78l-45.003 0.87381 2e-3 -36.263z" fill="#543b7a" stroke-width="1.7476"/>
<path d="m355.7 371.43c-0.9144-10.818-1.6626-69.989-1.6626-131.49v-111.82l68.188 1.4305c86.356 1.8117 90.925 2.3055 107.17 11.581 24.55 14.021 35.652 41.708 27.682 69.036-3.4462 11.817-6.8271 16.803-18.86 27.816-8.0638 7.3802-13.514 13.817-12.112 14.305 1.402 0.48753 8.3251 4.1988 15.385 8.2474 9.5575 5.481 14.766 10.845 20.393 21.005 6.8095 12.294 7.5562 15.913 7.5474 36.585-0.0105 25.411-2.7326 32.939-17.105 47.312-4.5881 4.5881-15.806 11.879-24.928 16.202l-16.586 7.8603-76.722 0.80281-76.722 0.80282zm151.28-21.332c12.929-6.4293 19.031-18.424 19.079-37.504 0.0302-12.073-1.2135-17.434-5.3252-22.957-10.985-14.755-16.407-16.124-70.825-17.874l-49.99-1.6082v87.359l49.07-1.4897c39.351-1.1947 50.837-2.3684 57.992-5.9263zm-7.6252-116.11c13.879-7.1773 20.001-35.708 11.28-52.572-6.6496-12.859-15.949-14.967-66.025-14.967h-44.691v74.7l46.249-1.7864c31.687-1.224 48.434-2.916 53.187-5.3741z" fill="#047dc4" stroke-width="2.5491"/>
<path d="m402.47 202.53v-36.088l15.932 0.20772c8.7625 0.1143 30.12 1.0219 47.461 2.0169 31.382 1.8008 31.564 1.8475 38.874 10.029 6.1148 6.8436 7.3426 10.453 7.3347 21.562-0.0105 15.65-6.7896 28.746-16.861 32.575-3.6694 1.3951-26.037 3.2677-49.706 4.1613l-43.034 1.6248z" fill="#047dc4" stroke-width="2.5491"/>
<path d="m402.47 314.08v-41.325l48.311 1.3676c54.62 1.5462 61.843 3.7551 70.258 21.489 5.3675 11.311 3.7132 31.918-3.3386 41.586-9.0328 12.385-18.565 14.675-68.71 16.507l-46.521 1.7z" fill="#047dc4" stroke-width="2.5491"/>
<path d="m354.04 480.17c-64.096-1.3875-68.169-1.767-79.652-7.4218-13.122-6.4623-27.004-21-34.12-35.731-6.9151-14.316-9.1183-76.017-7.8412-219.6 1.1014-123.82 1.2296-126.44 6.8367-139.47 7.0975-16.499 25.27-33.915 42.199-40.444 12.021-4.636 21.14-4.8877 177.09-4.8877h164.42l14.24 6.6781c17.368 8.1448 30.21 20.572 38.252 37.017l6.0561 12.384-0.0727 166.96-0.0727 166.96-5.9685 13.458c-7.471 16.845-26.616 34.534-42.951 39.683-14.154 4.4618-165.26 6.8507-278.41 4.4014zm171.98-94.311c19.08-7.6183 39.686-27.483 44.137-42.549 6.8507-23.186 1.5826-57.03-11.251-72.282-3.6182-4.3-11.666-10.8-17.885-14.444l-11.307-6.6261 10.389-8.8923c15.504-13.271 21.374-26.414 21.374-47.855 0-20.358-5.2294-32.978-19.223-46.392-17.691-16.958-22.627-17.72-127.68-19.699l-63.09-1.1885v110.36c0 60.697 0.75053 120.93 1.6678 133.85l1.6679 23.497 77.991-0.8528c75.19-0.82215 78.537-1.071 93.206-6.9281z" fill="#fff" stroke-width="2.5491"/>
<path d="m402.58 202.37v-35.747l25.89 1.0107c65.808 2.5691 70.029 3.3719 78.1 14.856 3.3837 4.8144 4.158 7.5273 4.351 15.245 0.46149 18.448-6.9761 32.378-18.637 34.906-5.2166 1.1308-38.832 3.2908-76.212 4.8972l-13.492 0.57979z" fill="#fff" stroke-width="1.4586"/>
<path d="m402.58 314.12v-40.89l30.995 0.94266c35.249 1.072 60.581 2.9987 68.509 5.2107 7.082 1.9759 13.623 7.593 17.556 15.077 2.5098 4.7753 3.1699 8.5718 3.2015 18.414 0.0463 14.408-3.5827 23.888-11.438 29.879-9.2661 7.0676-17.874 8.1292-93.874 11.578l-14.951 0.67847z" fill="#fff" stroke-width="1.4586"/>
</svg>
