<?xml version="1.0" encoding="UTF-8"?>
<svg version="1.1" viewBox="0 0 225 225" xmlns="http://www.w3.org/2000/svg">
<path d="m87.923 170.01c-12.321-3.5414-22.532-6.5686-22.69-6.727-0.23036-0.23035-10.342-112.03-10.373-114.69-0.005566-0.48484 19.391-0.73074 57.64-0.73074 38.249 0 57.646 0.2459 57.64 0.73074-0.0302 2.6332-10.142 114.45-10.37 114.68-0.67082 0.67082-46.251 13.303-47.771 13.239-0.92102-0.0387-11.755-2.9678-24.076-6.5093zm51.146-28.863c0.3852-0.37546 4.2776-59.305 4.2567-64.445l-7e-3 -1.6316h-62.091l0.25542 4.5321c0.14048 2.4927 0.42082 5.5926 0.62298 6.8888l0.36756 2.3567h46.343l-7e-3 2.7193c-4e-3 1.4956-0.21207 4.4324-0.46357 6.5262l-0.45705 3.807h-30.978v3.5245c0 1.9385 0.20751 5.0384 0.46113 6.8888l0.46113 3.3643h29.541l-0.4588 7.4327c-0.25234 4.088-0.66187 7.6352-0.91006 7.8828-0.2482 0.24761-3.3881 1.419-6.9775 2.603l-6.5262 2.1528-6.8888-2.2976-6.8888-2.2976-0.36257-4.1821-0.36257-4.1821-6.5262 1e-3c-4.8914 1e-3 -6.571 0.24567-6.7048 0.97608-0.09818 0.536 0.06497 4.7007 0.36257 9.255l0.54108 8.2805 13.415 4.4723 13.415 4.4723 13.052-4.3246c7.1789-2.3785 13.261-4.5278 13.516-4.7762z" fill="#0075bb" stroke-width=".72514"/>
<path d="m105.55 174.78c-6.3332-1.7052-24.61-6.9223-34.074-9.7266l-6.14-1.8193-0.33219-3.3799c-1.2677-12.898-7.971-86.931-9.4668-104.55-0.29844-3.5161-0.43729-6.4989-0.30855-6.6286 0.88462-0.89118 113.66-0.89118 114.54 0 0.12874 0.1297-0.0103 3.1126-0.30896 6.6286-1.4794 17.416-8.2413 92.101-9.466 104.55l-0.33231 3.3784-4.1945 1.2648c-13.904 4.1926-42.198 11.873-43.599 11.835-0.34104-9e-3 -3.1842-0.70716-6.318-1.5509zm18.795-28.3c14.811-4.9943 14.627-4.9233 14.873-5.7468 0.10768-0.36152 0.33239-2.5335 0.49937-4.8265 1.698-23.317 3.3092-48.623 3.5438-55.659l0.17843-5.3505h-62.415l0.1836 2.71c0.27308 4.0307 0.73078 8.9538 0.94967 10.215l0.19301 1.1118 23.135 0.07108 23.135 0.07109-3e-3 2.5694c-1e-3 1.4132-0.1867 4.1954-0.4115 6.1828s-0.41116 3.7071-0.41414 3.8218c-3e-3 0.11465-7.0272 0.20846-15.609 0.20846h-15.604l0.19607 4.2387c0.18033 3.8986 0.52401 7.4835 0.866 9.0333l0.138 0.62539h14.726c11.597 0 14.726 0.0738 14.724 0.34743-1e-3 0.19109-0.18779 2.9671-0.41446 6.1688-0.38607 5.4535-0.563 7.1346-0.86941 8.2607-0.13035 0.47903-3.8485 1.9442-10.186 4.014l-3.2729 1.0689-6.5943-2.1807c-3.6269-1.1994-6.6924-2.27-6.8123-2.3792-0.11988-0.10921-0.34727-1.7515-0.5053-3.6495-0.15803-1.898-0.34635-3.7427-0.41848-4.0993l-0.13115-0.64836-6.1733 0.10636c-3.3953 0.0585-6.3922 0.2073-6.6597 0.33067-0.41156 0.18979-0.48624 0.6154-0.4853 2.7656 0.0011 2.397 0.76026 15.503 0.90457 15.616 0.03692 0.0287 6.0708 2.0607 13.409 4.5155 7.3379 2.4548 13.356 4.4732 13.375 4.4852 0.0183 0.012 5.3966-1.7866 11.952-3.997z" fill="#fff" stroke-width=".27795"/>
</svg>
