<?xml version="1.0" encoding="UTF-8"?>
<svg version="1.1" viewBox="0 0 920 512" xmlns="http://www.w3.org/2000/svg">
<path d="m455.1 510.79c-1.322-0.70904-3.347-2.5587-4.5-4.1104-1.9977-2.6884-2.111-4.1952-2.4065-32-0.17054-16.048-0.0182-31.173 0.33848-33.61 0.94116-6.4308 5.0963-10.069 11.5-10.069 3.9974 0 5.3177 0.5004 7.7572 2.9399 1.6169 1.617 3.2266 4.3732 3.5769 6.125 0.35036 1.7518 0.63702 16.193 0.63702 32.092 0 30.544-0.34488 33.224-4.7844 37.178-2.6405 2.3513-9.0196 3.1169-12.119 1.4544zm-57.827-23.272c-1.7767-0.77236-4.1375-2.8922-5.2463-4.7109-1.9086-3.1305-2.016-4.9836-2.016-34.807 0-29.482 0.12505-31.705 1.952-34.701 4.2588-6.9846 12.742-7.9701 18.212-2.1154l2.8289 3.0283v33.672c0 37.339 0.0666 36.937-6.5986 39.722-4.079 1.7043-5.0295 1.6951-9.1317-0.0882zm116.11 0.0457c-6.424-2.7959-6.3783-2.5118-6.3783-39.651 0-32.421 0.0745-33.737 2.0536-36.253 1.1295-1.4359 3.7386-3.1156 5.7981-3.7326 4.9411-1.4804 10.328 0.68053 13.123 5.2635 1.9114 3.1351 2.0182 4.9758 2.0182 34.81s-0.10671 31.675-2.0182 34.81c-1.8624 3.0546-7.1469 6.2436-10.192 6.1507-0.70517-0.0215-2.6869-0.65053-4.4038-1.3978zm-181.88-92.581c-16.19-2.2147-25.837-8.8098-31.814-21.749l-2.1864-4.7333-0.30824-102.5c-0.21094-70.144 0.0429-105.97 0.80419-113.5 4.1442-40.979 21.445-77.089 50.636-105.69 14.321-14.031 25.358-21.956 42.317-30.387 31.39-15.606 66.395-20.063 101.59-12.936 62.628 12.681 112.94 62.178 126.49 124.43 3.8361 17.634 4.0976 27.017 3.7792 135.58l-0.30798 105-2.7159 5.5c-3.938 7.9749-7.863 12.237-14.459 15.699-7.4614 3.9171-14.908 5.6452-24.325 5.6452-14.086 0-23.783-3.5387-37.116-13.544-9.4665-7.1041-15.227-9.3336-23.884-9.2435-7.8439 0.0816-14.975 2.8271-22.066 8.4955-8.6096 6.8822-11.356 8.4355-20.11 11.372-15.803 5.3013-36.497 2.6232-48.876-6.3252-13.891-10.042-15.755-11.122-21.866-12.673-10.719-2.7199-20.443-0.13927-30.776 8.1679-13.627 10.955-29.004 15.549-44.805 13.388zm21.5-25.717c2.475-1.2232 6.975-4.2716 10-6.7742 11.418-9.446 25.859-14.225 39.896-13.204 13.671 0.99471 22.479 4.8343 37.104 16.175 6.5014 5.0414 12.582 6.8181 21.818 6.3751 8.9695-0.43019 13.934-2.5217 22.182-9.3457 11.418-9.446 25.859-14.225 39.896-13.204 13.668 0.99442 22.434 4.8144 37.104 16.168 6.0252 4.6631 11.909 6.5446 20.466 6.5446 9.6968 0 15.49-2.8343 17.333-8.4805 1.0432-3.195 1.2239-25 0.9156-110.5-0.42584-118.1-0.12543-112.52-7.1989-133.67-22.922-68.541-94.038-108.74-163.34-92.324-50.412 11.941-92.162 54.775-104.71 107.43-4.1741 17.514-4.4683 25.987-4.4683 128.68 0 109.97-0.4462 103.36 7.2124 106.92 6.0108 2.797 19.353 2.3864 25.788-0.79361zm100.82-102.66c-6.4716-1.7426-11.149-5.6156-14.217-11.773-2.4945-5.0059-2.6034-5.9281-2.6034-22.06 0-18.693 0.69281-21.733 6.3007-27.644 8.5455-9.007 22.744-9.5902 31.926-1.3113 6.9354 6.2529 7.7258 9.1832 7.751 28.737 0.0212 16.441-0.0727 17.244-2.6131 22.342-3.1719 6.3651-8.5502 10.55-15.465 12.033-5.8524 1.2551-5.1418 1.2758-11.08-0.32299zm14.486-14.623c1.5438-1.7276 2.6329-3.663 2.4203-4.3008-0.2126-0.63779-2.578-1.7786-5.2564-2.5351-3.9142-1.1055-5.9066-1.1434-10.153-0.19306-2.9059 0.65031-5.5704 1.6468-5.9212 2.2143-0.83142 1.3453 2.6317 5.9757 5.7001 7.6214 3.9279 2.1067 9.9663 0.82375 13.21-2.8068zm-64.307-79.577c-8.4385-3.6551-13.407-11.584-13.463-21.484-0.0316-5.614 0.40669-7.2961 2.9894-11.474 1.8759-3.0342 4.8874-6.0457 7.9216-7.9216 4.2595-2.6334 5.8143-3.023 11.974-3 7.8839 0.0294 11.384 1.4334 16.615 6.6642 4.4355 4.4355 6.2715 9.1972 6.2887 16.309 0.0228 9.4483-5.1429 17.438-13.543 20.947-4.6922 1.9601-14.21 1.9392-18.782-0.0412zm93 0c-7.0058-3.0346-12.09-9.877-13.462-18.119-1.4699-8.8278 4.1473-19.487 12.562-23.839 4.1897-2.1666 11.635-2.8701 16.496-1.5589 20.78 5.6056 22.953 35.301 3.1862 43.558-4.6922 1.9601-14.21 1.9392-18.782-0.0412z" fill="#010101"/>
</svg>
